<?xml version="1.0" encoding="UTF-8"?><svg id="a" xmlns="http://www.w3.org/2000/svg" xmlns:xlink="http://www.w3.org/1999/xlink" viewBox="0 0 673 472"><defs><clipPath id="b"><rect x="168.02" y="74.8" width="338.06" height="334" fill="none"/></clipPath></defs><rect width="673" height="472" fill="#006bb6"/><g clip-path="url(#b)" fill="none"><path d="m337.05,130.44c-14.27,0-25.88-11.61-25.88-25.88s11.61-25.88,25.88-25.88,25.87,11.61,25.87,25.88-11.61,25.88-25.87,25.88Zm-143.14,84.78h286.28m-9.15-26.56l31.15,26.56-31.15,26.56m-267.98,0l-31.15-26.56,31.15-26.56m32.77,127.78l202.43-202.43m-25.25-12.31l40.81-3.25-3.25,40.81m-189.49,189.49l-40.81,3.25,3.25-40.81m12.31-177.18l202.43,202.43m12.31-25.25l3.25,40.81-40.81-3.25m-189.49-189.49l-3.25-40.81,40.81,3.25" fill="none" stroke="#fff" stroke-linecap="round" stroke-linejoin="round" stroke-width="4.41"/><path d="m403.56,180.71l-5.84,79.56c-.82,9.47-13.63,17.71-23.92,19.24-.46.07-.91.13-1.35.16l-7.84,105.99c-.3,4.18-3.86,7.57-7.92,7.57h-39.3c-4.06,0-7.61-3.4-7.92-7.57l-7.84-106c-.43-.04-.88-.09-1.35-.16-10.28-1.52-23.08-9.77-23.92-19.19l-5.82-78.22c-.03-.65-.02-1.1-.01-1.35,0-15.59,12.28-28.55,27.37-28.92h78.22c15.17.37,27.45,13.33,27.45,28.89" fill="#006bb6"/><path d="m403.56,180.71l-5.84,79.56c-.82,9.47-13.63,17.71-23.92,19.24-.46.07-.91.13-1.35.16l-7.84,105.99c-.3,4.18-3.86,7.57-7.92,7.57h-39.3c-4.06,0-7.61-3.4-7.92-7.57l-7.84-106c-.43-.04-.88-.09-1.35-.16-10.28-1.52-23.08-9.77-23.92-19.19l-5.82-78.22c-.03-.65-.02-1.1-.01-1.35,0-15.59,12.28-28.55,27.37-28.92h78.22c15.17.37,27.45,13.33,27.45,28.89Z" fill="none" stroke="#006bb6" stroke-linecap="round" stroke-linejoin="round" stroke-width="17.64"/><path d="m372.46,279.67l6.54-88.38m-77.37,88.38l-6.54-88.38m41.93,80.95v117.66m66.54-209.19l-5.84,79.56c-.82,9.47-13.63,17.71-23.92,19.24-.46.07-.91.13-1.35.16l-7.84,105.99c-.3,4.18-3.86,7.57-7.92,7.57h-39.3c-4.06,0-7.61-3.4-7.92-7.57l-7.84-106c-.43-.04-.88-.09-1.35-.16-10.28-1.52-23.08-9.77-23.92-19.19l-5.82-78.22c-.03-.65-.02-1.1-.01-1.35,0-15.59,12.28-28.55,27.37-28.92h78.22c15.17.37,27.45,13.33,27.45,28.89Z" fill="none" stroke="#fff" stroke-linecap="round" stroke-linejoin="round" stroke-width="4.41"/></g></svg>