<?xml version="1.0" encoding="UTF-8"?><svg xmlns="http://www.w3.org/2000/svg" viewBox="0 0 668.66 167.16"><g id="a"><polygon points="0 14 1.01 166.24 587.21 166.24 668.66 14.5 0 14" fill="#4c4d4f"/></g><g id="b"><polygon points="0 0 1 152.24 581.09 152.24 661.69 .5 0 0" fill="#006bb6"/></g><g id="c"><g><path d="M21.83,118.89l1.73-5.66c2.16,1.82,5.28,3.84,9.07,3.84,2.35,0,4.18-.91,4.18-2.93,0-1.87-1.25-2.64-5.38-3.6-6.58-1.54-8.83-5.04-8.83-9.31,0-5.23,4.13-8.64,10.56-8.64,3.79,0,7.2,1.34,9.46,2.93l-1.58,5.18c-2.16-1.34-5.18-2.5-7.97-2.5-2.06,0-3.36,.86-3.36,2.3,0,1.34,.86,2.16,4.13,2.93,7.2,1.68,10.13,4.7,10.13,9.89,0,6.77-5.47,9.31-11.33,9.31-4.94,0-8.54-1.87-10.8-3.75Z" fill="#fff"/><path d="M57.06,93.25h6.58l12.1,28.8h-7.73l-2.45-6.14h-10.66l-2.4,6.14h-7.54l12.1-28.8Zm6.62,17.62l-3.46-9.07-3.46,9.07h6.91Z" fill="#fff"/><path d="M72.33,93.25h8.02l7.34,18.43,7.3-18.43h7.82l-12.1,28.8h-6.29l-12.1-28.8Z" fill="#fff"/><path d="M106.26,93.25h20.02v5.86h-12.24v4.85h9.84v5.81h-9.84v6.43h12.24v5.86h-20.02v-28.8Z" fill="#fff"/></g><g><path d="M362.14,48.27c0-6.44,5.22-11.1,11.66-11.1s11.59,4.66,11.59,11.1-5.18,11.1-11.59,11.1-11.66-4.66-11.66-11.1Zm17.22,0c0-4.03-2.07-6.65-5.57-6.65s-5.64,2.63-5.64,6.65,2.1,6.65,5.64,6.65,5.57-2.62,5.57-6.65Z" fill="#fff"/><path d="M388.95,37.77h4.31l9.52,12.08v-12.08h5.01v21h-4.31l-9.52-12.08v12.08h-5.01v-21Z" fill="#fff"/><path d="M362.43,107.87c0-8.34,6.45-13.46,13.89-13.46,3.53,0,6.92,.95,9.07,2.58v5.93c-2.06-1.76-4.82-3.01-7.91-3.01-4.34,0-7.65,2.79-7.65,7.96s3.31,7.95,7.65,7.95c3.1,0,5.85-1.25,7.91-3.01v5.93c-2.15,1.63-5.55,2.58-9.07,2.58-7.44,0-13.89-5.12-13.89-13.46Z" fill="#fff"/><path d="M389.95,94.97h6.97v9.25h10.19v-9.25h6.97v25.8h-6.97v-10.66h-10.19v10.66h-6.97v-25.8Z" fill="#fff"/><path d="M419.66,94.97h17.93v5.25h-10.96v4.34h8.81v5.2h-8.81v5.76h10.96v5.25h-17.93v-25.8Z" fill="#fff"/><path d="M442.41,94.97h7.78l7.01,16.38,7.01-16.38h7.61v25.8h-6.15v-14.06c0-.6,.13-2.58,.17-2.75l-.95,2.75-5.8,14.06h-4.13l-5.8-14.06c-.26-.6-.86-2.45-.95-2.75,0,.17,.17,2.15,.17,2.75v14.06h-5.98v-25.8Z" fill="#fff"/><path d="M477.45,94.97h6.97v25.8h-6.97v-25.8Z" fill="#fff"/><path d="M488.76,107.87c0-8.34,6.45-13.46,13.89-13.46,3.53,0,6.92,.95,9.07,2.58v5.93c-2.06-1.76-4.82-3.01-7.91-3.01-4.34,0-7.65,2.79-7.65,7.96s3.31,7.95,7.65,7.95c3.1,0,5.85-1.25,7.91-3.01v5.93c-2.15,1.63-5.55,2.58-9.07,2.58-7.44,0-13.89-5.12-13.89-13.46Z" fill="#fff"/><path d="M524.62,94.97h5.89l10.83,25.8h-6.92l-2.19-5.5h-9.55l-2.15,5.5h-6.75l10.84-25.8Zm5.93,15.78l-3.1-8.13-3.1,8.13h6.19Z" fill="#fff"/><path d="M544.49,94.97h6.97v20.55h10.96v5.25h-17.93v-25.8Z" fill="#fff"/><path d="M564.49,117.94l1.55-5.07c1.94,1.63,4.73,3.44,8.13,3.44,2.11,0,3.74-.82,3.74-2.62,0-1.68-1.12-2.37-4.82-3.22-5.89-1.38-7.91-4.52-7.91-8.34,0-4.69,3.7-7.74,9.46-7.74,3.4,0,6.45,1.2,8.47,2.62l-1.42,4.64c-1.93-1.2-4.64-2.24-7.14-2.24-1.85,0-3.01,.77-3.01,2.06,0,1.2,.77,1.93,3.7,2.62,6.45,1.5,9.07,4.21,9.07,8.86,0,6.06-4.9,8.34-10.15,8.34-4.43,0-7.65-1.68-9.67-3.35Z" fill="#fff"/></g><g><path d="M144.28,113.83v-15.5c6.05,5.8,13.48,9.2,21.04,9.2,8.32,0,13.99-4.54,13.99-12.22,0-6.93-4.28-10.71-11.09-10.71-4.28,0-7.06,2.14-9.07,3.65l-7.94-9.2,20.67-19.53h-27.34v-15.37h53.17v9.07l-19.91,18.77c11.84,1.39,21.17,9.58,21.17,23.69,0,16.51-13.86,26.21-30.12,26.21-10.21,0-19.41-3.4-24.57-8.07Z" fill="#fff"/><path d="M208.91,113.83v-15.5c5.92,5.67,13.48,9.2,21.04,9.2,8.32,0,13.48-4.66,13.48-11.97,0-6.93-4.66-10.58-11.84-10.58-5.54,0-9.2,1.89-11.59,6.05l-8.44-3.53V44.15h48.64v15.37h-33.01v13.99c2.02-1.39,5.67-2.9,11.34-2.9,14.87,0,24.7,9.58,24.7,24.45,0,17.14-13.48,26.84-29.74,26.84-10.21,0-19.41-3.4-24.57-8.07Z" fill="#fff"/><path d="M272.67,61.04c0-10.33,7.43-18.77,18.52-18.77s18.52,8.44,18.52,18.77-7.43,18.9-18.52,18.9-18.52-8.44-18.52-18.9Zm24.95,0c0-7.18-2.39-9.83-6.43-9.83s-6.43,2.65-6.43,9.83,2.39,9.95,6.43,9.95,6.43-2.65,6.43-9.95Zm-12.6,58.22l48.39-77.37,5.42,2.77-48.39,77.37-5.42-2.77Zm28.98-16.89c0-10.33,7.43-18.77,18.52-18.77s18.52,8.44,18.52,18.77-7.43,18.9-18.52,18.9-18.52-8.44-18.52-18.9Zm24.95,0c0-7.18-2.39-9.83-6.43-9.83s-6.43,2.65-6.43,9.83,2.39,9.96,6.43,9.96,6.43-2.65,6.43-9.96Z" fill="#fff"/></g></g></svg>