<?xml version="1.0" encoding="UTF-8"?><svg xmlns="http://www.w3.org/2000/svg" viewBox="0 0 661.69 166.24"><g id="a"><polygon points="0 14 1 166.24 581.09 166.24 661.69 14.5 0 14" fill="#4c4d4f"/></g><g id="b"><polygon points="0 0 1 152.24 581.09 152.24 661.69 .5 0 0" fill="#006bb6"/></g><g id="c"><g><path d="M57.33,119.36l2.41-7.91c3.02,2.55,7.37,5.36,12.66,5.36,3.28,0,5.83-1.27,5.83-4.09,0-2.61-1.74-3.68-7.5-5.02-9.18-2.14-12.33-7.04-12.33-13,0-7.3,5.76-12.06,14.74-12.06,5.29,0,10.05,1.88,13.2,4.09l-2.21,7.24c-3.02-1.88-7.24-3.48-11.12-3.48-2.88,0-4.69,1.21-4.69,3.22,0,1.88,1.21,3.02,5.76,4.09,10.05,2.35,14.14,6.57,14.14,13.8,0,9.45-7.64,13-15.81,13-6.9,0-11.93-2.61-15.08-5.23Z" fill="#fff"/><path d="M106.51,83.58h9.18l16.88,40.2h-10.79l-3.42-8.58h-14.87l-3.35,8.58h-10.52l16.88-40.2Zm9.25,24.59l-4.82-12.66-4.82,12.66h9.65Z" fill="#fff"/><path d="M127.81,83.58h11.19l10.25,25.73,10.18-25.73h10.92l-16.88,40.2h-8.78l-16.88-40.2Z" fill="#fff"/><path d="M175.18,83.58h27.94v8.17h-17.08v6.77h13.73v8.11h-13.73v8.98h17.08v8.17h-27.94v-40.2Z" fill="#fff"/></g></g><g id="d"><g><path d="M293.33,98.83h-42.77v-12.56l45-60.9h22.58v56.28h17.33v17.17h-17.33v21.94h-24.8v-21.94Zm0-17.17v-27.82l-20.35,27.82h20.35Z" fill="#fff"/><path d="M347.07,72.75c0-31.8,17.81-50.56,41.82-50.56s41.82,18.76,41.82,50.56-17.97,50.72-41.82,50.72-41.82-18.76-41.82-50.72Zm57.72,0c0-22.42-5.56-31.32-15.9-31.32s-15.9,8.9-15.9,31.32,5.56,31.48,15.9,31.48,15.9-8.9,15.9-31.48Z" fill="#fff"/><path d="M443.42,46.67c0-13.04,9.38-23.69,23.37-23.69s23.37,10.65,23.37,23.69-9.38,23.85-23.37,23.85-23.37-10.65-23.37-23.85Zm31.48,0c0-9.06-3.02-12.4-8.11-12.4s-8.11,3.34-8.11,12.4,3.02,12.56,8.11,12.56,8.11-3.34,8.11-12.56Zm-15.9,73.46l61.05-97.62,6.84,3.5-61.05,97.62-6.84-3.5Zm36.57-21.31c0-13.04,9.38-23.69,23.37-23.69s23.37,10.65,23.37,23.69-9.38,23.85-23.37,23.85-23.37-10.65-23.37-23.85Zm31.48,0c0-9.06-3.02-12.4-8.11-12.4s-8.11,3.34-8.11,12.4,3.02,12.56,8.11,12.56,8.11-3.34,8.11-12.56Z" fill="#fff"/></g></g></svg>