<?xml version="1.0" encoding="UTF-8"?><svg xmlns="http://www.w3.org/2000/svg" viewBox="0 0 594.53 166.24"><g id="a"><polygon points="0 14 .89 166.24 522.11 166.24 594.53 14.5 0 14" fill="#4c4d4f"/></g><g id="b"><polygon points="0 0 .87 152.24 507.26 152.24 577.61 .5 0 0" fill="#006bb6"/></g><g id="c"><g><path d="M65.9,27.42h61v18.42h-36.54v16.31h28.99v18.27h-28.99v37.6h-24.46V27.42Z" fill="#fff"/><path d="M162.69,83.14v34.88h-24.46V27.42h41.22c22.05,0,31.56,13.29,31.56,27.94,0,12.23-6.95,21.9-17.67,25.37l26.42,37.3h-26.42l-24.16-34.88h-6.49Zm10.57-15.55c9.36,0,13.59-4.23,13.59-11.93s-4.23-12.08-13.59-12.08h-10.57v24.01h10.57Z" fill="#fff"/><path d="M228.37,27.42h62.97v18.42h-38.5v15.25h30.96v18.27h-30.96v20.23h38.5v18.42h-62.97V27.42Z" fill="#fff"/><path d="M308.25,27.42h62.97v18.42h-38.5v15.25h30.96v18.27h-30.96v20.23h38.5v18.42h-62.97V27.42Z" fill="#fff"/><path d="M406.85,88.43h-13.44l-8.15-61h29.75l-8.15,61Zm-16.91,29.6v-20.38h20.39v20.38h-20.39Z" fill="#fff"/></g></g></svg>