<?xml version="1.0" encoding="UTF-8"?><svg xmlns="http://www.w3.org/2000/svg" viewBox="0 0 672.81 167.16"><g id="a"><polygon points="0 14 1.01 166.24 590.86 166.24 672.81 14.5 0 14" fill="#4c4d4f"/></g><g id="b"><polygon points="0 0 1 152.24 581.09 152.24 661.69 .5 0 0" fill="#006bb6"/></g><g id="c"><g><path d="M66.47,31.35h27.52v8.05h-16.83v6.67h13.53v7.99h-13.53v8.84h16.83v8.05h-27.52V31.35Z" fill="#fff"/><path d="M97.55,31.35h11.02l10.1,25.34,10.03-25.34h10.76l-16.63,39.6h-8.65l-16.63-39.6Z" fill="#fff"/><path d="M144.22,31.35h27.52v8.05h-16.83v6.67h13.53v7.99h-13.53v8.84h16.83v8.05h-27.52V31.35Z" fill="#fff"/><path d="M189.82,55.7v15.24h-10.69V31.35h18.02c9.64,0,13.79,5.81,13.79,12.21,0,5.35-3.04,9.57-7.72,11.09l11.55,16.3h-11.55l-10.56-15.24h-2.84Zm4.62-6.8c4.09,0,5.94-1.85,5.94-5.21s-1.85-5.28-5.94-5.28h-4.62v10.49h4.62Z" fill="#fff"/><path d="M226.98,55.1l-15.51-23.76h11.75l9.24,14.98,9.24-14.98h11.48l-15.51,23.76v15.84h-10.69v-15.84Z" fill="#fff"/><path d="M257.53,31.35h15.44c16.3,0,22.97,8.91,22.97,19.8s-6.67,19.8-22.97,19.8h-15.44V31.35Zm14.58,31.35c8.91,0,12.93-3.63,12.93-11.55s-4.03-11.55-12.93-11.55h-3.89v23.1h3.89Z" fill="#fff"/><path d="M312.78,31.35h9.04l16.63,39.6h-10.62l-3.37-8.45h-14.65l-3.3,8.45h-10.36l16.63-39.6Zm9.11,24.22l-4.75-12.47-4.75,12.47h9.5Z" fill="#fff"/><path d="M347.62,55.1l-15.51-23.76h11.75l9.24,14.98,9.24-14.98h11.48l-15.51,23.76v15.84h-10.69v-15.84Z" fill="#fff"/><path d="M66.47,93.35h27.52v8.05h-16.83v6.67h13.53v7.99h-13.53v8.84h16.83v8.05h-27.52v-39.6Z" fill="#fff"/><path d="M98.68,128.59l2.38-7.79c2.97,2.51,7.26,5.28,12.47,5.28,3.23,0,5.74-1.25,5.74-4.03,0-2.57-1.72-3.63-7.39-4.95-9.04-2.11-12.14-6.93-12.14-12.8,0-7.19,5.68-11.88,14.52-11.88,5.21,0,9.9,1.85,13,4.03l-2.18,7.13c-2.97-1.85-7.13-3.43-10.96-3.43-2.84,0-4.62,1.19-4.62,3.17,0,1.85,1.19,2.97,5.68,4.03,9.9,2.31,13.92,6.47,13.92,13.59,0,9.3-7.52,12.8-15.57,12.8-6.8,0-11.75-2.57-14.85-5.15Z" fill="#fff"/><path d="M132.73,128.59l2.38-7.79c2.97,2.51,7.26,5.28,12.47,5.28,3.23,0,5.74-1.25,5.74-4.03,0-2.57-1.72-3.63-7.39-4.95-9.04-2.11-12.14-6.93-12.14-12.8,0-7.19,5.68-11.88,14.52-11.88,5.21,0,9.9,1.85,13,4.03l-2.18,7.13c-2.97-1.85-7.13-3.43-10.96-3.43-2.84,0-4.62,1.19-4.62,3.17,0,1.85,1.19,2.97,5.68,4.03,9.9,2.31,13.92,6.47,13.92,13.59,0,9.3-7.52,12.8-15.57,12.8-6.8,0-11.75-2.57-14.85-5.15Z" fill="#fff"/><path d="M169.49,93.35h27.52v8.05h-16.83v6.67h13.53v7.99h-13.53v8.84h16.83v8.05h-27.52v-39.6Z" fill="#fff"/><path d="M204.41,93.35h8.12l17.95,22.77v-22.77h9.44v39.6h-8.12l-17.95-22.77v22.77h-9.44v-39.6Z" fill="#fff"/><path d="M257.6,101.4h-12.74v-8.05h36.17v8.05h-12.74v31.54h-10.69v-31.54Z" fill="#fff"/><path d="M285.98,93.35h10.69v39.6h-10.69v-39.6Z" fill="#fff"/><path d="M318.06,93.35h9.04l16.63,39.6h-10.62l-3.37-8.45h-14.65l-3.3,8.45h-10.36l16.63-39.6Zm9.11,24.22l-4.75-12.47-4.75,12.47h9.5Z" fill="#fff"/><path d="M348.55,93.35h10.69v31.54h16.83v8.05h-27.52v-39.6Z" fill="#fff"/><path d="M379.24,128.59l2.38-7.79c2.97,2.51,7.26,5.28,12.47,5.28,3.23,0,5.74-1.25,5.74-4.03,0-2.57-1.72-3.63-7.39-4.95-9.04-2.11-12.14-6.93-12.14-12.8,0-7.19,5.68-11.88,14.52-11.88,5.21,0,9.9,1.85,13,4.03l-2.18,7.13c-2.97-1.85-7.13-3.43-10.96-3.43-2.84,0-4.62,1.19-4.62,3.17,0,1.85,1.19,2.97,5.68,4.03,9.9,2.31,13.92,6.47,13.92,13.59,0,9.3-7.52,12.8-15.57,12.8-6.8,0-11.75-2.57-14.85-5.15Z" fill="#fff"/></g></g></svg>