<?xml version="1.0" encoding="UTF-8"?><svg xmlns="http://www.w3.org/2000/svg" viewBox="0 0 702.49 166.24"><g id="a"><polygon points="0 14 1.06 166.24 616.92 166.24 702.49 14.5 0 14" fill="#4c4d4f"/></g><g id="b"><polygon points="0 0 1.05 152.24 610.5 152.24 695.17 .5 0 0" fill="#006bb6"/></g><g id="c"><g><path d="M316.8,101.24h-43.85v-12.88l46.13-62.43h23.15v57.7h17.77v17.6h-17.77v22.49h-25.43v-22.49Zm0-17.6v-28.52l-20.86,28.52h20.86Z" fill="#f1f2f2"/><path d="M371.89,74.51c0-32.6,18.26-51.83,42.87-51.83s42.87,19.23,42.87,51.83-18.42,51.99-42.87,51.99-42.87-19.23-42.87-51.99Zm59.17,0c0-22.98-5.71-32.11-16.3-32.11s-16.3,9.13-16.3,32.11,5.71,32.27,16.3,32.27,16.3-9.13,16.3-32.27Z" fill="#f1f2f2"/><path d="M470.67,47.78c0-13.37,9.62-24.29,23.96-24.29s23.96,10.92,23.96,24.29-9.62,24.45-23.96,24.45-23.96-10.92-23.96-24.45Zm32.27,0c0-9.29-3.1-12.71-8.31-12.71s-8.31,3.42-8.31,12.71,3.1,12.88,8.31,12.88,8.31-3.42,8.31-12.88Zm-16.3,75.3l62.59-100.08,7.01,3.59-62.59,100.08-7.01-3.59Zm37.49-21.84c0-13.37,9.62-24.29,23.96-24.29s23.96,10.92,23.96,24.29-9.62,24.45-23.96,24.45-23.96-10.92-23.96-24.45Zm32.27,0c0-9.29-3.1-12.71-8.31-12.71s-8.31,3.42-8.31,12.71,3.1,12.88,8.31,12.88,8.31-3.42,8.31-12.88Z" fill="#f1f2f2"/></g><g><path d="M98.32,59.66l2.41-7.91c3.02,2.55,7.37,5.36,12.66,5.36,3.28,0,5.83-1.27,5.83-4.09,0-2.61-1.74-3.69-7.5-5.03-9.18-2.14-12.33-7.03-12.33-13,0-7.3,5.76-12.06,14.74-12.06,5.29,0,10.05,1.88,13.2,4.09l-2.21,7.24c-3.02-1.88-7.24-3.48-11.12-3.48-2.88,0-4.69,1.21-4.69,3.22,0,1.88,1.21,3.02,5.76,4.09,10.05,2.35,14.14,6.57,14.14,13.8,0,9.45-7.64,13-15.81,13-6.9,0-11.93-2.61-15.08-5.23Z" fill="#fff"/><path d="M147.49,23.88h9.18l16.88,40.2h-10.79l-3.42-8.58h-14.87l-3.35,8.58h-10.52l16.88-40.2Zm9.25,24.59l-4.82-12.66-4.82,12.66h9.65Z" fill="#fff"/><path d="M168.8,23.88h11.19l10.25,25.73,10.18-25.73h10.92l-16.88,40.2h-8.78l-16.88-40.2Z" fill="#fff"/><path d="M216.17,23.88h27.94v8.17h-17.08v6.77h13.73v8.11h-13.73v8.98h17.08v8.17h-27.94V23.88Z" fill="#fff"/><path d="M69.64,107.52v-21.64h10.99v21.04c0,7.1,2.81,10.92,8.58,10.92s8.64-3.82,8.64-10.92v-21.04h10.65v21.64c0,13.6-8.58,19.7-19.43,19.7s-19.43-6.1-19.43-19.7Z" fill="#fff"/><path d="M117.28,85.88h17.15c10.12,0,14.74,6.1,14.74,13.47s-4.62,13.47-14.74,13.47h-6.3v13.27h-10.85v-40.2Zm14.54,19.76c4.62,0,6.57-2.41,6.57-6.3s-1.94-6.3-6.57-6.3h-3.69v12.6h3.69Z" fill="#fff"/><path d="M175.16,94.05h-12.93v-8.17h36.72v8.17h-12.93v32.03h-10.85v-32.03Z" fill="#fff"/><path d="M200.29,105.98c0-12.33,9.98-21.24,22.31-21.24s22.18,8.91,22.18,21.24-9.92,21.24-22.18,21.24-22.31-8.91-22.31-21.24Zm32.96,0c0-7.71-3.95-12.73-10.65-12.73s-10.79,5.02-10.79,12.73,4.02,12.73,10.79,12.73,10.65-5.03,10.65-12.73Z" fill="#fff"/></g></g></svg>