<?xml version="1.0" encoding="UTF-8"?><svg xmlns="http://www.w3.org/2000/svg" viewBox="0 0 668.66 167.16"><g id="a"><polygon points="0 14 1.01 166.24 587.21 166.24 668.66 14.5 0 14" fill="#4c4d4f"/></g><g id="b"><polygon points="0 0 1 152.24 581.09 152.24 661.69 .5 0 0" fill="#006bb6"/></g><g id="c"><g><path d="M59.75,119.45l2.34-7.67c2.92,2.47,7.15,5.2,12.29,5.2,3.19,0,5.66-1.24,5.66-3.97,0-2.54-1.69-3.58-7.28-4.88-8.91-2.08-11.96-6.83-11.96-12.61,0-7.09,5.59-11.7,14.3-11.7,5.14,0,9.75,1.82,12.81,3.97l-2.15,7.02c-2.93-1.82-7.02-3.38-10.79-3.38-2.79,0-4.55,1.17-4.55,3.12,0,1.82,1.17,2.92,5.59,3.96,9.75,2.27,13.72,6.37,13.72,13.39,0,9.17-7.41,12.61-15.34,12.61-6.7,0-11.57-2.54-14.63-5.07Z" fill="#f1f2f2"/><path d="M107.46,84.74h8.91l16.38,39h-10.47l-3.32-8.32h-14.43l-3.25,8.32h-10.21l16.38-39Zm8.97,23.86l-4.68-12.29-4.68,12.29h9.36Z" fill="#f1f2f2"/><path d="M128.13,84.74h10.86l9.95,24.96,9.88-24.96h10.6l-16.38,39h-8.52l-16.38-39Z" fill="#f1f2f2"/><path d="M174.08,84.74h27.11v7.93h-16.58v6.57h13.33v7.87h-13.33v8.71h16.58v7.93h-27.11v-39Z" fill="#f1f2f2"/><path d="M219.07,110.86l22.98-23.96c9.29-9.78,17.6-18.58,17.6-29.83,0-9.94-7.33-13.53-13.85-13.53-7.5,0-15.48,3.1-24.29,10.43v-20.86c6.03-4.89,19.89-10.11,30.48-10.11,19.07,0,34.39,11.41,34.39,29.99,0,16.95-10.43,28.36-20.21,37l-15.65,13.85h37.98v19.89h-69.44v-12.88Z" fill="#f1f2f2"/><path d="M301.88,74.52c0-32.6,18.26-51.83,42.87-51.83s42.87,19.23,42.87,51.83-18.42,51.99-42.87,51.99-42.87-19.23-42.87-51.99Zm59.17,0c0-22.98-5.71-32.11-16.3-32.11s-16.3,9.13-16.3,32.11,5.71,32.27,16.3,32.27,16.3-9.13,16.3-32.27Z" fill="#f1f2f2"/><path d="M400.65,47.78c0-13.37,9.62-24.29,23.96-24.29s23.96,10.92,23.96,24.29-9.62,24.45-23.96,24.45-23.96-10.92-23.96-24.45Zm32.27,0c0-9.29-3.1-12.71-8.31-12.71s-8.31,3.42-8.31,12.71,3.1,12.88,8.31,12.88,8.31-3.42,8.31-12.88Zm-16.3,75.3l62.59-100.08,7.01,3.59-62.59,100.08-7.01-3.59Zm37.49-21.84c0-13.37,9.62-24.29,23.96-24.29s23.96,10.92,23.96,24.29-9.62,24.45-23.96,24.45-23.96-10.92-23.96-24.45Zm32.27,0c0-9.29-3.1-12.71-8.31-12.71s-8.31,3.42-8.31,12.71,3.1,12.88,8.31,12.88,8.31-3.42,8.31-12.88Z" fill="#f1f2f2"/></g></g></svg>