<?xml version="1.0" encoding="UTF-8"?><svg xmlns="http://www.w3.org/2000/svg" viewBox="0 0 861.19 166.26"><g id="a"><polygon points="0 14.02 1.29 166.26 754.11 166.26 858.71 14.52 0 14.02" fill="#4c4d4f"/></g><g id="b"><polygon points="0 .02 1.27 152.26 739.26 152.26 841.79 .52 0 .02" fill="#006bb6"/></g><g id="c"><g><path d="M37.28,117.92l2.16-7.08c2.7,2.28,6.6,4.8,11.34,4.8,2.94,0,5.22-1.14,5.22-3.66,0-2.34-1.56-3.3-6.72-4.5-8.22-1.92-11.04-6.3-11.04-11.64,0-6.54,5.16-10.8,13.2-10.8,4.74,0,9,1.68,11.82,3.66l-1.98,6.48c-2.7-1.68-6.48-3.12-9.96-3.12-2.58,0-4.2,1.08-4.2,2.88,0,1.68,1.08,2.7,5.16,3.66,9,2.1,12.66,5.88,12.66,12.36,0,8.46-6.84,11.64-14.16,11.64-6.18,0-10.68-2.34-13.5-4.68Z" fill="#fff"/><path d="M81.32,85.88h8.22l15.12,36h-9.66l-3.06-7.68h-13.32l-3,7.68h-9.42l15.12-36Zm8.28,22.02l-4.32-11.34-4.32,11.34h8.64Z" fill="#fff"/><path d="M100.4,85.88h10.02l9.18,23.04,9.12-23.04h9.78l-15.12,36h-7.86l-15.12-36Z" fill="#fff"/><path d="M142.82,85.88h25.02v7.32h-15.3v6.06h12.3v7.26h-12.3v8.04h15.3v7.32h-25.02v-36Z" fill="#fff"/></g><g><path d="M477.68,42.92c0-9.2,7.45-15.85,16.65-15.85s16.55,6.65,16.55,15.85-7.4,15.85-16.55,15.85-16.65-6.65-16.65-15.85Zm24.6,0c0-5.75-2.95-9.5-7.95-9.5s-8.05,3.75-8.05,9.5,3,9.5,8.05,9.5,7.95-3.75,7.95-9.5Z" fill="#fff"/><path d="M515.98,27.92h6.15l13.6,17.25V27.92h7.15v30h-6.15l-13.6-17.25v17.25h-7.15V27.92Z" fill="#fff"/><path d="M477.68,104.92c0-9.7,7.5-15.65,16.15-15.65,4.1,0,8.05,1.1,10.55,3v6.9c-2.4-2.05-5.6-3.5-9.2-3.5-5.05,0-8.9,3.25-8.9,9.25s3.85,9.25,8.9,9.25c3.6,0,6.8-1.45,9.2-3.5v6.9c-2.5,1.9-6.45,3-10.55,3-8.65,0-16.15-5.95-16.15-15.65Z" fill="#fff"/><path d="M509.68,89.92h8.1v10.75h11.85v-10.75h8.1v30h-8.1v-12.4h-11.85v12.4h-8.1v-30Z" fill="#fff"/><path d="M544.23,89.92h20.85v6.1h-12.75v5.05h10.25v6.05h-10.25v6.7h12.75v6.1h-20.85v-30Z" fill="#fff"/><path d="M570.68,89.92h9.05l8.15,19.05,8.15-19.05h8.85v30h-7.15v-16.35c0-.7,.15-3,.2-3.2l-1.1,3.2-6.75,16.35h-4.8l-6.75-16.35c-.3-.7-1-2.85-1.1-3.2,0,.2,.2,2.5,.2,3.2v16.35h-6.95v-30Z" fill="#fff"/><path d="M611.43,89.92h8.1v30h-8.1v-30Z" fill="#fff"/><path d="M624.58,104.92c0-9.7,7.5-15.65,16.15-15.65,4.1,0,8.05,1.1,10.55,3v6.9c-2.4-2.05-5.6-3.5-9.2-3.5-5.05,0-8.9,3.25-8.9,9.25s3.85,9.25,8.9,9.25c3.6,0,6.8-1.45,9.2-3.5v6.9c-2.5,1.9-6.45,3-10.55,3-8.65,0-16.15-5.95-16.15-15.65Z" fill="#fff"/><path d="M666.28,89.92h6.85l12.6,30h-8.05l-2.55-6.4h-11.1l-2.5,6.4h-7.85l12.6-30Zm6.9,18.35l-3.6-9.45-3.6,9.45h7.2Z" fill="#fff"/><path d="M689.38,89.92h8.1v23.9h12.75v6.1h-20.85v-30Z" fill="#fff"/><path d="M712.63,116.62l1.8-5.9c2.25,1.9,5.5,4,9.45,4,2.45,0,4.35-.95,4.35-3.05,0-1.95-1.3-2.75-5.6-3.75-6.85-1.6-9.2-5.25-9.2-9.7,0-5.45,4.3-9,11-9,3.95,0,7.5,1.4,9.85,3.05l-1.65,5.4c-2.25-1.4-5.4-2.6-8.3-2.6-2.15,0-3.5,.9-3.5,2.4,0,1.4,.9,2.25,4.3,3.05,7.5,1.75,10.55,4.9,10.55,10.3,0,7.05-5.7,9.7-11.8,9.7-5.15,0-8.9-1.95-11.25-3.9Z" fill="#fff"/></g><g><path d="M196.49,115.8v-19.31c7.54,7.22,16.8,11.46,26.22,11.46,10.36,0,17.43-5.65,17.43-15.23,0-8.63-5.34-13.34-13.82-13.34-5.34,0-8.79,2.67-11.3,4.55l-9.89-11.46,25.75-24.33h-34.07V28.98h66.25v11.3l-24.81,23.39c14.76,1.73,26.38,11.93,26.38,29.52,0,20.57-17.27,32.66-37.52,32.66-12.72,0-24.18-4.24-30.61-10.05Z" fill="#fff"/><path d="M277.27,115.52v-20.05c7.66,7.33,17.44,11.9,27.22,11.9,10.76,0,17.44-6.03,17.44-15.48,0-8.96-6.03-13.69-15.32-13.69-7.17,0-11.9,2.44-15,7.82l-10.92-4.56V25.38h62.92v19.89h-42.7v18.09c2.61-1.79,7.33-3.75,14.67-3.75,19.23,0,31.95,12.39,31.95,31.62,0,22.17-17.44,34.72-38.47,34.72-13.2,0-25.1-4.4-31.78-10.43Z" fill="#fff"/><path d="M359.53,50.02c0-12.87,9.26-23.39,23.08-23.39s23.08,10.52,23.08,23.39-9.26,23.55-23.08,23.55-23.08-10.52-23.08-23.55Zm31.09,0c0-8.95-2.98-12.25-8.01-12.25s-8.01,3.3-8.01,12.25,2.98,12.4,8.01,12.4,8.01-3.3,8.01-12.4Zm-15.7,72.53l60.29-96.4,6.75,3.45-60.29,96.4-6.75-3.45Zm36.11-21.04c0-12.87,9.26-23.39,23.08-23.39s23.08,10.52,23.08,23.39-9.26,23.55-23.08,23.55-23.08-10.52-23.08-23.55Zm31.09,0c0-8.95-2.98-12.25-8.01-12.25s-8.01,3.3-8.01,12.25,2.98,12.4,8.01,12.4,8.01-3.3,8.01-12.4Z" fill="#fff"/></g></g></svg>