<?xml version="1.0" encoding="UTF-8"?><svg xmlns="http://www.w3.org/2000/svg" viewBox="0 0 668.66 167.16"><g id="a"><polygon points="0 14 1.01 166.24 587.21 166.24 668.66 14.5 0 14" fill="#4c4d4f"/></g><g id="b"><polygon points="0 0 1 152.24 581.09 152.24 661.69 .5 0 0" fill="#006bb6"/></g><g id="c"><g><path d="M21.83,118.89l1.73-5.66c2.16,1.82,5.28,3.84,9.07,3.84,2.35,0,4.18-.91,4.18-2.93,0-1.87-1.25-2.64-5.38-3.6-6.58-1.54-8.83-5.04-8.83-9.31,0-5.23,4.13-8.64,10.56-8.64,3.79,0,7.2,1.34,9.46,2.93l-1.58,5.18c-2.16-1.34-5.18-2.5-7.97-2.5-2.06,0-3.36,.86-3.36,2.3,0,1.34,.86,2.16,4.13,2.93,7.2,1.68,10.13,4.7,10.13,9.89,0,6.77-5.47,9.31-11.33,9.31-4.94,0-8.54-1.87-10.8-3.75Z" fill="#fff"/><path d="M57.06,93.25h6.58l12.1,28.8h-7.73l-2.45-6.14h-10.66l-2.4,6.14h-7.54l12.1-28.8Zm6.62,17.62l-3.46-9.07-3.46,9.07h6.91Z" fill="#fff"/><path d="M72.33,93.25h8.02l7.34,18.43,7.3-18.43h7.82l-12.1,28.8h-6.29l-12.1-28.8Z" fill="#fff"/><path d="M106.26,93.25h20.02v5.86h-12.24v4.85h9.84v5.81h-9.84v6.43h12.24v5.86h-20.02v-28.8Z" fill="#fff"/></g><g><path d="M354.14,48.27c0-6.44,5.22-11.1,11.66-11.1s11.59,4.66,11.59,11.1-5.18,11.1-11.59,11.1-11.66-4.66-11.66-11.1Zm17.22,0c0-4.03-2.07-6.65-5.57-6.65s-5.64,2.63-5.64,6.65,2.1,6.65,5.64,6.65,5.57-2.62,5.57-6.65Z" fill="#fff"/><path d="M380.95,37.77h4.31l9.52,12.08v-12.08h5.01v21h-4.31l-9.52-12.08v12.08h-5.01v-21Z" fill="#fff"/><path d="M414.97,57.3l-.28,1.47h-4.62v-21h5.11v10.22c1.02-1.19,2.56-1.61,3.92-1.61,3.22,0,5.53,2.59,5.53,6.41s-2.31,6.44-5.53,6.44c-1.37,0-3.26-.49-4.13-1.93Zm4.55-4.52c0-1.71-1.02-2.62-2.24-2.62s-2.24,.91-2.24,2.62,1.02,2.66,2.24,2.66,2.24-.95,2.24-2.66Z" fill="#fff"/><path d="M427.78,39.17h5.11v4.41h-5.11v-4.41Zm0,7.67h5.11v11.94h-5.11v-11.94Z" fill="#fff"/><path d="M435.94,52.79c0-3.85,3.26-6.48,7.18-6.48s7.18,2.63,7.18,6.48-3.29,6.51-7.18,6.51-7.18-2.62-7.18-6.51Zm9.31,0c0-1.75-.88-2.69-2.14-2.69s-2.13,.94-2.13,2.69,.88,2.73,2.13,2.73,2.14-.94,2.14-2.73Z" fill="#fff"/><path d="M452.63,48.27c0-6.79,5.25-10.96,11.31-10.96,2.87,0,5.64,.77,7.39,2.1v4.83c-1.68-1.44-3.92-2.45-6.44-2.45-3.54,0-6.23,2.27-6.23,6.48s2.7,6.48,6.23,6.48c2.52,0,4.76-1.02,6.44-2.45v4.83c-1.75,1.33-4.52,2.1-7.39,2.1-6.06,0-11.31-4.17-11.31-10.96Z" fill="#fff"/><path d="M475.03,37.77h14.6v4.27h-8.93v3.54h7.18v4.24h-7.18v4.69h8.93v4.27h-14.6v-21Z" fill="#fff"/><path d="M499.22,50.69v8.09h-5.67v-21h9.56c5.11,0,7.32,3.08,7.32,6.48,0,2.83-1.61,5.08-4.1,5.88l6.13,8.65h-6.13l-5.6-8.09h-1.5Zm2.45-3.61c2.17,0,3.15-.98,3.15-2.77s-.98-2.8-3.15-2.8h-2.45v5.57h2.45Z" fill="#fff"/><path d="M518.5,42.04h-6.76v-4.27h19.18v4.27h-6.76v16.73h-5.67v-16.73Z" fill="#fff"/><path d="M533.55,37.77h5.67v21h-5.67v-21Z" fill="#fff"/><path d="M543.77,37.77h14.14v4.27h-8.47v3.78h6.72v4.24h-6.72v8.72h-5.67v-21Z" fill="#fff"/><path d="M560.54,37.77h5.67v21h-5.67v-21Z" fill="#fff"/><path d="M570.76,37.77h14.6v4.27h-8.93v3.54h7.18v4.24h-7.18v4.69h8.93v4.27h-14.6v-21Z" fill="#fff"/><path d="M589.27,37.77h8.19c8.65,0,12.18,4.73,12.18,10.5s-3.54,10.5-12.18,10.5h-8.19v-21Zm7.74,16.63c4.73,0,6.86-1.93,6.86-6.13s-2.13-6.13-6.86-6.13h-2.07v12.25h2.07Z" fill="#fff"/><path d="M616.98,40.12v6.71h-2.73v-6.71h-2.68v-1.95h8.11v1.95h-2.7Zm11.86,6.71v-4.32c0-.21,.05-.94,.05-1.01-.03,.08-.23,.81-.31,1.01l-1.56,4.32h-1.79l-1.56-4.32c-.08-.18-.29-.88-.31-1.01,0,.08,.05,.81,.05,1.01v4.32h-2.34v-8.66h3.09l2.03,5.64,2-5.64h3.07v8.66h-2.42Z" fill="#fff"/><path d="M354.43,107.87c0-8.34,6.45-13.46,13.89-13.46,3.53,0,6.92,.95,9.07,2.58v5.93c-2.06-1.76-4.82-3.01-7.91-3.01-4.34,0-7.65,2.79-7.65,7.96s3.31,7.95,7.65,7.95c3.1,0,5.85-1.25,7.91-3.01v5.93c-2.15,1.63-5.55,2.58-9.07,2.58-7.44,0-13.89-5.12-13.89-13.46Z" fill="#fff"/><path d="M381.95,94.97h6.97v9.25h10.19v-9.25h6.97v25.8h-6.97v-10.66h-10.19v10.66h-6.97v-25.8Z" fill="#fff"/><path d="M411.66,94.97h17.93v5.25h-10.96v4.34h8.81v5.2h-8.81v5.76h10.96v5.25h-17.93v-25.8Z" fill="#fff"/><path d="M434.41,94.97h7.78l7.01,16.38,7.01-16.38h7.61v25.8h-6.15v-14.06c0-.6,.13-2.58,.17-2.75l-.95,2.75-5.8,14.06h-4.13l-5.8-14.06c-.26-.6-.86-2.45-.95-2.75,0,.17,.17,2.15,.17,2.75v14.06h-5.98v-25.8Z" fill="#fff"/><path d="M469.45,94.97h6.97v25.8h-6.97v-25.8Z" fill="#fff"/><path d="M480.76,107.87c0-8.34,6.45-13.46,13.89-13.46,3.53,0,6.92,.95,9.07,2.58v5.93c-2.06-1.76-4.82-3.01-7.91-3.01-4.34,0-7.65,2.79-7.65,7.96s3.31,7.95,7.65,7.95c3.1,0,5.85-1.25,7.91-3.01v5.93c-2.15,1.63-5.55,2.58-9.07,2.58-7.44,0-13.89-5.12-13.89-13.46Z" fill="#fff"/><path d="M516.62,94.97h5.89l10.83,25.8h-6.92l-2.19-5.5h-9.55l-2.15,5.5h-6.75l10.84-25.8Zm5.93,15.78l-3.1-8.13-3.1,8.13h6.19Z" fill="#fff"/><path d="M536.49,94.97h6.97v20.55h10.96v5.25h-17.93v-25.8Z" fill="#fff"/><path d="M556.49,117.94l1.55-5.07c1.94,1.63,4.73,3.44,8.13,3.44,2.11,0,3.74-.82,3.74-2.62,0-1.68-1.12-2.37-4.82-3.22-5.89-1.38-7.91-4.52-7.91-8.34,0-4.69,3.7-7.74,9.46-7.74,3.4,0,6.45,1.2,8.47,2.62l-1.42,4.64c-1.93-1.2-4.64-2.24-7.14-2.24-1.85,0-3.01,.77-3.01,2.06,0,1.2,.77,1.93,3.7,2.62,6.45,1.5,9.07,4.21,9.07,8.86,0,6.06-4.9,8.34-10.15,8.34-4.43,0-7.65-1.68-9.67-3.35Z" fill="#fff"/></g><g><path d="M141.28,113.83v-15.5c6.05,5.8,13.48,9.2,21.04,9.2,8.32,0,13.99-4.54,13.99-12.22,0-6.93-4.28-10.71-11.09-10.71-4.28,0-7.06,2.14-9.07,3.65l-7.94-9.2,20.67-19.53h-27.34v-15.37h53.17v9.07l-19.91,18.77c11.84,1.39,21.17,9.58,21.17,23.69,0,16.51-13.86,26.21-30.12,26.21-10.21,0-19.41-3.4-24.57-8.07Z" fill="#fff"/><path d="M205.91,113.83v-15.5c5.92,5.67,13.48,9.2,21.04,9.2,8.32,0,13.48-4.66,13.48-11.97,0-6.93-4.66-10.58-11.84-10.58-5.54,0-9.2,1.89-11.59,6.05l-8.44-3.53V44.15h48.64v15.37h-33.01v13.99c2.02-1.39,5.67-2.9,11.34-2.9,14.87,0,24.7,9.58,24.7,24.45,0,17.14-13.48,26.84-29.74,26.84-10.21,0-19.41-3.4-24.57-8.07Z" fill="#fff"/><path d="M269.67,61.04c0-10.33,7.43-18.77,18.52-18.77s18.52,8.44,18.52,18.77-7.43,18.9-18.52,18.9-18.52-8.44-18.52-18.9Zm24.95,0c0-7.18-2.39-9.83-6.43-9.83s-6.43,2.65-6.43,9.83,2.39,9.95,6.43,9.95,6.43-2.65,6.43-9.95Zm-12.6,58.22l48.39-77.37,5.42,2.77-48.39,77.37-5.42-2.77Zm28.98-16.89c0-10.33,7.43-18.77,18.52-18.77s18.52,8.44,18.52,18.77-7.43,18.9-18.52,18.9-18.52-8.44-18.52-18.9Zm24.95,0c0-7.18-2.39-9.83-6.43-9.83s-6.43,2.65-6.43,9.83,2.39,9.96,6.43,9.96,6.43-2.65,6.43-9.96Z" fill="#fff"/></g></g></svg>