<?xml version="1.0" encoding="UTF-8"?><svg xmlns="http://www.w3.org/2000/svg" viewBox="0 0 668.66 167.16"><g id="a"><polygon points="0 14 1.01 166.24 587.21 166.24 668.66 14.5 0 14" fill="#4c4d4f"/></g><g id="b"><polygon points="0 0 1 152.24 581.09 152.24 661.69 .5 0 0" fill="#006bb6"/></g><g id="c"><g><path d="M61.78,110.86l22.98-23.96c9.29-9.78,17.6-18.58,17.6-29.83,0-9.94-7.33-13.53-13.85-13.53-7.5,0-15.48,3.1-24.29,10.43v-20.86c6.03-4.89,19.89-10.11,30.48-10.11,19.07,0,34.39,11.41,34.39,29.99,0,16.95-10.43,28.36-20.21,37l-15.65,13.85h37.98v19.89H61.78v-12.88Z" fill="#f1f2f2"/><path d="M144.58,74.52c0-32.6,18.26-51.83,42.87-51.83s42.87,19.23,42.87,51.83-18.42,51.99-42.87,51.99-42.87-19.23-42.87-51.99Zm59.17,0c0-22.98-5.71-32.11-16.3-32.11s-16.3,9.13-16.3,32.11,5.71,32.27,16.3,32.27,16.3-9.13,16.3-32.27Z" fill="#f1f2f2"/><path d="M243.36,47.78c0-13.37,9.62-24.29,23.96-24.29s23.96,10.92,23.96,24.29-9.62,24.45-23.96,24.45-23.96-10.92-23.96-24.45Zm32.27,0c0-9.29-3.1-12.71-8.31-12.71s-8.31,3.42-8.31,12.71,3.1,12.88,8.31,12.88,8.31-3.42,8.31-12.88Zm-16.3,75.3l62.59-100.08,7.01,3.59-62.59,100.08-7.01-3.59Zm37.49-21.84c0-13.37,9.62-24.29,23.96-24.29s23.96,10.92,23.96,24.29-9.62,24.45-23.96,24.45-23.96-10.92-23.96-24.45Zm32.27,0c0-9.29-3.1-12.71-8.31-12.71s-8.31,3.42-8.31,12.71,3.1,12.88,8.31,12.88,8.31-3.42,8.31-12.88Z" fill="#f1f2f2"/><path d="M367.82,104.24c0-11.96,9.69-20.61,21.65-20.61s21.52,8.65,21.52,20.61-9.62,20.61-21.52,20.61-21.65-8.65-21.65-20.61Zm31.98,0c0-7.48-3.83-12.35-10.34-12.35s-10.47,4.88-10.47,12.35,3.9,12.35,10.47,12.35,10.34-4.88,10.34-12.35Z" fill="#f1f2f2"/><path d="M417.61,84.74h26.26v7.93h-15.73v7.02h12.48v7.87h-12.48v16.19h-10.53v-39Z" fill="#f1f2f2"/><path d="M448.74,84.74h26.26v7.93h-15.73v7.02h12.48v7.87h-12.48v16.19h-10.53v-39Z" fill="#f1f2f2"/></g></g></svg>