<?xml version="1.0" encoding="utf-8"?>
<!-- Generator: Adobe Illustrator 21.1.0, SVG Export Plug-In . SVG Version: 6.00 Build 0)  -->
<svg version="1.1" id="Layer_1" xmlns="http://www.w3.org/2000/svg" xmlns:xlink="http://www.w3.org/1999/xlink" x="0px" y="0px"
	 viewBox="0 0 124.6 18" style="enable-background:new 0 0 124.6 18;" xml:space="preserve">
<style type="text/css">
	.st0{fill:#FCEE23;}
	.st1{fill:#010101;}
</style>
<path class="st0" d="M114.3,17.8h-104c-5.4,0-9.8-3.8-9.8-8.4V8.9c0-4.6,4.4-8.4,9.8-8.4h104c5.4,0,9.8,3.8,9.8,8.4v0.5
	C124.1,14,119.7,17.8,114.3,17.8z"/>
<g>
	<path class="st1" d="M5.3,6.3h2.4c0.5,0,0.8,0,1.1,0.1c0.2,0,0.4,0.1,0.6,0.3c0.2,0.1,0.3,0.3,0.5,0.5c0.1,0.2,0.2,0.4,0.2,0.7
		c0,0.3-0.1,0.5-0.2,0.8C9.7,8.9,9.5,9,9.2,9.2c0.4,0.1,0.7,0.3,0.9,0.6s0.3,0.6,0.3,0.9c0,0.3-0.1,0.5-0.2,0.8
		c-0.1,0.3-0.3,0.5-0.5,0.6s-0.5,0.3-0.8,0.3c-0.2,0-0.7,0-1.5,0H5.3V6.3z M6.5,7.3v1.4h0.8c0.5,0,0.8,0,0.9,0
		c0.2,0,0.4-0.1,0.5-0.2C8.8,8.4,8.9,8.2,8.9,8c0-0.2-0.1-0.3-0.2-0.5C8.6,7.4,8.4,7.4,8.2,7.3c-0.1,0-0.5,0-1,0H6.5z M6.5,9.7v1.6
		h1.1c0.4,0,0.7,0,0.8,0c0.2,0,0.3-0.1,0.4-0.2C9,11,9.1,10.8,9.1,10.6c0-0.2,0-0.3-0.1-0.5S8.7,9.9,8.6,9.8S8,9.7,7.5,9.7H6.5z"/>
	<path class="st1" d="M11.4,12.4V6.3H14c0.7,0,1.1,0.1,1.4,0.2c0.3,0.1,0.5,0.3,0.7,0.6c0.2,0.3,0.3,0.6,0.3,1
		c0,0.5-0.1,0.8-0.4,1.1s-0.7,0.5-1.2,0.6c0.3,0.2,0.5,0.3,0.7,0.5s0.4,0.5,0.7,1l0.7,1.2h-1.5l-0.9-1.3c-0.3-0.5-0.5-0.8-0.6-0.9
		s-0.2-0.2-0.4-0.3c-0.1,0-0.3-0.1-0.6-0.1h-0.2v2.5H11.4z M12.6,8.9h0.9c0.6,0,1,0,1.1-0.1c0.1,0,0.3-0.1,0.3-0.3s0.1-0.3,0.1-0.5
		c0-0.2-0.1-0.4-0.2-0.5s-0.3-0.2-0.5-0.2c-0.1,0-0.4,0-0.9,0h-1V8.9z"/>
	<path class="st1" d="M17.3,9.4c0-0.6,0.1-1.1,0.3-1.6c0.1-0.3,0.3-0.6,0.6-0.8c0.2-0.2,0.5-0.4,0.8-0.5c0.4-0.2,0.8-0.2,1.3-0.2
		c0.9,0,1.6,0.3,2.2,0.8s0.8,1.3,0.8,2.3c0,1-0.3,1.8-0.8,2.3s-1.2,0.8-2.1,0.8c-0.9,0-1.6-0.3-2.2-0.8
		C17.5,11.1,17.3,10.4,17.3,9.4z M18.5,9.3c0,0.7,0.2,1.2,0.5,1.6c0.3,0.4,0.7,0.5,1.2,0.5c0.5,0,0.9-0.2,1.2-0.5s0.5-0.9,0.5-1.6
		c0-0.7-0.2-1.2-0.5-1.6s-0.7-0.5-1.2-0.5c-0.5,0-0.9,0.2-1.2,0.5S18.5,8.6,18.5,9.3z"/>
	<path class="st1" d="M25,12.4l-1.5-6.1h1.3l0.9,4.2l1.1-4.2h1.5l1.1,4.3l0.9-4.3h1.2l-1.5,6.1h-1.3l-1.2-4.5l-1.2,4.5H25z"/>
	<path class="st1" d="M31.8,10.4l1.2-0.1c0.1,0.4,0.2,0.7,0.4,0.9c0.2,0.2,0.5,0.3,0.9,0.3c0.4,0,0.7-0.1,0.9-0.3s0.3-0.4,0.3-0.6
		c0-0.1,0-0.3-0.1-0.4c-0.1-0.1-0.2-0.2-0.4-0.3c-0.1,0-0.5-0.1-1-0.3c-0.7-0.2-1.1-0.4-1.4-0.6c-0.4-0.3-0.6-0.7-0.6-1.2
		c0-0.3,0.1-0.6,0.3-0.9c0.2-0.3,0.4-0.5,0.8-0.6s0.7-0.2,1.2-0.2c0.8,0,1.3,0.2,1.7,0.5C36.4,7,36.6,7.5,36.6,8l-1.2,0.1
		c-0.1-0.3-0.2-0.5-0.3-0.7c-0.2-0.1-0.4-0.2-0.8-0.2c-0.4,0-0.6,0.1-0.8,0.2c-0.1,0.1-0.2,0.2-0.2,0.4c0,0.1,0.1,0.3,0.2,0.4
		c0.2,0.1,0.5,0.3,1.1,0.4c0.6,0.1,1,0.3,1.3,0.4c0.3,0.2,0.5,0.4,0.7,0.6c0.2,0.3,0.2,0.6,0.2,1c0,0.3-0.1,0.7-0.3,1
		s-0.5,0.5-0.8,0.7c-0.4,0.1-0.8,0.2-1.3,0.2c-0.8,0-1.4-0.2-1.8-0.5S31.9,11.1,31.8,10.4z"/>
	<path class="st1" d="M37.8,12.4V6.3h4.5v1h-3.3v1.3h3.1v1h-3.1v1.7h3.4v1H37.8z"/>
	<path class="st1" d="M49.8,10.2l1.2,0.4c-0.2,0.7-0.5,1.2-0.9,1.5s-1,0.5-1.6,0.5c-0.8,0-1.5-0.3-2-0.8c-0.5-0.6-0.8-1.3-0.8-2.3
		c0-1,0.3-1.8,0.8-2.4c0.5-0.6,1.2-0.8,2.1-0.8c0.7,0,1.3,0.2,1.8,0.7c0.3,0.3,0.5,0.6,0.6,1.1l-1.2,0.3c-0.1-0.3-0.2-0.6-0.5-0.7
		c-0.2-0.2-0.5-0.3-0.8-0.3c-0.5,0-0.8,0.2-1.1,0.5c-0.3,0.3-0.4,0.8-0.4,1.6c0,0.8,0.1,1.3,0.4,1.6c0.3,0.3,0.6,0.5,1.1,0.5
		c0.3,0,0.6-0.1,0.8-0.3C49.5,10.9,49.7,10.6,49.8,10.2z"/>
	<path class="st1" d="M51.8,9.4c0-0.6,0.1-1.1,0.3-1.6c0.1-0.3,0.3-0.6,0.6-0.8c0.2-0.2,0.5-0.4,0.8-0.5c0.4-0.2,0.8-0.2,1.3-0.2
		c0.9,0,1.6,0.3,2.2,0.8s0.8,1.3,0.8,2.3c0,1-0.3,1.8-0.8,2.3s-1.2,0.8-2.1,0.8c-0.9,0-1.6-0.3-2.2-0.8C52,11.1,51.8,10.4,51.8,9.4z
		 M53,9.3c0,0.7,0.2,1.2,0.5,1.6c0.3,0.4,0.7,0.5,1.2,0.5c0.5,0,0.9-0.2,1.2-0.5s0.5-0.9,0.5-1.6c0-0.7-0.2-1.2-0.5-1.6
		s-0.7-0.5-1.2-0.5c-0.5,0-0.9,0.2-1.2,0.5S53,8.6,53,9.3z"/>
	<path class="st1" d="M58.6,6.3h1.2v3.3c0,0.5,0,0.9,0,1c0.1,0.2,0.2,0.4,0.4,0.6c0.2,0.2,0.5,0.2,0.8,0.2c0.3,0,0.6-0.1,0.8-0.2
		s0.3-0.3,0.3-0.5c0-0.2,0.1-0.6,0.1-1V6.3h1.2v3.2c0,0.7,0,1.2-0.1,1.5s-0.2,0.6-0.4,0.8c-0.2,0.2-0.4,0.4-0.7,0.5
		s-0.7,0.2-1.2,0.2c-0.6,0-1-0.1-1.3-0.2c-0.3-0.1-0.5-0.3-0.7-0.5c-0.2-0.2-0.3-0.4-0.3-0.7c-0.1-0.3-0.1-0.9-0.1-1.5V6.3z"/>
	<path class="st1" d="M64.8,12.4V6.3h2.6c0.7,0,1.1,0.1,1.4,0.2c0.3,0.1,0.5,0.3,0.7,0.6c0.2,0.3,0.3,0.6,0.3,1
		c0,0.5-0.1,0.8-0.4,1.1s-0.7,0.5-1.2,0.6c0.3,0.2,0.5,0.3,0.7,0.5s0.4,0.5,0.7,1l0.7,1.2h-1.5l-0.9-1.3c-0.3-0.5-0.5-0.8-0.6-0.9
		S67,10,66.8,9.9c-0.1,0-0.3-0.1-0.6-0.1H66v2.5H64.8z M66,8.9h0.9c0.6,0,1,0,1.1-0.1s0.3-0.1,0.3-0.3c0.1-0.1,0.1-0.3,0.1-0.5
		c0-0.2-0.1-0.4-0.2-0.5S68,7.4,67.8,7.4c-0.1,0-0.4,0-0.9,0h-1V8.9z"/>
	<path class="st1" d="M70.6,10.4l1.2-0.1c0.1,0.4,0.2,0.7,0.4,0.9s0.5,0.3,0.9,0.3c0.4,0,0.7-0.1,0.9-0.3c0.2-0.2,0.3-0.4,0.3-0.6
		c0-0.1,0-0.3-0.1-0.4c-0.1-0.1-0.2-0.2-0.4-0.3c-0.1,0-0.5-0.1-1-0.3c-0.7-0.2-1.1-0.4-1.4-0.6c-0.4-0.3-0.6-0.7-0.6-1.2
		c0-0.3,0.1-0.6,0.3-0.9c0.2-0.3,0.4-0.5,0.8-0.6c0.3-0.1,0.7-0.2,1.2-0.2c0.8,0,1.3,0.2,1.7,0.5C75.1,7,75.3,7.5,75.3,8l-1.2,0.1
		c-0.1-0.3-0.2-0.5-0.3-0.7c-0.2-0.1-0.4-0.2-0.8-0.2c-0.4,0-0.6,0.1-0.8,0.2C72,7.5,72,7.7,72,7.8C72,8,72,8.1,72.2,8.2
		c0.2,0.1,0.5,0.3,1.1,0.4c0.6,0.1,1,0.3,1.3,0.4c0.3,0.2,0.5,0.4,0.7,0.6c0.2,0.3,0.2,0.6,0.2,1c0,0.3-0.1,0.7-0.3,1
		s-0.5,0.5-0.8,0.7c-0.4,0.1-0.8,0.2-1.3,0.2c-0.8,0-1.4-0.2-1.8-0.5S70.7,11.1,70.6,10.4z"/>
	<path class="st1" d="M76.6,12.4V6.3h4.5v1h-3.3v1.3h3.1v1h-3.1v1.7h3.4v1H76.6z"/>
	<path class="st1" d="M84.6,12.4v-6h1.2v5h3.1v1H84.6z"/>
	<path class="st1" d="M89.7,12.4V6.3H91v6.1H89.7z"/>
	<path class="st1" d="M92.1,6.3h2.4c0.5,0,0.8,0,1.1,0.1s0.4,0.1,0.6,0.3c0.2,0.1,0.3,0.3,0.5,0.5c0.1,0.2,0.2,0.4,0.2,0.7
		c0,0.3-0.1,0.5-0.2,0.8c-0.2,0.2-0.4,0.4-0.6,0.5c0.4,0.1,0.7,0.3,0.9,0.6s0.3,0.6,0.3,0.9c0,0.3-0.1,0.5-0.2,0.8s-0.3,0.5-0.5,0.6
		s-0.5,0.3-0.8,0.3c-0.2,0-0.7,0-1.5,0h-2.1V6.3z M93.4,7.3v1.4h0.8c0.5,0,0.8,0,0.9,0c0.2,0,0.4-0.1,0.5-0.2
		c0.1-0.1,0.2-0.3,0.2-0.5c0-0.2-0.1-0.3-0.2-0.5s-0.3-0.2-0.5-0.2c-0.1,0-0.5,0-1,0H93.4z M93.4,9.7v1.6h1.1c0.4,0,0.7,0,0.8,0
		c0.2,0,0.3-0.1,0.4-0.2c0.1-0.1,0.2-0.3,0.2-0.5c0-0.2,0-0.3-0.1-0.5s-0.2-0.2-0.4-0.3c-0.2-0.1-0.5-0.1-1.1-0.1H93.4z"/>
	<path class="st1" d="M98.3,12.4V6.3h2.6c0.7,0,1.1,0.1,1.4,0.2c0.3,0.1,0.5,0.3,0.7,0.6c0.2,0.3,0.3,0.6,0.3,1
		c0,0.5-0.1,0.8-0.4,1.1s-0.7,0.5-1.2,0.6c0.3,0.2,0.5,0.3,0.7,0.5s0.4,0.5,0.7,1l0.7,1.2h-1.5l-0.9-1.3c-0.3-0.5-0.5-0.8-0.6-0.9
		s-0.2-0.2-0.4-0.3c-0.1,0-0.3-0.1-0.6-0.1h-0.2v2.5H98.3z M99.5,8.9h0.9c0.6,0,1,0,1.1-0.1s0.3-0.1,0.3-0.3
		c0.1-0.1,0.1-0.3,0.1-0.5c0-0.2-0.1-0.4-0.2-0.5s-0.3-0.2-0.5-0.2c-0.1,0-0.4,0-0.9,0h-1V8.9z"/>
	<path class="st1" d="M109.9,12.4h-1.3L108,11h-2.4l-0.5,1.4h-1.3l2.4-6.1h1.3L109.9,12.4z M107.6,10l-0.8-2.3L106,10H107.6z"/>
	<path class="st1" d="M110.6,12.4V6.3h2.6c0.7,0,1.1,0.1,1.4,0.2c0.3,0.1,0.5,0.3,0.7,0.6c0.2,0.3,0.3,0.6,0.3,1
		c0,0.5-0.1,0.8-0.4,1.1s-0.7,0.5-1.2,0.6c0.3,0.2,0.5,0.3,0.7,0.5s0.4,0.5,0.7,1l0.7,1.2h-1.5l-0.9-1.3c-0.3-0.5-0.5-0.8-0.6-0.9
		s-0.2-0.2-0.4-0.3c-0.1,0-0.3-0.1-0.6-0.1h-0.2v2.5H110.6z M111.8,8.9h0.9c0.6,0,1,0,1.1-0.1s0.3-0.1,0.3-0.3
		c0.1-0.1,0.1-0.3,0.1-0.5c0-0.2-0.1-0.4-0.2-0.5s-0.3-0.2-0.5-0.2c-0.1,0-0.4,0-0.9,0h-1V8.9z"/>
	<path class="st1" d="M118,12.4V9.8l-2.2-3.5h1.4l1.4,2.4l1.4-2.4h1.4l-2.2,3.5v2.6H118z"/>
</g>
</svg>
