<svg xmlns="http://www.w3.org/2000/svg" xmlns:xlink="http://www.w3.org/1999/xlink" viewBox="0 0 397.28 347.5"><defs><clipPath id="a" transform="translate(-1.91 -1.38)"><rect x="93.83" y="82.43" width="220.42" height="196.22" fill="none"/></clipPath></defs><polygon points="295.46 5 101.82 5 5 173.75 101.82 342.5 295.46 342.5 392.28 173.75 295.46 5" fill="#fff" stroke="#4c4e50" stroke-linecap="round" stroke-linejoin="round" stroke-width="10"/><g clip-path="url(#a)"><path d="M143.8,170.93h46l23-39.84-23-39.84h-46l-23,39.84Zm48.55,8.82H141.26a4.42,4.42,0,0,1-3.82-2.21L111.89,133.3a4.4,4.4,0,0,1,0-4.41l25.55-44.25a4.4,4.4,0,0,1,3.82-2.21h51.09a4.41,4.41,0,0,1,3.82,2.21l25.54,44.25a4.4,4.4,0,0,1,0,4.41l-25.54,44.24a4.43,4.43,0,0,1-3.82,2.21" transform="translate(-1.91 -1.38)" fill="#006bb6"/><path d="M220.48,215.2h46l23-39.84-23-39.84h-46l-23,39.84ZM269,224h-51.1a4.43,4.43,0,0,1-3.82-2.21l-25.54-44.24a4.4,4.4,0,0,1,0-4.41l25.54-44.25a4.45,4.45,0,0,1,3.82-2.21H269a4.42,4.42,0,0,1,3.82,2.21l25.54,44.25a4.4,4.4,0,0,1,0,4.41l-25.54,44.24A4.4,4.4,0,0,1,269,224" transform="translate(-1.91 -1.38)" fill="#006bb6"/><path d="M143.8,259.44h46l23-39.84-23-39.83h-46l-23,39.83Zm48.55,8.82H141.26a4.39,4.39,0,0,1-3.82-2.2l-25.55-44.25a4.4,4.4,0,0,1,0-4.41l25.55-44.25a4.41,4.41,0,0,1,3.82-2.2h51.09a4.43,4.43,0,0,1,3.82,2.2l25.54,44.25a4.4,4.4,0,0,1,0,4.41l-25.54,44.25a4.4,4.4,0,0,1-3.82,2.2" transform="translate(-1.91 -1.38)" fill="#006bb6"/><path d="M115.71,135.5H98.24a4.41,4.41,0,0,1,0-8.82h17.47a4.41,4.41,0,1,1,0,8.82" transform="translate(-1.91 -1.38)" fill="#006bb6"/><path d="M269,135.52a4.41,4.41,0,0,1-3.12-7.53l14.64-14.63a4.41,4.41,0,0,1,6.23,6.24l-14.63,14.63a4.4,4.4,0,0,1-3.12,1.29" transform="translate(-1.91 -1.38)" fill="#006bb6"/><path d="M309.84,179.77H294.57a4.41,4.41,0,1,1,0-8.82h15.27a4.41,4.41,0,1,1,0,8.82" transform="translate(-1.91 -1.38)" fill="#006bb6"/><path d="M202.74,278.65a4.4,4.4,0,0,1-3.12-1.29L189.23,267a4.41,4.41,0,0,1,6.24-6.23l10.39,10.38a4.41,4.41,0,0,1-3.12,7.53" transform="translate(-1.91 -1.38)" fill="#006bb6"/><path d="M139.88,227.76a4.41,4.41,0,0,1-3.81-6.61l16.7-28.93a4.41,4.41,0,0,1,7.64,4.41l-16.7,28.92a4.41,4.41,0,0,1-3.83,2.21" transform="translate(-1.91 -1.38)" fill="#006bb6"/><path d="M139.88,139.24a4.41,4.41,0,0,1-3.81-6.61l16.7-28.92a4.41,4.41,0,1,1,7.64,4.4L143.71,137a4.42,4.42,0,0,1-3.83,2.2" transform="translate(-1.91 -1.38)" fill="#006bb6"/><path d="M264.37,183.91a4.4,4.4,0,0,1-3.82-2.2l-16-27.66a4.41,4.41,0,0,1,7.64-4.41l16,27.66a4.4,4.4,0,0,1-1.61,6,4.28,4.28,0,0,1-2.2.59" transform="translate(-1.91 -1.38)" fill="#006bb6"/></g></svg>