<?xml version="1.0" encoding="UTF-8"?><svg id="a" xmlns="http://www.w3.org/2000/svg" xmlns:xlink="http://www.w3.org/1999/xlink" viewBox="0 0 673 472"><defs><clipPath id="b"><rect x="195.25" y="83" width="308" height="308" fill="none"/></clipPath></defs><rect width="673" height="472" fill="#006bb6"/><path d="m403.53,175.34l-66.91,86.48m-29.35-39.35l29.35,39.35" fill="none" stroke="#006bb6" stroke-linecap="round" stroke-linejoin="round" stroke-width="17.64"/><polyline points="470.25 387.03 470.25 159.84 499.28 159.84 438.21 86.97 377.14 159.84 406.17 159.84 406.17 387.03 366.78 387.03 366.78 224.1 302.7 224.1 302.7 387.03 263.3 387.03 263.3 288.36 199.22 288.36 199.22 387.03" fill="#006bb6"/><g clip-path="url(#b)" fill="none"><polyline points="470.25 387.03 470.25 159.84 499.28 159.84 438.21 86.97 377.14 159.84 406.17 159.84 406.17 387.03 366.78 387.03 366.78 224.1 302.7 224.1 302.7 387.03 263.3 387.03 263.3 288.36 199.22 288.36 199.22 387.03" fill="none" stroke="#fff" stroke-linecap="round" stroke-linejoin="round" stroke-width="4.41"/></g></svg>