<?xml version="1.0" encoding="UTF-8"?><svg id="a" xmlns="http://www.w3.org/2000/svg" xmlns:xlink="http://www.w3.org/1999/xlink" viewBox="0 0 800 472"><defs><clipPath id="b"><rect x="167.86" y="63.8" width="344.2" height="344.2" fill="none"/></clipPath></defs><polygon points="673 472 0 472 0 0 800 0 673 472" fill="#006bb6"/><g clip-path="url(#b)" fill="none"><circle cx="339.96" cy="235.9" r="128.35" fill="none" stroke="#fff" stroke-linecap="round" stroke-linejoin="round" stroke-width="4.41"/><path d="m438.56,235.9h59.56m-316.31,0h59.56m98.59,98.59v59.56m0-316.31v59.56" fill="none" stroke="#006bb6" stroke-linecap="round" stroke-linejoin="round" stroke-width="17.64"/><path d="m404.18,235.9c0,35.47-28.75,64.22-64.22,64.22s-64.22-28.75-64.22-64.22,28.75-64.22,64.22-64.22,64.22,28.75,64.22,64.22Zm34.38,0h59.56m-316.31,0h59.56m98.59,98.59v59.56m0-316.31v59.56" fill="none" stroke="#fff" stroke-linecap="round" stroke-linejoin="round" stroke-width="4.41"/></g></svg>