<?xml version="1.0" encoding="UTF-8"?><svg id="a" xmlns="http://www.w3.org/2000/svg" xmlns:xlink="http://www.w3.org/1999/xlink" viewBox="0 0 673 472"><defs><clipPath id="b"><rect x="176.25" y="75" width="320.75" height="320.75" fill="none"/></clipPath></defs><rect width="673" height="472" fill="#006bb6"/><g clip-path="url(#b)" fill="none"><circle cx="336.62" cy="235.38" r="119.61" fill="none" stroke="#fff" stroke-linecap="round" stroke-linejoin="round" stroke-width="4.41"/><path d="m428.5,235.38h55.5m-294.75,0h55.5m91.88,91.88v55.5m0-294.75v55.5" fill="none" stroke="#006bb6" stroke-linecap="round" stroke-linejoin="round" stroke-width="17.64"/><path d="m396.47,235.38c0,33.05-26.79,59.84-59.84,59.84s-59.84-26.79-59.84-59.84,26.79-59.84,59.84-59.84,59.84,26.79,59.84,59.84Zm32.03,0h55.5m-294.75,0h55.5m91.88,91.88v55.5m0-294.75v55.5" fill="none" stroke="#fff" stroke-linecap="round" stroke-linejoin="round" stroke-width="4.41"/></g><path d="m403.53,175.34l-66.91,86.48m-29.35-39.35l29.35,39.35" fill="none" stroke="#006bb6" stroke-linecap="round" stroke-linejoin="round" stroke-width="17.64"/><path d="m403.53,175.34l-66.91,86.48m-29.35-39.35l29.35,39.35" fill="none" stroke="#fff" stroke-linecap="round" stroke-linejoin="round" stroke-width="4.41"/></svg>