<svg xmlns="http://www.w3.org/2000/svg" viewBox="0 0 397.28 347.5"><polygon points="295.46 5 101.82 5 5 173.75 101.82 342.5 295.46 342.5 392.28 173.75 295.46 5" fill="#fff" stroke="#006bb6" stroke-linecap="round" stroke-linejoin="round" stroke-width="10"/><path d="M136.53,151.69a64.08,64.08,0,1,1,69,58.66,66,66,0,0,1-10.33,0A64.29,64.29,0,0,1,136.53,151.69Z" transform="translate(-1.91 -1.38)" fill="#fff" stroke="#414042" stroke-miterlimit="3.86"/><path d="M165,146.49A64.11,64.11,0,0,1,214.73,84a64.08,64.08,0,1,0,0,124.93A64.12,64.12,0,0,1,165,146.49Z" transform="translate(-1.91 -1.38)" fill="#006bb6" stroke="#414042" stroke-miterlimit="3.86" stroke-width="0.84"/><polygon points="179.74 116.63 201.48 116.63 209.87 154.35 218.22 116.63 239.89 116.63 239.89 178.62 226.39 178.62 226.39 131.35 215.93 178.62 203.71 178.62 193.28 131.35 193.28 178.62 179.74 178.62 179.74 116.63" fill="#006bb6" fill-rule="evenodd"/><polygon points="124.16 217.18 133.24 217.18 133.24 222.56 143.16 222.56 143.16 217.18 152.28 217.18 152.28 232.55 143.16 232.55 143.16 226.33 133.24 226.33 133.24 232.55 124.16 232.55 124.16 217.18" fill="#414042" fill-rule="evenodd"/><path d="M176.4,228.06l-3.25-5.52-3.23,5.52Zm1.9,3.33H168l-1.4,2.53h-9.3l11.05-15.36h9.9l11,15.36h-9.52Z" transform="translate(-1.91 -1.38)" fill="#414042" fill-rule="evenodd"/><polygon points="190.25 217.18 199.32 217.18 199.32 228.76 213.5 228.76 213.5 232.55 190.25 232.55 190.25 217.18" fill="#414042" fill-rule="evenodd"/><path d="M235.71,228.06l-3.25-5.52-3.22,5.52Zm1.9,3.33H227.27l-1.42,2.53h-9.3l11-15.36h9.91l11.05,15.36h-9.5Z" transform="translate(-1.91 -1.38)" fill="#414042" fill-rule="evenodd"/><polygon points="249.56 217.18 258.64 217.18 258.64 228.76 272.81 228.76 272.81 232.55 249.56 232.55 249.56 217.18" fill="#414042" fill-rule="evenodd"/><path d="M263.45,195.36h2.07a3.24,3.24,0,0,0,1-.13,1.11,1.11,0,0,0,.56-.44,1.19,1.19,0,0,0,.2-.66,1.06,1.06,0,0,0-.38-.84,1.72,1.72,0,0,0-1.18-.33h-2.3Zm-1,4.06v-7.27h3.23a4.26,4.26,0,0,1,1.46.2,1.68,1.68,0,0,1,.82.69,2,2,0,0,1,.29,1.09,1.83,1.83,0,0,1-.48,1.31,2.64,2.64,0,0,1-1.55.68,2.34,2.34,0,0,1,.58.36,5,5,0,0,1,.8,1l1.26,2h-1.21l-1-1.51a11.09,11.09,0,0,0-.69-1,2.07,2.07,0,0,0-.49-.49,1.34,1.34,0,0,0-.44-.19,3.08,3.08,0,0,0-.53,0h-1.09v3.23Z" transform="translate(-1.91 -1.38)" fill="#414042" fill-rule="evenodd"/><path d="M259.22,196.06a6,6,0,1,1,6,6,6,6,0,0,1-6-6Z" transform="translate(-1.91 -1.38)" fill="none" stroke="#231f20" stroke-miterlimit="3.86" stroke-width="0.37"/><path d="M176.41,248.74l5.45-2.22v26.92c0,3.32-1.7,3.85-3.75,3.85H145.67c-.76-6.32,2.59-12.28,10.05-16.63,1.24-.82,2.13.73.69,1.53a17.15,17.15,0,0,0-7.34,9H176.4Z" transform="translate(-1.91 -1.38)" fill="#414042" fill-rule="evenodd"/><path d="M188.13,246.1c6.65,2.93,10.46,11.12,11.43,25.11h2.51V247.47l6.08-3.48v27.22h31.93c-3.42-3-4.94-4.13-7.3-6.15a2.36,2.36,0,0,0-2.75-.17c-3.43,1.38-2.84,6.64-3.43,5.51-2.59-6.24,4.22-10.28,9.08-7.78l11.19,8.59h8.34v6.1H187v-6.1h9.56c-.92-8.37-3.73-14.28-8.43-17.26Z" transform="translate(-1.91 -1.38)" fill="#414042" fill-rule="evenodd"/></svg>