<?xml version="1.0" encoding="utf-8"?>
<!-- Generator: Adobe Illustrator 23.1.0, SVG Export Plug-In . SVG Version: 6.00 Build 0)  -->
<svg version="1.1" id="Layer_1" xmlns="http://www.w3.org/2000/svg" xmlns:xlink="http://www.w3.org/1999/xlink" x="0px" y="0px"
	 viewBox="0 0 565.2 367.2" style="enable-background:new 0 0 565.2 367.2;" xml:space="preserve">
<style type="text/css">
	.st0{fill:none;stroke:#1385C8;stroke-width:0.584;stroke-linejoin:round;stroke-miterlimit:10;}
	.st1{fill:#1E538E;}
	.st2{font-family:'Arial-BoldMT';}
	.st3{font-size:6.2318px;}
	.st4{font-family:'ArialMT';}
	.st5{font-size:5.4528px;}
	.st6{clip-path:url(#SVGID_4_);fill-rule:evenodd;clip-rule:evenodd;fill:#FFFFFF;}
	.st7{clip-path:url(#SVGID_6_);fill:none;stroke:#26B463;stroke-width:1.753;stroke-miterlimit:8;}
	.st8{clip-path:url(#SVGID_8_);fill:none;stroke:#26B463;stroke-width:1.753;stroke-miterlimit:8;}
	.st9{clip-path:url(#SVGID_10_);fill:none;stroke:#26B463;stroke-width:1.753;stroke-miterlimit:8;}
	.st10{fill:#ED2224;}
	.st11{clip-path:url(#SVGID_12_);fill:none;stroke:#26B463;stroke-width:1.753;stroke-miterlimit:8;}
	.st12{fill-rule:evenodd;clip-rule:evenodd;fill:#D4EDF0;}
	.st13{clip-path:url(#SVGID_14_);fill:none;stroke:#FFCB05;stroke-width:2.337;stroke-linejoin:round;stroke-miterlimit:10;}
	.st14{font-size:7.0108px;}
	.st15{fill:none;stroke:#1385C8;stroke-width:2.337;stroke-miterlimit:8;}
	.st16{fill:none;stroke:#FFCB05;stroke-width:2.337;stroke-linejoin:round;stroke-miterlimit:10;}
	.st17{font-family:'Arial-BoldItalicMT';}
	.st18{fill:none;stroke:#EE3424;stroke-width:2.337;stroke-linejoin:round;stroke-miterlimit:10;}
	.st19{fill:#2468A0;}
	.st20{fill:#010101;}
	.st21{fill:none;stroke:#2468A0;stroke-width:0.779;stroke-linejoin:round;stroke-miterlimit:10;}
	.st22{fill-rule:evenodd;clip-rule:evenodd;fill:#2468A0;}
	.st23{fill:none;stroke:#2468A0;stroke-width:0.584;stroke-linejoin:round;stroke-miterlimit:10;}
	.st24{clip-path:url(#SVGID_16_);fill-rule:evenodd;clip-rule:evenodd;fill:#2468A0;}
	.st25{clip-path:url(#SVGID_18_);fill:none;stroke:#2468A0;stroke-width:0.779;stroke-linejoin:round;stroke-miterlimit:10;}
	.st26{clip-path:url(#SVGID_20_);fill-rule:evenodd;clip-rule:evenodd;fill:#2468A0;}
	.st27{clip-path:url(#SVGID_22_);fill:none;stroke:#2468A0;stroke-width:0.779;stroke-linejoin:round;stroke-miterlimit:10;}
	.st28{clip-path:url(#SVGID_24_);fill-rule:evenodd;clip-rule:evenodd;fill:#2468A0;}
	.st29{clip-path:url(#SVGID_26_);fill:none;stroke:#2468A0;stroke-width:0.779;stroke-linejoin:round;stroke-miterlimit:10;}
	.st30{clip-path:url(#SVGID_28_);fill:none;stroke:#2468A0;stroke-width:0.779;stroke-linejoin:round;stroke-miterlimit:10;}
	.st31{clip-path:url(#SVGID_30_);fill-rule:evenodd;clip-rule:evenodd;fill:#2468A0;}
	.st32{clip-path:url(#SVGID_32_);fill:none;stroke:#2468A0;stroke-width:0.779;stroke-linejoin:round;stroke-miterlimit:10;}
	.st33{clip-path:url(#SVGID_34_);fill:none;stroke:#2468A0;stroke-width:0.779;stroke-linejoin:round;stroke-miterlimit:10;}
	.st34{clip-path:url(#SVGID_36_);fill-rule:evenodd;clip-rule:evenodd;fill:#2468A0;}
	.st35{clip-path:url(#SVGID_38_);fill:none;stroke:#2468A0;stroke-width:0.779;stroke-linejoin:round;stroke-miterlimit:10;}
	
		.st36{clip-path:url(#SVGID_40_);fill:none;stroke:#2468A0;stroke-width:0.779;stroke-linejoin:round;stroke-miterlimit:10;stroke-dasharray:3.116,2.337;}
	.st37{clip-path:url(#SVGID_42_);fill-rule:evenodd;clip-rule:evenodd;fill:#2468A0;}
	.st38{clip-path:url(#SVGID_44_);fill:none;stroke:#1385C8;stroke-width:0.584;stroke-miterlimit:8;}
	.st39{font-size:4.6739px;}
	.st40{fill:none;stroke:#1385C8;stroke-width:0.584;stroke-miterlimit:8;}
	.st41{clip-path:url(#SVGID_46_);fill:none;stroke:#EE3424;stroke-width:2.337;stroke-linejoin:round;stroke-miterlimit:10;}
	.st42{clip-path:url(#SVGID_48_);fill-rule:evenodd;clip-rule:evenodd;fill:#FFFFFF;}
	.st43{clip-path:url(#SVGID_50_);fill:none;stroke:#26B463;stroke-width:1.753;stroke-miterlimit:8;}
	.st44{fill:none;stroke:#2468A0;stroke-width:0.779;stroke-linejoin:round;stroke-miterlimit:10;stroke-dasharray:3.116,2.337;}
	.st45{clip-path:url(#SVGID_52_);fill-rule:evenodd;clip-rule:evenodd;fill:#FFFFFF;}
	.st46{clip-path:url(#SVGID_54_);fill:none;stroke:#26B463;stroke-width:1.753;stroke-miterlimit:8;}
	.st47{clip-path:url(#SVGID_56_);fill-rule:evenodd;clip-rule:evenodd;fill:#FFFFFF;}
	.st48{clip-path:url(#SVGID_58_);fill:none;stroke:#26B463;stroke-width:1.753;stroke-miterlimit:8;}
	.st49{clip-path:url(#SVGID_60_);fill-rule:evenodd;clip-rule:evenodd;fill:#FFFFFF;}
	.st50{clip-path:url(#SVGID_62_);fill:none;stroke:#26B463;stroke-width:1.753;stroke-miterlimit:8;}
</style>
<g>
	<defs>
		<rect id="SVGID_1_" x="292.76" y="-51.57" width="257.81" height="226.08"/>
	</defs>
	<clipPath id="SVGID_2_">
		<use xlink:href="#SVGID_1_"  style="overflow:visible;"/>
	</clipPath>
</g>
<rect x="115.46" y="7.44" class="st0" width="121.52" height="33.01"/>
<text transform="matrix(1 0 0 1 149.088 16.4761)"><tspan x="0" y="0" class="st1 st2 st3">DRINKING </tspan><tspan x="32.54" y="0" class="st1 st2 st3">W</tspan><tspan x="38.09" y="0" class="st1 st2 st3">A</tspan><tspan x="42.13" y="0" class="st1 st2 st3">TER </tspan></text>
<text transform="matrix(1 0 0 1 122.0378 22.708)"><tspan x="0" y="0" class="st1 st4 st5">(Complying with US E</tspan><tspan x="53.03" y="0" class="st1 st4 st5">P</tspan><tspan x="56.27" y="0" class="st1 st4 st5">A</tspan><tspan x="59.62" y="0" class="st1 st4 st5"> NPDWR or drinking </tspan></text>
<text transform="matrix(1 0 0 1 126.0729 29.7202)" class="st1 st4 st5">water regulations of EU or Japan or WHO </text>
<text transform="matrix(1 0 0 1 139.9665 35.9526)"><tspan x="0" y="0" class="st1 st4 st5">Guidelines for Drinking</tspan><tspan x="55.16" y="0" class="st1 st4 st5"> </tspan><tspan x="56.68" y="0" class="st1 st4 st5">W</tspan><tspan x="61.63" y="0" class="st1 st4 st5">ater) </tspan></text>
<g>
	<defs>
		<rect id="SVGID_3_" x="10.69" y="6.37" width="547.95" height="354.53"/>
	</defs>
	<clipPath id="SVGID_4_">
		<use xlink:href="#SVGID_3_"  style="overflow:visible;"/>
	</clipPath>
	<path class="st6" d="M302.42,21.49c0-2.6,2.11-4.71,4.71-4.71h42c2.6,0,4.71,2.11,4.71,4.71v18.83c0,2.6-2.11,4.7-4.71,4.7h-42
		c-2.6,0-4.71-2.11-4.71-4.7V21.49z"/>
</g>
<g>
	<defs>
		<rect id="SVGID_5_" x="10.69" y="6.37" width="547.95" height="354.53"/>
	</defs>
	<clipPath id="SVGID_6_">
		<use xlink:href="#SVGID_5_"  style="overflow:visible;"/>
	</clipPath>
	<path class="st7" d="M302.42,21.49c0-2.6,2.11-4.71,4.71-4.71h42c2.6,0,4.71,2.11,4.71,4.71v18.83c0,2.6-2.11,4.7-4.71,4.7h-42
		c-2.6,0-4.71-2.11-4.71-4.7V21.49z"/>
</g>
<text transform="matrix(1 0 0 1 312.8385 26.4229)" class="st1 st4 st5">If compatible </text>
<text transform="matrix(1 0 0 1 311.0221 32.6558)" class="st1 st4 st5">without further </text>
<text transform="matrix(1 0 0 1 315.112 38.8882)" class="st1 st4 st5">purification </text>
<rect x="288.4" y="63.53" class="st0" width="88.8" height="41.58"/>
<text transform="matrix(1 0 0 1 300.1217 72.5625)"><tspan x="0" y="0" class="st1 st2 st3">W</tspan><tspan x="5.54" y="0" class="st1 st2 st3">A</tspan><tspan x="9.58" y="0" class="st1 st2 st3">TER FOR SPECIA</tspan><tspan x="61.87" y="0" class="st1 st2 st3">L</tspan><tspan x="65.57" y="0" class="st1 st2 st3"> </tspan></text>
<text transform="matrix(1 0 0 1 303.5299 79.5732)"><tspan x="0" y="0" class="st1 st2 st3">PHARMACEUTICA</tspan><tspan x="55.05" y="0" class="st1 st2 st3">L</tspan><tspan x="58.75" y="0" class="st1 st2 st3"> </tspan></text>
<text transform="matrix(1 0 0 1 315.6452 87.3628)" class="st1 st2 st3">PURPOSES </text>
<text transform="matrix(1 0 0 1 303.0983 93.5947)"><tspan x="0" y="0" class="st1 st4 st5">(e.g., initial cleaning</tspan><tspan x="48.19" y="0" class="st1 st4 st5">,</tspan><tspan x="49.71" y="0" class="st1 st4 st5"> </tspan><tspan x="50.93" y="0" class="st1 st4 st5">API </tspan></text>
<text transform="matrix(1 0 0 1 297.0348 100.6069)" class="st1 st4 st5">process and ingredient water) </text>
<g>
	<defs>
		<rect id="SVGID_7_" x="10.69" y="6.37" width="547.95" height="354.53"/>
	</defs>
	<clipPath id="SVGID_8_">
		<use xlink:href="#SVGID_7_"  style="overflow:visible;"/>
	</clipPath>
	<path class="st8" d="M115.46,67.21c0-4.61,3.74-8.35,8.35-8.35h100.14c4.61,0,8.35,3.74,8.35,8.35v33.42
		c0,4.61-3.74,8.35-8.35,8.35H123.82c-4.61,0-8.35-3.74-8.35-8.35V67.21z"/>
</g>
<text transform="matrix(1 0 0 1 125.4704 69.5566)"><tspan x="0" y="0" class="st1 st2 st5">T</tspan><tspan x="2.93" y="0" class="st1 st2 st5">ypical </tspan><tspan x="19.91" y="0" class="st1 st2 st5">T</tspan><tspan x="22.94" y="0" class="st1 st2 st5">reatment Steps may include: </tspan></text>
<text transform="matrix(1 0 0 1 123.5236 75.7891)" class="st1 st4 st5">Pre-Filtration </text>
<text transform="matrix(1 0 0 1 123.5236 82.022)" class="st1 st4 st5">Softening </text>
<text transform="matrix(1 0 0 1 123.5236 89.0342)" class="st1 st4 st5">Dechlorination </text>
<text transform="matrix(1 0 0 1 123.5236 95.2666)" class="st1 st4 st5">Deammonification </text>
<text transform="matrix(1 0 0 1 123.5236 102.2793)" class="st1 st4 st5">Organic Scavenging </text>
<text transform="matrix(1 0 0 1 183.924 77.8013)" class="st1 st4 st5">Deionization </text>
<text transform="matrix(1 0 0 1 183.924 84.0342)" class="st1 st4 st5">Reverse Osmosis </text>
<text transform="matrix(1 0 0 1 183.924 90.2666)" class="st1 st4 st5">Distillation </text>
<text transform="matrix(1 0 0 1 183.924 97.2788)" class="st1 st4 st5">Ultrafiltration </text>
<text transform="matrix(1 0 0 1 183.924 103.5112)"><tspan x="0" y="0" class="st1 st4 st5">UV</tspan><tspan x="7.57" y="0" class="st1 st4 st5"> </tspan><tspan x="9" y="0" class="st1 st4 st5">T</tspan><tspan x="12.13" y="0" class="st1 st4 st5">reatment </tspan></text>
<g>
	<defs>
		<rect id="SVGID_9_" x="10.69" y="6.37" width="547.95" height="354.53"/>
	</defs>
	<clipPath id="SVGID_10_">
		<use xlink:href="#SVGID_9_"  style="overflow:visible;"/>
	</clipPath>
	<path class="st9" d="M232.31,149.34c0-3.94,3.2-7.14,7.14-7.14h69.85c3.94,0,7.14,3.2,7.14,7.14v28.56c0,3.94-3.2,7.14-7.14,7.14
		h-69.85c-3.94,0-7.14-3.2-7.14-7.14V149.34z"/>
</g>
<text transform="matrix(1 0 0 1 243.3151 152.5522)" class="st1 st4 st5">Distillation, Sterilization or </text>
<text transform="matrix(1 0 0 1 241.1881 158.7847)" class="st1 st4 st5">equivalent/superior process </text>
<text transform="matrix(1 0 0 1 245.7414 165.0171)" class="st1 st4 st5">for removing chemicals, </text>
<text transform="matrix(1 0 0 1 249.2257 172.0293)" class="st1 st4 st5">microorganisms, and </text>
<text transform="matrix(1 0 0 1 256.5544 178.2622)"><tspan x="0" y="0" class="st10 st2 st5">ENDO</tspan><tspan x="15.75" y="0" class="st10 st2 st5">T</tspan><tspan x="18.99" y="0" class="st10 st2 st5">OXINS </tspan></text>
<g>
	<defs>
		<rect id="SVGID_11_" x="10.69" y="6.37" width="547.95" height="354.53"/>
	</defs>
	<clipPath id="SVGID_12_">
		<use xlink:href="#SVGID_11_"  style="overflow:visible;"/>
	</clipPath>
	<path class="st11" d="M381.87,221.72c0-1.92,1.55-3.47,3.47-3.47h44.47c1.92,0,3.47,1.55,3.47,3.47v13.89
		c0,1.92-1.55,3.47-3.47,3.47h-44.47c-1.92,0-3.47-1.55-3.47-3.47V221.72z"/>
</g>
<text transform="matrix(1 0 0 1 389.693 227.5259)" class="st1 st4 st5">Packaging and </text>
<text transform="matrix(1 0 0 1 394.2946 233.7583)"><tspan x="0" y="0" class="st1 st4 st5">QC</tspan><tspan x="8.18" y="0" class="st1 st4 st5"> </tspan><tspan x="9.6" y="0" class="st1 st4 st5">T</tspan><tspan x="12.34" y="0" class="st1 st4 st5">esting </tspan></text>
<rect x="12.64" y="211.05" class="st12" width="74.78" height="22.59"/>
<g>
	<defs>
		<rect id="SVGID_13_" x="10.69" y="6.37" width="547.95" height="354.53"/>
	</defs>
	<clipPath id="SVGID_14_">
		<use xlink:href="#SVGID_13_"  style="overflow:visible;"/>
	</clipPath>
	<rect x="12.64" y="211.05" class="st13" width="74.78" height="22.59"/>
</g>
<text transform="matrix(1 0 0 1 28.1139 220.8604)"><tspan x="0" y="0" class="st1 st2 st14">ANA</tspan><tspan x="15.19" y="0" class="st1 st2 st14">L</tspan><tspan x="18.84" y="0" class="st1 st2 st14">YTICA</tspan><tspan x="39.87" y="0" class="st1 st2 st14">L</tspan><tspan x="44.04" y="0" class="st1 st2 st14"> </tspan></text>
<text transform="matrix(1 0 0 1 19.673 228.6494)"><tspan x="0" y="0" class="st1 st2 st14">REAGENT </tspan><tspan x="36.22" y="0" class="st1 st2 st14">W</tspan><tspan x="42.46" y="0" class="st1 st2 st14">A</tspan><tspan x="47.01" y="0" class="st1 st2 st14">TER </tspan></text>
<rect x="17.31" y="124.29" class="st15" width="74.78" height="50.93"/>
<text transform="matrix(1 0 0 1 35.2965 133.3228)" class="st1 st2 st3">Cleaning and </text>
<text transform="matrix(1 0 0 1 25.3693 140.3335)"><tspan x="0" y="0" class="st1 st2 st3">Ingredient </tspan><tspan x="31.85" y="0" class="st1 st2 st3">W</tspan><tspan x="37.51" y="0" class="st1 st2 st3">ater for </tspan></text>
<text transform="matrix(1 0 0 1 32.5172 148.123)" class="st1 st2 st3">Non-Parenteral </text>
<text transform="matrix(1 0 0 1 26.8024 155.1338)" class="st1 st2 st3">Dosage Forms and </text>
<text transform="matrix(1 0 0 1 23.986 162.9238)"><tspan x="0" y="0" class="st1 st2 st3">other FD</tspan><tspan x="25.62" y="0" class="st1 st2 st3">A</tspan><tspan x="29.89" y="0" class="st1 st2 st3"> Monitored </tspan></text>
<text transform="matrix(1 0 0 1 39.2599 170.7134)" class="st1 st2 st3">Processes </text>
<rect x="466" y="142.98" class="st15" width="84.13" height="43.43"/>
<text transform="matrix(1 0 0 1 472.735 152.0181)" class="st1 st2 st3">Cleaning and Ingredient </text>
<text transform="matrix(1 0 0 1 478.5553 159.0288)"><tspan x="0" y="0" class="st1 st2 st3">W</tspan><tspan x="5.66" y="0" class="st1 st2 st3">ater for Parenteral </tspan></text>
<text transform="matrix(1 0 0 1 480.1764 166.8184)" class="st1 st2 st3">Dosage Forms and </text>
<text transform="matrix(1 0 0 1 477.359 173.8296)"><tspan x="0" y="0" class="st1 st2 st3">other FD</tspan><tspan x="25.62" y="0" class="st1 st2 st3">A</tspan><tspan x="29.89" y="0" class="st1 st2 st3"> Monitored </tspan></text>
<text transform="matrix(1 0 0 1 482.2448 181.6191)" class="st1 st2 st3">Sterile Processes </text>
<rect x="349.16" y="157.78" class="st12" width="98.15" height="14.22"/>
<rect x="349.16" y="157.78" class="st16" width="98.15" height="14.22"/>
<text transform="matrix(1 0 0 1 357.946 167.5977)"><tspan x="0" y="0" class="st1 st17 st14">W</tspan><tspan x="6.24" y="0" class="st1 st17 st14">A</tspan><tspan x="10.78" y="0" class="st1 st17 st14">TER FOR INJECTION </tspan></text>
<rect x="218.29" y="283.2" class="st18" width="112.17" height="34.96"/>
<text transform="matrix(1 0 0 1 226.9235 292.2344)"><tspan x="0" y="0" class="st1 st17 st3">US</tspan><tspan x="8.66" y="0" class="st1 st17 st3">P</tspan><tspan x="12.59" y="0" class="st1 st17 st3"> STERILE PURIFIED </tspan><tspan x="73.18" y="0" class="st1 st17 st3">W</tspan><tspan x="78.73" y="0" class="st1 st17 st3">A</tspan><tspan x="82.77" y="0" class="st1 st17 st3">TER </tspan></text>
<text transform="matrix(1 0 0 1 253.3185 298.4658)" class="st1 st17 st5">(</text>
<text transform="matrix(1 0 0 1 255.1344 298.4658)" class="st19 st17 st5">Bulk Packaged) </text>
<text transform="matrix(1 0 0 1 249.5959 306.2559)" class="st20 st2 st3">Spectrum Part #: </text>
<text transform="matrix(1 0 0 1 259.1867 313.2666)"><tspan x="0" y="0" class="st1 st2 st3">WP</tspan><tspan x="10.04" y="0" class="st1 st2 st3">W</tspan><tspan x="15.8" y="0" class="st1 st2 st3">-US</tspan><tspan x="26.53" y="0" class="st1 st2 st3">P</tspan><tspan x="30.58" y="0" class="st1 st2 st3"> </tspan></text>
<rect x="129.49" y="283.2" class="st18" width="84.13" height="35.83"/>
<text transform="matrix(1 0 0 1 137.4953 292.3672)"><tspan x="0" y="0" class="st1 st17 st3">USP</tspan><tspan x="12.81" y="0" class="st1 st17 st3"> </tspan><tspan x="14.32" y="0" class="st1 st17 st3">PURIFIED WATER </tspan></text>
<text transform="matrix(1 0 0 1 147.2419 299.6396)" class="st1 st17 st3">(</text>
<text transform="matrix(1 0 0 1 149.317 299.6396)" class="st19 st17 st3">Bulk Packaged) </text>
<text transform="matrix(1 0 0 1 146.55 306.9121)" class="st20 st2 st3">Spectrum Part #: </text>
<text transform="matrix(1 0 0 1 161.6125 314.1846)" class="st1 st2 st3">W1146</text>
<text transform="matrix(1 0 0 1 181.3546 314.1846)" class="st1 st2 st3"> </text>
<rect x="339.81" y="278.52" class="st18" width="149.56" height="50.93"/>
<text transform="matrix(1 0 0 1 353.737 287.4795)"><tspan x="0" y="0" class="st1 st17 st3">USP</tspan><tspan x="12.81" y="0" class="st1 st17 st3"> </tspan><tspan x="14.32" y="0" class="st1 st17 st3">STERILE WATER FOR INJECTION </tspan></text>
<text transform="matrix(1 0 0 1 375.5983 294.958)" class="st20 st2 st3">Spectrum Part #: </text>
<text transform="matrix(1 0 0 1 427.1979 294.958)" class="st1 st2 st3">W</text>
<text transform="matrix(1 0 0 1 433.0807 294.958)" class="st1 st2 st3">1144</text>
<text transform="matrix(1 0 0 1 446.946 294.958)" class="st1 st17 st3"> </text>
<text transform="matrix(1 0 0 1 348.7204 302.4355)"><tspan x="0" y="0" class="st1 st17 st3">USP/EP</tspan><tspan x="22.86" y="0" class="st1 st17 st3"> </tspan><tspan x="24.37" y="0" class="st1 st17 st3">STERILE WATER FOR INJECTION </tspan></text>
<text transform="matrix(1 0 0 1 372.6696 309.9141)" class="st20 st2 st3">Spectrum Part #: </text>
<text transform="matrix(1 0 0 1 424.2682 309.9141)" class="st1 st2 st3">WFI-EPZ</text>
<text transform="matrix(1 0 0 1 352.0172 317.3926)"><tspan x="0" y="0" class="st1 st17 st3">USP</tspan><tspan x="12.81" y="0" class="st1 st17 st3"> </tspan><tspan x="14.32" y="0" class="st1 st17 st3">STERILE WATER FOR IRRIGATION </tspan></text>
<text transform="matrix(1 0 0 1 375.6042 324.8701)" class="st20 st2 st3">Spectrum Part #: </text>
<text transform="matrix(1 0 0 1 427.2038 324.8701)" class="st1 st2 st3">W</text>
<text transform="matrix(1 0 0 1 433.0866 324.8701)" class="st1 st2 st3">1140</text>
<text transform="matrix(1 0 0 1 446.9518 324.8701)" class="st1 st2 st3"> </text>
<line class="st21" x1="185.57" y1="161.68" x2="230.75" y2="161.68"/>
<polygon class="st22" points="227.64,159.34 232.31,161.68 227.64,164.01 "/>
<line class="st21" x1="325.79" y1="44.83" x2="325.79" y2="61.97"/>
<polygon class="st22" points="328.12,58.85 325.79,63.53 323.45,58.85 "/>
<line class="st23" x1="274.38" y1="124.29" x2="274.38" y2="141.42"/>
<polygon class="st22" points="276.71,138.31 274.38,142.98 272.04,138.31 "/>
<line class="st21" x1="148.18" y1="124.29" x2="148.18" y2="150.77"/>
<polygon class="st22" points="150.52,147.66 148.18,152.33 145.84,147.66 "/>
<line class="st21" x1="405.24" y1="241.13" x2="405.24" y2="276.97"/>
<polygon class="st22" points="407.58,273.85 405.24,278.52 402.91,273.85 "/>
<line class="st21" x1="232.31" y1="82.22" x2="286.85" y2="82.22"/>
<g>
	<defs>
		<rect id="SVGID_15_" x="10.69" y="6.37" width="547.95" height="354.53"/>
	</defs>
	<clipPath id="SVGID_16_">
		<use xlink:href="#SVGID_15_"  style="overflow:visible;"/>
	</clipPath>
	<path class="st24" d="M288.4,82.22l-5.83,3.4c-0.37,0.22-0.85,0.09-1.06-0.28c-0.22-0.37-0.09-0.85,0.28-1.07l3.52-2.05l-3.52-2.05
		c-0.37-0.22-0.5-0.69-0.28-1.07c0.22-0.37,0.69-0.5,1.06-0.28L288.4,82.22z"/>
</g>
<g>
	<defs>
		<rect id="SVGID_17_" x="10.69" y="6.37" width="547.95" height="354.53"/>
	</defs>
	<clipPath id="SVGID_18_">
		<use xlink:href="#SVGID_17_"  style="overflow:visible;"/>
	</clipPath>
	<line class="st25" x1="106.12" y1="222.44" x2="88.98" y2="222.44"/>
</g>
<g>
	<defs>
		<rect id="SVGID_19_" x="10.69" y="6.37" width="547.95" height="354.53"/>
	</defs>
	<clipPath id="SVGID_20_">
		<use xlink:href="#SVGID_19_"  style="overflow:visible;"/>
	</clipPath>
	<polygon class="st26" points="92.09,220.1 87.42,222.44 92.09,224.78 	"/>
</g>
<g>
	<defs>
		<rect id="SVGID_21_" x="10.69" y="6.37" width="547.95" height="354.53"/>
	</defs>
	<clipPath id="SVGID_22_">
		<use xlink:href="#SVGID_21_"  style="overflow:visible;"/>
	</clipPath>
	<line class="st27" x1="307.09" y1="161.68" x2="347.6" y2="161.68"/>
</g>
<g>
	<defs>
		<rect id="SVGID_23_" x="10.69" y="6.37" width="547.95" height="354.53"/>
	</defs>
	<clipPath id="SVGID_24_">
		<use xlink:href="#SVGID_23_"  style="overflow:visible;"/>
	</clipPath>
	<polygon class="st28" points="344.48,159.34 349.16,161.68 344.48,164.01 	"/>
</g>
<g>
	<defs>
		<rect id="SVGID_25_" x="10.69" y="6.37" width="547.95" height="354.53"/>
	</defs>
	<clipPath id="SVGID_26_">
		<use xlink:href="#SVGID_25_"  style="overflow:visible;"/>
	</clipPath>
	<line class="st29" x1="180.9" y1="110.27" x2="180.9" y2="124.29"/>
</g>
<g>
	<defs>
		<rect id="SVGID_27_" x="10.69" y="6.37" width="547.95" height="354.53"/>
	</defs>
	<clipPath id="SVGID_28_">
		<use xlink:href="#SVGID_27_"  style="overflow:visible;"/>
	</clipPath>
	<line class="st30" x1="405.24" y1="171.03" x2="405.24" y2="216.21"/>
</g>
<g>
	<defs>
		<rect id="SVGID_29_" x="10.69" y="6.37" width="547.95" height="354.53"/>
	</defs>
	<clipPath id="SVGID_30_">
		<use xlink:href="#SVGID_29_"  style="overflow:visible;"/>
	</clipPath>
	<polygon class="st31" points="407.58,213.09 405.24,217.76 402.91,213.09 	"/>
</g>
<g>
	<defs>
		<rect id="SVGID_31_" x="10.69" y="6.37" width="547.95" height="354.53"/>
	</defs>
	<clipPath id="SVGID_32_">
		<use xlink:href="#SVGID_31_"  style="overflow:visible;"/>
	</clipPath>
	<line class="st32" x1="236.98" y1="26.14" x2="302.42" y2="26.14"/>
</g>
<g>
	<defs>
		<rect id="SVGID_33_" x="10.69" y="6.37" width="547.95" height="354.53"/>
	</defs>
	<clipPath id="SVGID_34_">
		<use xlink:href="#SVGID_33_"  style="overflow:visible;"/>
	</clipPath>
	<line class="st33" x1="176.22" y1="40.45" x2="176.22" y2="57.29"/>
</g>
<g>
	<defs>
		<rect id="SVGID_35_" x="10.69" y="6.37" width="547.95" height="354.53"/>
	</defs>
	<clipPath id="SVGID_36_">
		<use xlink:href="#SVGID_35_"  style="overflow:visible;"/>
	</clipPath>
	<polygon class="st34" points="178.56,54.18 176.22,58.85 173.89,54.18 	"/>
</g>
<g>
	<defs>
		<rect id="SVGID_37_" x="10.69" y="6.37" width="547.95" height="354.53"/>
	</defs>
	<clipPath id="SVGID_38_">
		<use xlink:href="#SVGID_37_"  style="overflow:visible;"/>
	</clipPath>
	<line class="st35" x1="148.18" y1="124.29" x2="274.37" y2="124.29"/>
</g>
<g>
	<defs>
		<rect id="SVGID_39_" x="10.69" y="6.37" width="547.95" height="354.53"/>
	</defs>
	<clipPath id="SVGID_40_">
		<use xlink:href="#SVGID_39_"  style="overflow:visible;"/>
	</clipPath>
	<line class="st36" x1="447.31" y1="161.68" x2="464.45" y2="161.68"/>
</g>
<g>
	<defs>
		<rect id="SVGID_41_" x="10.69" y="6.37" width="547.95" height="354.53"/>
	</defs>
	<clipPath id="SVGID_42_">
		<use xlink:href="#SVGID_41_"  style="overflow:visible;"/>
	</clipPath>
	<polygon class="st37" points="461.33,159.34 466,161.68 461.33,164.01 	"/>
</g>
<g>
	<defs>
		<rect id="SVGID_43_" x="10.69" y="6.37" width="547.95" height="354.53"/>
	</defs>
	<clipPath id="SVGID_44_">
		<use xlink:href="#SVGID_43_"  style="overflow:visible;"/>
	</clipPath>
	<rect x="36.01" y="110.27" class="st38" width="42.06" height="11.3"/>
</g>
<text transform="matrix(1 0 0 1 42.3952 117.7432)" class="st20 st17 st39">Applications: </text>
<rect x="489.37" y="128.96" class="st40" width="42.06" height="11.3"/>
<text transform="matrix(1 0 0 1 495.7604 136.4385)" class="st20 st17 st39">Applications:  </text>
<g>
	<defs>
		<rect id="SVGID_45_" x="10.69" y="6.37" width="547.95" height="354.53"/>
	</defs>
	<clipPath id="SVGID_46_">
		<use xlink:href="#SVGID_45_"  style="overflow:visible;"/>
	</clipPath>
	<rect x="12.64" y="255.16" class="st41" width="112.17" height="103.8"/>
</g>
<text transform="matrix(1 0 0 1 22.1984 264.1909)"><tspan x="0" y="0" class="st1 st17 st3">ACS REAGENT GRADE </tspan><tspan x="71.32" y="0" class="st1 st17 st3">W</tspan><tspan x="76.87" y="0" class="st1 st17 st3">A</tspan><tspan x="80.91" y="0" class="st1 st17 st3">TER </tspan></text>
<text transform="matrix(1 0 0 1 20.3976 271.2017)" class="st1 st17 st3">(</text>
<text transform="matrix(1 0 0 1 22.4728 271.2017)"><tspan x="0" y="0" class="st1 st2 st3">Also meets</tspan><tspan x="33.25" y="0" class="st1 st2 st3"> </tspan><tspan x="34.76" y="0" class="st1 st2 st3">ASTM </tspan><tspan x="54.14" y="0" class="st1 st2 st3">T</tspan><tspan x="57.49" y="0" class="st1 st2 st3">ype II specs</tspan></text>
<text transform="matrix(1 0 0 1 115.2887 271.2017)" class="st19 st17 st3">) </text>
<text transform="matrix(1 0 0 1 27.8507 278.9912)" class="st20 st2 st3">Spectrum Part #: </text>
<text transform="matrix(1 0 0 1 79.4499 278.9912)" class="st1 st2 st3">WRG-ACS </text>
<text transform="matrix(1 0 0 1 36.3947 293.792)"><tspan x="0" y="0" class="st1 st17 st3">HPLC GRADE </tspan><tspan x="42.93" y="0" class="st1 st17 st3">W</tspan><tspan x="48.48" y="0" class="st1 st17 st3">A</tspan><tspan x="52.52" y="0" class="st1 st17 st3">TER</tspan></text>
<text transform="matrix(1 0 0 1 101.3673 293.792)" class="st19 st17 st3"> </text>
<text transform="matrix(1 0 0 1 33.5529 301.582)" class="st20 st2 st3">Spectrum Part #: </text>
<text transform="matrix(1 0 0 1 85.152 301.582)" class="st1 st2 st3">HP902 </text>
<text transform="matrix(1 0 0 1 36.0519 316.3818)"><tspan x="0" y="0" class="st1 st17 st3">LCMS GRADE </tspan><tspan x="43.62" y="0" class="st1 st17 st3">W</tspan><tspan x="49.17" y="0" class="st1 st17 st3">A</tspan><tspan x="53.21" y="0" class="st1 st17 st3">TER</tspan></text>
<text transform="matrix(1 0 0 1 101.7165 316.3818)" class="st19 st17 st3"> </text>
<text transform="matrix(1 0 0 1 33.2101 323.3926)" class="st20 st2 st3">Spectrum Part #: </text>
<text transform="matrix(1 0 0 1 84.8092 323.3926)" class="st1 st2 st3">MS012 </text>
<text transform="matrix(1 0 0 1 24.9777 338.1934)"><tspan x="0" y="0" class="st1 st17 st3">MOLECULAR GRADE </tspan><tspan x="65.78" y="0" class="st1 st17 st3">W</tspan><tspan x="71.32" y="0" class="st1 st17 st3">A</tspan><tspan x="75.36" y="0" class="st1 st17 st3">TER </tspan></text>
<text transform="matrix(1 0 0 1 28.3742 345.9834)" class="st20 st2 st3">Spectrum Part #: </text>
<text transform="matrix(1 0 0 1 79.9738 345.9834)" class="st1 st2 st3">WFI-MGW </text>
<line class="st21" x1="54.7" y1="231.79" x2="54.7" y2="253.6"/>
<polygon class="st22" points="57.04,250.48 54.7,255.16 52.37,250.48 "/>
<line class="st21" x1="106.12" y1="161.68" x2="106.12" y2="222.44"/>
<g>
	<defs>
		<rect id="SVGID_47_" x="10.69" y="6.37" width="547.95" height="354.53"/>
	</defs>
	<clipPath id="SVGID_48_">
		<use xlink:href="#SVGID_47_"  style="overflow:visible;"/>
	</clipPath>
	<path class="st42" d="M87.42,184.54c0-2.3,1.87-4.17,4.17-4.17h33.72c2.3,0,4.17,1.87,4.17,4.17v16.68c0,2.3-1.87,4.17-4.17,4.17
		H91.59c-2.3,0-4.17-1.87-4.17-4.17V184.54z"/>
</g>
<g>
	<defs>
		<rect id="SVGID_49_" x="10.69" y="6.37" width="547.95" height="354.53"/>
	</defs>
	<clipPath id="SVGID_50_">
		<use xlink:href="#SVGID_49_"  style="overflow:visible;"/>
	</clipPath>
	<path class="st43" d="M87.42,184.54c0-2.3,1.87-4.17,4.17-4.17h33.72c2.3,0,4.17,1.87,4.17,4.17v16.68c0,2.3-1.87,4.17-4.17,4.17
		H91.59c-2.3,0-4.17-1.87-4.17-4.17V184.54z"/>
</g>
<text transform="matrix(1 0 0 1 95.3654 189.0728)" class="st1 st4 st39">May Require </text>
<text transform="matrix(1 0 0 1 101.0817 194.5273)" class="st1 st4 st39">Further </text>
<text transform="matrix(1 0 0 1 97.0524 199.9814)" class="st1 st4 st39">Processing </text>
<line class="st21" x1="157.53" y1="166.35" x2="157.53" y2="239.58"/>
<polygon class="st22" points="159.87,236.46 157.53,241.13 155.19,236.46 "/>
<line class="st21" x1="115.46" y1="161.68" x2="106.12" y2="161.68"/>
<line class="st44" x1="115.46" y1="157" x2="93.65" y2="157"/>
<polygon class="st22" points="96.77,154.67 92.09,157 96.77,159.34 "/>
<line class="st21" x1="157.53" y1="227.11" x2="157.53" y2="281.64"/>
<polygon class="st22" points="159.87,278.52 157.53,283.2 155.19,278.52 "/>
<line class="st21" x1="157.53" y1="166.35" x2="263.97" y2="282.05"/>
<polygon class="st22" points="263.58,278.18 265.03,283.2 260.14,281.34 "/>
<g>
	<defs>
		<rect id="SVGID_51_" x="10.69" y="6.37" width="547.95" height="354.53"/>
	</defs>
	<clipPath id="SVGID_52_">
		<use xlink:href="#SVGID_51_"  style="overflow:visible;"/>
	</clipPath>
	<path class="st45" d="M166.88,191.98c0-1.25,1.01-2.26,2.26-2.26h42.23c1.24,0,2.26,1.01,2.26,2.26V201c0,1.25-1.01,2.26-2.26,2.26
		h-42.23c-1.25,0-2.26-1.01-2.26-2.26V191.98z"/>
</g>
<g>
	<defs>
		<rect id="SVGID_53_" x="10.69" y="6.37" width="547.95" height="354.53"/>
	</defs>
	<clipPath id="SVGID_54_">
		<use xlink:href="#SVGID_53_"  style="overflow:visible;"/>
	</clipPath>
	<path class="st46" d="M166.88,191.98c0-1.25,1.01-2.26,2.26-2.26h42.23c1.24,0,2.26,1.01,2.26,2.26V201c0,1.25-1.01,2.26-2.26,2.26
		h-42.23c-1.25,0-2.26-1.01-2.26-2.26V191.98z"/>
</g>
<text transform="matrix(1 0 0 1 176.3371 198.6387)" class="st1 st4 st5">Sterilization </text>
<g>
	<defs>
		<rect id="SVGID_55_" x="10.69" y="6.37" width="547.95" height="354.53"/>
	</defs>
	<clipPath id="SVGID_56_">
		<use xlink:href="#SVGID_55_"  style="overflow:visible;"/>
	</clipPath>
	<path class="st47" d="M213.62,244.62c0-1.93,1.56-3.49,3.49-3.49h44.43c1.93,0,3.49,1.56,3.49,3.49v13.96
		c0,1.93-1.56,3.49-3.49,3.49H217.1c-1.93,0-3.49-1.56-3.49-3.49V244.62z"/>
</g>
<g>
	<defs>
		<rect id="SVGID_57_" x="10.69" y="6.37" width="547.95" height="354.53"/>
	</defs>
	<clipPath id="SVGID_58_">
		<use xlink:href="#SVGID_57_"  style="overflow:visible;"/>
	</clipPath>
	<path class="st48" d="M213.62,244.62c0-1.93,1.56-3.49,3.49-3.49h44.43c1.93,0,3.49,1.56,3.49,3.49v13.96
		c0,1.93-1.56,3.49-3.49,3.49H217.1c-1.93,0-3.49-1.56-3.49-3.49V244.62z"/>
</g>
<text transform="matrix(1 0 0 1 221.4381 250.4126)" class="st1 st4 st5">Packaging and </text>
<text transform="matrix(1 0 0 1 226.0402 256.645)"><tspan x="0" y="0" class="st1 st4 st5">QC</tspan><tspan x="8.18" y="0" class="st1 st4 st5"> </tspan><tspan x="9.6" y="0" class="st1 st4 st5">T</tspan><tspan x="12.34" y="0" class="st1 st4 st5">esting </tspan></text>
<g>
	<defs>
		<rect id="SVGID_59_" x="10.69" y="6.37" width="547.95" height="354.53"/>
	</defs>
	<clipPath id="SVGID_60_">
		<use xlink:href="#SVGID_59_"  style="overflow:visible;"/>
	</clipPath>
	<path class="st49" d="M134.16,244.62c0-1.93,1.56-3.49,3.49-3.49h44.43c1.93,0,3.49,1.56,3.49,3.49v13.96
		c0,1.93-1.56,3.49-3.49,3.49h-44.43c-1.93,0-3.49-1.56-3.49-3.49V244.62z"/>
</g>
<g>
	<defs>
		<rect id="SVGID_61_" x="10.69" y="6.37" width="547.95" height="354.53"/>
	</defs>
	<clipPath id="SVGID_62_">
		<use xlink:href="#SVGID_61_"  style="overflow:visible;"/>
	</clipPath>
	<path class="st50" d="M134.16,244.62c0-1.93,1.56-3.49,3.49-3.49h44.43c1.93,0,3.49,1.56,3.49,3.49v13.96
		c0,1.93-1.56,3.49-3.49,3.49h-44.43c-1.93,0-3.49-1.56-3.49-3.49V244.62z"/>
</g>
<text transform="matrix(1 0 0 1 141.9826 250.4126)" class="st1 st4 st5">Packaging and </text>
<text transform="matrix(1 0 0 1 146.5846 256.645)"><tspan x="0" y="0" class="st1 st4 st5">QC</tspan><tspan x="8.18" y="0" class="st1 st4 st5"> </tspan><tspan x="9.6" y="0" class="st1 st4 st5">T</tspan><tspan x="12.34" y="0" class="st1 st4 st5">esting </tspan></text>
<rect x="115.46" y="153.11" class="st12" width="74.78" height="14.22"/>
<rect x="115.46" y="153.11" class="st16" width="74.78" height="14.22"/>
<text transform="matrix(1 0 0 1 123.2794 162.9238)"><tspan x="0" y="0" class="st1 st17 st14">PURIFIED </tspan><tspan x="34.67" y="0" class="st1 st17 st14">W</tspan><tspan x="40.91" y="0" class="st1 st17 st14">A</tspan><tspan x="45.45" y="0" class="st1 st17 st14">TER </tspan></text>
</svg>
