<svg xmlns="http://www.w3.org/2000/svg" viewBox="0 0 398.63 398.64"><circle cx="199.32" cy="199.32" r="199.32" fill="#414042"/><path d="M315.07,214.44a115.23,115.23,0,0,1-228.65,0H13c7.36,97.23,88.59,173.84,187.71,173.85s180.52-76.48,187.8-173.81C380.71,214.48,315.1,214.26,315.07,214.44Z" transform="translate(-0.91 -0.82)" fill="#006bb6"/><circle cx="200.24" cy="200.13" r="104.17" transform="translate(-62.2 307.72) rotate(-67.5)" fill="#fff"/><path d="M257.11,261,221.6,158.42V122.51h3.89v-6.19H179.24v6.19h3.9v38.85L147.64,261a6.84,6.84,0,0,0-1,6.47,7.25,7.25,0,0,0,7.66,5.29h96.15a7.25,7.25,0,0,0,7.66-5.29A6.84,6.84,0,0,0,257.11,261Z" transform="translate(-0.91 -0.82)" fill="#006bb6"/><path d="M183.11,232.72v6.87c0,6.63,4.48,15.82,19,15.82,15.33,0,20-10.14,20-16.3,0-12.86-6.79-16-12.23-20.77-6-4.47-12.22-8.86-12.22-12.7,0-2.95,1.92-4.79,5-4.79,4.15,0,4.63,3.83,4.63,7v3.43h13.74v-5.75c0-9.83-5.59-16.06-18.37-16.06-11.75,0-18.78,5.36-18.78,17.9,0,9.75,5.91,13.26,11.82,18.13,5.84,4.24,11.67,8,11.67,13.58,0,2.8-1.76,5-5.11,5-4.16,0-5-3.2-5-6.63v-4.72Z" transform="translate(-0.91 -0.82)" fill="#fff"/><path d="M86.53,199.48a115.22,115.22,0,1,1,230.44,0h73c0-104-84.28-188.26-188.25-188.26S13.5,95.51,13.5,199.48Z" transform="translate(-0.91 -0.82)" fill="#808285"/><path d="M71.87,242.34l1.26,3.41c1.65,4.48-.27,6.71-3.88,8-2.8,1-6.66,1.09-8.33-3.46l-1.29-3.47Zm-44,3.47L32,257l19.73-7.27,1.57,4.28c1.31,3.54,0,5.31-8.3,8.37-5.41,2-8,3.32-9.25,4.78l4.47,12.1.6-.22c.07-1.85.89-2.53,10.24-6.21,6.37-2.5,10.7-4.55,9.06-12.07l.14-.05c3.19,4.74,7.63,6.29,14.59,3.73,6.55-2.42,11.22-7.86,7.7-17.42L77,228.2Z" transform="translate(-0.91 -0.82)" fill="#fff"/><path d="M327,248.06l1.07-3.18c2-6,5.52-5.87,17.27-1.9,14.44,4.88,15.92,7.41,14.14,12.68l-1,3Zm36,24.81,5.29-15.66c5.05-14.92-1-19.91-18.45-25.82-16.74-5.66-25.56-2.84-29.35,8.37l-5.69,16.8Z" transform="translate(-0.91 -0.82)" fill="#fff"/><path d="M90.53,264.89l17.71,23.51-7.74,5.83L90,280.28l-8.14,6.13,9.86,13.1L84,305.34l-9.86-13.1-9.27,7,11,14.57-7.74,5.83L49.89,295.5Z" transform="translate(-0.91 -0.82)" fill="#fff"/><path d="M119.9,317.42c2-2.64,4.78-7,1.23-9.66-3.94-2.93-7.38.73-15.46,11.59-8.29,11.15-10.4,15.18-6.57,18,3.26,2.42,6.61.3,10.78-5.31l1-1.31-4.52-3.36,4.77-6.4,13.43,10-16.28,21.9L101.68,348l2.66-4.06-.11-.09c-4.21,2.56-8.58.91-12.29-1.86-10.24-7.61-6.3-16.49,3.19-29.24,10-13.38,17.33-21.38,30.94-11.26,12.4,9.23,6.54,18.18,3.09,22.81Z" transform="translate(-0.91 -0.82)" fill="#fff"/><path d="M144.65,314.05l11,4.75-20.16,46.71-11-4.74Z" transform="translate(-0.91 -0.82)" fill="#fff"/><path d="M166.18,358.56l-.31,1.75c-.67,3.79-.13,6.86,3.93,7.58s5.88-2.13,6.4-5c1.92-10.81-20.69-8.61-17.35-27.34,1.42-8,6.9-14,19-11.81,11.78,2.1,14.93,8.82,13.55,16.54l-.21,1.19-11.36-2c.43-2.38.46-4.19-.05-5.44a3.79,3.79,0,0,0-3.26-2.39c-2.95-.52-5,.92-5.66,4.57-1.87,10.45,20.61,9,17.46,26.7-2,11.37-9.15,14.8-20,12.88-8.56-1.53-16-5.53-14.16-16l.58-3.22Z" transform="translate(-0.91 -0.82)" fill="#fff"/><path d="M207.9,336.32l-10.63,1.05-1-9.65,33.19-3.28.95,9.64-10.64,1.06,4.06,41L212,377.3Z" transform="translate(-0.91 -0.82)" fill="#fff"/><path d="M232.72,323.33l27.45-10.62,3.5,9L247.39,328l3.67,9.51,15.29-5.91,3.49,9-15.28,5.92,4.19,10.83,17-6.58,3.5,9-28.18,10.9Z" transform="translate(-0.91 -0.82)" fill="#fff"/><path d="M279.33,309.63l2.87-2.24c3.77-2.93,6.47-1.78,8.83,1.25,1.84,2.36,3.06,6-.76,9l-2.92,2.27ZM296,350.48l9.45-7.35-12.92-16.58,3.6-2.81c3-2.32,5.07-1.6,10.5,5.37,3.55,4.55,5.58,6.58,7.36,7.36l10.18-7.92-.4-.51c-1.78.49-2.68-.08-9-7.87-4.32-5.31-7.59-8.82-14.26-5l-.09-.12c3.56-4.48,3.68-9.18-.87-15-4.29-5.51-10.9-8.31-18.94-2.05l-15.85,12.35Z" transform="translate(-0.91 -0.82)" fill="#fff"/><path d="M295.21,285l17.08-24,7.89,5.63-10.13,14.21,8.29,5.92,9.52-13.34,7.89,5.62-9.52,13.34,9.46,6.75,10.59-14.86,7.89,5.63-17.54,24.6Z" transform="translate(-0.91 -0.82)" fill="#fff"/><path d="M36.77,153.67l42.28,9.26-1.2,5.19-42.27-9.26Z" transform="translate(-0.91 -0.82)" fill="#fff" stroke="#fff" stroke-width="0.25"/><path d="M74.09,153.81a18.42,18.42,0,0,0,6.36-7.73c2.14-5,.61-9.11-3.41-10.78-3.73-1.54-6.73-.39-11,3.89-5,5.25-10,7.69-15.59,5.36-6.22-2.57-8.74-9.4-5.58-16.79a18.15,18.15,0,0,1,5.53-7.6L54,123.25a16.12,16.12,0,0,0-5,6.44c-2.21,5.19.21,8.52,2.93,9.65,3.73,1.54,6.54,0,10.92-4.37,5.35-5.36,10-7.29,15.87-4.86,6.15,2.55,9.63,9.1,5.8,18.08-1.56,3.67-4.4,7.21-6.69,8.65Z" transform="translate(-0.91 -0.82)" fill="#fff" stroke="#fff" stroke-width="0.25"/><path d="M96.82,89.46c11.53,9.35,12.12,21,5.38,29.19-7,8.47-18.71,8.84-28.84.61C62.74,110.63,61,98.66,68,90.11,75.24,81.36,86.89,81.39,96.82,89.46Zm-19.91,25.3c7.14,5.81,16.61,7.31,22,.79S101,100.16,93.42,94c-6.65-5.4-16.35-7.72-22-.83S69.55,108.79,76.91,114.76Z" transform="translate(-0.91 -0.82)" fill="#fff" stroke="#fff" stroke-width="0.25"/><path d="M126.45,90.22A21.15,21.15,0,0,0,130.19,88a14.81,14.81,0,0,0,5.4-7.56c1.12-3.46,1-7.57-.67-12.23l-.17.09a11.61,11.61,0,0,1-6.1,8.46c-6.32,3.47-13.07.77-16.49-5.44-3.79-6.87-2.31-15.56,4.88-19.5s14.93-.35,20,8.94c4.41,8,4.89,15,3.35,20.38a19.71,19.71,0,0,1-7.54,10.48,23.19,23.19,0,0,1-4.22,2.68Zm-9.78-21.86c2.49,4.53,6.89,6.27,11,4a8.88,8.88,0,0,0,4.81-7.61,3.74,3.74,0,0,0-.55-2c-3.41-6.21-8.24-9.75-13.21-7C114.67,58,113.84,63.21,116.67,68.36Z" transform="translate(-0.91 -0.82)" fill="#fff" stroke="#fff" stroke-width="0.25"/><path d="M171.37,53.82c3.75,13.61.95,22.49-7.6,24.88-7.53,2.12-14.64-3.78-18.4-17-3.7-13.43-.15-22.39,7.68-24.58C161.18,34.85,167.87,41.07,171.37,53.82ZM150.6,60.31c2.86,10.4,7.57,15.45,12.31,14.13,5.35-1.5,6.12-8.68,3.31-18.91-2.71-9.86-6.91-15.64-12.31-14.13C149.34,42.68,147.61,49.4,150.6,60.31Z" transform="translate(-0.91 -0.82)" fill="#fff" stroke="#fff" stroke-width="0.25"/><path d="M205.07,51.44c.57,14.14-4.14,22.19-13,22.61-7.8.39-13.39-7-14.07-20.73-.57-14,4.89-21.91,13-22.3C199.43,30.62,204.53,38.2,205.07,51.44Zm-21.65,1.69c.44,10.81,3.88,16.8,8.79,16.56,5.53-.27,7.9-7.11,7.47-17.74-.42-10.23-3.21-16.83-8.8-16.56C186.16,35.62,183,41.8,183.42,53.13Z" transform="translate(-0.91 -0.82)" fill="#fff" stroke="#fff" stroke-width="0.25"/><path d="M226.75,39.13l-.12,0-7.55,2.65-.23-4.4,9.47-3.29,4.54.79-7.67,41-5.13-.9Z" transform="translate(-0.91 -0.82)" fill="#fff" stroke="#fff" stroke-width="0.25"/><path d="M239.19,76.14A3.76,3.76,0,0,1,244,73.51c2,.69,2.81,2.72,2.08,5a3.72,3.72,0,0,1-4.81,2.57A3.64,3.64,0,0,1,239.19,76.14Zm7.53-21.38a3.79,3.79,0,0,1,4.83-2.64c2,.69,2.8,2.72,2.08,5a3.72,3.72,0,0,1-4.81,2.58A3.65,3.65,0,0,1,246.72,54.76Z" transform="translate(-0.91 -0.82)" fill="#fff" stroke="#fff" stroke-width="0.25"/><path d="M248.31,82.26,250,79.2l5.78-1.82c13.81-4.21,20.44-6.82,23.49-12.34,2-3.74,2.14-8.11-3.11-10.89a13.38,13.38,0,0,0-9.16-.82l.38-4.32a17.12,17.12,0,0,1,12,1.53c7.58,4,7.84,11.12,5,16.39-3.66,6.8-11.33,9.8-22.78,13.37l-4.28,1.23-.06.11L273,90l-2.23,4.14Z" transform="translate(-0.91 -0.82)" fill="#fff" stroke="#fff" stroke-width="0.25"/><path d="M307.8,97.21c-9.39,10.72-18.36,13.36-25,7.61C276.93,99.75,278,90.54,287.05,80c9.26-10.57,18.7-12.63,24.79-7.37C318.17,78.15,316.59,87.17,307.8,97.21ZM291.08,83.6c-7.19,8.19-8.86,14.93-5.17,18.12,4.16,3.59,10.6.22,17.65-7.83,6.8-7.76,9.36-14.48,5.16-18.12C305.16,72.7,298.59,75,291.08,83.6Z" transform="translate(-0.91 -0.82)" fill="#fff" stroke="#fff" stroke-width="0.25"/><path d="M331.83,103.12l-.07-.1-7.24-3.29,2.9-3.36,9.06,4.15,2.68,3.7-34,24.53-3.05-4.2Z" transform="translate(-0.91 -0.82)" fill="#fff" stroke="#fff" stroke-width="0.25"/><path d="M355.29,146.44l-5.72-14L339,135.14a21.45,21.45,0,0,1,1.45,2.9,16.08,16.08,0,0,1,1.15,8.76,12.14,12.14,0,0,1-7.82,9.35c-7.58,3.12-15.59-.25-18.84-8.2a18.71,18.71,0,0,1-1.36-10.13l4.51-.4a17.08,17.08,0,0,0,1.06,8.73c1.92,4.68,6.78,7.36,12,5.22,5-2.12,7.27-6.75,4.27-14.09a38.35,38.35,0,0,0-2.49-4.9l19.59-5.3,7.18,17.55Z" transform="translate(-0.91 -0.82)" fill="#fff" stroke="#fff" stroke-width="0.25"/></svg>