<svg xmlns="http://www.w3.org/2000/svg" viewBox="0 0 397.69 398.36"><rect x="243.52" y="98.44" width="11.52" height="4.03" fill="#414042"/><rect x="260.8" y="98.44" width="11.52" height="4.03" fill="#414042"/><rect x="226.82" y="98.44" width="11.52" height="4.03" fill="#414042"/><rect x="259.4" y="81.07" width="11.52" height="4.03" transform="translate(-13.62 89.21) rotate(-18.87)" fill="#414042"/><rect x="226.7" y="92.24" width="11.52" height="4.03" transform="translate(-18.99 79.23) rotate(-18.87)" fill="#414042"/><rect x="243.05" y="86.65" width="11.52" height="4.03" transform="translate(-16.31 84.25) rotate(-18.87)" fill="#414042"/><rect x="246.81" y="108.47" width="4.03" height="11.52" transform="translate(59.31 311.78) rotate(-71.14)" fill="#414042"/><rect x="263.16" y="114.06" width="4.03" height="11.52" transform="translate(65.01 330.96) rotate(-71.12)" fill="#414042"/><path d="M212.23,103.47v-4l0,0,9.57-3.27a12.48,12.48,0,0,1,0,10.55l-9.52-3.25Z" transform="translate(-1 -1)" fill="#414042"/><rect x="230.46" y="102.88" width="4.03" height="11.52" transform="translate(53.52 292.52) rotate(-71.14)" fill="#414042"/><path d="M176.67,112.39a2.83,2.83,0,0,1,2.83-2.83h31.62a2.83,2.83,0,0,1,2.83,2.83v4.9H176.67Z" transform="translate(-1 -1)" fill="#414042"/><polygon points="181.88 110.01 206.75 110.01 206.75 92.2 181.88 95.28 181.88 110.01" fill="#414042"/><rect x="145.71" y="153.71" width="97.2" height="170.98" fill="#414042"/><path d="M142.84,153.48a5,5,0,0,0,5.23,4.73h94.48a5,5,0,0,0,5.23-4.73h0a5,5,0,0,0-5.23-4.73H148.07a5,5,0,0,0-5.23,4.73Z" transform="translate(-1 -1)" fill="#414042"/><path d="M142.84,326a5,5,0,0,0,5.23,4.73h94.48a5,5,0,0,0,5.23-4.73h0a5,5,0,0,0-5.23-4.73H148.07a5,5,0,0,0-5.23,4.73Z" transform="translate(-1 -1)" fill="#414042"/><path d="M166.29,126c0,1.48,1.54,2.68,3.45,2.68h51.14c1.91,0,3.45-1.2,3.45-2.68v-2.24c0-1.48-1.54-2.68-3.45-2.68H169.74c-1.91,0-3.45,1.2-3.45,2.68Z" transform="translate(-1 -1)" fill="#414042"/><path d="M237.12,145H153.51c2.36-8.61,9.2-16.15,15.85-21.73h51.9C227.91,128.81,234.75,136.35,237.12,145Z" transform="translate(-1 -1)" fill="#414042"/><path d="M199.84,1C90,1,1,90,1,199.84S90,398.69,199.84,398.69s198.85-89,198.85-198.85S309.66,1,199.84,1ZM350.19,199.84a149.63,149.63,0,0,1-28.3,87.76L112.09,77.8a150.31,150.31,0,0,1,238.1,122Zm-300.69,0a149.62,149.62,0,0,1,28.3-87.75l209.8,209.8a150.31,150.31,0,0,1-238.1-122Z" transform="translate(-1 -1)" fill="#006bb6"/><text transform="translate(108.71 65.36) rotate(-29.04)" font-size="40.35" fill="#fff" font-family="MyriadPro-Regular, Myriad Pro">P</text><text transform="matrix(0.93, -0.36, 0.36, 0.93, 129.4, 54.1)" font-size="40.35" fill="#fff" font-family="MyriadPro-Regular, Myriad Pro">E</text><text transform="matrix(0.97, -0.23, 0.23, 0.97, 149.97, 46.38)" font-size="40.35" fill="#fff" font-family="MyriadPro-Regular, Myriad Pro">S</text><text transform="translate(171.45 41.53) rotate(-5.26)" font-size="40.35" fill="#fff" font-family="MyriadPro-Regular, Myriad Pro">T</text><text transform="translate(193.7 39.86) rotate(0.93)" font-size="40.35" fill="#fff" font-family="MyriadPro-Regular, Myriad Pro">I</text><text transform="translate(205.66 39.76) rotate(7.33)" font-size="40.35" fill="#fff" font-family="MyriadPro-Regular, Myriad Pro">C</text><text transform="translate(231.02 43.56) rotate(14.02)" font-size="40.35" fill="#fff" font-family="MyriadPro-Regular, Myriad Pro">I</text><text transform="translate(242.62 46.04) rotate(21.31)" font-size="40.35" fill="#fff" font-family="MyriadPro-Regular, Myriad Pro">D</text><text transform="matrix(0.86, 0.51, -0.51, 0.86, 269.36, 56.93)" font-size="40.35" fill="#fff" font-family="MyriadPro-Regular, Myriad Pro">E</text><text transform="translate(288.28 68.48) rotate(36.18)" font-size="40.35" fill="#fff" font-family="MyriadPro-Regular, Myriad Pro"> </text><text transform="matrix(0.98, 0.21, -0.21, 0.98, 147.96, 382.19)" font-size="40.35" fill="#fff" font-family="MyriadPro-Regular, Myriad Pro">F</text><text transform="matrix(1, 0.07, -0.07, 1, 172.61, 387.09)" font-size="40.35" fill="#fff" font-family="MyriadPro-Regular, Myriad Pro">R</text><text transform="matrix(1, -0.07, 0.07, 1, 199.71, 388.51)" font-size="40.35" fill="#fff" font-family="MyriadPro-Regular, Myriad Pro">E</text><text transform="translate(224.85 386.39) rotate(-11.72)" font-size="40.35" fill="#fff" font-family="MyriadPro-Regular, Myriad Pro">E</text></svg>