<svg xmlns="http://www.w3.org/2000/svg" viewBox="0 0 398.81 398.81"><rect x="119.81" y="297.06" width="159.18" height="26.25" fill="#414042"/><path d="M223.79,227.76v-8.68a85.44,85.44,0,0,0,15.31-1.24c8.47-1.44,18.57-4.55,25.07-11.18,0,0-4.72-1.33-9-7s-8.18-15.59-6.49-32.81.64-33.36-4.3-44.9-13.77-18.46-27.61-17.19a24.59,24.59,0,0,0-9-6.08c-6-2.48-14.94-3.81-26.87.75-4.09,1.56-11.63,4.31-18,12.62s-11.6,22.21-11,46.07S148.14,194,143.77,200s-8.89,6.11-8.89,6.11,2.33,3.39,8.61,6.74,16.52,6.67,32.32,6.52v8.9l12,35.09,12,35.09,12-35,12-35,0-.32Z" transform="translate(-0.44 -0.44)" fill="#414042"/><path d="M288.33,299.47l-2.42-13.35-2.41-13.35a27.87,27.87,0,0,0-15.05-20l-15.13-7.46-15.12-7.46c-.87-.42-1.73-.88-2.58-1.34l-2.55-1.41,4.77,14.07,4.76,14.07-6.67-.51-6.68-.51-14.7,18.1-14.71,18.09-14.7-18.09-14.71-18.1-6.67.51-6.68.51L162,249.21l4.87-14.07-3,1.55-3,1.54L146,245.52l-14.77,7.29a27.82,27.82,0,0,0-15,20l-2.42,13.35-2.41,13.35a3.23,3.23,0,0,0,.69,2.61,3.17,3.17,0,0,0,2.45,1.16H285.11a3.23,3.23,0,0,0,2.51-1.16A3.17,3.17,0,0,0,288.33,299.47Z" transform="translate(-0.44 -0.44)" fill="#414042"/><path d="M380.84,202.66l18.41-6.15-1.69-13.66-17.92-2.34-1.18-10.25,17-9.34-4.1-13.14-18.05.9-3-9.88,15.08-12.22L379,114.38l-17.61,4.1-4.71-9.18,12.65-14.71-8.46-10.87L344.3,90.9,338,82.71,347.85,66l-10.26-9.18-15,10-7.64-6.95,6.67-18.22-11.74-7.19L296.84,47l-8.76-5.46,3.31-19.12-12.83-5L268,32.1l-9.59-3.82-.16-19.4L244.73,6.26,237,22.58l-10.12-2L223.23,1.47l-13.77-.16-4.73,17.44-10.32-.2-7-18.11-13.57,2.3-1.54,18-10.19,1.64L152.05,5.81l-13,4.68,1.7,18-9.73,3.44L118.18,17.41l-11.9,6.92,4.89,17.4-9,5.11-15.27-12L76.45,43.8l7.92,16.25-7.91,6.63L59.3,57.63,50.59,68.29,61.28,82.86l-6.6,7.94L36.18,85,29.51,97l13.12,12.43-5.07,9L18.31,116,13.9,129,29,138.89l-3.38,9.75-19.38,1-2,13.62,16.65,7-1.59,10.2L.44,185l.45,13.76,17.65,3.94L18.79,213,1,220.77l2.9,13.45L22,235l2.09,10.11L8,255.88l5.27,12.71,17.9-2.5L35,275.66,21.08,289.18l7.45,11.57,17.16-5.66,5.52,8.73L39.93,319.61l9.39,10.05L65.2,321l7,7.6-8.28,17.55,11,8.22L89,343.07l8.23,6.23-5,18.74,12.33,6.12,11.84-13.66,9.21,4.66L124,384.5l13.23,3.81,9.2-15.55,9.9,2.94L158.26,395l13.7,1.4,6.28-17,10.26,1.13,5.31,18.66,13.73-1.07,3.14-17.8,10.3-.72,8.57,17.41,13.31-3.5-.08-18.07,10-2.55,11.54,15.6,12.47-5.82L273.48,365l9.39-4.29L297,374l11.23-8-6.43-16.89,8.47-5.9,16.29,10.56,9.63-9.83-9.34-15.48,7.28-7.31,17.9,7.48,7.72-11.4-11.95-13.55,5.86-8.5,18.95,4.16,5.56-12.59L364,275.55l4.24-9.41,19.4.71,3.22-13.38-16-8.49,2.5-10,19.21-2.76.78-13.75L380.17,213Zm-181,109.15a112,112,0,1,1,112-112A112,112,0,0,1,199.84,311.81Z" transform="translate(-0.44 -0.44)" fill="#006bb6" fill-rule="evenodd"/><text transform="translate(82.23 321.79) rotate(36.68)" font-size="60.93" fill="#fff" font-family="MyriadPro-Regular, Myriad Pro">O</text><text transform="matrix(0.96, 0.27, -0.27, 0.96, 128.5, 354.08)" font-size="60.93" fill="#fff" font-family="MyriadPro-Regular, Myriad Pro">W</text><text transform="translate(192.32 368.57) rotate(-4.34)" font-size="60.93" fill="#fff" font-family="MyriadPro-Regular, Myriad Pro">N</text><text transform="translate(243.95 362.27) rotate(-20.4)" font-size="60.93" fill="#fff" font-family="MyriadPro-Regular, Myriad Pro">E</text><text transform="translate(283.07 346.69) rotate(-36.52)" font-size="60.93" fill="#fff" font-family="MyriadPro-Regular, Myriad Pro">D</text><text transform="matrix(0.77, -0.64, 0.64, 0.77, 101.34, 122.4)" font-size="60.93" fill="#fff" font-family="MyriadPro-Regular, Myriad Pro">W</text><text transform="translate(142.32 89.51) rotate(-17.68)" font-size="60.93" fill="#fff" font-family="MyriadPro-Regular, Myriad Pro">O</text><text transform="matrix(1, 0.07, -0.07, 1, 183.49, 76.01)" font-size="60.93" fill="#fff" font-family="MyriadPro-Regular, Myriad Pro">M</text><text transform="translate(233.4 80.71) rotate(24.7)" font-size="60.93" fill="#fff" font-family="MyriadPro-Regular, Myriad Pro">A</text><text transform="matrix(0.73, 0.69, -0.69, 0.73, 268.71, 97.01)" font-size="60.93" fill="#fff" font-family="MyriadPro-Regular, Myriad Pro">N</text><path d="M323.06,112.86" transform="translate(-0.44 -0.44)" fill="none" stroke="#fff" stroke-miterlimit="10"/><path d="M323.06,112.86a150.52,150.52,0,0,1-9.42,187.59" transform="translate(-0.44 -0.44)" fill="none" stroke="#fff" stroke-miterlimit="10"/><path d="M76.1,112.86a150.48,150.48,0,0,0,9.42,187.59" transform="translate(-0.44 -0.44)" fill="none" stroke="#fff" stroke-miterlimit="10"/></svg>