<svg xmlns="http://www.w3.org/2000/svg" viewBox="0 0 262.62 399.25"><rect x="0.5" y="56.63" width="261.62" height="342.12" rx="3.86" fill="#006bb6" stroke="#414042" stroke-linecap="round" stroke-linejoin="round"/><path d="M116.11,206.17c.45,2.54.69,2.87,4.29,3.23a2.33,2.33,0,0,1,2.71,2c.48,2.73-3,3.25-3.75,3.39L97.47,218.7c-.79.14-4.21.83-4.69-1.9a2.35,2.35,0,0,1,1.86-2.86c3.25-1.57,3.37-1.95,2.92-4.5l-7.8-44.22c-1-5.54-1.63-5.7-3.9-5.66-1.52.09-3.32.13-3.67-1.8-.54-3.08,2.92-3.51,3.78-3.75l20.13-4.63Z" transform="translate(-65.53 -0.5)" fill="#fff"/><path d="M150.53,210.7c-13.12.68-26.82-7.14-30.82-29.82s6.2-34.73,18.76-38.57l.9,5.1c-4.14,2.27-4.24,5.28-3.61,9.33L143,198.06c.8,4,1.93,6.82,6.59,7.54Zm-8.11-69.09c13.12-.68,26.82,7.15,30.82,29.83S167,206.16,154.48,210l-.9-5.1c4.14-2.27,4.24-5.27,3.61-9.33l-7.28-41.32c-.8-4-1.93-6.82-6.59-7.54Z" transform="translate(-65.53 -0.5)" fill="#fff"/><path d="M210.29,200.16c-13.11.69-26.82-7.14-30.82-29.82s6.2-34.73,18.76-38.57l.9,5.1c-4.13,2.27-4.24,5.28-3.61,9.34l7.28,41.31c.81,4,1.93,6.82,6.59,7.54Zm-8.11-69.09c13.12-.68,26.83,7.15,30.83,29.83s-6.21,34.72-18.77,38.56l-.89-5.09c4.13-2.27,4.23-5.28,3.61-9.34l-7.29-41.32c-.8-4-1.93-6.82-6.59-7.54Z" transform="translate(-65.53 -0.5)" fill="#fff"/><path d="M245.37,127.27c-2.19.93-2.85,2.31-2.42,4.77l2.26,12.84c.44,2.46,1.53,3.53,3.91,3.66l.65,3.69c-8.79,1.55-17-1.26-18.79-11.46s5-15.65,13.74-17.2Zm36.94-9L262,189.69l-5.63,1,20.32-71.38Zm-30.64,29.79c2.19-.93,2.86-2.32,2.42-4.78l-2.26-12.83c-.44-2.47-1.53-3.54-3.91-3.66l-.65-3.7c8.79-1.55,17,1.27,18.79,11.46s-4.95,15.65-13.74,17.2Zm36,11.33c-2.19.93-2.85,2.31-2.42,4.78L287.5,177c.44,2.46,1.53,3.54,3.91,3.66l.65,3.69c-8.79,1.55-17-1.26-18.79-11.46s5-15.64,13.74-17.19Zm6.3,20.82c2.19-.93,2.85-2.31,2.42-4.78l-2.26-12.83c-.44-2.46-1.53-3.54-3.91-3.66l-.65-3.69c8.79-1.55,17,1.26,18.79,11.46s-5,15.64-13.74,17.19Z" transform="translate(-65.53 -0.5)" fill="#fff"/><path d="M96.72,243.43l7.59-1.34.54,3.06c-2.4,2.43-2.52,6-2.5,8.92.05,1.18,0,2.6-1.45,2.86a1.62,1.62,0,0,1-2-1.22Zm10-1.76,12.91-2.27,5.91,33.51c.34,2,.35,2.28,2.29,2.54a1.48,1.48,0,0,1,1.41,1.21c.27,1.53-1.45,1.94-1.66,2l-14.92,2.63c-.21,0-2,.24-2.23-1.29a1.47,1.47,0,0,1,.91-1.62c1.74-.91,1.63-1.22,1.29-3.17Zm25,8.25a1.61,1.61,0,0,1-1.47,1.83c-1.47.26-2-1.06-2.34-2.19-1-2.71-2.32-6.06-5.4-7.53L122,239l7.59-1.34Z" transform="translate(-65.53 -0.5)" fill="#fff"/><path d="M133.64,236.92l13.91-2.45,6.95,39.42-13.91,2.45c-.22,0-2,.24-2.24-1.29a1.47,1.47,0,0,1,.91-1.62c1.74-.91,1.63-1.22,1.29-3.17l-4.87-27.61c-.35-2-.35-2.28-2.3-2.53A1.49,1.49,0,0,1,132,238.9C131.7,237.37,133.42,237,133.64,236.92Zm16.28-2.87L161.67,232l1.89,10.7c.05.26.17,1.27-1.41,1.55-.9.15-1.25-.32-1.66-1.07-2.12-4-5.26-6.13-10-6Zm3.1,17.6c2.12-1,2.76-3.2,2.88-5.29.1-.94.27-1.84,1.38-2,1.63-.29,1.7,1.65,1.77,2.07l2,11.39c.08.42.67,2.27-1,2.56-1.11.19-1.57-.59-2-1.44-.83-1.92-2.19-3.8-4.51-4Zm3.31,18.77a11,11,0,0,0,7.62-9.23c.23-.85.39-1.75,1.34-1.92a1.52,1.52,0,0,1,1.85,1.52L169,271.33l-12.12,2.14Z" transform="translate(-65.53 -0.5)" fill="#fff"/><path d="M180.54,231c-1.88,1-3.36,2.82-3,5,.46,2.58,2.16,3.91,8.86,5.23,10,1.94,12.94,6.52,13.79,11.37,1.44,8.17-4.42,14.69-12.19,16.22l-.54-3.05c2.39-1.24,4.35-2.78,3.94-5.7-.48-3.34-4.62-4-7.34-4.68-7.14-1.62-13.83-3.54-15.29-11.81-1.42-8,3.51-14,11.21-15.62Zm-9.08,27.74c-.19-1.11-.24-2.63,1.24-2.89a2.07,2.07,0,0,1,2.25,1.4c1.48,4.09,5.35,8.79,10.16,8.92l.54,3c-4.6.71-5.93-1-7.83-.63-1.68.3-1.22,2-2.54,2.24-1.63.29-2-1.66-2-1.92ZM196,236.85c.22,1.21.24,2.57-1.29,2.84-1.26.22-1.91-.7-2.26-1.72-1.27-3.8-5.24-7.23-9.51-7.4l-.54-3.06c3.33-.53,7.22.85,7.8.74,1.37-.24.93-2.12,2.3-2.36,1.63-.29,1.84,1.53,1.92,2Z" transform="translate(-65.53 -0.5)" fill="#fff"/><path d="M198.87,225.42l7.59-1.34.53,3.06c-2.39,2.43-2.52,6-2.5,8.92,0,1.18,0,2.6-1.45,2.86a1.62,1.62,0,0,1-2-1.22Zm10-1.76,12.91-2.27,5.91,33.51c.35,2,.35,2.28,2.3,2.54a1.48,1.48,0,0,1,1.41,1.21c.26,1.53-1.46,1.94-1.67,2l-14.91,2.63c-.21,0-2,.24-2.24-1.29a1.49,1.49,0,0,1,.91-1.63c1.74-.9,1.63-1.21,1.29-3.16Zm25,8.25a1.62,1.62,0,0,1-1.47,1.83c-1.48.26-2-1.06-2.35-2.19-1-2.71-2.31-6.06-5.4-7.53l-.54-3.05,7.59-1.34Z" transform="translate(-65.53 -0.5)" fill="#fff"/><path d="M235.78,218.91l13.91-2.45,6.95,39.42-13.91,2.45c-.21,0-2,.24-2.24-1.29a1.47,1.47,0,0,1,.91-1.62c1.74-.91,1.63-1.22,1.29-3.17l-4.87-27.61c-.34-1.95-.35-2.28-2.29-2.53a1.49,1.49,0,0,1-1.41-1.22C233.85,219.36,235.57,219,235.78,218.91ZM252.06,216,263.82,214l1.88,10.7c.05.26.17,1.27-1.41,1.55-.89.15-1.25-.32-1.65-1.07-2.12-4-5.27-6.13-10-6.06Zm3.11,17.6c2.11-1,2.75-3.2,2.87-5.29.11-.94.27-1.84,1.38-2,1.63-.29,1.7,1.65,1.78,2.07l2,11.39c.07.42.67,2.27-1,2.56-1.11.19-1.58-.59-2-1.44-.83-1.92-2.19-3.8-4.51-4Zm3.31,18.77a11,11,0,0,0,7.61-9.23c.23-.85.4-1.75,1.34-1.92a1.52,1.52,0,0,1,1.85,1.52l1.86,10.54L259,255.46Z" transform="translate(-65.53 -0.5)" fill="#fff"/><path d="M290.76,249.86l-13.38,2.36c-1.16.21-2.5.33-2.77-1.2a1.48,1.48,0,0,1,.91-1.62c1.74-.9,1.63-1.21,1.29-3.17l-4.87-27.61c-.14-.79-.29-2.23-1.34-2.37s-2.15-.17-2.38-1.48,1-1.76,2.1-2l13.49-2.38ZM286.18,210c8.94-1.68,17.53,3.21,20.55,16.7,2.77,12.29-4.85,21.18-13.6,22.72l-.53-3.05c3.14-1,2.76-4,2.41-6l-4-22.46c-.35-2-1-5-4.33-4.83Z" transform="translate(-65.53 -0.5)" fill="#fff"/><circle cx="131.31" cy="32.18" r="31.68" fill="#fff" stroke="#414042" stroke-linecap="round" stroke-linejoin="round"/><rect x="59.61" y="35.08" width="143.39" height="41.26" rx="0.99" fill="#414042" stroke="#414042" stroke-linecap="round" stroke-linejoin="round"/><polyline points="112.92 327.89 146.32 361.28 228.36 279.24" fill="none" stroke="#fff" stroke-linecap="round" stroke-linejoin="round" stroke-width="2"/></svg>