<svg xmlns="http://www.w3.org/2000/svg" viewBox="0 0 303.78 398.78"><path d="M69.64,143.14A131,131,0,0,1,210.78,2c63.47,5,114.89,56.42,119.89,119.89A131,131,0,0,1,189.53,263C126.06,258,74.64,206.6,69.64,143.14Z" transform="translate(-48.24 -1.08)" fill="#fff" stroke="#414042" stroke-miterlimit="3.86"/><path d="M127.78,132.51A131,131,0,0,1,229.44,4.87a130.94,130.94,0,1,0,0,255.29A131,131,0,0,1,127.78,132.51Z" transform="translate(-48.24 -1.08)" fill="#006bb6" stroke="#414042" stroke-miterlimit="3.86" stroke-width="0.84"/><polygon points="113.59 73.22 158.02 73.22 175.16 150.29 192.23 73.22 236.51 73.22 236.51 199.89 208.93 199.89 208.93 103.29 187.54 199.89 162.57 199.89 141.25 103.29 141.25 199.89 113.59 199.89 113.59 73.22" fill="#006bb6" fill-rule="evenodd"/><polygon points="0 278.7 18.56 278.7 18.56 289.69 38.83 289.69 38.83 278.7 57.47 278.7 57.47 310.1 38.83 310.1 38.83 297.39 18.56 297.39 18.56 310.1 0 310.1 0 278.7" fill="#414042" fill-rule="evenodd"/><path d="M151.1,299.2l-6.63-11.29-6.6,11.29ZM155,306H133.86L131,311.17H112l22.57-31.39h20.24l22.57,31.39H157.94Z" transform="translate(-48.24 -1.08)" fill="#414042" fill-rule="evenodd"/><polygon points="135.06 278.7 153.61 278.7 153.61 302.36 182.57 302.36 182.57 310.1 135.06 310.1 135.06 278.7" fill="#414042" fill-rule="evenodd"/><path d="M272.31,299.2l-6.63-11.29-6.6,11.29ZM276.2,306H255.07l-2.91,5.18h-19l22.57-31.39H276l22.57,31.39H279.15Z" transform="translate(-48.24 -1.08)" fill="#414042" fill-rule="evenodd"/><polygon points="256.26 278.7 274.82 278.7 274.82 302.36 303.78 302.36 303.78 310.1 256.26 310.1 256.26 278.7" fill="#414042" fill-rule="evenodd"/><path d="M329,232.38h4.23a6.51,6.51,0,0,0,2.11-.28,2.26,2.26,0,0,0,1.15-.89,2.47,2.47,0,0,0,.4-1.34,2.21,2.21,0,0,0-.77-1.73,3.59,3.59,0,0,0-2.42-.68H329Zm-2,8.3V225.82h6.59a8.67,8.67,0,0,1,3,.4,3.39,3.39,0,0,1,1.66,1.41,4.24,4.24,0,0,1,.61,2.24,3.76,3.76,0,0,1-1,2.67,5.22,5.22,0,0,1-3.16,1.38,4.83,4.83,0,0,1,1.18.74,10,10,0,0,1,1.64,2l2.58,4.05h-2.47l-2-3.09c-.57-.9-1.05-1.58-1.42-2.05a4,4,0,0,0-1-1,2.81,2.81,0,0,0-.89-.4,5.79,5.79,0,0,0-1.1-.07H329v6.6Z" transform="translate(-48.24 -1.08)" fill="#414042" fill-rule="evenodd"/><path d="M320.35,233.81A12.19,12.19,0,1,1,332.54,246,12.18,12.18,0,0,1,320.35,233.81Z" transform="translate(-48.24 -1.08)" fill="none" stroke="#231f20" stroke-miterlimit="3.86" stroke-width="0.37"/><path d="M151.13,341.46l11.14-4.53v55c0,6.8-3.47,7.88-7.66,7.88H88.3c-1.54-12.93,5.31-25.11,20.55-34,2.53-1.66,4.36,1.51,1.4,3.14a35.11,35.11,0,0,0-15,18.39h55.86Z" transform="translate(-48.24 -1.08)" fill="#414042" fill-rule="evenodd"/><path d="M175.08,336.06c13.58,6,21.37,22.73,23.35,51.32h5.13V338.87L216,331.75v55.63h65.25c-7-6.13-10.11-8.44-14.92-12.56a4.85,4.85,0,0,0-5.63-.36c-7,2.82-5.79,13.58-7,11.26-5.3-12.75,8.61-21,18.55-15.89l22.86,17.55h17.05v12.47H172.76V387.38H192.3c-1.87-17.11-7.61-29.19-17.22-35.27Z" transform="translate(-48.24 -1.08)" fill="#414042" fill-rule="evenodd"/></svg>