<svg xmlns="http://www.w3.org/2000/svg" viewBox="0 0 399.87 315.15"><rect x="0.5" y="0.5" width="398.87" height="237.34" fill="#006bb6" stroke="#414042" stroke-linejoin="round"/><path d="M319.4,266.3h-11c5.15-4.51,8.36-9.86,15.84-9.9,7.92,0,15.85-1.18,23.63,1.06,5.11,1.48,9.26,4.16,10.4,9.9s-1.16,10.08-5.69,13.43c-1.4,1-2.84,2-4.75,3.34,4.31,6.59,8.4,13.09,12.79,19.37.86,1.22,2.94,1.58,4.44,2.36a3.48,3.48,0,0,1,1.41,1c.13.23-.32,1.05-.71,1.28-3.2,1.93-6.35,4-9.71,5.57-2.67,1.27-4.44-.73-5.66-2.74-5-8.19-9.8-16.46-14.86-25,2.07-1.13,4-2.1,5.84-3.2,4.3-2.59,6.1-5.93,5.35-9.7-.8-4-3.83-6.42-8.87-7.06-6.74-.85-6.74-.85-6.74,5.79,0,10.8,0,21.6,0,32.4a4.16,4.16,0,0,1-2.3,4.23c-3.39,2-6.59,4.23-10.5,6.77C318.71,298.48,319.05,282.5,319.4,266.3Z" transform="translate(-0.11 -0.05)" fill="#414042"/><path d="M206.3,314.91c0-7.29,0-13.88,0-20.48a29.16,29.16,0,0,1,.18-3.62c.3-2.39-.8-3.12-3.05-3-1.9.14-3.82,0-5.73,0l-.38-1.09c2.22-1.85,4.33-3.85,6.69-5.48a5.34,5.34,0,0,0,2.5-5.3c-.18-2.3-.16-4.62-.28-6.92-.14-2.87-1.21-4.47-4.41-3.22a7.23,7.23,0,0,1-2.18,0c.36-.79.45-1.41.81-1.66,3.78-2.65,7.53-5.37,11.45-7.82,3.12-2,4.85-1,5.16,2.84.34,4.49.25,9,.33,13.53,0,1.84,0,3.68,0,5.72H243a112.53,112.53,0,0,0-1-11.88c-.19-1.06-2.37-1.77-4.07-2.94a1.79,1.79,0,0,1,.59-1.05c3.51-2.29,7-4.52,10.63-6.68,2.17-1.3,3.74-.62,3.91,1.93.35,4.93.61,9.88.65,14.82.09,10.58.09,21.16-.08,31.73a6.05,6.05,0,0,1-2,4c-2.66,2.26-5.63,4.15-9,6.53a32.39,32.39,0,0,1-.31-3.25c.15-6.93.26-13.87.56-20.8.11-2.65-.6-3.71-3.46-3.61-6.28.2-12.56.14-18.84,0-2.38-.05-3.35.6-3.25,3.16.2,4.73.2,9.48,0,14.21a5.7,5.7,0,0,1-1.91,3.68C212.65,310.62,209.61,312.57,206.3,314.91Z" transform="translate(-0.11 -0.05)" fill="#414042"/><path d="M130.65,291.34c-.31-9.26-2.59-16.26-8.34-22a17.71,17.71,0,0,0-16.63-5,14.47,14.47,0,0,1-3.57-.24c.82-1,1.48-2.23,2.51-2.86,5.94-3.59,12.2-6.23,19.38-4.94,11.33,2.05,18.86,12.58,18.54,25.8-.32,13.43-15.35,30.28-28.68,32.17-12.35,1.74-23.59-8.1-24.33-20.8-.61-10.69,5.63-17.11,13.15-22.93.37-.29,1.14,0,1.72,0a7.42,7.42,0,0,1-.28,2.67,20.84,20.84,0,0,0-1.88,15.36,24.29,24.29,0,0,0,10.84,15.22c7,4.49,13.54,2.17,16.23-5.68A40.83,40.83,0,0,0,130.65,291.34Z" transform="translate(-0.11 -0.05)" fill="#414042"/><path d="M281.24,266.46V279h20.68c-4,6.2-8.9,10.05-16.49,9.77-4.42-.17-4.43.14-4.43,4.48v10.27h29.28c-2.95,3.25-5.8,6.46-8.76,9.57a3.26,3.26,0,0,1-2.15.54q-15,0-30.06,0V288.67l-8.87-.58-.43-.71c2.4-1.91,4.71-4,7.24-5.7a5.39,5.39,0,0,0,2.55-5.26c-.18-3.28-.05-6.59-.05-10.26L260,265c5.14-3.47,8.75-8.71,16.39-7.94,10.21,1,20.6.25,30.83.25C301.27,267,291.62,267.61,281.24,266.46Z" transform="translate(-0.11 -0.05)" fill="#414042"/><path d="M161.6,297c3.05,5.93,6.89,9.53,13.18,9.55,4.52,0,7.34-1.89,8.3-5.58a8.16,8.16,0,0,0-4.81-9.19c-3.2-1.43-6.61-2.38-10-3.5-3.13-1.05-6.35-1.85-9.4-3.09-8.1-3.31-10.29-11-4.35-17.49,8.22-8.94,18.59-13.09,30.94-11.05a13.48,13.48,0,0,1,3.14,1c3.71,1.61,4.18,4.73.92,7a35.39,35.39,0,0,1-6.71,3.51,3.11,3.11,0,0,1-2.61-.89c-2.36-2.43-4.84-4.49-8.44-4.64-4.17-.18-7.44,2.14-8.35,6-.8,3.36.61,5.84,4.92,7.41,6.3,2.29,12.8,4,19.1,6.35,8.45,3.11,10.57,9.77,5,16.86-7.61,9.65-17.12,16.25-30.2,15.09a26.65,26.65,0,0,1-8.17-2.46c-4.43-2-5.1-5.76-1.49-8.82C155.23,300.78,158.35,299.11,161.6,297Z" transform="translate(-0.11 -0.05)" fill="#414042"/><path d="M65.19,279.77c5.8,8.15,11.22,16,17,23.65,1.29,1.7,3.89,2.41,6.36,3.86-3.92,2.31-7.62,4.85-11.66,6.61-1,.43-3.61-1.3-4.57-2.67C68,305.09,64,298.74,60,292.46c-1.85-2.85-3.68-5.72-5.7-8.87,3.73-2.63,7.32-5.11,10.84-7.69a25.94,25.94,0,0,0,4.24-3.64c3.35-3.77,2.9-5.92-1.51-8.22-1.14-.6-2.33-1.12-4.08-2,3.45-2.33,6.35-5.69,9.6-6.06,3-.35,7,1.85,9.46,4.09s.1,5-1.91,6.75c-3.62,3.21-7.42,6.22-11.15,9.3C68.39,277.28,67,278.35,65.19,279.77Z" transform="translate(-0.11 -0.05)" fill="#414042"/><path d="M41.33,314.65c0-8.15.05-16.06,0-24-.06-6.61-.1-13.22-.47-19.81-.18-3.16-.55-6.81-6.25-5.25.84-1.33,1.07-2.12,1.58-2.46,3.78-2.47,7.55-5,11.47-7.21,2.61-1.49,3.83-.8,4.37,2.12a26.36,26.36,0,0,1,.45,4.6c0,14,0,28,.07,42A4.44,4.44,0,0,1,50,309.14C47,310.88,44.11,312.87,41.33,314.65Z" transform="translate(-0.11 -0.05)" fill="#414042"/><path d="M222.26,217c-2.76-1.2-5.73-2-8.17-3.64-9.82-6.52-19.32-13.66-30.76-17.16a52,52,0,0,0-13.26-2,7.09,7.09,0,0,0-5.36,2.84,6.34,6.34,0,0,0,.82,7.68l5.6,6.55c-5.25,2.31-10.45,2.43-15,.36-8.83-4-15.19-10.63-16.46-20.76-.85-6.73,2.17-12.5,5.91-17.76,8.65-12.19,19.31-15,34.34-12.39,10,1.75,18.21,7.56,26.41,13.13,3.54,2.41,6.87,5.15,10.18,7.9,2.16,1.79,4.29,1.7,5.68-.43a28,28,0,0,0,4.15-8.7c2.07-9.25-1.53-16.51-8.25-23-11-10.59-23.75-18.06-37.85-23.57-6.86-2.69-13.83-4.4-21.25-4a41.88,41.88,0,0,1-4.62,0c-4.44-.23-6.22-3.11-5.06-7.33,2-7.29,4.22-14.59,5.39-22,.9-5.8-.27-11.91.56-17.74,1.62-11.42,4.33-22.66,13.1-31.07,12.17-11.69,29.31-14.79,43.23-4.11,5.53,4.25,9.68,5.39,15.5,1.36a20.51,20.51,0,0,1,17.42-2.78c5.8,1.54,10,5.18,11.63,11.07,1.26,4.44.06,6-4.48,6.09a5.66,5.66,0,0,0-5.43,3.57,53.92,53.92,0,0,0-2.9,7c-2.43,8.13-10.69,10.21-16.82,9.72a17.36,17.36,0,0,1-10.08-4.42Q208,64.23,199.36,57.3a40,40,0,0,0-4.5-2.75c-7.68-4.63-13.65-.86-16.39,5.67-5.53,13.21-2.34,26.67,12.19,33.94,8.67,4.34,17.36,8.63,26.11,12.79,18.45,8.78,27.33,23.78,28.73,43.72.15,2.19,0,4.41.23,6.6.62,6.57-1.7,12.24-4.84,17.84-5.26,9.42-10.46,18.9-15.16,28.61C223.92,207.48,223.53,211.93,222.26,217Z" transform="translate(-0.11 -0.05)" fill="#fff"/><path d="M100,110.8c5.71,7.67,11,14.83,16.36,22,3,4.06,6.3,8,9.16,12.14,3.52,5.15,4.41,11.2,5,17.26,1.92,18.28-5.33,32.82-18.44,44.93a60.82,60.82,0,0,1-6.74,5.83,22.56,22.56,0,0,1-7.07,3.19c-1.33.34-4-.33-4.28-1.13a7,7,0,0,1,.76-5.09c2.19-3.65,5.59-6.74,7.1-10.6,2.09-5.37,3.07-11.22,4.2-16.92,1-5-2.44-8.7-4.37-12.85-6.11-13.09-13.75-25.1-24.26-35.13-.93-.89-1.93-1.7-3.12-2.73-4.81,5.55-9.64,10.75-11.44,17.8-2,7.83-4.22,15.52-9,22.22a10.55,10.55,0,0,0-.7,2c3.52,1.29,6.94,2.65,10.42,3.8,5.34,1.77,5.47,2.15,3.75,7.54Q64,195.68,61,206.51c-.85,3-2.22,4.36-5.64,4.77-11.06,1.3-21.72-.3-32.32-3.16-3.93-1.06-4.94-2.62-3.52-6.53,2.6-7.15,5.37-14.23,8.09-21.33,1.2-3.13,3.35-4.89,6.86-4.4,3.22.45,4.68-1.1,6.26-3.88,4.86-8.54,5.21-17.56,4-26.9-.67-5.46-1.08-11-2-16.38-1.39-8.1-.12-15.79,2.85-23.28,2.28-5.73,4.81-11.35,7.15-17.06,2-5,1.06-6.83-4-8.73a97.73,97.73,0,0,1-11.83-5c-6-3.19-8-9.25-9.43-15.26-2.54-10.47,1.16-19.49,7.36-27.75,1.47-2,2.73-1.4,3.75.48a2.88,2.88,0,0,1,.33.93C40,40.63,45.33,43.37,52.06,44.9c6,1.36,12,3.06,15.93,8.5a11,11,0,0,1,1.75,3.12c2.43,7.83,3.33,15.59.2,23.58C66.7,88.4,64,96.92,61,105.33c-2.39,6.73-2.44,13.61-1.27,20.54a23.28,23.28,0,0,0,1.74,4.25,23.16,23.16,0,0,0,2.61-2.87c8-13.4,19.58-23.1,32.15-31.83,4.71-3.27,9.38-6.59,14.08-9.87,3.27-2.27,3.3-3.58,0-5.79a26.53,26.53,0,0,0-4.93-2.69C96.1,73.49,93.29,65.9,92.49,56.92c-.86-9.71,3.32-17.57,9.08-24.77a5.18,5.18,0,0,1,4.51-1.53,4.91,4.91,0,0,1,2.68,3.9c-.64,7.35,3.94,9.8,9.82,11.32,3.3.85,6.66,1.57,9.86,2.72,8.3,3,10.16,11.66,9.19,17.49-2.37,14.3-9.94,25.12-21.8,33.23C110.57,102.88,105.51,106.76,100,110.8Z" transform="translate(-0.11 -0.05)" fill="#fff"/><path d="M262.32,175.82h22.81a48.78,48.78,0,0,0-1.62-6.56,133,133,0,0,1-9.26-36.91c-.5-5.13,1.29-10.58,2.57-15.75a151.77,151.77,0,0,1,5.23-16.45c1.35-3.6,3.4-7,5.09-10.44s1.18-5.15-2.39-6.71c-11.47-5-17.07-16.73-13.52-28.9,1.73-6,2.92-12.23,8.45-16.36,2.7-2,4.28-1.79,5.16,1.49a16.4,16.4,0,0,1,.43,2.6c.53,6.28,5.57,7.08,10.16,8.16a41.57,41.57,0,0,0,8.83,1c9.48.12,19-.06,28.45.11a57.87,57.87,0,0,1,11.61,1.24c1.47.33,2.6,2.37,3.8,3.7,5.6,6.25,8,13.81,9.25,21.94.86,5.5,2.37,10.9,3.48,16.36a32.34,32.34,0,0,1,.7,5.88c.22,10.61.63,21.23.42,31.83-.18,9.17,2.66,17.74,4.3,26.55,1.09,5.88,2.11,11.8,3.76,17.54a146.22,146.22,0,0,0,5.82,15.41A17.66,17.66,0,0,1,372,210.9a42.57,42.57,0,0,1-8.08,6.64c-4.78,2.72-7.66.79-8-4.82-.36-6-.54-12.1-1.14-18.13-.83-8.42-2.16-16.79-2.94-25.21-.75-8.16-6.18-13-12.45-16.33-5.12-2.74-11.15-4.09-16.95-5.14-2.86-.52-6.32.52-9.12,1.75a80.19,80.19,0,0,0-11.91,6.79c-2.79,1.85-1.89,5-1.54,7.65.89,6.62,2.14,13.19,3.07,19.81a18.21,18.21,0,0,1-.32,5.24c-1.18,7.47-2.58,14.9-3.62,22.39-.47,3.37-2.81,4.42-5.36,4.57-4.14.25-8.32-.25-12.49-.28-5.64,0-11.35-.41-16.92.25-9.47,1.11-10.57,0-8.36-9.33,1.94-8.13,3.32-16.39,5-24.58C261.28,180.14,261.79,178.13,262.32,175.82Zm87.44-32.22c0-1.75.05-2.4,0-3-.66-6.45-1.27-12.9-2-19.33-.84-7.2-1.44-14.45-2.84-21.55-1.11-5.59-4-10.8-10.34-11.46-8.25-.86-16.61-.78-24.92-1-.73,0-1.69,1-2.18,1.69-6,9.16-11.15,18.68-13.9,29.37-1.93,7.51-3.54,15-1.06,22.69a40.71,40.71,0,0,0,1.64,3.74C312.32,129.64,330.62,129,349.76,143.6Z" transform="translate(-0.11 -0.05)" fill="#fff"/></svg>