<svg xmlns="http://www.w3.org/2000/svg" viewBox="0 0 397.28 347.5"><polygon points="295.46 5 101.82 5 5 173.75 101.82 342.5 295.46 342.5 392.28 173.75 295.46 5" fill="#fff" stroke="#006bb6" stroke-linecap="round" stroke-linejoin="round" stroke-width="10"/><rect x="94.47" y="88.62" width="216.38" height="134.93" fill="#006bb6" stroke="#414042" stroke-linejoin="round"/><path d="M269.31,241.08h-6c2.8-2.57,4.54-5.61,8.59-5.63,4.3,0,8.6-.67,12.82.6,2.78.84,5,2.37,5.64,5.63a7.34,7.34,0,0,1-3.08,7.63c-.76.57-1.54,1.14-2.58,1.9,2.34,3.75,4.56,7.44,6.94,11,.47.7,1.59.9,2.41,1.35a1.82,1.82,0,0,1,.76.56c.07.13-.17.6-.38.73a57,57,0,0,1-5.27,3.17c-1.45.72-2.41-.42-3.07-1.56-2.71-4.66-5.32-9.36-8.06-14.21,1.12-.64,2.17-1.2,3.17-1.82,2.33-1.47,3.31-3.37,2.9-5.52s-2.08-3.65-4.81-4c-3.66-.48-3.66-.48-3.66,3.29v18.42a2.38,2.38,0,0,1-1.25,2.41c-1.84,1.13-3.57,2.4-5.69,3.84C268.93,259.37,269.12,250.29,269.31,241.08Z" transform="translate(-1.91 -1.38)" fill="#414042"/><path d="M208,268.71V257.07a17.65,17.65,0,0,1,.09-2.06c.17-1.36-.43-1.77-1.65-1.71-1,.08-2.07,0-3.11,0l-.21-.62c1.21-1.05,2.35-2.18,3.63-3.11a3.08,3.08,0,0,0,1.36-3c-.1-1.31-.09-2.63-.15-3.94-.08-1.63-.66-2.54-2.39-1.83a4,4,0,0,1-1.19,0c.2-.45.25-.8.44-.94,2.05-1.51,4.09-3,6.21-4.45,1.7-1.13,2.63-.57,2.8,1.62.19,2.55.14,5.11.18,7.69V248h13.89a63.51,63.51,0,0,0-.54-6.75c-.1-.61-1.28-1-2.21-1.67a1,1,0,0,1,.32-.6c1.91-1.3,3.8-2.57,5.77-3.8,1.18-.74,2-.35,2.12,1.1.19,2.8.33,5.61.35,8.42.05,6,.05,12,0,18a3.53,3.53,0,0,1-1.08,2.28c-1.45,1.28-3.06,2.35-4.89,3.71-.08-.62-.14-1.23-.16-1.85.08-3.94.14-7.89.3-11.82.06-1.51-.33-2.11-1.88-2.06-3.4.12-6.81.08-10.22,0-1.29,0-1.82.34-1.76,1.8.11,2.69.11,5.39,0,8.08a3.26,3.26,0,0,1-1,2.09C211.4,266.27,209.75,267.38,208,268.71Z" transform="translate(-1.91 -1.38)" fill="#414042"/><path d="M166.92,255.31c-.17-5.26-1.41-9.24-4.53-12.51a9.32,9.32,0,0,0-9-2.84,7.78,7.78,0,0,1-1.93-.13,6.66,6.66,0,0,1,1.36-1.63c3.22-2,6.62-3.54,10.51-2.81,6.15,1.17,10.23,7.15,10.06,14.67s-8.33,17.21-15.56,18.29c-6.7,1-12.8-4.61-13.2-11.83-.33-6.08,3.06-9.73,7.13-13,.21-.17.62,0,.94,0a4.52,4.52,0,0,1-.15,1.51,12.32,12.32,0,0,0-1,8.74,13.78,13.78,0,0,0,5.88,8.65c3.79,2.55,7.34,1.23,8.8-3.23A24,24,0,0,0,166.92,255.31Z" transform="translate(-1.91 -1.38)" fill="#414042"/><path d="M248.61,241.17v7.13h11.22c-2.17,3.52-4.83,5.71-8.95,5.55-2.4-.1-2.4.08-2.4,2.55v5.84h15.88c-1.6,1.84-3.14,3.67-4.75,5.44a1.69,1.69,0,0,1-1.17.3h-16.3V253.79l-4.81-.33-.24-.4c1.3-1.09,2.56-2.27,3.93-3.24a3.12,3.12,0,0,0,1.38-3c-.1-1.87,0-3.75,0-5.83l-5.29-.66c2.78-2,4.74-5,8.89-4.52,5.54.57,11.17.15,16.72.15C259.47,241.47,254.24,241.82,248.61,241.17Z" transform="translate(-1.91 -1.38)" fill="#414042"/><path d="M183.71,258.53c1.65,3.37,3.73,5.42,7.15,5.43,2.45,0,4-1.08,4.5-3.17a4.7,4.7,0,0,0-2.61-5.23c-1.74-.81-3.59-1.35-5.42-2s-3.45-1-5.1-1.76c-4.4-1.88-5.59-6.25-2.36-9.94,4.46-5.08,10.08-7.44,16.78-6.28a7.24,7.24,0,0,1,1.7.57c2,.91,2.27,2.69.5,4a18.4,18.4,0,0,1-3.64,2,1.61,1.61,0,0,1-1.41-.5c-1.28-1.38-2.63-2.56-4.58-2.64a4.25,4.25,0,0,0-4.53,3.41c-.43,1.91.33,3.32,2.67,4.21,3.42,1.3,6.94,2.28,10.36,3.61,4.58,1.77,5.73,5.56,2.71,9.59-4.13,5.48-9.29,9.24-16.38,8.58a14.14,14.14,0,0,1-4.43-1.4c-2.41-1.14-2.77-3.28-.81-5A45.4,45.4,0,0,1,183.71,258.53Z" transform="translate(-1.91 -1.38)" fill="#414042"/><path d="M131.41,248.73c3.14,4.64,6.08,9.1,9.22,13.45.7,1,2.11,1.37,3.45,2.19a58.17,58.17,0,0,1-6.33,3.76c-.54.24-1.95-.74-2.47-1.52-2.35-3.48-4.52-7.09-6.69-10.66-1-1.62-2-3.25-3.09-5,2-1.5,4-2.91,5.88-4.38a13.68,13.68,0,0,0,2.3-2.07c1.82-2.14,1.57-3.36-.82-4.67-.62-.34-1.26-.64-2.21-1.14,1.87-1.32,3.44-3.23,5.21-3.44,1.62-.2,3.79,1,5.13,2.32s0,2.85-1,3.84c-2,1.83-4,3.54-6,5.29C133.14,247.32,132.39,247.93,131.41,248.73Z" transform="translate(-1.91 -1.38)" fill="#414042"/><path d="M118.46,268.56c0-4.63,0-9.13,0-13.64,0-3.76,0-7.52-.25-11.26-.1-1.8-.3-3.87-3.39-3,.45-.75.58-1.2.86-1.4,2-1.4,4.09-2.84,6.22-4.09,1.41-.85,2.08-.46,2.37,1.2a16.36,16.36,0,0,1,.24,2.62c0,7.95,0,15.91,0,23.87a2.55,2.55,0,0,1-1.38,2.56C121.54,266.42,120,267.55,118.46,268.56Z" transform="translate(-1.91 -1.38)" fill="#414042"/><path d="M216.61,213.05a27.14,27.14,0,0,1-4.43-2.07c-5.33-3.71-10.48-7.77-16.68-9.76a27.11,27.11,0,0,0-7.2-1.13,3.78,3.78,0,0,0-2.91,1.61,3.74,3.74,0,0,0,.45,4.37l3,3.72a9.37,9.37,0,0,1-8.14.21c-4.79-2.28-8.24-6.05-8.93-11.81-.46-3.82,1.18-7.1,3.21-10.09,4.69-6.93,10.47-8.53,18.63-7,5.42,1,9.87,4.3,14.32,7.47,1.92,1.37,3.73,2.93,5.52,4.49,1.18,1,2.33,1,3.09-.24a16.7,16.7,0,0,0,2.25-5c1.12-5.26-.83-9.39-4.48-13.08a60.61,60.61,0,0,0-20.53-13.39,26.11,26.11,0,0,0-11.53-2.28,20.85,20.85,0,0,1-2.5,0c-2.41-.13-3.38-1.77-2.75-4.17A118.5,118.5,0,0,0,180,142.4c.49-3.3-.14-6.77.31-10.09.88-6.49,2.35-12.88,7.1-17.66,6.61-6.65,15.9-8.41,23.46-2.34,3,2.42,5.25,3.07,8.4.78a10.66,10.66,0,0,1,9.45-1.58A8.51,8.51,0,0,1,235,117.8c.69,2.52,0,3.41-2.43,3.46a3.06,3.06,0,0,0-2.94,2,31.69,31.69,0,0,0-1.58,4c-1.31,4.62-5.8,5.8-9.12,5.53a9.25,9.25,0,0,1-5.47-2.52q-4.57-4.08-9.26-8a20.17,20.17,0,0,0-2.44-1.56c-4.17-2.63-7.4-.49-8.89,3.22-3,7.51-1.27,15.16,6.61,19.3,4.7,2.46,9.42,4.9,14.17,7.27,10,5,14.82,13.52,15.58,24.85.08,1.25,0,2.51.13,3.75.33,3.74-.93,7-2.63,10.15-2.85,5.35-5.67,10.74-8.22,16.26C217.51,207.64,217.3,210.17,216.61,213.05Z" transform="translate(-1.91 -1.38)" fill="#fff"/><path d="M150.29,152.68c3.1,4.36,6,8.43,8.88,12.5,1.62,2.31,3.41,4.55,5,6.9,1.91,2.93,2.4,6.37,2.72,9.82,1,10.39-2.89,18.65-10,25.54a33.55,33.55,0,0,1-3.65,3.31,12.1,12.1,0,0,1-3.84,1.82c-.72.19-2.17-.19-2.32-.65a4.14,4.14,0,0,1,.41-2.89c1.19-2.07,3-3.83,3.85-6a58.22,58.22,0,0,0,2.28-9.61c.55-2.85-1.32-4.95-2.37-7.31a65.12,65.12,0,0,0-13.16-20c-.5-.51-1-1-1.69-1.55-2.61,3.15-5.23,6.11-6.21,10.12-1.08,4.45-2.29,8.82-4.88,12.63a6.1,6.1,0,0,0-.38,1.14c1.91.73,3.77,1.5,5.65,2.16,2.9,1,3,1.22,2,4.28q-1.81,6-3.44,12.2a3.13,3.13,0,0,1-3,2.71,43.93,43.93,0,0,1-17.54-1.8c-2.13-.6-2.68-1.49-1.91-3.71,1.41-4.07,2.92-8.09,4.39-12.13.65-1.78,1.82-2.78,3.72-2.5s2.54-.62,3.4-2.2c2.64-4.86,2.83-10,2.17-15.3-.36-3.1-.59-6.25-1.09-9.31a25.26,25.26,0,0,1,1.55-13.23c1.24-3.26,2.61-6.45,3.88-9.7,1.08-2.84.57-3.88-2.17-5a51,51,0,0,1-6.42-2.85c-3.25-1.81-4.34-5.25-5.11-8.67-1.38-6,.63-11.08,4-15.78.8-1.13,1.48-.79,2,.28a1.61,1.61,0,0,1,.18.52c.59,4.33,3.48,5.88,7.14,6.75,3.25.78,6.5,1.74,8.64,4.83a6.92,6.92,0,0,1,.95,1.78c1.31,4.45,1.8,8.86.1,13.4-1.75,4.72-3.22,9.57-4.85,14.35a23.92,23.92,0,0,0-.68,11.67,12.91,12.91,0,0,0,.94,2.42,13.82,13.82,0,0,0,1.42-1.63c4.34-7.62,10.62-13.13,17.44-18.1,2.55-1.86,5.08-3.74,7.63-5.61,1.78-1.29,1.79-2,0-3.29a13.87,13.87,0,0,0-2.67-1.53c-5-2-6.56-6.35-7-11.45-.47-5.52,1.8-10,4.92-14.09a2.12,2.12,0,0,1,3.9,1.35c-.34,4.18,2.14,5.57,5.33,6.44,1.79.48,3.61.89,5.35,1.54,4.5,1.71,5.51,6.63,5,9.95a27.72,27.72,0,0,1-11.82,18.89C156,148.17,153.28,150.38,150.29,152.68Z" transform="translate(-1.91 -1.38)" fill="#fff"/><path d="M238.34,189.64h12.38a29.72,29.72,0,0,0-.88-3.73,78.19,78.19,0,0,1-5-21c-.27-2.92.7-6,1.39-9a89.15,89.15,0,0,1,2.84-9.35c.73-2.05,1.84-4,2.76-5.93s.64-2.93-1.3-3.82c-6.22-2.84-9.26-9.51-7.33-16.43.94-3.41,1.58-7,4.58-9.3,1.47-1.13,2.32-1,2.8.85a9.12,9.12,0,0,1,.23,1.48c.29,3.57,3,4,5.52,4.64a22,22,0,0,0,4.79.56c5.14.07,10.3,0,15.43.07a30.33,30.33,0,0,1,6.3.7c.79.19,1.41,1.35,2.06,2.11,3,3.55,4.34,7.85,5,12.47.46,3.12,1.28,6.19,1.88,9.3a17.9,17.9,0,0,1,.38,3.34c.12,6,.35,12.07.23,18.1-.1,5.21,1.45,10.08,2.33,15.09.6,3.34,1.15,6.71,2,10a86.17,86.17,0,0,0,3.16,8.76,10.38,10.38,0,0,1-2.09,11,23.52,23.52,0,0,1-4.38,3.78c-2.59,1.54-4.16.45-4.34-2.74-.2-3.41-.29-6.88-.62-10.31-.45-4.79-1.17-9.55-1.59-14.33s-3.36-7.39-6.76-9.29a30.65,30.65,0,0,0-9.19-2.92,8.88,8.88,0,0,0-4.95,1,42.74,42.74,0,0,0-6.46,3.86c-1.51,1.05-1,2.84-.84,4.35.49,3.76,1.17,7.49,1.67,11.26a11,11,0,0,1-.17,3c-.64,4.24-1.4,8.47-2,12.73a2.77,2.77,0,0,1-2.9,2.59c-2.25.15-4.52-.14-6.78-.16a73.9,73.9,0,0,0-9.18.15c-5.14.63-5.73,0-4.53-5.31,1.05-4.62,1.8-9.32,2.71-14C237.78,192.09,238.06,191,238.34,189.64Zm47.44-18.32c0-1,0-1.36,0-1.7-.36-3.67-.69-7.34-1.09-11-.45-4.1-.78-8.22-1.54-12.25-.6-3.18-2.17-6.14-5.61-6.52-4.47-.49-9-.44-13.51-.57-.4,0-.92.57-1.19,1A57.41,57.41,0,0,0,255.3,157c-1,4.27-1.92,8.53-.57,12.9.26.72.56,1.43.89,2.13C265.47,163.39,275.4,163,285.78,171.32Z" transform="translate(-1.91 -1.38)" fill="#fff"/></svg>