<svg xmlns="http://www.w3.org/2000/svg" xmlns:xlink="http://www.w3.org/1999/xlink" viewBox="0 0 397.28 347.5"><defs><clipPath id="a" transform="translate(-1.91 -1.38)"><rect x="121.29" y="56.16" width="159.87" height="237.94" fill="none"/></clipPath></defs><polygon points="295.46 5 101.82 5 5 173.75 101.82 342.5 295.46 342.5 392.28 173.75 295.46 5" fill="#fff" stroke="#4c4e50" stroke-linecap="round" stroke-linejoin="round" stroke-width="10"/><g clip-path="url(#a)"><path d="M171.94,65.67a7.12,7.12,0,1,0,0,14.24h13.64a4.76,4.76,0,0,1,4.76,4.76v56a4.76,4.76,0,0,1-3.78,4.66,70.42,70.42,0,1,0,29.33,0,4.76,4.76,0,0,1-3.78-4.66v-56a4.76,4.76,0,0,1,4.76-4.76h13.64a7.12,7.12,0,0,0,0-14.24Zm29.28,228.42a79.93,79.93,0,0,1-20.4-157.21V89.43h-8.88a16.64,16.64,0,0,1,0-33.27h58.57a16.64,16.64,0,0,1,0,33.27h-8.88v47.45a79.93,79.93,0,0,1-20.41,157.21" transform="translate(-1.91 -1.38)" fill="#006bb6"/><path d="M235.2,210.93a70.21,70.21,0,0,1-36.42-10.06,4.76,4.76,0,1,1,4.88-8.18c32.4,19.31,65.25.2,65.57,0a4.76,4.76,0,0,1,4.88,8.18,82.35,82.35,0,0,1-38.91,10.06" transform="translate(-1.91 -1.38)" fill="#006bb6"/><path d="M201.22,201.54a4.83,4.83,0,0,1-2.44-.67c-32.41-19.32-65.24-.2-65.57,0a4.76,4.76,0,0,1-4.87-8.18c1.54-.92,38.09-22.17,75.32,0a4.76,4.76,0,0,1-2.44,8.85" transform="translate(-1.91 -1.38)" fill="#006bb6"/></g></svg>