<svg xmlns="http://www.w3.org/2000/svg" xmlns:xlink="http://www.w3.org/1999/xlink" viewBox="0 0 397.28 347.5"><defs><clipPath id="a" transform="translate(-1.91 -1.38)"><rect x="100.45" y="68.95" width="204.06" height="205.83" transform="translate(-55.37 235.49) rotate(-54.19)" fill="none"/></clipPath></defs><polygon points="295.46 5 101.82 5 5 173.75 101.82 342.5 295.46 342.5 392.28 173.75 295.46 5" fill="#fff" stroke="#4c4e50" stroke-linecap="round" stroke-linejoin="round" stroke-width="10"/><g clip-path="url(#a)"><path d="M200.88,218.84c-3.91.07-8.31,1.8-12.36,1.7-2.47-.06-5.09-.3-8-.59l2-2c-2.44.23-5,.35-7.57.42s-5.28.08-8.08,0c1-.78,1.92-1.54,2.95-2.27a63.69,63.69,0,0,1-15.68.23c1-.83,2.09-1.64,3.13-2.43a75.61,75.61,0,0,1-16.48.21c1.36-.94,2.71-1.86,4.07-2.76a34.78,34.78,0,0,1-15.56-1.83c1.25-.78,2.49-1.58,3.75-2.36a31.56,31.56,0,0,1-15.56-4.44c1.56-.78,3.11-1.54,4.68-2.29-5.39-1.53-10.66-3.4-15.18-7.48,1.7-.5,3.4-1,5.09-1.45a34.54,34.54,0,0,1-9.69-6.6,34,34,0,0,1-5.87-7c-.46-.8,0-.61.84,0a39.78,39.78,0,0,0,6.2,3.19,48.89,48.89,0,0,0,9.08,3.18,30,30,0,0,1-2.27-4.69,44.32,44.32,0,0,1,13,9c-1.2-2.38-2.36-4.77-3.5-7.17a67.25,67.25,0,0,1,14.67,10.53c-.83-2.31-1.59-4.64-2.31-7a66.79,66.79,0,0,1,14,11.1c-.72-1.95-1.36-3.93-1.95-5.91a87.15,87.15,0,0,1,14,10.6c-.46-1.28-.84-2.53-1.21-3.79a80.36,80.36,0,0,1,13.37,9.69c-.61-1.35-1.18-2.7-1.65-4,5.06,3.28,9.86,6.49,14.09,9.74-.28-1.12-.62-1.8-.93-3,6.59,3.6,11.45,6.94,18.52,9.08-5-2.8-12.56-5.7-18.07-9.62,1.23-.16,2.45-.34,3.66-.51-2.75-1.63-5.48-3.45-8.27-5.38s-5.59-4-8.42-6.25c1.62-.06,3.22-.08,4.85,0a84.83,84.83,0,0,1-16.59-11.8c1.73,0,3.46,0,5.17,0a101.59,101.59,0,0,1-17.43-12.44c2.16.09,4.3.21,6.42.34A45.57,45.57,0,0,1,137,158.84c1.91.16,3.84.32,5.77.5a40.67,40.67,0,0,1-12.83-16.42q3.34.62,6.69,1.29c-4.46-5.68-8.52-11.6-10.07-19.19,2.17.8,4.32,1.63,6.46,2.44a43.37,43.37,0,0,1-5-14.08,41.41,41.41,0,0,1-.68-11.56c.14-1.17.49-.62.88.64a52.1,52.1,0,0,0,4,8,63.37,63.37,0,0,0,7,10.17c.05-1.76.55-3.23,1.29-6.46a55.33,55.33,0,0,1,6.61,19c.61-3.33,1.25-6.62,1.94-9.91,3.37,6.52,5.54,13.92,7.14,21.86.94-3,2-5.89,3-8.81a83.23,83.23,0,0,1,6,21.9c.77-2.51,1.64-5,2.58-7.44a108.16,108.16,0,0,1,6.41,21.44c.52-1.64,1.09-3.2,1.69-4.75a101.79,101.79,0,0,1,6.44,20c.41-1.83.88-3.63,1.44-5.35,2.74,7.19,5.26,14.1,7.15,20.62.58-1.33.54-2,1.11-3.41,4,7.42,5.25,11.29,9.41,18.1-1.84-4.35-4.72-12.58-8.58-18l3.53,1.57c-1.53-2.91-2.94-6-4.34-9.16s-2.75-6.47-4-10c1.47.83,2.91,1.69,4.33,2.63a85.64,85.64,0,0,1-8.17-19.24c1.57.91,3.11,1.85,4.62,2.8a101.75,101.75,0,0,1-8.54-20.25c1.86,1.26,3.69,2.54,5.5,3.81a45.7,45.7,0,0,1-5.53-20c1.62,1.19,3.24,2.38,4.86,3.59a40.43,40.43,0,0,1-2.26-21.15q2.65,2.37,5.23,4.77c-.79-7.32-1.1-14.64,1.75-22,1.48,1.88,2.94,3.77,4.39,5.64a42.72,42.72,0,0,1,3.41-14.84,41.84,41.84,0,0,1,5.85-10.32c.77-.92.77-.26.42,1a50.49,50.49,0,0,0-.89,9A63,63,0,0,0,203.6,100c1-1.49,2.29-2.47,4.75-4.85-.12,6.2-1.74,12.86-4.73,20q3.58-3.78,7.25-7.45c-.65,7.45-2.85,15-5.85,22.71,2.48-2,5-4,7.61-5.92a82.6,82.6,0,0,1-6.9,22.12c2.09-1.74,4.25-3.4,6.45-5a108,108,0,0,1-6.26,21.94c1.37-1.12,2.75-2.14,4.15-3.15a100.79,100.79,0,0,1-5.45,20.75c1.39-1.35,2.81-2.64,4.27-3.82-1.59,7.69-3.2,15-5.15,21.65,1.26-.82,1.61-1.13,2.91-2-1.05,8.44-4,12.28-3.84,19.62,1.51-7.29,4-14.71,5.4-22.74.65,1.05,1.31,2.08,1.95,3.11.38-3.05.93-6.17,1.56-9.36s1.35-6.45,2.27-9.81c.71,1.43,1.39,2.86,2,4.35A77.91,77.91,0,0,1,220,163c.75,1.54,1.46,3.09,2.15,4.62a92.86,92.86,0,0,1,4.26-20.12c.8,2,1.56,3.93,2.3,5.88a41.73,41.73,0,0,1,6.53-18.31c.63,1.78,1.28,3.57,1.9,5.36A37.11,37.11,0,0,1,246.91,123q.81,3.23,1.55,6.47c3.37-6.05,7.13-11.82,13.43-16,.15,2.23.27,4.47.4,6.68a44.87,44.87,0,0,1,21.11-14.33c1.12-.29.76.22-.23,1a47.63,47.63,0,0,0-5.65,6.46,57.9,57.9,0,0,0-6.43,10c1.64-.59,3.17-.67,6.43-1.17a51.81,51.81,0,0,1-14.68,12.79c3.28-.66,6.55-1.26,9.83-1.83-4.58,5.37-10.45,10-17.06,14.28,3.09-.22,6.18-.37,9.29-.45a78.22,78.22,0,0,1-17.57,13.26c2.61-.21,5.23-.32,7.85-.36a102.12,102.12,0,0,1-17,13.47c1.71-.12,3.36-.17,5-.19a95.64,95.64,0,0,1-15.66,13c1.84-.29,3.67-.52,5.47-.64-5.46,5.05-10.74,9.8-15.92,13.85,1.45,0,3,0,4.5,0-2.83,3.08-6.32,5.1-8.82,7.36-3.72,3.37-7.07,6.59-9.61,10.84v.53a13.94,13.94,0,0,0,1.81-2.36,29.63,29.63,0,0,1,4.59-5.08c1.81-1.63,3.84-3.23,6.08-5,0,1,0,1.91,0,2.86,1.58-1.83,3.29-3.63,5.1-5.45s3.7-3.64,5.78-5.44c-.14,1.23-.3,2.46-.52,3.69a61,61,0,0,1,11-10.8c-.16,1.32-.35,2.63-.54,3.93A72.31,72.31,0,0,1,248,183.11c-.31,1.62-.65,3.23-1,4.82a33.05,33.05,0,0,1,12.33-9.19c-.34,1.43-.68,2.88-1,4.31a29.86,29.86,0,0,1,14.14-7.24c-.57,1.64-1.16,3.27-1.75,4.89,4.89-2.51,9.92-4.69,16-4.71-.86,1.52-1.75,3-2.62,4.54a33.07,33.07,0,0,1,11.45-1.64,33.58,33.58,0,0,1,9,1.25c.89.29.42.47-.59.57a39.29,39.29,0,0,0-6.62,1.82,46.51,46.51,0,0,0-8.65,3.79,28.75,28.75,0,0,1,4.85,2,42.48,42.48,0,0,1-15.46,2.11q3.75,1.46,7.44,3a64.28,64.28,0,0,1-17.71,2.08c2.19,1.16,4.34,2.39,6.47,3.66a64.77,64.77,0,0,1-17.6,1.19c1.85,1,3.67,2,5.46,3.1a84.57,84.57,0,0,1-17.3,1.58c1.21.65,2.35,1.32,3.48,2a78.48,78.48,0,0,1-16.21,1.82c1.37.59,2.71,1.22,4,1.91-5.86,1-11.49,1.84-16.74,2.28,1,.65,2,1.26,3,1.91-6.6,1.64-13.76,2.27-19.16,3.79v.49a99,99,0,0,1,14.08-2.31c-.39.56-1.1,1-1.48,1.52,1.69-.46,3.46-.85,5.29-1.21s3.7-.69,5.69-.93c-.58.67-1.16,1.33-1.79,2a45.27,45.27,0,0,1,11-2.05c-.63.72-1.27,1.42-1.91,2.1a54.19,54.19,0,0,1,11.59-2.12c-.84.83-1.69,1.65-2.53,2.45a24.71,24.71,0,0,1,11.18-.57L252,220.19a22.41,22.41,0,0,1,11.5,1.29c-1,.74-2,1.47-3,2.19,4,.44,7.93,1.13,11.62,3.49l-3.41,1.65a27.51,27.51,0,0,1,12.62,7.8c.42.52.06.44-.59.1a28.43,28.43,0,0,0-4.76-1.52,35.05,35.05,0,0,0-6.79-1.17,20.67,20.67,0,0,1,2.17,3.06,31.71,31.71,0,0,1-10.25-4.82c1.13,1.55,2.24,3.1,3.33,4.68a48.31,48.31,0,0,1-11.61-5.73c.86,1.54,1.68,3.11,2.48,4.69a48,48,0,0,1-11.21-6.21c.75,1.3,1.44,2.63,2.09,4A62.36,62.36,0,0,1,235,227.8c.48.86.9,1.7,1.32,2.55a57.89,57.89,0,0,1-10.6-5.28c.59.88,1.15,1.78,1.65,2.68-4-1.73-7.74-3.43-11.11-5.23.33.76.73,1.53,1.09,2.32-4.62-1.61-9.25-4.54-14.12-5.28V220c3.48,1.59,7.31,2.46,10.87,4.19l-1.48.67c1.36.36,2.74.8,4.16,1.28s2.85,1,4.33,1.64c-.68.22-1.35.43-2,.61a37.77,37.77,0,0,1,8.47,3c-.73.24-1.45.45-2.17.66a44.44,44.44,0,0,1,8.89,3.17c-.91.23-1.83.44-2.74.64a20.21,20.21,0,0,1,8,4.06l-2.49.5a18.1,18.1,0,0,1,7.46,5.44q-1.49.15-3,.27c2.58,1.88,5,3.91,6.64,7-1-.07-2-.16-3-.24a19.28,19.28,0,0,1,3.86,5.4,18.52,18.52,0,0,1,1.74,4.86c.09.52-.13.33-.45-.16a23.65,23.65,0,0,0-2.68-2.92,28.61,28.61,0,0,0-4.24-3.48,16.86,16.86,0,0,1,.27,2.92,24.76,24.76,0,0,1-5.17-7.32c.16,1.5.3,3,.42,4.48a38,38,0,0,1-5.75-8.47c0,1.38-.08,2.76-.17,4.14a37.15,37.15,0,0,1-5.27-8.62c0,1.17-.06,2.33-.15,3.5a48.63,48.63,0,0,1-5.39-8.38c0,.77-.06,1.5-.12,2.24a45.3,45.3,0,0,1-5.22-7.77c.05.84.08,1.66.06,2.47-2-2.74-4-5.38-5.6-7.94-.08.64-.11,1.33-.18,2-1.27-1.45-2.32-2.88-3.24-4.13s-1.6-2.24-2.27-3a19.28,19.28,0,0,0-2.34-2.34c.6,23.23,3.14,43.51,12.4,53.47l-4.21.86c-8-9.95-9.79-31.13-10.52-54.27-1.87,2.58-3.74,7.41-5.47,9.77-.13-.66-.24-1.34-.39-2-1.33,2.64-3,5.38-4.73,8.22-.1-.8-.16-1.62-.2-2.46a42,42,0,0,1-4.37,8c-.13-.73-.26-1.46-.36-2.22a46.18,46.18,0,0,1-4.46,8.65c-.21-1.16-.4-2.32-.53-3.48a35.67,35.67,0,0,1-4.32,8.89c-.24-1.38-.45-2.75-.62-4.12a35.22,35.22,0,0,1-4.82,8.76c0-1.5-.06-3-.06-4.49a23,23,0,0,1-4.36,7.58,15.59,15.59,0,0,1,0-2.93,26,26,0,0,0-3.85,3.71,21.2,21.2,0,0,0-2.36,3.06c-.27.5-.46.7-.43.19A19.91,19.91,0,0,1,164,255l-3,.41a19.07,19.07,0,0,1,5.88-7.3l-3-.11a16.69,16.69,0,0,1,6.85-5.83l-2.54-.37a18.87,18.87,0,0,1,7.53-4.48l-2.8-.49a41.14,41.14,0,0,1,8.52-3.65l-2.23-.54a35.16,35.16,0,0,1,8.12-3.45c-.71-.14-1.39,0-2.09-.19a61.23,61.23,0,0,1,8.13-3.69l-1.54-.58a60.11,60.11,0,0,0,9.06-4.91v-.27C197,221.6,190,224.3,185.67,227.1c.2-.65,1-1.63,1.22-2.28-3.42,2.18-4.87,4.76-9.08,6.64.35-.82.71-1.62,1.12-2.42a44,44,0,0,1-9.85,5.16c.39-.87.79-1.73,1.19-2.58A52.91,52.91,0,0,1,159.9,237c.56-1.05,1.12-2.08,1.69-3.09a24.26,24.26,0,0,1-10.45,3.78c.53-.91,1.06-1.83,1.61-2.74a22,22,0,0,1-11.3,2.09c.73-1,1.47-2,2.22-3-3.91.73-7.86,1.2-12,0,.92-.87,1.84-1.72,2.75-2.57a27.13,27.13,0,0,1-14.27-3.88c-.55-.37-.19-.4.53-.27a27.3,27.3,0,0,0,5,.1,34.55,34.55,0,0,0,6.79-.83,22.16,22.16,0,0,1-3-2.33A31.13,31.13,0,0,1,140.57,226q-2.3-1.75-4.54-3.55a47.14,47.14,0,0,1,12.71,2.17c-1.28-1.24-2.51-2.51-3.73-3.81a47,47,0,0,1,12.45,2.75c-1.09-1-2.13-2.12-3.15-3.23a61.67,61.67,0,0,1,12.32,2.42c-.7-.69-1.35-1.38-2-2.08a57.56,57.56,0,0,1,11.61,2c-.82-.68-1.62-1.38-2.36-2.11,4.28.52,8.36,1.07,12.09,1.84-.54-.64-1.1-.49-1.68-1.14,5.07.22,11.94-1,16.59-2.1Z" transform="translate(-1.91 -1.38)" fill="none" stroke="#006bb6" stroke-linejoin="round" stroke-width="3"/></g></svg>