<svg xmlns="http://www.w3.org/2000/svg" xmlns:xlink="http://www.w3.org/1999/xlink" viewBox="0 0 377.16 505.69"><defs><linearGradient id="a" x1="190.55" y1="306.06" x2="190.55" y2="508.25" gradientUnits="userSpaceOnUse"><stop offset="0"/><stop offset="1"/></linearGradient></defs><path d="M171.18,504.18C28.43,421,2,412.46,2,381.88,2,340,86.42,306.06,190.55,306.06s188.57,34,188.57,75.82c0,30.58-26.46,39.1-169.21,122.3-7.44,4.3-22.14,5.36-32.84,2.37a25.78,25.78,0,0,1-5.89-2.37Z" transform="translate(-1.97 -2.56)" fill="url(#a)"/><path d="M172.41,493.07C36.74,289,11.6,268.07,11.6,193.07c0-102.75,80.26-186,179.22-186S370,90.37,370,193.07c0,75-25.14,95.9-160.81,300a22,22,0,0,1-31,5.95,22.53,22.53,0,0,1-5.81-5.95Z" transform="translate(-1.97 -2.56)" fill="#ef4747" stroke="#cd2f2e" stroke-miterlimit="10" stroke-width="9"/><ellipse cx="188.85" cy="178.11" rx="74.86" ry="77.7" fill="#521110"/><ellipse cx="188.58" cy="175.12" rx="78.78" ry="80.65" fill="#521110"/></svg>