<svg xmlns="http://www.w3.org/2000/svg" viewBox="0 0 381 504.98"><path d="M172.9,494.4C32.1,290.3,6,269.4,6,194.4,6,91.7,89.3,8.4,192,8.4s186,83.3,186,186c0,75-26.1,95.9-166.9,300a23.27,23.27,0,0,1-38.2,0Z" transform="translate(-1.5 -3.9)" fill="#f74444" stroke="#fff" stroke-miterlimit="10" stroke-width="9"/><path d="M174.11,485.86C40.3,289.22,15.5,269.08,15.5,196.83c0-99,79.16-179.21,176.77-179.21S369,97.88,369,196.83c0,72.25-24.8,92.39-158.61,289a22,22,0,0,1-36.31,0Z" transform="translate(-1.5 -3.9)" fill="#f74444" stroke="#cc2e2e" stroke-miterlimit="10" stroke-width="9"/><ellipse cx="190.77" cy="180.98" rx="73.84" ry="74.86" fill="#560000"/><circle cx="190.5" cy="178.1" r="77.7" fill="#560000"/></svg>