<?xml version="1.0" encoding="utf-8"?>
<!-- Generator: Adobe Illustrator 26.0.3, SVG Export Plug-In . SVG Version: 6.00 Build 0)  -->
<svg version="1.1" id="Layer_1" focusable="false" xmlns="http://www.w3.org/2000/svg" xmlns:xlink="http://www.w3.org/1999/xlink"
	 x="0px" y="0px" viewBox="0 0 384 512" style="enable-background:new 0 0 384 512;" xml:space="preserve">
<style type="text/css">
	.st0{fill:url(#SVGID_1_);}
	.st1{fill:#9C9DA3;}
	.st2{fill:url(#SVGID_00000030452504203827167280000010159007027826671262_);}
	.st3{fill:url(#SVGID_00000019650223556421149740000009372419646244791981_);}
	.st4{fill:url(#SVGID_00000137118837398981034380000003049752994519949979_);}
	.st5{fill:url(#SVGID_00000169531928029900985470000003151877085594761905_);}
	.st6{fill:url(#SVGID_00000071540224011032505610000002575154779589496494_);}
	.st7{fill:url(#SVGID_00000038398017955713912550000018191217062647840674_);}
	.st8{fill:url(#SVGID_00000027581316616629988240000016112421637224386720_);}
</style>
<g>
	
		<radialGradient id="SVGID_1_" cx="196.7933" cy="2087.4275" r="144.046" gradientTransform="matrix(1.2291 0 0 0.1929 -48.8427 79.5214)" gradientUnits="userSpaceOnUse">
		<stop  offset="0" style="stop-color:#000000"/>
		<stop  offset="0.2124" style="stop-color:#171717"/>
		<stop  offset="0.525" style="stop-color:#333434"/>
		<stop  offset="0.7982" style="stop-color:#444545"/>
		<stop  offset="1" style="stop-color:#4A4B4B"/>
	</radialGradient>
	<path class="st0" d="M370.3,482.2c0,15.4-79.4,27.8-177.3,27.8c-97.9,0-177.2-12.4-177.2-27.8c0-15.3,79.3-27.8,177.2-27.8
		C290.9,454.4,370.3,466.9,370.3,482.2z"/>
	<g>
		<g>
			<g>
				<path class="st1" d="M200.9,476.7c-0.6,0-1.1,0-1.7-0.1h-2.7c-0.6,0.1-1.1,0.1-1.7,0.1c-3.2,0-9.3-1.3-13.8-10.1l-43.5-85
					c-25.6-51-33.3-63.5-47-84.1c-4.4-6.6-8.9-13-13.5-19.5c-23.1-32.7-46.9-66.5-46.9-111.4C30.1,75.9,104,2,194.8,2
					c0.4,0,0.7,0,1,0l3.8,0c0.5,0,0.9,0,1.2,0c90.8,0,164.7,73.9,164.7,164.7c0,44.9-23.9,78.7-46.9,111.4
					c-4.5,6.5-9.1,12.9-13.5,19.5c-13.8,20.6-21.4,33.1-47,84.1l-43.5,85C210.2,475.5,204.1,476.7,200.9,476.7L200.9,476.7z"/>
				
					<radialGradient id="SVGID_00000083811883942210070110000012253255251446402727_" cx="199.0174" cy="191.3149" r="151.3543" gradientTransform="matrix(1.2291 0 0 1.2291 -48.8427 -57.4444)" gradientUnits="userSpaceOnUse">
					<stop  offset="2.678600e-02" style="stop-color:#F8F8F9"/>
					<stop  offset="0.503" style="stop-color:#DCDFDE"/>
					<stop  offset="1" style="stop-color:#B8BBBF"/>
				</radialGradient>
				<path style="fill:url(#SVGID_00000083811883942210070110000012253255251446402727_);" d="M199.6,471c3.6,0.7,7.3-1.5,10-6.9
					l43.5-85c26.2-51.9,34-64.6,47.4-84.7c26.6-39.8,59.4-76.1,59.4-127.8c0-87.9-71.2-159.1-159.1-159.1c-0.4,0-0.8,0.1-1.2,0.1
					H196c-0.4,0-0.8-0.1-1.2-0.1c-87.9,0-159.1,71.2-159.1,159.1c0,51.7,32.8,88,59.5,127.8c13.4,20.1,21.2,32.7,47.4,84.7l43.5,85
					c2.7,5.3,6.4,7.5,10,6.9H199.6z"/>
				
					<linearGradient id="SVGID_00000012447774687616069120000011123578520599667087_" gradientUnits="userSpaceOnUse" x1="194.826" y1="76.3263" x2="194.826" y2="257.1451">
					<stop  offset="0" style="stop-color:#FFFFFF"/>
					<stop  offset="0.5434" style="stop-color:#EDEEEE"/>
					<stop  offset="0.9939" style="stop-color:#DBDDDD"/>
				</linearGradient>
				<path style="fill:url(#SVGID_00000012447774687616069120000011123578520599667087_);" d="M285.2,166.7
					c0,49.9-40.5,90.4-90.4,90.4c-49.9,0-90.4-40.5-90.4-90.4c0-49.9,40.5-90.4,90.4-90.4C244.8,76.3,285.2,116.8,285.2,166.7z"/>
				
					<linearGradient id="SVGID_00000177448585228050733710000015812331342303367305_" gradientUnits="userSpaceOnUse" x1="194.8143" y1="245.1736" x2="194.8143" y2="88.2743">
					<stop  offset="0" style="stop-color:#911D1D"/>
					<stop  offset="0.8" style="stop-color:#821C1F"/>
				</linearGradient>
				<path style="fill:url(#SVGID_00000177448585228050733710000015812331342303367305_);" d="M273.3,166.7
					c0,43.3-35.1,78.5-78.4,78.5c-43.3,0-78.4-35.1-78.4-78.5s35.1-78.4,78.4-78.4C238.1,88.3,273.3,123.4,273.3,166.7z"/>
				
					<radialGradient id="SVGID_00000142168650472845614870000003850619208124464010_" cx="176.129" cy="166.5396" r="185.9079" gradientTransform="matrix(1.2291 0 0 1.2291 -48.8427 -57.4444)" gradientUnits="userSpaceOnUse">
					<stop  offset="0" style="stop-color:#D4644D"/>
					<stop  offset="0.2485" style="stop-color:#D31F11"/>
					<stop  offset="0.5212" style="stop-color:#771F15"/>
					<stop  offset="0.6545" style="stop-color:#D31F11"/>
				</radialGradient>
				<path style="fill:url(#SVGID_00000142168650472845614870000003850619208124464010_);" d="M268.4,166.7
					c0,40.6-32.9,73.6-73.5,73.6c-40.6,0-73.5-32.9-73.5-73.6c0-40.6,32.9-73.5,73.5-73.5C235.4,93.2,268.4,126.1,268.4,166.7z"/>
				
					<linearGradient id="SVGID_00000181066378327275680770000014068385336504002692_" gradientUnits="userSpaceOnUse" x1="121.2769" y1="132.2552" x2="252.2321" y2="132.2552">
					<stop  offset="0" style="stop-color:#D31F11"/>
					<stop  offset="0.8788" style="stop-color:#771F15"/>
				</linearGradient>
				<path style="fill:url(#SVGID_00000181066378327275680770000014068385336504002692_);" d="M198.3,98.8c21,0,40,8.4,53.9,22
					c-13.5-16.8-34.2-27.6-57.4-27.6c-40.6,0-73.5,32.9-73.5,73.5c0,1.6,0.1,3.1,0.2,4.6C123.9,130.9,157.3,98.8,198.3,98.8z"/>
				
					<linearGradient id="SVGID_00000134956827934037755800000006353530226511043772_" gradientUnits="userSpaceOnUse" x1="136.2866" y1="200.7044" x2="267.253" y2="200.7044">
					<stop  offset="0" style="stop-color:#DE9698"/>
					<stop  offset="0.8788" style="stop-color:#D31F11"/>
				</linearGradient>
				<path style="fill:url(#SVGID_00000134956827934037755800000006353530226511043772_);" d="M190.2,234.1c-21,0-40-8.4-53.9-22
					c13.5,16.8,34.2,27.7,57.4,27.7c40.6,0,73.6-32.9,73.6-73.5c0-1.5-0.1-3.1-0.2-4.6C264.6,202.1,231.2,234.1,190.2,234.1z"/>
			</g>
			
				<linearGradient id="SVGID_00000118398937833151862340000000370327356072812986_" gradientUnits="userSpaceOnUse" x1="54.3654" y1="65.5665" x2="341.3026" y2="65.5665">
				<stop  offset="0.1455" style="stop-color:#DADCDC"/>
				<stop  offset="0.4848" style="stop-color:#FFFFFF"/>
				<stop  offset="0.9273" style="stop-color:#DADCDC"/>
			</linearGradient>
			<path style="fill:url(#SVGID_00000118398937833151862340000000370327356072812986_);" d="M197.8,25.8
				c64.9,0,120.5,39.1,143.5,94.4C323.9,57.3,266.2,10.9,197.8,10.9c-68.4,0-126.1,46.4-143.5,109.3
				C77.3,64.9,132.9,25.8,197.8,25.8z"/>
		</g>
	</g>
</g>
</svg>
