<?xml version="1.0" encoding="UTF-8"?><svg id="a" xmlns="http://www.w3.org/2000/svg" viewBox="0 0 591.1 178.47"><polygon points="501.38 178.47 6.17 178.47 6.22 7.92 591.1 8.09 501.38 178.47" fill="#8e191b"/><polygon points="493.75 169.43 0 168.88 .05 0 584.25 .39 493.75 169.43" fill="#ee2d35"/><g><path d="M161.32,26.61h-16.98V15.88h48.22v10.74h-16.98v42.06h-14.26V26.61Z" fill="#fff"/><path d="M199.15,15.88h14.26v18.92h20.86V15.88h14.26v52.8h-14.26v-21.82h-20.86v21.82h-14.26V15.88Z" fill="#fff"/><path d="M259.96,15.88h36.7v10.74h-22.44v8.89h18.04v10.65h-18.04v11.79h22.44v10.74h-36.7V15.88Z" fill="#fff"/><path d="M320.77,48.35v20.33h-14.26V15.88h24.02c12.85,0,18.39,7.74,18.39,16.28,0,7.13-4.05,12.76-10.3,14.78l15.4,21.74h-15.4l-14.08-20.33h-3.78Zm6.16-9.06c5.46,0,7.92-2.46,7.92-6.95s-2.46-7.04-7.92-7.04h-6.16v13.99h6.16Z" fill="#fff"/><path d="M359.05,15.88h15.93l14.34,33.53,14.34-33.53h15.58v52.8h-12.58v-28.78c0-1.23,.26-5.28,.35-5.63l-1.94,5.63-11.88,28.78h-8.45l-11.88-28.78c-.53-1.23-1.76-5.02-1.94-5.63,0,.35,.35,4.4,.35,5.63v28.78h-12.23V15.88Z" fill="#fff"/><path d="M428.21,42.28c0-16.19,13.11-27.9,29.3-27.9s29.13,11.7,29.13,27.9-13.02,27.9-29.13,27.9-29.3-11.7-29.3-27.9Zm43.29,0c0-10.12-5.19-16.72-13.99-16.72s-14.17,6.6-14.17,16.72,5.28,16.72,14.17,16.72,13.99-6.6,13.99-16.72Z" fill="#fff"/><path d="M145.24,134.99l2.56-8.38c3.2,2.7,7.81,5.68,13.42,5.68,3.48,0,6.18-1.35,6.18-4.33,0-2.77-1.85-3.91-7.95-5.33-9.73-2.27-13.06-7.46-13.06-13.77,0-7.74,6.11-12.78,15.62-12.78,5.61,0,10.65,1.99,13.99,4.33l-2.34,7.67c-3.19-1.99-7.67-3.69-11.79-3.69-3.05,0-4.97,1.28-4.97,3.41,0,1.99,1.28,3.19,6.11,4.33,10.65,2.49,14.98,6.96,14.98,14.63,0,10.01-8.09,13.77-16.76,13.77-7.31,0-12.64-2.77-15.97-5.54Z" fill="#fff"/><path d="M182.73,118.38c0-13.77,10.65-22.22,22.93-22.22,5.82,0,11.43,1.56,14.98,4.26v9.8c-3.41-2.91-7.95-4.97-13.06-4.97-7.17,0-12.64,4.62-12.64,13.13s5.47,13.13,12.64,13.13c5.11,0,9.66-2.06,13.06-4.97v9.8c-3.55,2.7-9.16,4.26-14.98,4.26-12.28,0-22.93-8.45-22.93-22.22Z" fill="#fff"/><path d="M228.17,97.08h11.5v42.6h-11.5v-42.6Z" fill="#fff"/><path d="M248.9,97.08h29.61v8.66h-18.1v7.17h14.56v8.59h-14.56v9.51h18.1v8.66h-29.61v-42.6Z" fill="#fff"/><path d="M286.46,97.08h8.73l19.31,24.5v-24.5h10.15v42.6h-8.73l-19.31-24.5v24.5h-10.15v-42.6Z" fill="#fff"/><path d="M343.69,105.74h-13.7v-8.66h38.91v8.66h-13.7v33.94h-11.5v-33.94Z" fill="#fff"/><path d="M374.21,97.08h11.5v42.6h-11.5v-42.6Z" fill="#fff"/><path d="M394.95,97.08h28.68v8.66h-17.18v7.67h13.63v8.59h-13.63v17.68h-11.5v-42.6Z" fill="#fff"/><path d="M428.95,97.08h11.5v42.6h-11.5v-42.6Z" fill="#fff"/><path d="M447.63,118.38c0-13.77,10.65-22.22,22.93-22.22,5.82,0,11.43,1.56,14.98,4.26v9.8c-3.41-2.91-7.95-4.97-13.06-4.97-7.17,0-12.64,4.62-12.64,13.13s5.47,13.13,12.64,13.13c5.11,0,9.66-2.06,13.06-4.97v9.8c-3.55,2.7-9.16,4.26-14.98,4.26-12.28,0-22.93-8.45-22.93-22.22Z" fill="#fff"/></g></svg>