<?xml version="1.0" encoding="UTF-8"?><svg id="a" xmlns="http://www.w3.org/2000/svg" viewBox="0 0 591.1 178.47"><polygon points="501.38 178.47 6.17 178.47 6.22 7.92 591.1 8.09 501.38 178.47" fill="#8e191b"/><polygon points="493.75 169.43 0 168.88 .05 0 584.25 .39 493.75 169.43" fill="#ee2d35"/><g><path d="M145.92,72.15l15.23-15.88c6.16-6.48,11.66-12.31,11.66-19.76,0-6.59-4.86-8.96-9.18-8.96-4.97,0-10.26,2.05-16.09,6.91v-13.82c4-3.24,13.18-6.7,20.2-6.7,12.64,0,22.79,7.56,22.79,19.87,0,11.23-6.91,18.79-13.39,24.52l-10.37,9.18h25.16v13.18h-46.01v-8.53Z" fill="#fff"/><path d="M195.16,75.6v-13.28c5.08,4.86,11.56,7.88,18.04,7.88,7.13,0,11.56-4,11.56-10.26,0-5.94-4-9.07-10.15-9.07-4.75,0-7.88,1.62-9.94,5.18l-7.24-3.02V15.88h41.69v13.18h-28.3v11.99c1.73-1.19,4.86-2.48,9.72-2.48,12.74,0,21.17,8.21,21.17,20.95,0,14.69-11.56,23-25.49,23-8.75,0-16.63-2.92-21.06-6.91Z" fill="#fff"/><path d="M244.41,30.35c0-8.86,6.37-16.09,15.88-16.09s15.88,7.24,15.88,16.09-6.37,16.2-15.88,16.2-15.88-7.24-15.88-16.2Zm21.38,0c0-6.16-2.05-8.42-5.51-8.42s-5.51,2.27-5.51,8.42,2.05,8.53,5.51,8.53,5.51-2.27,5.51-8.53Zm-10.8,49.9L296.47,13.93l4.64,2.38-41.47,66.31-4.64-2.38Zm24.84-14.47c0-8.86,6.37-16.09,15.88-16.09s15.88,7.24,15.88,16.09-6.37,16.2-15.88,16.2-15.88-7.24-15.88-16.2Zm21.39,0c0-6.16-2.05-8.42-5.51-8.42s-5.51,2.27-5.51,8.42,2.05,8.53,5.51,8.53,5.51-2.27,5.51-8.53Z" fill="#fff"/><path d="M320.42,65.98c0-9.02,7.3-15.53,16.32-15.53s16.22,6.52,16.22,15.53-7.25,15.53-16.22,15.53-16.32-6.52-16.32-15.53Zm24.11,0c0-5.63-2.89-9.31-7.79-9.31s-7.89,3.67-7.89,9.31,2.94,9.31,7.89,9.31,7.79-3.67,7.79-9.31Z" fill="#fff"/><path d="M354.28,51.28h6.03l13.33,16.9v-16.9h7.01v29.4h-6.03l-13.33-16.9v16.9h-7.01v-29.4Z" fill="#fff"/><path d="M146.72,105.28h12.54c7.4,0,10.78,4.46,10.78,9.85s-3.38,9.85-10.78,9.85h-4.61v9.7h-7.94v-29.4Zm10.63,14.45c3.38,0,4.8-1.76,4.8-4.61s-1.42-4.6-4.8-4.6h-2.69v9.21h2.69Z" fill="#fff"/><path d="M178.52,122.92l-11.51-17.64h8.72l6.86,11.12,6.86-11.12h8.53l-11.51,17.64v11.76h-7.94v-11.76Z" fill="#fff"/><path d="M206.7,123.36v11.32h-7.94v-29.4h13.38c7.15,0,10.24,4.31,10.24,9.06,0,3.97-2.25,7.1-5.73,8.23l8.57,12.1h-8.57l-7.84-11.32h-2.11Zm3.43-5.05c3.04,0,4.41-1.37,4.41-3.87s-1.37-3.92-4.41-3.92h-3.43v7.79h3.43Z" fill="#fff"/><path d="M225.56,105.28h20.43v5.98h-12.49v4.95h10.04v5.93h-10.04v6.57h12.49v5.98h-20.43v-29.4Z" fill="#fff"/><path d="M256.19,119.64l-10-14.36h9.02l6.08,9.31,6.17-9.31h8.82l-10,14.31,10.58,15.09h-9.02l-6.66-10.09-6.76,10.09h-8.82l10.58-15.04Z" fill="#fff"/><path d="M283.38,105.28h12.54c7.4,0,10.78,4.46,10.78,9.85s-3.38,9.85-10.78,9.85h-4.61v9.7h-7.94v-29.4Zm10.63,14.45c3.38,0,4.8-1.76,4.8-4.61s-1.42-4.6-4.8-4.6h-2.69v9.21h2.69Z" fill="#fff"/><path d="M316.02,123.36v11.32h-7.94v-29.4h13.38c7.15,0,10.24,4.31,10.24,9.06,0,3.97-2.25,7.1-5.73,8.23l8.57,12.1h-8.57l-7.84-11.32h-2.11Zm3.43-5.05c3.04,0,4.41-1.37,4.41-3.87s-1.37-3.92-4.41-3.92h-3.43v7.79h3.43Z" fill="#fff"/><path d="M333.46,119.98c0-9.01,7.3-15.53,16.32-15.53s16.22,6.52,16.22,15.53-7.25,15.53-16.22,15.53-16.32-6.52-16.32-15.53Zm24.11,0c0-5.63-2.89-9.31-7.79-9.31s-7.89,3.67-7.89,9.31,2.94,9.31,7.89,9.31,7.79-3.67,7.79-9.31Z" fill="#fff"/><path d="M368.54,105.28h11.46c12.1,0,17.05,6.61,17.05,14.7s-4.95,14.7-17.05,14.7h-11.46v-29.4Zm10.83,23.27c6.61,0,9.6-2.7,9.6-8.58s-2.99-8.57-9.6-8.57h-2.89v17.15h2.89Z" fill="#fff"/><path d="M399.56,121.11v-15.83h8.04v15.38c0,5.19,2.06,7.99,6.27,7.99s6.32-2.79,6.32-7.99v-15.38h7.79v15.83c0,9.95-6.27,14.41-14.21,14.41s-14.21-4.46-14.21-14.41Z" fill="#fff"/><path d="M430.53,119.98c0-9.5,7.35-15.33,15.83-15.33,4.02,0,7.89,1.08,10.34,2.94v6.76c-2.35-2.01-5.49-3.43-9.02-3.43-4.95,0-8.72,3.18-8.72,9.06s3.77,9.06,8.72,9.06c3.53,0,6.66-1.42,9.02-3.43v6.76c-2.45,1.86-6.32,2.94-10.34,2.94-8.48,0-15.83-5.83-15.83-15.34Z" fill="#fff"/><path d="M466.15,111.26h-9.46v-5.98h26.85v5.98h-9.46v23.42h-7.94v-23.42Z" fill="#fff"/><path d="M482.47,131.44l1.76-5.78c2.21,1.86,5.39,3.92,9.26,3.92,2.4,0,4.26-.93,4.26-2.99,0-1.91-1.27-2.7-5.49-3.67-6.71-1.57-9.02-5.14-9.02-9.5,0-5.34,4.21-8.82,10.78-8.82,3.87,0,7.35,1.37,9.65,2.99l-1.62,5.29c-2.21-1.37-5.29-2.55-8.13-2.55-2.11,0-3.43,.88-3.43,2.35,0,1.37,.88,2.21,4.21,2.99,7.35,1.71,10.34,4.8,10.34,10.09,0,6.91-5.58,9.5-11.56,9.5-5.05,0-8.72-1.91-11.02-3.82Z" fill="#fff"/></g><g><path d="M10.38,45.21l1.98-6.49c2.47,2.09,6.05,4.4,10.39,4.4,2.69,0,4.78-1.04,4.78-3.35,0-2.15-1.43-3.02-6.16-4.12-7.53-1.76-10.12-5.77-10.12-10.67,0-5.99,4.73-9.9,12.1-9.9,4.34,0,8.25,1.54,10.83,3.35l-1.81,5.94c-2.47-1.54-5.94-2.86-9.13-2.86-2.36,0-3.85,.99-3.85,2.64,0,1.54,.99,2.48,4.73,3.35,8.25,1.92,11.6,5.39,11.6,11.33,0,7.75-6.27,10.67-12.98,10.67-5.66,0-9.79-2.15-12.37-4.29Z" fill="#fff"/><path d="M50.75,15.84h7.53l13.86,33h-8.85l-2.8-7.04h-12.21l-2.75,7.04h-8.63L50.75,15.84Zm7.59,20.18l-3.96-10.39-3.96,10.39h7.92Z" fill="#fff"/><path d="M68.24,15.84h9.18l8.41,21.12,8.36-21.12h8.96l-13.86,33h-7.2l-13.86-33Z" fill="#fff"/><path d="M107.13,15.84h22.93v6.71h-14.02v5.55h11.27v6.65h-11.27v7.37h14.02v6.71h-22.93V15.84Z" fill="#fff"/></g></svg>