<?xml version="1.0" encoding="UTF-8"?><svg id="a" xmlns="http://www.w3.org/2000/svg" viewBox="0 0 591.1 178.47"><polygon points="501.38 178.47 6.17 178.47 6.22 7.92 591.1 8.09 501.38 178.47" fill="#8e191b"/><polygon points="493.75 169.43 0 168.88 .05 0 584.25 .39 493.75 169.43" fill="#ee2d35"/><g><path d="M21.81,41.82l1.84-6.02c2.29,1.94,5.61,4.08,9.64,4.08,2.5,0,4.44-.97,4.44-3.11,0-1.99-1.33-2.8-5.71-3.82-6.99-1.63-9.38-5.35-9.38-9.89,0-5.56,4.39-9.18,11.22-9.18,4.03,0,7.65,1.43,10.05,3.11l-1.68,5.51c-2.29-1.43-5.51-2.65-8.47-2.65-2.19,0-3.57,.92-3.57,2.45,0,1.43,.92,2.29,4.39,3.11,7.65,1.79,10.76,5,10.76,10.5,0,7.19-5.81,9.89-12.04,9.89-5.25,0-9.08-1.99-11.47-3.98Z" fill="#fff"/><path d="M58.38,14.59h6.99l12.85,30.6h-8.21l-2.6-6.53h-11.32l-2.55,6.53h-8.01l12.85-30.6Zm7.04,18.72l-3.67-9.64-3.67,9.64h7.34Z" fill="#fff"/><path d="M73.73,14.59h8.52l7.8,19.58,7.75-19.58h8.31l-12.85,30.6h-6.68l-12.85-30.6Z" fill="#fff"/><path d="M108.92,14.59h21.26v6.22h-13v5.15h10.45v6.17h-10.45v6.83h13v6.22h-21.26V14.59Z" fill="#fff"/></g><g><path d="M145.76,68.5l14.24-14.85c5.76-6.06,10.91-11.51,10.91-18.48,0-6.16-4.54-8.38-8.58-8.38-4.65,0-9.59,1.92-15.05,6.46v-12.93c3.74-3.03,12.32-6.26,18.89-6.26,11.82,0,21.31,7.07,21.31,18.58,0,10.5-6.46,17.57-12.52,22.93l-9.7,8.58h23.53v12.32h-43.02v-7.98Z" fill="#fff"/><path d="M196.87,71.73v-12.42c4.75,4.54,10.81,7.37,16.87,7.37,6.67,0,10.81-3.74,10.81-9.59,0-5.55-3.74-8.48-9.49-8.48-4.44,0-7.37,1.52-9.29,4.85l-6.77-2.83V15.88h38.99v12.32h-26.46v11.21c1.62-1.11,4.54-2.32,9.09-2.32,11.92,0,19.8,7.68,19.8,19.59,0,13.74-10.81,21.51-23.84,21.51-8.18,0-15.55-2.73-19.69-6.46Z" fill="#fff"/><path d="M247.97,29.41c0-8.28,5.96-15.05,14.85-15.05s14.85,6.77,14.85,15.05-5.96,15.15-14.85,15.15-14.85-6.77-14.85-15.15Zm20,0c0-5.76-1.92-7.88-5.15-7.88s-5.15,2.12-5.15,7.88,1.92,7.98,5.15,7.98,5.15-2.12,5.15-7.98Zm-10.1,46.66l38.78-62.01,4.34,2.22-38.78,62.01-4.34-2.22Zm23.23-13.53c0-8.28,5.96-15.05,14.85-15.05s14.85,6.77,14.85,15.05-5.96,15.15-14.85,15.15-14.85-6.77-14.85-15.15Zm20,0c0-5.76-1.92-7.88-5.15-7.88s-5.15,2.12-5.15,7.88,1.92,7.98,5.15,7.98,5.15-2.12,5.15-7.98Z" fill="#fff"/><path d="M144.84,106.68c0-6.62,5.36-11.41,11.99-11.41s11.91,4.79,11.91,11.41-5.33,11.41-11.91,11.41-11.99-4.79-11.99-11.41Zm17.71,0c0-4.14-2.12-6.84-5.72-6.84s-5.79,2.7-5.79,6.84,2.16,6.84,5.79,6.84,5.72-2.7,5.72-6.84Z" fill="#fff"/><path d="M170.65,95.88h4.43l9.79,12.42v-12.42h5.15v21.6h-4.43l-9.79-12.42v12.42h-5.15v-21.6Z" fill="#fff"/><path d="M197.43,95.88h5.83v17.21h9.18v4.39h-15.01v-21.6Z" fill="#fff"/><path d="M220.4,95.88h4.93l9.07,21.6h-5.8l-1.84-4.61h-7.99l-1.8,4.61h-5.65l9.07-21.6Zm4.97,13.21l-2.59-6.8-2.59,6.8h5.18Z" fill="#fff"/><path d="M235.27,95.88h9.57c4.9,0,6.77,2.56,6.77,5.65,0,1.66-1.08,3.42-2.34,4.25,2.2,.94,3.49,3.1,3.49,5.36,0,3.49-2.12,6.33-7.56,6.33h-9.93v-21.6Zm8.17,8.42c1.73,0,2.63-.83,2.63-2.34s-.9-2.38-2.63-2.38h-2.34v4.72h2.34Zm.29,9.47c2.27,0,3.38-.97,3.38-2.88s-1.12-2.88-3.38-2.88h-2.63v5.76h2.63Z" fill="#fff"/><path d="M253.37,106.68c0-6.98,5.4-11.27,11.63-11.27,2.95,0,5.8,.79,7.6,2.16v4.97c-1.73-1.48-4.03-2.52-6.62-2.52-3.64,0-6.41,2.34-6.41,6.66s2.77,6.66,6.41,6.66c2.59,0,4.9-1.04,6.62-2.52v4.97c-1.8,1.37-4.64,2.16-7.6,2.16-6.23,0-11.63-4.28-11.63-11.27Z" fill="#fff"/><path d="M273.25,106.68c0-6.62,5.36-11.41,11.99-11.41s11.91,4.79,11.91,11.41-5.33,11.41-11.91,11.41-11.99-4.79-11.99-11.41Zm17.71,0c0-4.14-2.12-6.84-5.72-6.84s-5.8,2.7-5.8,6.84,2.16,6.84,5.8,6.84,5.72-2.7,5.72-6.84Z" fill="#fff"/><path d="M299.06,95.88h4.43l9.79,12.42v-12.42h5.15v21.6h-4.43l-9.79-12.42v12.42h-5.15v-21.6Z" fill="#fff"/><path d="M320.34,106.68c0-6.98,5.4-11.27,11.63-11.27,2.95,0,5.79,.79,7.59,2.16v4.97c-1.73-1.48-4.03-2.52-6.62-2.52-3.64,0-6.41,2.34-6.41,6.66s2.77,6.66,6.41,6.66c2.59,0,4.9-1.04,6.62-2.52v4.97c-1.8,1.37-4.64,2.16-7.59,2.16-6.23,0-11.63-4.28-11.63-11.27Z" fill="#fff"/><path d="M340.21,106.68c0-6.62,5.36-11.41,11.99-11.41s11.92,4.79,11.92,11.41-5.33,11.41-11.92,11.41-11.99-4.79-11.99-11.41Zm17.71,0c0-4.14-2.12-6.84-5.72-6.84s-5.79,2.7-5.79,6.84,2.16,6.84,5.79,6.84,5.72-2.7,5.72-6.84Z" fill="#fff"/><path d="M369.01,115.1l1.3-4.25c1.62,1.37,3.96,2.88,6.8,2.88,1.76,0,3.13-.68,3.13-2.2,0-1.4-.94-1.98-4.03-2.7-4.93-1.15-6.62-3.78-6.62-6.98,0-3.92,3.1-6.48,7.92-6.48,2.84,0,5.4,1.01,7.09,2.2l-1.19,3.89c-1.62-1.01-3.89-1.87-5.97-1.87-1.55,0-2.52,.65-2.52,1.73,0,1.01,.65,1.62,3.09,2.2,5.4,1.26,7.6,3.53,7.6,7.42,0,5.08-4.1,6.98-8.5,6.98-3.71,0-6.41-1.4-8.1-2.81Z" fill="#fff"/><path d="M393.67,95.88h4.93l9.07,21.6h-5.79l-1.84-4.61h-7.99l-1.8,4.61h-5.65l9.07-21.6Zm4.97,13.21l-2.59-6.8-2.59,6.8h5.18Z" fill="#fff"/><path d="M408.53,95.88h14.54v4.39h-8.71v3.89h6.91v4.36h-6.91v8.96h-5.83v-21.6Z" fill="#fff"/><path d="M424.01,95.88h15.01v4.39h-9.18v3.64h7.38v4.36h-7.38v4.82h9.18v4.39h-15.01v-21.6Z" fill="#fff"/><path d="M446.23,100.27h-6.95v-4.39h19.73v4.39h-6.95v17.21h-5.83v-17.21Z" fill="#fff"/><path d="M466.1,108.84l-8.46-12.96h6.41l5.04,8.17,5.04-8.17h6.26l-8.46,12.96v8.64h-5.83v-8.64Z" fill="#fff"/><path d="M144.84,147.68c0-6.98,5.4-11.27,11.63-11.27,2.95,0,5.8,.79,7.6,2.16v4.97c-1.73-1.48-4.03-2.52-6.62-2.52-3.64,0-6.41,2.34-6.41,6.66s2.77,6.66,6.41,6.66c2.59,0,4.9-1.04,6.62-2.52v4.97c-1.8,1.37-4.64,2.16-7.6,2.16-6.23,0-11.63-4.28-11.63-11.27Z" fill="#fff"/><path d="M173.96,136.88h4.93l9.07,21.6h-5.8l-1.84-4.61h-7.99l-1.8,4.61h-5.65l9.07-21.6Zm4.97,13.21l-2.59-6.8-2.59,6.8h5.18Z" fill="#fff"/><path d="M189.69,136.88h9.57c4.9,0,6.77,2.56,6.77,5.65,0,1.66-1.08,3.42-2.34,4.25,2.2,.94,3.49,3.1,3.49,5.36,0,3.49-2.12,6.33-7.56,6.33h-9.93v-21.6Zm8.17,8.42c1.73,0,2.63-.83,2.63-2.34s-.9-2.38-2.63-2.38h-2.34v4.71h2.34Zm.29,9.47c2.27,0,3.38-.97,3.38-2.88s-1.12-2.88-3.38-2.88h-2.63v5.76h2.63Z" fill="#fff"/><path d="M209.71,136.88h5.83v21.6h-5.83v-21.6Z" fill="#fff"/><path d="M219.32,136.88h4.43l9.79,12.42v-12.42h5.15v21.6h-4.43l-9.79-12.42v12.42h-5.15v-21.6Z" fill="#fff"/><path d="M242.5,136.88h15.01v4.39h-9.18v3.64h7.38v4.36h-7.38v4.82h9.18v4.39h-15.01v-21.6Z" fill="#fff"/><path d="M265.58,141.27h-6.95v-4.39h19.73v4.39h-6.95v17.21h-5.83v-17.21Z" fill="#fff"/><path d="M284.01,156.1l1.3-4.25c1.62,1.37,3.96,2.88,6.8,2.88,1.76,0,3.13-.68,3.13-2.2,0-1.4-.94-1.98-4.03-2.7-4.93-1.15-6.62-3.78-6.62-6.98,0-3.92,3.1-6.48,7.92-6.48,2.84,0,5.4,1.01,7.09,2.2l-1.19,3.89c-1.62-1.01-3.89-1.87-5.98-1.87-1.55,0-2.52,.65-2.52,1.73,0,1.01,.65,1.62,3.09,2.2,5.4,1.26,7.6,3.53,7.6,7.42,0,5.08-4.1,6.98-8.5,6.98-3.71,0-6.41-1.4-8.1-2.81Z" fill="#fff"/><path d="M308.06,149.84l-8.46-12.96h6.41l5.04,8.17,5.04-8.17h6.26l-8.46,12.96v8.64h-5.83v-8.64Z" fill="#fff"/><path d="M321.27,156.1l1.3-4.25c1.62,1.37,3.96,2.88,6.8,2.88,1.76,0,3.13-.68,3.13-2.2,0-1.4-.94-1.98-4.03-2.7-4.93-1.15-6.62-3.78-6.62-6.98,0-3.92,3.1-6.48,7.92-6.48,2.84,0,5.4,1.01,7.09,2.2l-1.19,3.89c-1.62-1.01-3.89-1.87-5.97-1.87-1.55,0-2.52,.65-2.52,1.73,0,1.01,.65,1.62,3.09,2.2,5.4,1.26,7.6,3.53,7.6,7.42,0,5.08-4.1,6.98-8.5,6.98-3.71,0-6.41-1.4-8.1-2.81Z" fill="#fff"/><path d="M344.63,141.27h-6.95v-4.39h19.73v4.39h-6.95v17.21h-5.83v-17.21Z" fill="#fff"/><path d="M359.21,136.88h15.01v4.39h-9.18v3.64h7.38v4.36h-7.38v4.82h9.18v4.39h-15.01v-21.6Z" fill="#fff"/><path d="M377.35,136.88h6.51l5.87,13.71,5.87-13.71h6.37v21.6h-5.15v-11.77c0-.5,.11-2.16,.14-2.3l-.79,2.3-4.86,11.77h-3.46l-4.86-11.77c-.22-.5-.72-2.05-.79-2.3,0,.14,.14,1.8,.14,2.3v11.77h-5v-21.6Z" fill="#fff"/><path d="M404.32,156.1l1.3-4.25c1.62,1.37,3.96,2.88,6.8,2.88,1.76,0,3.13-.68,3.13-2.2,0-1.4-.94-1.98-4.03-2.7-4.93-1.15-6.62-3.78-6.62-6.98,0-3.92,3.1-6.48,7.92-6.48,2.84,0,5.4,1.01,7.09,2.2l-1.19,3.89c-1.62-1.01-3.89-1.87-5.97-1.87-1.55,0-2.52,.65-2.52,1.73,0,1.01,.65,1.62,3.09,2.2,5.4,1.26,7.6,3.53,7.6,7.42,0,5.08-4.1,6.98-8.5,6.98-3.71,0-6.41-1.4-8.1-2.81Z" fill="#fff"/></g></svg>