<?xml version="1.0" encoding="UTF-8"?><svg id="a" xmlns="http://www.w3.org/2000/svg" viewBox="0 0 591.1 178.47"><polygon points="501.38 178.47 6.17 178.47 6.22 7.92 591.1 8.09 501.38 178.47" fill="#8e191b"/><polygon points="493.75 169.43 0 168.88 .05 0 584.25 .39 493.75 169.43" fill="#ee2d35"/><g><path d="M65.13,109.55l3.89-12.75c4.86,4.1,11.88,8.64,20.41,8.64,5.29,0,9.4-2.05,9.4-6.59,0-4.21-2.81-5.94-12.1-8.1-14.8-3.46-19.87-11.34-19.87-20.95,0-11.77,9.29-19.44,23.76-19.44,8.53,0,16.2,3.02,21.28,6.59l-3.56,11.66c-4.86-3.02-11.66-5.62-17.93-5.62-4.64,0-7.56,1.94-7.56,5.18,0,3.02,1.94,4.86,9.29,6.59,16.2,3.78,22.79,10.58,22.79,22.25,0,15.23-12.31,20.95-25.49,20.95-11.12,0-19.22-4.21-24.3-8.42Z" fill="#fff"/><path d="M139,51.88h14.8l27.22,64.8h-17.39l-5.51-13.82h-23.98l-5.4,13.82h-16.96l27.22-64.8Zm14.9,39.64l-7.78-20.41-7.78,20.41h15.55Z" fill="#fff"/><path d="M167.95,51.88h18.04l16.52,41.47,16.42-41.47h17.6l-27.22,64.8h-14.15l-27.22-64.8Z" fill="#fff"/><path d="M238.9,51.88h45.04v13.18h-27.54v10.91h22.14v13.07h-22.14v14.47h27.54v13.18h-45.04V51.88Z" fill="#fff"/><path d="M312.55,108.15l15.23-15.88c6.16-6.48,11.66-12.31,11.66-19.76,0-6.59-4.86-8.96-9.18-8.96-4.97,0-10.26,2.05-16.09,6.91v-13.82c4-3.24,13.18-6.7,20.2-6.7,12.64,0,22.79,7.56,22.79,19.87,0,11.23-6.91,18.79-13.39,24.52l-10.37,9.18h25.16v13.18h-46.01v-8.53Z" fill="#fff"/><path d="M361.8,111.6v-13.28c5.08,4.86,11.56,7.88,18.04,7.88,7.13,0,11.56-4,11.56-10.26,0-5.94-4-9.07-10.15-9.07-4.75,0-7.88,1.62-9.94,5.18l-7.24-3.02V51.88h41.69v13.18h-28.3v11.99c1.73-1.19,4.86-2.48,9.72-2.48,12.74,0,21.17,8.21,21.17,20.95,0,14.69-11.56,23-25.49,23-8.75,0-16.63-2.92-21.06-6.91Z" fill="#fff"/><path d="M411.05,66.35c0-8.86,6.37-16.09,15.88-16.09s15.88,7.24,15.88,16.09-6.37,16.2-15.88,16.2-15.88-7.24-15.88-16.2Zm21.38,0c0-6.16-2.05-8.42-5.51-8.42s-5.51,2.27-5.51,8.42,2.05,8.53,5.51,8.53,5.51-2.27,5.51-8.53Zm-10.8,49.9l41.47-66.31,4.64,2.38-41.47,66.31-4.64-2.38Zm24.84-14.47c0-8.86,6.37-16.09,15.88-16.09s15.88,7.24,15.88,16.09-6.37,16.2-15.88,16.2-15.88-7.24-15.88-16.2Zm21.38,0c0-6.16-2.05-8.42-5.51-8.42s-5.51,2.27-5.51,8.42,2.05,8.53,5.51,8.53,5.51-2.27,5.51-8.53Z" fill="#fff"/></g></svg>