<?xml version="1.0" encoding="UTF-8"?><svg id="a" xmlns="http://www.w3.org/2000/svg" viewBox="0 0 591.1 178.47"><polygon points="501.38 178.47 6.17 178.47 6.22 7.92 591.1 8.09 501.38 178.47" fill="#8e191b"/><polygon points="493.75 169.43 0 168.88 .05 0 584.25 .39 493.75 169.43" fill="#ee2d35"/><g><path d="M147.97,75.6v-13.28c5.18,4.97,11.56,7.88,18.04,7.88,7.13,0,11.99-3.89,11.99-10.48,0-5.94-3.67-9.18-9.5-9.18-3.67,0-6.05,1.84-7.78,3.13l-6.8-7.88,17.71-16.74h-23.44V15.88h45.58v7.78l-17.06,16.09c10.15,1.19,18.14,8.21,18.14,20.3,0,14.15-11.88,22.46-25.81,22.46-8.75,0-16.63-2.92-21.06-6.91Z" fill="#fff"/><path d="M203.37,75.6v-13.28c5.08,4.86,11.56,7.88,18.04,7.88,7.13,0,11.56-4,11.56-10.26,0-5.94-4-9.07-10.15-9.07-4.75,0-7.88,1.62-9.94,5.18l-7.24-3.02V15.88h41.69v13.18h-28.3v11.99c1.73-1.19,4.86-2.48,9.72-2.48,12.74,0,21.17,8.21,21.17,20.95,0,14.69-11.56,23-25.49,23-8.75,0-16.63-2.92-21.06-6.91Z" fill="#fff"/><path d="M258.02,30.35c0-8.86,6.37-16.09,15.88-16.09s15.88,7.24,15.88,16.09-6.37,16.2-15.88,16.2-15.88-7.24-15.88-16.2Zm21.38,0c0-6.16-2.05-8.42-5.51-8.42s-5.51,2.27-5.51,8.42,2.05,8.53,5.51,8.53,5.51-2.27,5.51-8.53Zm-10.8,49.9L310.08,13.93l4.64,2.38-41.47,66.31-4.64-2.38Zm24.84-14.47c0-8.86,6.37-16.09,15.88-16.09s15.88,7.24,15.88,16.09-6.37,16.2-15.88,16.2-15.88-7.24-15.88-16.2Zm21.39,0c0-6.16-2.05-8.42-5.51-8.42s-5.51,2.27-5.51,8.42,2.05,8.53,5.51,8.53,5.51-2.27,5.51-8.53Z" fill="#fff"/><path d="M145.3,126.98c0-9.01,7.3-15.53,16.32-15.53s16.22,6.52,16.22,15.53-7.25,15.53-16.22,15.53-16.32-6.52-16.32-15.53Zm24.11,0c0-5.63-2.89-9.31-7.79-9.31s-7.89,3.67-7.89,9.31,2.94,9.31,7.89,9.31,7.79-3.67,7.79-9.31Z" fill="#fff"/><path d="M182.84,112.28h6.03l13.33,16.9v-16.9h7.01v29.4h-6.03l-13.33-16.9v16.9h-7.01v-29.4Z" fill="#fff"/><path d="M222.67,126.98c0-9.5,7.35-15.33,15.83-15.33,4.02,0,7.89,1.08,10.34,2.94v6.76c-2.35-2.01-5.49-3.43-9.02-3.43-4.95,0-8.72,3.18-8.72,9.06s3.77,9.06,8.72,9.06c3.53,0,6.66-1.42,9.02-3.43v6.76c-2.45,1.86-6.32,2.94-10.34,2.94-8.48,0-15.83-5.83-15.83-15.34Z" fill="#fff"/><path d="M254.03,112.28h7.94v10.53h11.61v-10.53h7.94v29.4h-7.94v-12.15h-11.61v12.15h-7.94v-29.4Z" fill="#fff"/><path d="M287.89,112.28h20.43v5.98h-12.49v4.95h10.04v5.93h-10.04v6.57h12.49v5.98h-20.43v-29.4Z" fill="#fff"/><path d="M313.81,112.28h8.87l7.99,18.67,7.99-18.67h8.67v29.4h-7.01v-16.02c0-.69,.15-2.94,.2-3.14l-1.08,3.14-6.61,16.02h-4.7l-6.61-16.02c-.29-.69-.98-2.79-1.08-3.14,0,.2,.2,2.45,.2,3.14v16.02h-6.81v-29.4Z" fill="#fff"/><path d="M353.75,112.28h7.94v29.4h-7.94v-29.4Z" fill="#fff"/><path d="M366.63,126.98c0-9.5,7.35-15.33,15.83-15.33,4.02,0,7.89,1.08,10.34,2.94v6.76c-2.35-2.01-5.49-3.43-9.02-3.43-4.95,0-8.72,3.18-8.72,9.06s3.77,9.06,8.72,9.06c3.53,0,6.66-1.42,9.02-3.43v6.76c-2.45,1.86-6.32,2.94-10.34,2.94-8.48,0-15.83-5.83-15.83-15.34Z" fill="#fff"/><path d="M407.5,112.28h6.71l12.35,29.4h-7.89l-2.5-6.27h-10.88l-2.45,6.27h-7.69l12.35-29.4Zm6.76,17.98l-3.53-9.26-3.53,9.26h7.06Z" fill="#fff"/><path d="M430.14,112.28h7.94v23.42h12.49v5.98h-20.43v-29.4Z" fill="#fff"/><path d="M452.92,138.44l1.76-5.78c2.21,1.86,5.39,3.92,9.26,3.92,2.4,0,4.26-.93,4.26-2.99,0-1.91-1.27-2.7-5.49-3.67-6.71-1.57-9.01-5.14-9.01-9.51,0-5.34,4.21-8.82,10.78-8.82,3.87,0,7.35,1.37,9.65,2.99l-1.62,5.29c-2.21-1.37-5.29-2.55-8.13-2.55-2.11,0-3.43,.88-3.43,2.35,0,1.37,.88,2.21,4.21,2.99,7.35,1.71,10.34,4.8,10.34,10.09,0,6.91-5.58,9.5-11.56,9.5-5.05,0-8.72-1.91-11.02-3.82Z" fill="#fff"/></g><g><path d="M10.38,45.21l1.98-6.49c2.47,2.09,6.05,4.4,10.39,4.4,2.69,0,4.78-1.04,4.78-3.35,0-2.15-1.43-3.02-6.16-4.12-7.53-1.76-10.12-5.77-10.12-10.67,0-5.99,4.73-9.9,12.1-9.9,4.34,0,8.25,1.54,10.83,3.35l-1.81,5.94c-2.47-1.54-5.94-2.86-9.13-2.86-2.36,0-3.85,.99-3.85,2.64,0,1.54,.99,2.48,4.73,3.35,8.25,1.92,11.6,5.39,11.6,11.33,0,7.75-6.27,10.67-12.98,10.67-5.66,0-9.79-2.15-12.37-4.29Z" fill="#fff"/><path d="M50.75,15.84h7.53l13.86,33h-8.85l-2.8-7.04h-12.21l-2.75,7.04h-8.63L50.75,15.84Zm7.59,20.18l-3.96-10.39-3.96,10.39h7.92Z" fill="#fff"/><path d="M68.24,15.84h9.18l8.41,21.12,8.36-21.12h8.96l-13.86,33h-7.2l-13.86-33Z" fill="#fff"/><path d="M107.13,15.84h22.93v6.71h-14.02v5.55h11.27v6.65h-11.27v7.37h14.02v6.71h-22.93V15.84Z" fill="#fff"/></g></svg>