<?xml version="1.0" encoding="UTF-8"?><svg id="a" xmlns="http://www.w3.org/2000/svg" viewBox="0 0 591.1 178.47"><polygon points="501.38 178.47 6.17 178.47 6.22 7.92 591.1 8.09 501.38 178.47" fill="#8e191b"/><polygon points="493.75 169.43 0 168.88 .05 0 584.25 .39 493.75 169.43" fill="#ee2d35"/><g><path d="M207.65,51.65c.1,1.58,.19,3.11,.29,4.63,.06,.04,.12,.07,.18,.11,2.21-4.01,5.83-5.48,10.1-5.56,4.35-.08,7.9,1.44,9.98,5.63,.16-.17,.29-.29,.4-.44,2.23-3.16,5.32-4.81,9.12-5.27,3.42-.41,6.57,.22,9.3,2.4,2.44,1.95,3.64,4.59,3.69,7.67,.08,5.01-.02,10.03,.05,15.04,.04,2.68,.29,5.36,.44,8.03,.02,.3,0,.61,0,.98h-12.02c-.02-.34-.06-.69-.06-1.04,0-6.23,.01-12.46-.02-18.7,0-1.1-.09-2.22-.29-3.3-.47-2.58-1.98-3.86-4.4-3.86-2.57,0-4.26,1.34-4.77,3.84-.15,.73-.2,1.48-.2,2.22-.01,6.59,0,13.18,0,19.78v1.06h-11.7c0-.29,0-.61,0-.92,0-6.73,.01-13.46-.03-20.19,0-1-.22-2.04-.54-3-.53-1.59-1.65-2.6-3.39-2.75-2.04-.17-3.81,.29-4.89,2.22-.72,1.3-.84,2.74-.84,4.18,0,6.45,0,12.91,0,19.36,0,.35,0,.7,0,1.1-.29,.03-.48,.07-.66,.07-3.41,0-6.81-.01-10.22,.02-.63,0-.81-.2-.8-.81,.01-10.58,.01-21.16,0-31.74,0-.5,.05-.84,.7-.83,3.38,.03,6.76,.01,10.14,.02,.11,0,.22,.03,.45,.06Z" fill="#fff"/><path d="M98.28,37.02h11.67v18.06c.32-.3,.48-.43,.61-.58,2.87-3.2,6.56-4.19,10.67-3.79,1.38,.13,2.8,.49,4.06,1.06,3.95,1.76,5.94,4.98,6.04,9.24,.12,5.01,0,10.03,.04,15.04,.03,2.93,.2,5.86,.3,8.84h-12.04c0-.33,0-.65,0-.97,0-6.43,.02-12.85-.02-19.28,0-1.2-.15-2.44-.47-3.6-.55-2.02-1.85-2.97-3.84-3.06-2.37-.11-4.03,.75-4.73,2.72-.41,1.15-.62,2.42-.63,3.64-.06,6.48-.03,12.96-.02,19.44,0,.35,0,.7,0,1.11h-11.66V37.02Z" fill="#fff"/><path d="M380.23,37.02h11.63v17.8c.08,.03,.15,.07,.23,.1,.2-.2,.4-.39,.59-.59,4.58-4.77,13.14-5,17.65-.48,1.93,1.94,2.91,4.31,2.94,7.02,.06,5.15-.03,10.3,.05,15.45,.04,2.74,.28,5.47,.43,8.2,0,.11-.01,.22-.02,.37h-12.16c0-.33,0-.65,0-.97,0-6.54,.02-13.07-.02-19.61,0-1.09-.15-2.22-.43-3.27-.55-2-1.86-2.97-3.84-3.07-2.35-.12-4.06,.75-4.74,2.7-.41,1.18-.62,2.48-.63,3.72-.06,6.45-.02,12.91-.02,19.36,0,.35,0,.71,0,1.12h-11.66V37.02Z" fill="#fff"/><path d="M311.42,84.9h-12.3V37.04h31.58c-.07,.31-.12,.58-.2,.83-.73,2.32-1.48,4.63-2.18,6.96-.2,.66-.48,.9-1.2,.89-4.9-.04-9.8,0-14.7-.03-.72,0-1.02,.14-1.01,.95,.05,3.24,.04,6.48,0,9.72,0,.73,.21,.94,.94,.93,3.66-.04,7.31-.02,10.97-.02h.99c-.11,.42-.19,.77-.29,1.11-.72,2.29-1.46,4.58-2.15,6.88-.17,.58-.45,.76-1.05,.76-2.8-.03-5.59,.02-8.39-.03-.83-.01-1.02,.27-1.01,1.05,.03,5.57,.02,11.13,.02,16.7v1.18Z" fill="#fff"/><path d="M68.83,45.84c-.51-.02-.87-.05-1.22-.05-3.88,0-7.76-.02-11.63,.02-.81,0-1.03-.24-1.01-1.03,.05-2.27,.02-4.54,.02-6.81,0-.3,0-.59,0-.94h40.32c0,.53,0,1.05,0,1.57,0,2.1-.03,4.21,.02,6.31,.01,.69-.19,.9-.88,.9-4.02-.03-8.03-.01-12.05-.01-1.18,0-1.18,0-1.18,1.18,0,12.24,0,24.48,0,36.73,0,.38,0,.76,0,1.19h-12.36V45.84Z" fill="#fff"/><path d="M272.42,85.91c-3.29-.09-5.89-.37-8.39-1.29-4.59-1.68-7.71-4.83-9.18-9.48-1.37-4.32-1.44-8.71-.23-13.09,1.44-5.19,4.76-8.67,9.89-10.33,4.88-1.57,9.81-1.57,14.69,.02,5.16,1.68,8.46,5.24,9.87,10.45,1.12,4.17,1.08,8.39-.16,12.54-1.84,6.1-6.14,9.48-12.26,10.67-1.6,.31-3.24,.38-4.21,.49Zm5.61-17.73c-.06,0-.12-.02-.19-.03-.04-1-.04-2-.14-2.99-.17-1.71-.46-3.39-1.29-4.94-1.17-2.21-3.5-3.07-5.94-2.59-2.27,.45-3.34,2.13-3.95,4.16-.93,3.11-.78,6.3-.59,9.48,.1,1.71,.41,3.4,1.22,4.96,.71,1.37,1.76,2.32,3.31,2.65,3.18,.67,5.68-.78,6.53-4.08,.55-2.15,.7-4.4,1.03-6.61Z" fill="#fff"/><path d="M438.84,74.1h11c-.37,3.57-2.07,6.31-4.83,8.43-2.65,2.04-5.71,2.97-9,3.24-3.03,.24-6.02,.07-8.98-.64-5.1-1.23-8.35-4.39-9.65-9.46-1.14-4.47-1.44-9.01-.35-13.55,1.45-6.03,6.15-10.24,12.32-11.18,3.58-.54,7.12-.46,10.6,.54,4.82,1.38,7.7,4.67,9.07,9.4,.84,2.9,1.05,5.87,1.09,8.87,0,.7-.33,.73-.87,.73-6.84-.01-13.69,0-20.53,0-1.13,0-1.21,0-1.1,1.12,.13,1.31,.26,2.65,.64,3.91,.75,2.53,2.6,3.78,5.07,3.67,2.82-.13,4.69-1.59,5.31-4.16,.07-.29,.14-.59,.22-.91Zm-11.01-10.08c.15,.05,.25,.12,.36,.12,3.4,0,6.8,.01,10.2,.02,.5,0,.6-.28,.56-.7-.16-1.67-.54-3.26-1.51-4.67-1.98-2.9-6.48-2.83-8.33,.17-.96,1.55-1.18,3.29-1.27,5.07Z" fill="#fff"/><path d="M167.78,74.09c-.07,1.62-.52,3.03-1.25,4.35-1.91,3.47-4.91,5.61-8.66,6.63-4.76,1.29-9.54,1.12-14.24-.35-3.84-1.2-6.52-3.77-7.8-7.58-1.68-5-2.05-10.16-.72-15.29,1.63-6.25,5.93-9.73,12.18-10.88,3.31-.61,6.62-.47,9.88,.32,4.7,1.13,7.87,3.97,9.48,8.55,1.19,3.41,1.47,6.95,1.44,10.63h-22.36c-.43,2.54,.39,6.23,2.08,7.63,2.85,2.34,7.66,.85,8.7-2.75,.11-.39,.19-.8,.29-1.24h10.97Zm-10.92-9.99c.09-1.94-.4-3.64-1.39-5.24-2.02-3.25-6.43-2.43-7.95-.51-1.32,1.67-1.59,3.64-1.71,5.75h11.05Z" fill="#fff"/><path d="M376.48,61.57c-.29,.02-.54,.05-.78,.05-3.13,0-6.26-.02-9.39,.02-.72,0-.97-.21-.99-.93-.03-1.25-.46-2.37-1.71-2.9-1.43-.6-2.92-.82-4.29,.09-1.72,1.14-1.62,3.7,.27,4.53,1.73,.76,3.6,1.21,5.41,1.8,2.33,.76,4.73,1.37,6.99,2.33,3.17,1.35,4.83,3.9,5.09,7.36,.5,6.6-3.49,9.68-8,11.01-3.62,1.06-7.31,1.07-11.02,.73-2.08-.19-4.1-.6-5.99-1.52-3.12-1.51-4.72-4.07-5.16-7.42-.11-.79-.14-1.59-.21-2.45h10.92c.36,1.11,.52,2.21,1.06,3.08,1.25,2.02,4.73,2.3,6.45,.65,1.26-1.2,1.25-3.31-.21-4.38-1.07-.78-2.34-1.36-3.6-1.81-2.39-.86-4.85-1.51-7.25-2.35-1.09-.38-2.12-.95-3.12-1.54-5.44-3.22-4.82-10.77-.85-13.93,2.07-1.65,4.46-2.52,7.03-2.97,4.2-.72,8.38-.66,12.46,.73,4.65,1.59,6.82,5.21,6.9,9.8Z" fill="#fff"/><path d="M171.12,51.63h11.47c.1,1.99,.2,3.96,.3,6.15,.2-.3,.31-.41,.35-.54,1.42-3.97,4.46-5.66,8.46-5.95,1.8-.13,1.8-.08,1.8,1.74,0,2.41-.03,4.82,.02,7.23,.01,.74-.16,.99-.97,.98-1.32-.02-2.67,.03-3.96,.27-3.35,.62-5.17,2.65-5.52,6.03-.12,1.18-.17,2.37-.18,3.56-.02,4.57,0,9.14,0,13.77h-11.77V51.63Z" fill="#fff"/><path d="M453.36,84.94c-.06-.18-.11-.25-.11-.33-.03-10.96-.06-21.93-.09-32.96h11.48c.09,1.81,.18,3.58,.28,5.36,.06,.04,.12,.08,.18,.13,1.66-5.05,5.5-6.51,10.34-6.52v10.03c-.87,0-1.72-.01-2.57,0-5.94,.12-7.71,3.75-7.85,8.01-.16,5.06-.06,10.14-.07,15.2q0,1.08-1.09,1.08c-3.49,0-6.98,0-10.5,0Z" fill="#fff"/><path d="M331.87,68.28c0-5.23,.02-10.47-.02-15.7,0-.81,.23-1.03,1.03-1.02,3.24,.04,6.48,.04,9.72,0,.69,0,.97,.14,.97,.91-.02,10.52-.02,21.04,0,31.56,0,.74-.23,.93-.95,.92-3.29-.04-6.59-.04-9.88,0-.71,0-.88-.23-.88-.9,.02-5.26,.01-10.52,.01-15.78Z" fill="#fff"/><path d="M261.6,121.06c-.16-3.67-.39-7.32-.47-10.96-.08-3.62-.02-7.25-.02-10.93h4.18v27.22c-1.45,0-2.91,.02-4.36-.02-.2,0-.44-.3-.59-.51-5.2-7.1-10.73-13.96-15.47-21.39-.08-.13-.19-.25-.25-.33,.13,7.37,.26,14.76,.4,22.21h-4.34v-27.23c1.62,0,3.27-.02,4.92,.03,.22,0,.46,.36,.63,.59,5.07,7.03,10.13,14.06,15.19,21.09,.06,.08,.13,.16,.19,.23Z" fill="#fff"/><path d="M89.78,101.04c-.63,.92-1.25,1.82-1.87,2.72-1.24-.48-2.42-1.02-3.65-1.39-2.61-.78-5.28-1.04-7.93-.24-.8,.24-1.61,.66-2.23,1.21-1.64,1.43-1.49,3.86,.41,4.91,1.38,.76,2.96,1.2,4.48,1.66,2.01,.61,4.06,1.08,6.07,1.67,.71,.21,1.38,.56,2.03,.93,3.91,2.21,4.79,6.94,1.96,10.44-1.79,2.21-4.23,3.27-6.94,3.71-4.99,.82-9.81,.16-14.43-1.89-.15-.07-.29-.15-.49-.27,.59-1.01,1.16-1.98,1.76-3.01,.68,.29,1.33,.58,1.99,.83,3.4,1.28,6.9,1.89,10.49,1.06,1.02-.23,2.04-.74,2.89-1.37,2.16-1.59,2.12-4.55-.19-5.89-1.5-.87-3.25-1.33-4.93-1.84-1.74-.53-3.55-.86-5.29-1.37-.78-.23-1.54-.63-2.23-1.07-4.5-2.85-4.57-8.27-.17-11.29,1.78-1.22,3.78-1.84,5.9-2.02,3.9-.34,7.67,.2,11.25,1.85,.28,.13,.54,.28,.81,.43,.09,.05,.17,.13,.32,.25Z" fill="#fff"/><path d="M216.92,122.98v3.36h-20.61v-27.15h20.07c-.19,1.06-.37,2.11-.57,3.22h-15.12v8.1h12.82v3.24h-12.76v9.23h16.17Z" fill="#fff"/><path d="M466.49,124.4c-.9,.42-1.7,.87-2.55,1.17-5.38,1.92-10.71,1.89-15.88-.66-5.29-2.6-7.44-7.68-7.06-13.03,.5-6.98,5.73-11.61,12.23-12.93,3.89-.79,7.66-.4,11.25,1.32,.39,.19,.77,.42,1.22,.66-.76,.91-1.47,1.75-2.11,2.52-1.5-.49-2.9-1.16-4.37-1.39-4.32-.7-8.25,.11-11.16,3.69-2.17,2.66-2.5,5.83-2.18,9.12,.41,4.12,3.29,7.43,7.28,8.39,3.61,.87,7.09,.56,10.42-1.13,.59-.3,.91-.24,1.29,.29,.46,.65,1,1.24,1.61,1.97Z" fill="#fff"/><path d="M139.01,100.92c-.8,.95-1.49,1.78-2.13,2.54-1.52-.5-2.94-1.18-4.44-1.41-4.32-.67-8.22,.18-11.15,3.76-1.3,1.59-1.92,3.48-2.13,5.5-.37,3.59,.18,6.89,2.89,9.57,1.6,1.58,3.53,2.32,5.68,2.66,3.22,.51,6.29,.06,9.19-1.43,.52-.27,.82-.23,1.17,.25,.48,.67,1.04,1.29,1.61,1.97-1.67,1.11-3.49,1.72-5.4,2.1-4.38,.88-8.66,.58-12.72-1.38-5.6-2.7-7.97-8.03-7.21-13.88,.83-6.37,5.41-10.86,12.1-12.21,3.63-.73,7.16-.45,10.58,1,.63,.27,1.23,.61,1.94,.97Z" fill="#fff"/><path d="M372.39,126.37h-4.33v-27.19h19.84c-.15,.83-.35,1.64-.44,2.46-.06,.6-.34,.69-.87,.69-3.52-.02-7.03,0-10.55,0-1.19,0-2.37,0-3.62,0v8.09h12.57v3.16h-12.61v12.79Z" fill="#fff"/><path d="M313.12,99.18c-.13,.95-.27,1.85-.37,2.76-.06,.54-.44,.47-.79,.47-2.83,0-5.65,0-8.48,0h-.98v23.94h-4.21v-23.9h-10.07v-3.27h24.9Z" fill="#fff"/><path d="M415.39,126.37h-4.24v-27.22h4.24v27.22Z" fill="#fff"/><path d="M163.86,99.15h4.24v27.19h-4.24v-27.19Z" fill="#fff"/><path d="M339.8,126.36h-4.21v-27.2h4.21v27.2Z" fill="#fff"/><path d="M332.05,45.53c.87-2.76,1.71-5.44,2.58-8.11,.06-.19,.37-.44,.57-.44,3.62-.02,7.24,0,10.87,0,.05,0,.1,.04,.23,.1-.55,1.72-1.1,3.44-1.64,5.17-.3,.95-.56,1.91-.91,2.83-.09,.24-.43,.55-.66,.55-3.54,.03-7.08,.02-10.62,.01-.1,0-.2-.06-.41-.12Z" fill="#fff"/></g></svg>