<?xml version="1.0" encoding="UTF-8"?><svg id="a" xmlns="http://www.w3.org/2000/svg" viewBox="0 0 591.1 178.47"><polygon points="501.38 178.47 6.17 178.47 6.22 7.92 591.1 8.09 501.38 178.47" fill="#8e191b"/><polygon points="493.75 169.43 0 168.88 .05 0 584.25 .39 493.75 169.43" fill="#ee2d35"/><g><path d="M151.08,15.88h46.86v14.15h-28.07v12.53h22.27v14.04h-22.27v28.88h-18.79V15.88Z" fill="#fff"/><path d="M225.43,58.68v26.8h-18.79V15.88h31.67c16.94,0,24.24,10.21,24.24,21.46,0,9.4-5.34,16.82-13.57,19.49l20.3,28.65h-20.3l-18.56-26.8h-4.99Zm8.12-11.95c7.19,0,10.44-3.25,10.44-9.16s-3.25-9.28-10.44-9.28h-8.12v18.44h8.12Z" fill="#fff"/><path d="M275.89,15.88h48.37v14.15h-29.58v11.72h23.78v14.04h-23.78v15.54h29.58v14.15h-48.37V15.88Z" fill="#fff"/><path d="M337.26,15.88h48.37v14.15h-29.58v11.72h23.78v14.04h-23.78v15.54h29.58v14.15h-48.37V15.88Z" fill="#fff"/><path d="M147.44,99.48h15.96c8.16,0,11.28,4.26,11.28,9.42,0,2.76-1.8,5.7-3.9,7.08,3.66,1.56,5.82,5.16,5.82,8.94,0,5.82-3.54,10.56-12.6,10.56h-16.56v-36Zm13.62,14.04c2.88,0,4.38-1.38,4.38-3.9s-1.5-3.96-4.38-3.96h-3.9v7.86h3.9Zm.48,15.78c3.78,0,5.64-1.62,5.64-4.8s-1.86-4.8-5.64-4.8h-4.38v9.6h4.38Z" fill="#fff"/><path d="M178.22,118.86v-19.38h9.84v18.84c0,6.36,2.52,9.78,7.68,9.78s7.74-3.42,7.74-9.78v-18.84h9.54v19.38c0,12.18-7.68,17.64-17.4,17.64s-17.4-5.46-17.4-17.64Z" fill="#fff"/><path d="M216.8,99.48h9.72v28.68h15.3v7.32h-25.02v-36Z" fill="#fff"/><path d="M265.7,135.48l-13.68-16.26v16.26h-9.72v-36h9.72v15.9l12.54-15.9h10.44l-13.98,17.16,16.38,18.84h-11.7Z" fill="#fff"/><path d="M280.4,131.52l2.16-7.08c2.7,2.28,6.6,4.8,11.34,4.8,2.94,0,5.22-1.14,5.22-3.66,0-2.34-1.56-3.3-6.72-4.5-8.22-1.92-11.04-6.3-11.04-11.64,0-6.54,5.16-10.8,13.2-10.8,4.74,0,9,1.68,11.82,3.66l-1.98,6.48c-2.7-1.68-6.48-3.12-9.96-3.12-2.58,0-4.2,1.08-4.2,2.88,0,1.68,1.08,2.7,5.16,3.66,9,2.1,12.66,5.88,12.66,12.36,0,8.46-6.84,11.64-14.16,11.64-6.18,0-10.68-2.34-13.5-4.68Z" fill="#fff"/><path d="M309.74,99.48h9.72v12.9h14.22v-12.9h9.72v36h-9.72v-14.88h-14.22v14.88h-9.72v-36Z" fill="#fff"/><path d="M347.12,99.48h9.72v36h-9.72v-36Z" fill="#fff"/><path d="M360.56,99.48h15.36c9.06,0,13.2,5.46,13.2,12.06s-4.14,12.06-13.2,12.06h-5.64v11.88h-9.72v-36Zm13.02,17.7c4.14,0,5.88-2.16,5.88-5.64s-1.74-5.64-5.88-5.64h-3.3v11.28h3.3Z" fill="#fff"/><path d="M389.71,99.48h15.36c9.06,0,13.2,5.46,13.2,12.06s-4.14,12.06-13.2,12.06h-5.64v11.88h-9.72v-36Zm13.02,17.7c4.14,0,5.88-2.16,5.88-5.64s-1.74-5.64-5.88-5.64h-3.3v11.28h3.3Z" fill="#fff"/><path d="M418.87,99.48h9.72v36h-9.72v-36Z" fill="#fff"/><path d="M432.31,99.48h7.38l16.32,20.7v-20.7h8.58v36h-7.38l-16.32-20.7v20.7h-8.58v-36Z" fill="#fff"/><path d="M466.63,117.48c0-11.64,9.36-18.78,19.98-18.78,4.98,0,10.08,1.32,13.08,3.6v8.28c-3.06-2.4-6.54-4.2-11.64-4.2-6.66,0-11.22,4.08-11.22,11.7s4.32,11.46,10.44,11.46c1.98,0,3.42-.36,4.8-.96v-5.94h-5.34v-6.72h14.46v17.22c-2.1,.9-8.04,3.36-15.42,3.36-10.38,0-19.14-7.38-19.14-19.02Z" fill="#fff"/></g></svg>