<svg xmlns="http://www.w3.org/2000/svg" xmlns:xlink="http://www.w3.org/1999/xlink" viewBox="0 0 397.28 347.5"><defs><clipPath id="a" transform="translate(-1.91 -1.38)"><rect x="72.72" y="114.38" width="258.89" height="128.92" fill="none"/></clipPath></defs><polygon points="295.46 5 101.82 5 5 173.75 101.82 342.5 295.46 342.5 392.28 173.75 295.46 5" fill="#fff" stroke="#4c4e50" stroke-linecap="round" stroke-linejoin="round" stroke-width="10"/><g clip-path="url(#a)"><path d="M323.39,147.79h-8.22a3.56,3.56,0,0,0-2.47,1,3.49,3.49,0,0,0,2.34,6h8.35a1.18,1.18,0,0,1,1.23,1.22v34.92a1.18,1.18,0,0,1-1.23,1.22h-8.2a3.59,3.59,0,0,0-2.49,1,3.49,3.49,0,0,0,2.46,6h8.23a8.22,8.22,0,0,0,8.22-8.21V156a8.23,8.23,0,0,0-8.22-8.22" transform="translate(-1.91 -1.38)" fill="#006bb6"/><path d="M89.16,192.15H80.93a1.18,1.18,0,0,1-1.22-1.22V156a1.18,1.18,0,0,1,1.22-1.23h8.21a3.54,3.54,0,0,0,2.48-1,3.43,3.43,0,0,0,1.06-2.45,3.47,3.47,0,0,0-3.4-3.54H80.93A8.22,8.22,0,0,0,72.72,156v34.92a8.22,8.22,0,0,0,8.21,8.21h8.26a3.48,3.48,0,0,0,3.49-3.44,3.44,3.44,0,0,0-1-2.49,3.57,3.57,0,0,0-2.54-1.06" transform="translate(-1.91 -1.38)" fill="#006bb6"/><path d="M254.12,236.3c-12.62,0-23.24-3.91-31.77-7.05-4.63-1.7-8.61-3-11.85-4-4-1.17-6.43-1.65-8.33-1.65s-4.31.48-8.34,1.65c-3.24.94-7.23,2.27-11.85,4-8.54,3.14-19.15,7.05-31.78,7.05a61.56,61.56,0,0,1-38.77-13.75C99.73,213,93,199.63,93,185.88V144.82a23.5,23.5,0,0,1,23.48-23.46H287.83a23.5,23.5,0,0,1,23.47,23.46v41.06c0,13.75-6.71,27.12-18.41,36.67a61.52,61.52,0,0,1-38.77,13.75m33.71-121.93H116.5A30.5,30.5,0,0,0,86,144.82v41.06c0,15.87,7.65,31.21,21,42.08a68.46,68.46,0,0,0,43.19,15.33c13.88,0,25.62-4.32,34.19-7.47,4.48-1.65,8.32-2.94,11.39-3.83a31.81,31.81,0,0,1,6.39-1.37,31.91,31.91,0,0,1,6.38,1.37c3.08.89,6.92,2.18,11.39,3.83,8.57,3.15,20.31,7.47,34.18,7.47A68.44,68.44,0,0,0,297.31,228c13.34-10.88,21-26.21,21-42.08V144.82a30.5,30.5,0,0,0-30.47-30.45" transform="translate(-1.91 -1.38)" fill="#006bb6"/><path d="M116.5,136.33H202a2.54,2.54,0,0,0,.29,0h85.49a8.42,8.42,0,0,1,8.51,8.51v41c0,9.38-4.58,18.29-12.91,25.08a47.05,47.05,0,0,1-29.3,10.38c-9.2,0-17.83-2.9-26.6-6.12l-1.44-.53c-7.93-2.93-15.42-5.69-23.05-5.91a3.25,3.25,0,0,0-.84-.1,3.17,3.17,0,0,0-.88.1c-7.58.2-15.07,3-23,5.89l-1.5.56c-8.77,3.22-17.39,6.11-26.59,6.11A47.15,47.15,0,0,1,120.9,211c-8.32-6.79-12.91-15.7-12.91-25.09v-41a8.41,8.41,0,0,1,8.51-8.5m171.32-7H116.5a15.52,15.52,0,0,0-15.5,15.5v41c0,11.52,5.5,22.35,15.48,30.49a54.23,54.23,0,0,0,33.73,12c10.35,0,19.63-3.1,29-6.55l1.49-.54c7.77-2.87,15.11-5.58,21.46-5.58s13.7,2.71,21.46,5.58l1.49.54c9.38,3.45,18.65,6.55,29,6.55a54.18,54.18,0,0,0,33.72-12c10-8.14,15.48-19,15.48-30.49v-41a15.51,15.51,0,0,0-15.5-15.5" transform="translate(-1.91 -1.38)" fill="#006bb6"/></g></svg>