<svg xmlns="http://www.w3.org/2000/svg" xmlns:xlink="http://www.w3.org/1999/xlink" viewBox="0 0 397.28 347.5"><defs><clipPath id="a" transform="translate(-1.91 -1.38)"><rect x="95.53" y="94.94" width="217.69" height="159.66" fill="none"/></clipPath></defs><polygon points="295.46 5 101.82 5 5 173.75 101.82 342.5 295.46 342.5 392.28 173.75 295.46 5" fill="#fff" stroke="#4c4e50" stroke-linecap="round" stroke-linejoin="round" stroke-width="10"/><g clip-path="url(#a)"><path d="M254.48,246.59H155.36a4,4,0,1,0,0,8h99.12a4,4,0,0,0,0-8" transform="translate(-1.91 -1.38)" fill="#006bb6"/><path d="M276.34,183.56a29,29,0,0,1-28.62-24.89h57.2A28.91,28.91,0,0,1,276.34,183.56Zm25.84-32.89H250.44L276.3,106.8ZM132.5,232.24a29,29,0,0,1-28.67-24.88H161a28.87,28.87,0,0,1-28.53,24.88m-.07-76.77,25.87,43.89H106.57Zm180.74-1.07c-.06-.26-.1-.5-.17-.78a2.89,2.89,0,0,0-.27-.76.73.73,0,0,0-.1-.23L279.78,96.88s-.11-.11-.15-.16a.94.94,0,0,0-.23-.32A4.49,4.49,0,0,0,279,96a1.31,1.31,0,0,0-.48-.37c-.05,0-.07-.12-.12-.14l-.15-.06a5.71,5.71,0,0,0-.53-.22l-.61-.18a2,2,0,0,0-.36,0,4.16,4.16,0,0,0-.5,0,2.56,2.56,0,0,0-.63,0l-.41.09H275L208.9,117.64v-6a4,4,0,1,0-8,0v8.76l-68.22,23.25h-.26a3.34,3.34,0,0,0-.75.06,4.09,4.09,0,0,0-.79.27,3.27,3.27,0,0,0-.47.18c-.08,0-.08.07-.15.1-.24.18-.42.38-.62.56a3,3,0,0,0-.53.59c0,.06-.1.11-.12.16L96.09,201.31c0,.08,0,.16-.07.23a2.17,2.17,0,0,0-.27.76,5.49,5.49,0,0,0-.15.79c0,.1-.07.18-.07.25a36.9,36.9,0,1,0,73.8,0c0-.07-.07-.15-.07-.25a3.62,3.62,0,0,0-.13-.79,3.41,3.41,0,0,0-.26-.76c-.05-.07-.05-.15-.1-.23l-30.19-51.2,62.33-21.28V246.59H180.36a4,4,0,0,0,0,8h49.06a4,4,0,1,0,0-8H208.9V126.11l58.49-19.91L240,152.63a1.46,1.46,0,0,0-.1.23,2.73,2.73,0,0,0-.22.76,2.28,2.28,0,0,0-.19.78c0,.1,0,.18,0,.25a36.9,36.9,0,1,0,73.79,0,1.58,1.58,0,0,1-.05-.25Z" transform="translate(-1.91 -1.38)" fill="#006bb6"/></g></svg>