<?xml version="1.0" encoding="UTF-8"?><svg id="a" xmlns="http://www.w3.org/2000/svg" viewBox="0 0 856.12 162"><polygon points="18.82 162 782.63 161.85 856.12 15.97 17.75 15.75 18.82 162" fill="#4c4d4f"/><polygon points=".11 145.75 766.6 145.19 840.38 .22 0 0 .11 145.75" fill="#136ab4"/><g><path d="M476.52,41.65c0-9.2,7.45-15.85,16.65-15.85s16.55,6.65,16.55,15.85-7.4,15.85-16.55,15.85-16.65-6.65-16.65-15.85Zm24.6,0c0-5.75-2.95-9.5-7.95-9.5s-8.05,3.75-8.05,9.5,3,9.5,8.05,9.5,7.95-3.75,7.95-9.5Z" fill="#fff"/><path d="M514.42,26.65h6.15l13.6,17.25V26.65h7.15v30h-6.15l-13.6-17.25v17.25h-7.15V26.65Z" fill="#fff"/><path d="M478.04,86.06h13.05c7.7,0,11.22,4.64,11.22,10.25s-3.52,10.25-11.22,10.25h-4.79v10.1h-8.26v-30.6Zm11.07,15.04c3.52,0,5-1.84,5-4.79s-1.48-4.79-5-4.79h-2.8v9.59h2.8Z" fill="#fff"/><path d="M505.88,86.06h8.26v30.6h-8.26v-30.6Z" fill="#fff"/><path d="M520.37,86.06h13.05c7.7,0,11.22,4.64,11.22,10.25s-3.52,10.25-11.22,10.25h-4.79v10.1h-8.26v-30.6Zm11.07,15.04c3.52,0,5-1.84,5-4.79s-1.48-4.79-5-4.79h-2.8v9.59h2.8Z" fill="#fff"/><path d="M548.21,86.06h21.26v6.22h-13v5.15h10.45v6.17h-10.45v6.83h13v6.22h-21.26v-30.6Z" fill="#fff"/><path d="M581.77,92.28h-9.84v-6.22h27.95v6.22h-9.84v24.38h-8.26v-24.38Z" fill="#fff"/><path d="M610.84,92.28h-9.84v-6.22h27.95v6.22h-9.84v24.38h-8.26v-24.38Z" fill="#fff"/><path d="M632.36,86.06h21.26v6.22h-13v5.15h10.46v6.17h-10.46v6.83h13v6.22h-21.26v-30.6Z" fill="#fff"/><path d="M674.33,92.28h-9.84v-6.22h27.95v6.22h-9.84v24.38h-8.26v-24.38Z" fill="#fff"/><path d="M695.85,86.06h8.26v30.6h-8.26v-30.6Z" fill="#fff"/><path d="M710.34,86.06h13.05c7.7,0,11.22,4.64,11.22,10.25s-3.52,10.25-11.22,10.25h-4.79v10.1h-8.26v-30.6Zm11.07,15.04c3.52,0,5-1.84,5-4.79s-1.48-4.79-5-4.79h-2.8v9.59h2.8Z" fill="#fff"/><path d="M736.65,113.29l1.84-6.02c2.29,1.94,5.61,4.08,9.64,4.08,2.5,0,4.44-.97,4.44-3.11,0-1.99-1.33-2.8-5.71-3.82-6.99-1.63-9.38-5.35-9.38-9.89,0-5.56,4.39-9.18,11.22-9.18,4.03,0,7.65,1.43,10.05,3.11l-1.68,5.51c-2.29-1.43-5.51-2.65-8.47-2.65-2.19,0-3.57,.92-3.57,2.45,0,1.43,.92,2.29,4.39,3.11,7.65,1.79,10.76,5,10.76,10.5,0,7.19-5.81,9.89-12.04,9.89-5.25,0-9.08-1.99-11.47-3.98Z" fill="#fff"/></g><g><path d="M56.29,54.17l1.84-6.02c2.29,1.94,5.61,4.08,9.64,4.08,2.5,0,4.44-.97,4.44-3.11,0-1.99-1.33-2.8-5.71-3.82-6.99-1.63-9.38-5.35-9.38-9.89,0-5.56,4.39-9.18,11.22-9.18,4.03,0,7.65,1.43,10.05,3.11l-1.68,5.51c-2.29-1.43-5.51-2.65-8.47-2.65-2.19,0-3.57,.92-3.57,2.45,0,1.43,.92,2.29,4.39,3.11,7.65,1.79,10.76,5,10.76,10.5,0,7.19-5.81,9.89-12.03,9.89-5.25,0-9.08-1.99-11.47-3.98Z" fill="#fff"/><path d="M92.86,26.94h6.99l12.85,30.6h-8.21l-2.6-6.53h-11.32l-2.55,6.53h-8.01l12.85-30.6Zm7.04,18.71l-3.67-9.64-3.67,9.64h7.34Z" fill="#fff"/><path d="M108.21,26.94h8.52l7.8,19.58,7.75-19.58h8.31l-12.85,30.6h-6.68l-12.85-30.6Z" fill="#fff"/><path d="M143.4,26.94h21.27v6.22h-13v5.15h10.45v6.17h-10.45v6.83h13v6.22h-21.27V26.94Z" fill="#fff"/><path d="M35.33,104.61v-16.47h8.36v16.01c0,5.41,2.14,8.31,6.53,8.31s6.58-2.91,6.58-8.31v-16.01h8.11v16.47c0,10.35-6.53,14.99-14.79,14.99s-14.79-4.64-14.79-14.99Z" fill="#fff"/><path d="M70.72,88.14h13.05c7.7,0,11.22,4.64,11.22,10.25s-3.52,10.25-11.22,10.25h-4.79v10.1h-8.26v-30.6Zm11.07,15.04c3.52,0,5-1.84,5-4.79s-1.48-4.79-5-4.79h-2.8v9.59h2.8Z" fill="#fff"/><path d="M113.05,94.36h-9.84v-6.22h27.95v6.22h-9.84v24.38h-8.26v-24.38Z" fill="#fff"/><path d="M131.31,103.44c0-9.38,7.6-16.17,16.98-16.17s16.88,6.78,16.88,16.17-7.55,16.17-16.88,16.17-16.98-6.78-16.98-16.17Zm25.09,0c0-5.86-3.01-9.69-8.11-9.69s-8.21,3.82-8.21,9.69,3.06,9.69,8.21,9.69,8.11-3.82,8.11-9.69Z" fill="#fff"/></g><g><path d="M225.35,95.27h-40.08v-11.77l42.17-57.07h21.16v52.75h16.24v16.09h-16.24v20.56h-23.24v-20.56Zm0-16.09v-26.08l-19.07,26.08h19.07Z" fill="#fff"/><path d="M275.71,70.84c0-29.8,16.69-47.38,39.19-47.38s39.19,17.58,39.19,47.38-16.84,47.53-39.19,47.53-39.19-17.58-39.19-47.53Zm54.09,0c0-21.01-5.21-29.35-14.9-29.35s-14.9,8.34-14.9,29.35,5.22,29.5,14.9,29.5,14.9-8.34,14.9-29.5Z" fill="#fff"/><path d="M366.01,46.4c0-12.22,8.79-22.2,21.9-22.2s21.9,9.98,21.9,22.2-8.79,22.35-21.9,22.35-21.9-9.98-21.9-22.35Zm29.5,0c0-8.49-2.83-11.62-7.6-11.62s-7.6,3.13-7.6,11.62,2.83,11.77,7.6,11.77,7.6-3.13,7.6-11.77Zm-14.9,68.84l57.22-91.49,6.41,3.28-57.22,91.49-6.41-3.28Zm34.27-19.97c0-12.22,8.79-22.2,21.9-22.2s21.9,9.98,21.9,22.2-8.79,22.35-21.9,22.35-21.9-9.98-21.9-22.35Zm29.5,0c0-8.49-2.83-11.62-7.6-11.62s-7.6,3.13-7.6,11.62,2.83,11.77,7.6,11.77,7.6-3.13,7.6-11.77Z" fill="#fff"/></g></svg>