<?xml version="1.0" encoding="UTF-8"?><svg id="a" xmlns="http://www.w3.org/2000/svg" viewBox="0 0 591.1 178.47"><polygon points="501.38 178.47 6.17 178.47 6.22 7.92 591.1 8.09 501.38 178.47" fill="#4c4d4f"/><polygon points="493.75 169.43 0 168.88 .05 0 584.25 .39 493.75 169.43" fill="#006bb6"/><g><path d="M21.81,41.82l1.84-6.02c2.29,1.94,5.61,4.08,9.64,4.08,2.5,0,4.44-.97,4.44-3.11,0-1.99-1.33-2.8-5.71-3.82-6.99-1.63-9.38-5.35-9.38-9.89,0-5.56,4.39-9.18,11.22-9.18,4.03,0,7.65,1.43,10.05,3.11l-1.68,5.51c-2.29-1.43-5.51-2.65-8.47-2.65-2.19,0-3.57,.92-3.57,2.45,0,1.43,.92,2.29,4.39,3.11,7.65,1.79,10.76,5,10.76,10.5,0,7.19-5.81,9.89-12.04,9.89-5.25,0-9.08-1.99-11.47-3.98Z" fill="#fff"/><path d="M58.38,14.59h6.99l12.85,30.6h-8.21l-2.6-6.53h-11.32l-2.55,6.53h-8.01l12.85-30.6Zm7.04,18.72l-3.67-9.64-3.67,9.64h7.34Z" fill="#fff"/><path d="M73.73,14.59h8.52l7.8,19.58,7.75-19.58h8.31l-12.85,30.6h-6.68l-12.85-30.6Z" fill="#fff"/><path d="M108.92,14.59h21.26v6.22h-13v5.15h10.45v6.17h-10.45v6.83h13v6.22h-21.26V14.59Z" fill="#fff"/></g><g><path d="M153.74,76.48V27.39h-6.46v-9.59l22.22-3.33v62.01h-15.76Z" fill="#fff"/><path d="M182.73,71.73v-12.42c4.75,4.54,10.81,7.37,16.87,7.37,6.67,0,10.81-3.74,10.81-9.59,0-5.55-3.74-8.48-9.49-8.48-4.44,0-7.37,1.52-9.29,4.85l-6.77-2.83V15.88h38.99v12.32h-26.46v11.21c1.62-1.11,4.54-2.32,9.09-2.32,11.92,0,19.8,7.68,19.8,19.59,0,13.74-10.81,21.51-23.84,21.51-8.18,0-15.55-2.73-19.69-6.46Z" fill="#fff"/><path d="M233.83,29.41c0-8.28,5.96-15.05,14.85-15.05s14.85,6.77,14.85,15.05-5.96,15.15-14.85,15.15-14.85-6.77-14.85-15.15Zm20,0c0-5.76-1.92-7.88-5.15-7.88s-5.15,2.12-5.15,7.88,1.92,7.98,5.15,7.98,5.15-2.12,5.15-7.98Zm-10.1,46.66l38.78-62.01,4.34,2.22-38.78,62.01-4.34-2.22Zm23.23-13.53c0-8.28,5.96-15.05,14.85-15.05s14.85,6.77,14.85,15.05-5.96,15.15-14.85,15.15-14.85-6.77-14.85-15.15Zm20,0c0-5.76-1.92-7.88-5.15-7.88s-5.15,2.12-5.15,7.88,1.92,7.98,5.15,7.98,5.15-2.12,5.15-7.98Z" fill="#fff"/><path d="M144.98,105.48c0-7.36,5.96-12.68,13.32-12.68s13.24,5.32,13.24,12.68-5.92,12.68-13.24,12.68-13.32-5.32-13.32-12.68Zm19.68,0c0-4.6-2.36-7.6-6.36-7.6s-6.44,3-6.44,7.6,2.4,7.6,6.44,7.6,6.36-3,6.36-7.6Z" fill="#fff"/><path d="M173.9,93.48h4.92l10.88,13.8v-13.8h5.72v24h-4.92l-10.88-13.8v13.8h-5.72v-24Z" fill="#fff"/><path d="M202.98,105.48c0-7.36,5.96-12.68,13.32-12.68s13.24,5.32,13.24,12.68-5.92,12.68-13.24,12.68-13.32-5.32-13.32-12.68Zm19.68,0c0-4.6-2.36-7.6-6.36-7.6s-6.44,3-6.44,7.6,2.4,7.6,6.44,7.6,6.36-3,6.36-7.6Z" fill="#fff"/><path d="M231.9,93.48h6.48v8.6h9.48v-8.6h6.48v24h-6.48v-9.92h-9.48v9.92h-6.48v-24Z" fill="#fff"/><path d="M265.58,93.48h5.48l10.08,24h-6.44l-2.04-5.12h-8.88l-2,5.12h-6.28l10.08-24Zm5.52,14.68l-2.88-7.56-2.88,7.56h5.76Z" fill="#fff"/><path d="M280.74,106.4v-12.92h6.56v12.56c0,4.24,1.68,6.52,5.12,6.52s5.16-2.28,5.16-6.52v-12.56h6.36v12.92c0,8.12-5.12,11.76-11.6,11.76s-11.6-3.64-11.6-11.76Z" fill="#fff"/><path d="M305.82,114.84l1.44-4.72c1.8,1.52,4.4,3.2,7.56,3.2,1.96,0,3.48-.76,3.48-2.44,0-1.56-1.04-2.2-4.48-3-5.48-1.28-7.36-4.2-7.36-7.76,0-4.36,3.44-7.2,8.8-7.2,3.16,0,6,1.12,7.88,2.44l-1.32,4.32c-1.8-1.12-4.32-2.08-6.64-2.08-1.72,0-2.8,.72-2.8,1.92,0,1.12,.72,1.8,3.44,2.44,6,1.4,8.44,3.92,8.44,8.24,0,5.64-4.56,7.76-9.44,7.76-4.12,0-7.12-1.56-9-3.12Z" fill="#fff"/><path d="M324.54,102.04c0-5.12,4.16-9.24,9.24-9.24s9.28,4.12,9.28,9.24-4.16,9.24-9.28,9.24-9.24-4.12-9.24-9.24Zm17.32,0c0-4.44-3.64-8.04-8.08-8.04s-8.04,3.6-8.04,8.04,3.6,8.04,8.04,8.04,8.08-3.6,8.08-8.04Zm-2.24,5.24h-4.04l-2.08-4h-.72v4h-3.36v-10.68h5.28c2.76,0,3.84,1.64,3.84,3.36,0,1.36-.72,2.44-1.84,2.92l2.92,4.4Zm-5.88-6c.96,0,1.44-.4,1.44-1.28s-.48-1.32-1.44-1.32h-.96v2.6h.96Z" fill="#fff"/><path d="M146.14,134.48h10.64c5.44,0,7.52,2.84,7.52,6.28,0,1.84-1.2,3.8-2.6,4.72,2.44,1.04,3.88,3.44,3.88,5.96,0,3.88-2.36,7.04-8.4,7.04h-11.04v-24Zm9.08,9.36c1.92,0,2.92-.92,2.92-2.6s-1-2.64-2.92-2.64h-2.6v5.24h2.6Zm.32,10.52c2.52,0,3.76-1.08,3.76-3.2s-1.24-3.2-3.76-3.2h-2.92v6.4h2.92Z" fill="#fff"/><path d="M175.42,134.48h5.48l10.08,24h-6.44l-2.04-5.12h-8.88l-2,5.12h-6.28l10.08-24Zm5.52,14.68l-2.88-7.56-2.88,7.56h5.76Z" fill="#fff"/><path d="M192.18,134.48h6.48v19.12h10.2v4.88h-16.68v-24Z" fill="#fff"/><path d="M217.94,134.48h5.48l10.08,24h-6.44l-2.04-5.12h-8.88l-2,5.12h-6.28l10.08-24Zm5.52,14.68l-2.88-7.56-2.88,7.56h5.76Z" fill="#fff"/><path d="M234.7,134.48h4.92l10.88,13.8v-13.8h5.72v24h-4.92l-10.88-13.8v13.8h-5.72v-24Z" fill="#fff"/><path d="M258.58,146.48c0-7.76,6-12.52,12.92-12.52,3.28,0,6.44,.88,8.44,2.4v5.52c-1.92-1.64-4.48-2.8-7.36-2.8-4.04,0-7.12,2.6-7.12,7.4s3.08,7.4,7.12,7.4c2.88,0,5.44-1.16,7.36-2.8v5.52c-2,1.52-5.16,2.4-8.44,2.4-6.92,0-12.92-4.76-12.92-12.52Z" fill="#fff"/><path d="M282.46,134.48h16.68v4.88h-10.2v4.04h8.2v4.84h-8.2v5.36h10.2v4.88h-16.68v-24Z" fill="#fff"/><path d="M300.26,155.84l1.44-4.72c1.8,1.52,4.4,3.2,7.56,3.2,1.96,0,3.48-.76,3.48-2.44,0-1.56-1.04-2.2-4.48-3-5.48-1.28-7.36-4.2-7.36-7.76,0-4.36,3.44-7.2,8.8-7.2,3.16,0,6,1.12,7.88,2.44l-1.32,4.32c-1.8-1.12-4.32-2.08-6.64-2.08-1.72,0-2.8,.72-2.8,1.92,0,1.12,.72,1.8,3.44,2.44,6,1.4,8.44,3.92,8.44,8.24,0,5.64-4.56,7.76-9.44,7.76-4.12,0-7.12-1.56-9-3.12Z" fill="#fff"/></g></svg>