<?xml version="1.0" encoding="UTF-8"?><svg id="a" xmlns="http://www.w3.org/2000/svg" viewBox="0 0 591.1 178.47"><polygon points="501.38 178.47 6.17 178.47 6.22 7.92 591.1 8.09 501.38 178.47" fill="#4c4d4f"/><polygon points="493.75 169.43 0 168.88 .05 0 584.25 .39 493.75 169.43" fill="#006bb6"/><g><path d="M21.81,41.82l1.84-6.02c2.29,1.94,5.61,4.08,9.64,4.08,2.5,0,4.44-.97,4.44-3.11,0-1.99-1.33-2.8-5.71-3.82-6.99-1.63-9.38-5.35-9.38-9.89,0-5.56,4.39-9.18,11.22-9.18,4.03,0,7.65,1.43,10.05,3.11l-1.68,5.51c-2.29-1.43-5.51-2.65-8.47-2.65-2.19,0-3.57,.92-3.57,2.45,0,1.43,.92,2.29,4.39,3.11,7.65,1.79,10.76,5,10.76,10.5,0,7.19-5.81,9.89-12.04,9.89-5.25,0-9.08-1.99-11.47-3.98Z" fill="#fff"/><path d="M58.38,14.59h6.99l12.85,30.6h-8.21l-2.6-6.53h-11.32l-2.55,6.53h-8.01l12.85-30.6Zm7.04,18.72l-3.67-9.64-3.67,9.64h7.34Z" fill="#fff"/><path d="M73.73,14.59h8.52l7.8,19.58,7.75-19.58h8.31l-12.85,30.6h-6.68l-12.85-30.6Z" fill="#fff"/><path d="M108.92,14.59h21.26v6.22h-13v5.15h10.45v6.17h-10.45v6.83h13v6.22h-21.26V14.59Z" fill="#fff"/></g><g><path d="M145.76,68.5l14.24-14.85c5.76-6.06,10.91-11.51,10.91-18.48,0-6.16-4.54-8.38-8.58-8.38-4.65,0-9.59,1.92-15.05,6.46v-12.93c3.74-3.03,12.32-6.26,18.89-6.26,11.82,0,21.31,7.07,21.31,18.58,0,10.5-6.46,17.57-12.52,22.93l-9.7,8.58h23.53v12.32h-43.02v-7.98Z" fill="#fff"/><path d="M196.87,71.73v-12.42c4.75,4.54,10.81,7.37,16.87,7.37,6.67,0,10.81-3.74,10.81-9.59,0-5.55-3.74-8.48-9.49-8.48-4.44,0-7.37,1.52-9.29,4.85l-6.77-2.83V15.88h38.99v12.32h-26.46v11.21c1.62-1.11,4.54-2.32,9.09-2.32,11.92,0,19.8,7.68,19.8,19.59,0,13.74-10.81,21.51-23.84,21.51-8.18,0-15.55-2.73-19.69-6.46Z" fill="#fff"/><path d="M247.97,29.41c0-8.28,5.96-15.05,14.85-15.05s14.85,6.77,14.85,15.05-5.96,15.15-14.85,15.15-14.85-6.77-14.85-15.15Zm20,0c0-5.76-1.92-7.88-5.15-7.88s-5.15,2.12-5.15,7.88,1.92,7.98,5.15,7.98,5.15-2.12,5.15-7.98Zm-10.1,46.66l38.78-62.01,4.34,2.22-38.78,62.01-4.34-2.22Zm23.23-13.53c0-8.28,5.96-15.05,14.85-15.05s14.85,6.77,14.85,15.05-5.96,15.15-14.85,15.15-14.85-6.77-14.85-15.15Zm20,0c0-5.76-1.92-7.88-5.15-7.88s-5.15,2.12-5.15,7.88,1.92,7.98,5.15,7.98,5.15-2.12,5.15-7.98Z" fill="#fff"/><path d="M144.4,115.1l1.3-4.25c1.62,1.37,3.96,2.88,6.8,2.88,1.76,0,3.13-.68,3.13-2.2,0-1.4-.94-1.98-4.03-2.7-4.93-1.15-6.62-3.78-6.62-6.98,0-3.92,3.1-6.48,7.92-6.48,2.84,0,5.4,1.01,7.09,2.2l-1.19,3.89c-1.62-1.01-3.89-1.87-5.98-1.87-1.55,0-2.52,.65-2.52,1.73,0,1.01,.65,1.62,3.1,2.2,5.4,1.26,7.6,3.53,7.6,7.42,0,5.08-4.1,6.98-8.5,6.98-3.71,0-6.41-1.4-8.1-2.81Z" fill="#fff"/><path d="M167.77,100.27h-6.95v-4.39h19.73v4.39h-6.95v17.21h-5.83v-17.21Z" fill="#fff"/><path d="M182.35,95.88h15.01v4.39h-9.18v3.64h7.38v4.36h-7.38v4.82h9.18v4.39h-15.01v-21.6Z" fill="#fff"/><path d="M206.32,109.16v8.31h-5.83v-21.6h9.83c5.26,0,7.52,3.17,7.52,6.66,0,2.92-1.66,5.22-4.21,6.05l6.3,8.89h-6.3l-5.76-8.31h-1.55Zm2.52-3.71c2.23,0,3.24-1.01,3.24-2.84s-1.01-2.88-3.24-2.88h-2.52v5.72h2.52Z" fill="#fff"/><path d="M221.08,95.88h5.83v21.6h-5.83v-21.6Z" fill="#fff"/><path d="M230.69,95.88h5.83v17.21h9.18v4.39h-15.01v-21.6Z" fill="#fff"/><path d="M247.54,95.88h15.01v4.39h-9.18v3.64h7.38v4.36h-7.38v4.82h9.18v4.39h-15.01v-21.6Z" fill="#fff"/><path d="M269.54,115.1l1.3-4.25c1.62,1.37,3.96,2.88,6.8,2.88,1.76,0,3.13-.68,3.13-2.2,0-1.4-.94-1.98-4.03-2.7-4.93-1.15-6.62-3.78-6.62-6.98,0-3.92,3.1-6.48,7.92-6.48,2.84,0,5.4,1.01,7.09,2.2l-1.19,3.89c-1.62-1.01-3.89-1.87-5.97-1.87-1.55,0-2.52,.65-2.52,1.73,0,1.01,.65,1.62,3.09,2.2,5.4,1.26,7.6,3.53,7.6,7.42,0,5.08-4.1,6.98-8.5,6.98-3.71,0-6.41-1.4-8.1-2.81Z" fill="#fff"/><path d="M293.59,108.84l-8.46-12.96h6.41l5.04,8.17,5.04-8.17h6.26l-8.46,12.96v8.64h-5.83v-8.64Z" fill="#fff"/><path d="M315.18,109.16v8.31h-5.83v-21.6h9.83c5.26,0,7.52,3.17,7.52,6.66,0,2.92-1.66,5.22-4.21,6.05l6.3,8.89h-6.3l-5.76-8.31h-1.55Zm2.52-3.71c2.23,0,3.24-1.01,3.24-2.84s-1.01-2.88-3.24-2.88h-2.52v5.72h2.52Z" fill="#fff"/><path d="M329.94,95.88h5.83v21.6h-5.83v-21.6Z" fill="#fff"/><path d="M339.56,95.88h4.43l9.79,12.42v-12.42h5.15v21.6h-4.43l-9.79-12.42v12.42h-5.15v-21.6Z" fill="#fff"/><path d="M361.7,106.68c0-6.98,5.62-11.27,11.99-11.27,2.99,0,6.05,.79,7.85,2.16v4.97c-1.83-1.44-3.92-2.52-6.98-2.52-4,0-6.73,2.45-6.73,7.02s2.59,6.88,6.26,6.88c1.19,0,2.05-.22,2.88-.58v-3.56h-3.2v-4.03h8.67v10.33c-1.26,.54-4.82,2.02-9.25,2.02-6.23,0-11.48-4.43-11.48-11.41Z" fill="#fff"/><path d="M386.21,95.88h15.01v4.39h-9.18v3.64h7.38v4.36h-7.38v4.82h9.18v4.39h-15.01v-21.6Z" fill="#fff"/><path d="M402.88,115.1l1.3-4.25c1.62,1.37,3.96,2.88,6.8,2.88,1.76,0,3.13-.68,3.13-2.2,0-1.4-.94-1.98-4.03-2.7-4.93-1.15-6.62-3.78-6.62-6.98,0-3.92,3.1-6.48,7.92-6.48,2.84,0,5.4,1.01,7.09,2.2l-1.19,3.89c-1.62-1.01-3.89-1.87-5.97-1.87-1.55,0-2.52,.65-2.52,1.73,0,1.01,.65,1.62,3.09,2.2,5.4,1.26,7.6,3.53,7.6,7.42,0,5.08-4.1,6.98-8.5,6.98-3.71,0-6.41-1.4-8.1-2.81Z" fill="#fff"/><path d="M152.86,136.88h4.93l9.07,21.6h-5.8l-1.84-4.61h-7.99l-1.8,4.61h-5.65l9.07-21.6Zm4.97,13.21l-2.59-6.8-2.59,6.8h5.18Z" fill="#fff"/><path d="M168.6,136.88h4.43l9.79,12.42v-12.42h5.15v21.6h-4.43l-9.79-12.42v12.42h-5.15v-21.6Z" fill="#fff"/><path d="M191.78,136.88h8.42c8.89,0,12.53,4.86,12.53,10.8s-3.64,10.8-12.53,10.8h-8.42v-21.6Zm7.96,17.1c4.86,0,7.05-1.98,7.05-6.3s-2.2-6.3-7.05-6.3h-2.12v12.6h2.12Z" fill="#fff"/><path d="M225.73,141.27h-6.95v-4.39h19.73v4.39h-6.95v17.21h-5.83v-17.21Z" fill="#fff"/><path d="M246.14,150.16v8.32h-5.83v-21.6h9.83c5.26,0,7.52,3.17,7.52,6.66,0,2.92-1.66,5.22-4.21,6.05l6.3,8.89h-6.3l-5.76-8.32h-1.55Zm2.52-3.71c2.23,0,3.24-1.01,3.24-2.84s-1.01-2.88-3.24-2.88h-2.52v5.72h2.52Z" fill="#fff"/><path d="M260.9,148.51v-11.63h5.9v11.3c0,3.82,1.51,5.87,4.61,5.87s4.64-2.05,4.64-5.87v-11.3h5.72v11.63c0,7.31-4.61,10.58-10.44,10.58s-10.44-3.28-10.44-10.58Z" fill="#fff"/><path d="M285.59,136.88h15.01v4.39h-9.18v3.64h7.38v4.36h-7.38v4.82h9.18v4.39h-15.01v-21.6Z" fill="#fff"/><path d="M301.97,147.68c0-6.98,5.4-11.27,11.63-11.27,2.95,0,5.79,.79,7.59,2.16v4.97c-1.73-1.48-4.03-2.52-6.62-2.52-3.64,0-6.41,2.34-6.41,6.66s2.77,6.66,6.41,6.66c2.59,0,4.9-1.04,6.62-2.52v4.97c-1.8,1.37-4.64,2.16-7.59,2.16-6.23,0-11.63-4.28-11.63-11.27Z" fill="#fff"/><path d="M331.1,136.88h4.93l9.07,21.6h-5.79l-1.84-4.61h-7.99l-1.8,4.61h-5.65l9.07-21.6Zm4.97,13.21l-2.59-6.8-2.59,6.8h5.18Z" fill="#fff"/><path d="M352.66,150.16v8.32h-5.83v-21.6h9.83c5.26,0,7.52,3.17,7.52,6.66,0,2.92-1.66,5.22-4.21,6.05l6.3,8.89h-6.3l-5.76-8.32h-1.55Zm2.52-3.71c2.23,0,3.24-1.01,3.24-2.84s-1.01-2.88-3.24-2.88h-2.52v5.72h2.52Z" fill="#fff"/><path d="M367.42,136.88h15.01v4.39h-9.18v3.64h7.38v4.36h-7.38v4.82h9.18v4.39h-15.01v-21.6Z" fill="#fff"/><path d="M389.85,147.68c0-6.98,5.4-11.27,11.63-11.27,2.95,0,5.79,.79,7.59,2.16v4.97c-1.73-1.48-4.03-2.52-6.62-2.52-3.64,0-6.41,2.34-6.41,6.66s2.77,6.66,6.41,6.66c2.59,0,4.9-1.04,6.62-2.52v4.97c-1.8,1.37-4.64,2.16-7.59,2.16-6.23,0-11.63-4.28-11.63-11.27Z" fill="#fff"/><path d="M418.97,136.88h4.93l9.07,21.6h-5.79l-1.84-4.61h-7.99l-1.8,4.61h-5.65l9.07-21.6Zm4.97,13.21l-2.59-6.8-2.59,6.8h5.18Z" fill="#fff"/><path d="M434.7,136.88h9.21c5.44,0,7.92,3.28,7.92,7.24s-2.48,7.24-7.92,7.24h-3.38v7.13h-5.83v-21.6Zm7.81,10.62c2.48,0,3.53-1.3,3.53-3.38s-1.04-3.38-3.53-3.38h-1.98v6.77h1.98Z" fill="#fff"/><path d="M452.67,156.1l1.3-4.25c1.62,1.37,3.96,2.88,6.8,2.88,1.76,0,3.13-.68,3.13-2.2,0-1.4-.94-1.98-4.03-2.7-4.93-1.15-6.62-3.78-6.62-6.98,0-3.92,3.1-6.48,7.92-6.48,2.84,0,5.4,1.01,7.09,2.2l-1.19,3.89c-1.62-1.01-3.89-1.87-5.97-1.87-1.55,0-2.52,.65-2.52,1.73,0,1.01,.65,1.62,3.09,2.2,5.4,1.26,7.6,3.53,7.6,7.42,0,5.08-4.1,6.98-8.5,6.98-3.71,0-6.41-1.4-8.1-2.81Z" fill="#fff"/></g><g><path d="M320.18,24.7c0-6.44,5.21-11.1,11.66-11.1s11.59,4.66,11.59,11.1-5.18,11.1-11.59,11.1-11.66-4.66-11.66-11.1Zm17.22,0c0-4.03-2.06-6.65-5.56-6.65s-5.64,2.62-5.64,6.65,2.1,6.65,5.64,6.65,5.56-2.62,5.56-6.65Z" fill="#fff"/><path d="M346.11,14.2h4.31l9.52,12.08V14.2h5.01v21h-4.31l-9.52-12.08v12.08h-5V14.2Z" fill="#fff"/><path d="M372.82,24.7c0-6.79,5.25-10.96,11.31-10.96,2.87,0,5.63,.77,7.38,2.1v4.83c-1.68-1.44-3.92-2.45-6.44-2.45-3.54,0-6.23,2.28-6.23,6.48s2.7,6.48,6.23,6.48c2.52,0,4.76-1.01,6.44-2.45v4.83c-1.75,1.33-4.52,2.1-7.38,2.1-6.06,0-11.31-4.17-11.31-10.96Z" fill="#fff"/><path d="M392.98,24.7c0-6.44,5.21-11.1,11.66-11.1s11.59,4.66,11.59,11.1-5.18,11.1-11.59,11.1-11.66-4.66-11.66-11.1Zm17.22,0c0-4.03-2.07-6.65-5.57-6.65s-5.64,2.62-5.64,6.65,2.1,6.65,5.64,6.65,5.57-2.62,5.57-6.65Z" fill="#fff"/><path d="M415.66,14.2h5.85l5.36,13.44,5.32-13.44h5.71l-8.82,21h-4.58l-8.82-21Z" fill="#fff"/><path d="M439.53,14.2h5.67v21h-5.67V14.2Z" fill="#fff"/><path d="M448.87,14.2h8.19c8.64,0,12.18,4.73,12.18,10.5s-3.54,10.5-12.18,10.5h-8.19V14.2Zm7.74,16.63c4.72,0,6.86-1.93,6.86-6.13s-2.13-6.13-6.86-6.13h-2.07v12.25h2.07Z" fill="#fff"/><path d="M471.9,14.2h5.67v21h-5.67V14.2Z" fill="#fff"/><path d="M481.25,14.2h14.6v4.27h-8.93v3.54h7.18v4.24h-7.18v4.69h8.93v4.27h-14.6V14.2Z" fill="#fff"/><path d="M498.89,14.2h4.31l9.52,12.08V14.2h5v21h-4.3l-9.52-12.08v12.08h-5.01V14.2Z" fill="#fff"/><path d="M321.19,51.2h6.33l5.71,13.34,5.71-13.34h6.2v21h-5.01v-11.45c0-.49,.11-2.1,.14-2.24l-.77,2.24-4.73,11.45h-3.36l-4.73-11.45c-.21-.49-.7-2-.77-2.24,0,.14,.14,1.75,.14,2.24v11.45h-4.87v-21Z" fill="#fff"/><path d="M347.83,61.7c0-6.44,5.22-11.1,11.66-11.1s11.59,4.66,11.59,11.1-5.18,11.1-11.59,11.1-11.66-4.66-11.66-11.1Zm17.22,0c0-4.03-2.07-6.65-5.57-6.65s-5.63,2.62-5.63,6.65,2.1,6.65,5.63,6.65,5.57-2.62,5.57-6.65Z" fill="#fff"/><path d="M373.76,51.2h4.3l9.52,12.08v-12.08h5.01v21h-4.31l-9.52-12.08v12.08h-5.01v-21Z" fill="#fff"/><path d="M392,77.94v-3.36c.46,.42,1.61,.88,2.31,.88,1.37,0,2-.67,2-3.01v-21.25h5.67v21.77c0,3.54-2.03,6.2-5.95,6.2-1.96,0-3.36-.67-4.03-1.23Z" fill="#fff"/><path d="M405.65,51.2h14.6v4.27h-8.93v3.54h7.18v4.24h-7.18v4.69h8.93v4.27h-14.6v-21Z" fill="#fff"/><path d="M421.57,61.7c0-6.79,5.25-10.96,11.31-10.96,2.87,0,5.64,.77,7.39,2.1v4.83c-1.68-1.44-3.92-2.45-6.44-2.45-3.54,0-6.23,2.28-6.23,6.48s2.7,6.48,6.23,6.48c2.52,0,4.76-1.01,6.44-2.45v4.83c-1.75,1.33-4.52,2.1-7.39,2.1-6.06,0-11.31-4.17-11.31-10.96Z" fill="#fff"/><path d="M447.89,55.47h-6.76v-4.27h19.18v4.27h-6.76v16.73h-5.67v-16.73Z" fill="#fff"/><path d="M467.98,53.82v9.03h-3.67v-9.03h-3.61v-2.62h10.92v2.62h-3.64Zm15.96,9.03v-5.81c0-.28,.07-1.26,.07-1.37-.04,.1-.32,1.08-.42,1.37l-2.1,5.81h-2.42l-2.1-5.81c-.1-.25-.38-1.19-.42-1.37,0,.1,.07,1.08,.07,1.37v5.81h-3.15v-11.66h4.17l2.73,7.6,2.7-7.6h4.13v11.66h-3.25Z" fill="#fff"/></g></svg>