<?xml version="1.0" encoding="UTF-8"?><svg id="a" xmlns="http://www.w3.org/2000/svg" viewBox="0 0 856.12 162"><polygon points="18.82 162 782.63 161.85 856.12 15.97 17.75 15.75 18.82 162" fill="#4c4d4f"/><polygon points=".11 145.75 766.6 145.19 840.37 .22 0 0 .11 145.75" fill="#136ab4"/><g><path d="M440.31,39.85c0-8.1,6.56-13.95,14.65-13.95s14.57,5.85,14.57,13.95-6.51,13.95-14.57,13.95-14.65-5.85-14.65-13.95Zm21.65,0c0-5.06-2.6-8.36-7-8.36s-7.08,3.3-7.08,8.36,2.64,8.36,7.08,8.36,7-3.3,7-8.36Z" fill="#fff"/><path d="M473.66,26.65h5.41l11.97,15.18v-15.18h6.29v26.4h-5.41l-11.97-15.18v15.18h-6.29V26.65Z" fill="#fff"/><path d="M440.15,99.85c0-8.54,6.18-13.77,13.19-13.77,3.29,0,6.65,.97,8.63,2.64v6.07c-2.02-1.76-4.32-3.08-7.68-3.08-4.4,0-7.4,2.99-7.4,8.58s2.85,8.41,6.89,8.41c1.31,0,2.26-.26,3.17-.7v-4.36h-3.52v-4.93h9.54v12.63c-1.39,.66-5.31,2.46-10.18,2.46-6.85,0-12.63-5.41-12.63-13.95Z" fill="#fff"/><path d="M474.68,86.65h5.42l9.98,26.4h-6.38l-2.02-5.63h-8.79l-1.98,5.63h-6.22l9.98-26.4Zm5.46,16.15l-2.85-8.32-2.85,8.32h5.7Z" fill="#fff"/><path d="M508.1,113.05l-9.03-11.93v11.93h-6.41v-26.4h6.41v11.66l8.28-11.66h6.89l-9.23,12.59,10.81,13.82h-7.72Z" fill="#fff"/><path d="M514.52,99.85c0-8.1,5.9-13.95,13.19-13.95s13.11,5.85,13.11,13.95-5.86,13.95-13.11,13.95-13.19-5.85-13.19-13.95Zm19.48,0c0-5.06-2.34-8.36-6.3-8.36s-6.38,3.3-6.38,8.36,2.38,8.36,6.38,8.36,6.3-3.3,6.3-8.36Z" fill="#fff"/><path d="M551.07,100.86v-14.21h6.49v13.82c0,4.67,1.66,7.17,5.07,7.17s5.11-2.51,5.11-7.17v-13.82h6.29v14.21c0,8.93-5.07,12.94-11.48,12.94s-11.48-4-11.48-12.94Z" fill="#fff"/><path d="M578.91,86.65h4.87l10.77,15.18v-15.18h5.66v26.4h-4.87l-10.77-15.18v15.18h-5.66v-26.4Z" fill="#fff"/><path d="M603.93,99.85c0-8.54,6.18-13.77,13.19-13.77,3.29,0,6.65,.97,8.63,2.64v6.07c-2.02-1.76-4.32-3.08-7.68-3.08-4.4,0-7.41,2.99-7.41,8.58s2.85,8.41,6.89,8.41c1.31,0,2.26-.26,3.17-.7v-4.36h-3.52v-4.93h9.54v12.63c-1.39,.66-5.31,2.46-10.18,2.46-6.85,0-12.63-5.41-12.63-13.95Z" fill="#fff"/><path d="M631.57,100.86v-14.21h6.49v13.82c0,4.67,1.66,7.17,5.07,7.17s5.11-2.51,5.11-7.17v-13.82h6.3v14.21c0,8.93-5.07,12.94-11.48,12.94s-11.48-4-11.48-12.94Z" fill="#fff"/><path d="M665.51,86.65h5.42l9.98,26.4h-6.38l-2.02-5.63h-8.79l-1.98,5.63h-6.22l9.98-26.4Zm5.46,16.15l-2.85-8.32-2.85,8.32h5.7Z" fill="#fff"/><path d="M686.02,92.02h-7.64v-5.37h21.7v5.37h-7.64v21.04h-6.41v-21.04Z" fill="#fff"/><path d="M700.56,99.85c0-8.1,5.9-13.95,13.19-13.95s13.11,5.85,13.11,13.95-5.86,13.95-13.11,13.95-13.19-5.85-13.19-13.95Zm19.48,0c0-5.06-2.34-8.36-6.3-8.36s-6.38,3.3-6.38,8.36,2.38,8.36,6.38,8.36,6.3-3.3,6.3-8.36Z" fill="#fff"/><path d="M736.99,102.89v10.17h-6.41v-26.4h10.81c5.78,0,8.28,3.87,8.28,8.14,0,3.56-1.82,6.38-4.63,7.39l6.93,10.87h-6.93l-6.33-10.17h-1.7Zm2.77-4.53c2.46,0,3.56-1.23,3.56-3.48s-1.11-3.52-3.56-3.52h-2.77v7h2.77Z" fill="#fff"/><path d="M752.28,110.15l1.43-5.19c1.78,1.67,4.36,3.52,7.48,3.52,1.94,0,3.45-.84,3.45-2.68,0-1.72-1.03-2.42-4.43-3.3-5.42-1.41-7.29-4.62-7.29-8.54,0-4.8,3.41-7.92,8.71-7.92,3.13,0,5.94,1.23,7.8,2.68l-1.31,4.75c-1.78-1.23-4.28-2.29-6.57-2.29-1.7,0-2.77,.79-2.77,2.11,0,1.23,.71,1.98,3.41,2.68,5.94,1.54,8.35,4.31,8.35,9.06,0,6.21-4.51,8.54-9.34,8.54-4.08,0-7.05-1.72-8.91-3.43Z" fill="#fff"/></g><g><path d="M56.29,54.17l1.84-6.02c2.29,1.94,5.61,4.08,9.64,4.08,2.5,0,4.44-.97,4.44-3.11,0-1.99-1.33-2.8-5.71-3.82-6.99-1.63-9.38-5.35-9.38-9.89,0-5.56,4.39-9.18,11.22-9.18,4.03,0,7.65,1.43,10.05,3.11l-1.68,5.51c-2.29-1.43-5.51-2.65-8.47-2.65-2.19,0-3.57,.92-3.57,2.45,0,1.43,.92,2.29,4.39,3.11,7.65,1.79,10.76,5,10.76,10.5,0,7.19-5.81,9.89-12.03,9.89-5.25,0-9.08-1.99-11.47-3.98Z" fill="#fff"/><path d="M92.86,26.94h6.99l12.85,30.6h-8.21l-2.6-6.53h-11.32l-2.55,6.53h-8.01l12.85-30.6Zm7.04,18.71l-3.67-9.64-3.67,9.64h7.34Z" fill="#fff"/><path d="M108.21,26.94h8.52l7.8,19.58,7.75-19.58h8.31l-12.85,30.6h-6.68l-12.85-30.6Z" fill="#fff"/><path d="M143.4,26.94h21.27v6.22h-13v5.15h10.45v6.17h-10.45v6.83h13v6.22h-21.27V26.94Z" fill="#fff"/><path d="M35.33,104.61v-16.47h8.36v16.01c0,5.41,2.14,8.31,6.53,8.31s6.58-2.91,6.58-8.31v-16.01h8.11v16.47c0,10.35-6.53,14.99-14.79,14.99s-14.79-4.64-14.79-14.99Z" fill="#fff"/><path d="M70.72,88.14h13.05c7.7,0,11.22,4.64,11.22,10.25s-3.52,10.25-11.22,10.25h-4.79v10.1h-8.26v-30.6Zm11.07,15.04c3.52,0,5-1.84,5-4.79s-1.48-4.79-5-4.79h-2.8v9.59h2.8Z" fill="#fff"/><path d="M113.05,94.36h-9.84v-6.22h27.95v6.22h-9.84v24.38h-8.26v-24.38Z" fill="#fff"/><path d="M131.31,103.44c0-9.38,7.6-16.17,16.98-16.17s16.88,6.78,16.88,16.17-7.55,16.17-16.88,16.17-16.98-6.78-16.98-16.17Zm25.09,0c0-5.86-3.01-9.69-8.11-9.69s-8.21,3.82-8.21,9.69,3.06,9.69,8.21,9.69,8.11-3.82,8.11-9.69Z" fill="#fff"/></g><g><path d="M181.36,108.83v-18.33c7.15,6.85,15.94,10.88,24.88,10.88,9.83,0,16.54-5.36,16.54-14.45,0-8.2-5.07-12.67-13.11-12.67-5.07,0-8.34,2.53-10.73,4.32l-9.39-10.88,24.44-23.1h-32.33V26.43h62.88v10.73l-23.54,22.2c14.01,1.64,25.03,11.32,25.03,28.01,0,19.52-16.39,30.99-35.61,30.99-12.07,0-22.95-4.02-29.06-9.54Z" fill="#fff"/><path d="M250.79,70.84c0-29.8,16.69-47.38,39.19-47.38s39.19,17.58,39.19,47.38-16.84,47.53-39.19,47.53-39.19-17.58-39.19-47.53Zm54.09,0c0-21.01-5.21-29.35-14.9-29.35s-14.9,8.34-14.9,29.35,5.22,29.5,14.9,29.5,14.9-8.34,14.9-29.5Z" fill="#fff"/><path d="M333.78,46.4c0-12.22,8.79-22.2,21.9-22.2s21.9,9.98,21.9,22.2-8.79,22.35-21.9,22.35-21.9-9.98-21.9-22.35Zm29.5,0c0-8.49-2.83-11.62-7.6-11.62s-7.6,3.13-7.6,11.62,2.83,11.77,7.6,11.77,7.6-3.13,7.6-11.77Zm-14.9,68.84l57.22-91.49,6.41,3.28-57.22,91.49-6.41-3.28Zm34.27-19.97c0-12.22,8.79-22.2,21.9-22.2s21.9,9.98,21.9,22.2-8.79,22.35-21.9,22.35-21.9-9.98-21.9-22.35Zm29.5,0c0-8.49-2.83-11.62-7.6-11.62s-7.6,3.13-7.6,11.62,2.83,11.77,7.6,11.77,7.6-3.13,7.6-11.77Z" fill="#fff"/></g></svg>