<?xml version="1.0" encoding="UTF-8"?><svg id="a" xmlns="http://www.w3.org/2000/svg" viewBox="0 0 591.1 182.79"><polygon points="501.38 182.79 6.17 182.79 6.22 12.24 591.1 12.41 501.38 182.79" fill="#4c4d4f"/><polygon points="493.75 173.75 0 173.2 .05 4.32 584.25 4.71 493.75 173.75" fill="#006bb6"/><g><path d="M21.81,46.14l1.84-6.02c2.29,1.94,5.61,4.08,9.64,4.08,2.5,0,4.44-.97,4.44-3.11,0-1.99-1.33-2.8-5.71-3.82-6.99-1.63-9.38-5.35-9.38-9.89,0-5.56,4.39-9.18,11.22-9.18,4.03,0,7.65,1.43,10.05,3.11l-1.68,5.51c-2.29-1.43-5.51-2.65-8.47-2.65-2.19,0-3.57,.92-3.57,2.45,0,1.43,.92,2.29,4.39,3.11,7.65,1.79,10.76,5,10.76,10.5,0,7.19-5.81,9.89-12.04,9.89-5.25,0-9.08-1.99-11.47-3.98Z" fill="#fff"/><path d="M58.38,18.91h6.99l12.85,30.6h-8.21l-2.6-6.53h-11.32l-2.55,6.53h-8.01l12.85-30.6Zm7.04,18.72l-3.67-9.64-3.67,9.64h7.34Z" fill="#fff"/><path d="M73.73,18.91h8.52l7.8,19.58,7.75-19.58h8.31l-12.85,30.6h-6.68l-12.85-30.6Z" fill="#fff"/><path d="M108.92,18.91h21.26v6.22h-13v5.15h10.45v6.17h-10.45v6.83h13v6.22h-21.26V18.91Z" fill="#fff"/></g><g><path d="M145.76,72.82l14.24-14.85c5.76-6.06,10.91-11.51,10.91-18.48,0-6.16-4.54-8.38-8.58-8.38-4.65,0-9.59,1.92-15.05,6.46v-12.93c3.74-3.03,12.32-6.26,18.89-6.26,11.82,0,21.31,7.07,21.31,18.58,0,10.5-6.46,17.57-12.52,22.93l-9.7,8.58h23.53v12.32h-43.02v-7.98Z" fill="#fff"/><path d="M191.82,50.3c0-20.2,11.31-32.12,26.56-32.12s26.56,11.92,26.56,32.12-11.41,32.22-26.56,32.22-26.56-11.92-26.56-32.22Zm36.66,0c0-14.24-3.54-19.9-10.1-19.9s-10.1,5.66-10.1,19.9,3.53,20,10.1,20,10.1-5.66,10.1-20Z" fill="#fff"/><path d="M247.77,33.74c0-8.28,5.96-15.05,14.85-15.05s14.85,6.77,14.85,15.05-5.96,15.15-14.85,15.15-14.85-6.77-14.85-15.15Zm20,0c0-5.76-1.92-7.88-5.15-7.88s-5.15,2.12-5.15,7.88,1.92,7.98,5.15,7.98,5.15-2.12,5.15-7.98Zm-10.1,46.66l38.78-62.01,4.34,2.22-38.78,62.01-4.34-2.22Zm23.23-13.53c0-8.28,5.96-15.05,14.85-15.05s14.85,6.77,14.85,15.05-5.96,15.15-14.85,15.15-14.85-6.77-14.85-15.15Zm20,0c0-5.76-1.92-7.88-5.15-7.88s-5.15,2.12-5.15,7.88,1.92,7.98,5.15,7.98,5.15-2.12,5.15-7.98Z" fill="#fff"/><path d="M145.3,114.89c0-3.34,2.16-5.46,4.71-7.13-1.28-2.2-1.98-4.27-1.98-6.12,0-4,3.87-7,8.54-7,4.4,0,7.48,2.68,7.48,6.03,0,3.65-3.56,5.63-6.82,7.61,1.19,1.67,2.6,3.21,3.7,4.27,.13-.79,.35-3.78,.35-5.02h8.8v4h-4.05c-.09,1.5-.44,3.48-1.23,5.1,1.23,1.1,2.07,1.41,3.12,1.41s2.2-.66,3.3-1.85l2.16,2.68c-1.85,2.73-4.4,3.56-6.16,3.56s-3.48-.35-5.63-1.8c-1.54,1.1-3.56,1.8-6.12,1.8-5.5,0-10.17-2.68-10.17-7.57Zm12.67,2.64c-1.67-1.58-3.61-3.52-5.24-5.76-.62,.75-.97,1.63-.97,2.6,0,1.98,1.36,3.74,4,3.74,.79,0,1.5-.22,2.2-.57Zm.53-16.85c0-1.06-.84-1.89-2.07-1.89-1.85,0-2.51,1.54-2.51,2.82,0,1.19,.35,2.29,.92,3.39,2.07-1.23,3.65-2.46,3.65-4.31Z" fill="#fff"/><path d="M180.19,108.6c0-8.1,6.56-13.95,14.65-13.95s14.57,5.85,14.57,13.95-6.51,13.95-14.57,13.95-14.65-5.85-14.65-13.95Zm21.65,0c0-5.06-2.6-8.36-7-8.36s-7.08,3.3-7.08,8.36,2.64,8.36,7.08,8.36,7-3.3,7-8.36Z" fill="#fff"/><path d="M212.8,95.4h5.41l11.97,15.18v-15.18h6.29v26.4h-5.41l-11.97-15.18v15.18h-6.29v-26.4Z" fill="#fff"/><path d="M247.64,95.4h7.13v9.46h10.43v-9.46h7.13v26.4h-7.13v-10.91h-10.43v10.91h-7.13v-26.4Z" fill="#fff"/><path d="M276.95,95.4h18.35v5.37h-11.22v4.45h9.02v5.32h-9.02v5.9h11.22v5.37h-18.35v-26.4Z" fill="#fff"/><path d="M306.25,111.63v10.17h-7.13v-26.4h12.01c6.42,0,9.2,3.87,9.2,8.14,0,3.56-2.02,6.38-5.15,7.39l7.7,10.87h-7.7l-7.04-10.17h-1.89Zm3.08-4.53c2.73,0,3.96-1.23,3.96-3.48s-1.23-3.52-3.96-3.52h-3.08v7h3.08Z" fill="#fff"/><path d="M332.83,95.4h6.03l11.09,26.4h-7.09l-2.24-5.63h-9.77l-2.2,5.63h-6.91l11.09-26.4Zm6.07,16.15l-3.17-8.32-3.17,8.32h6.34Z" fill="#fff"/><path d="M354.87,100.76h-8.49v-5.37h24.12v5.37h-8.49v21.04h-7.13v-21.04Z" fill="#fff"/><path d="M372.69,95.4h7.13v9.46h10.43v-9.46h7.13v26.4h-7.13v-10.91h-10.43v10.91h-7.13v-26.4Z" fill="#fff"/><path d="M401.99,95.4h18.35v5.37h-11.22v4.45h9.02v5.32h-9.02v5.9h11.22v5.37h-18.35v-26.4Z" fill="#fff"/><path d="M431.3,111.63v10.17h-7.13v-26.4h12.01c6.42,0,9.2,3.87,9.2,8.14,0,3.56-2.02,6.38-5.15,7.39l7.7,10.87h-7.7l-7.04-10.17h-1.89Zm3.08-4.53c2.73,0,3.96-1.23,3.96-3.48s-1.23-3.52-3.96-3.52h-3.08v7h3.08Z" fill="#fff"/><path d="M449.33,95.4h7.96l7.17,16.77,7.17-16.77h7.79v26.4h-6.29v-14.39c0-.62,.13-2.64,.18-2.82l-.97,2.82-5.94,14.39h-4.22l-5.94-14.39c-.26-.62-.88-2.51-.97-2.82,0,.18,.18,2.2,.18,2.82v14.39h-6.12v-26.4Z" fill="#fff"/><path d="M491.53,98.7v11.35h-4.62v-11.35h-4.53v-3.3h13.73v3.3h-4.58Zm20.07,11.35v-7.31c0-.35,.09-1.58,.09-1.72-.04,.13-.4,1.36-.53,1.72l-2.64,7.31h-3.04l-2.64-7.31c-.13-.31-.48-1.5-.53-1.72,0,.13,.09,1.36,.09,1.72v7.31h-3.96v-14.65h5.24l3.43,9.55,3.39-9.55h5.19v14.65h-4.09Z" fill="#fff"/><path d="M146.4,136.4h7.13v26.4h-7.13v-26.4Z" fill="#fff"/><path d="M158.15,136.4h5.41l11.97,15.18v-15.18h6.29v26.4h-5.41l-11.97-15.18v15.18h-6.29v-26.4Z" fill="#fff"/><path d="M185.21,149.6c0-8.54,6.6-13.77,14.21-13.77,3.61,0,7.08,.97,9.29,2.64v6.07c-2.11-1.8-4.93-3.08-8.1-3.08-4.44,0-7.83,2.86-7.83,8.14s3.39,8.14,7.83,8.14c3.17,0,5.98-1.28,8.1-3.08v6.07c-2.2,1.67-5.68,2.64-9.29,2.64-7.61,0-14.21-5.24-14.21-13.77Z" fill="#fff"/><path d="M212.27,150.61v-14.21h7.22v13.82c0,4.67,1.85,7.17,5.63,7.17s5.68-2.51,5.68-7.17v-13.82h7v14.21c0,8.93-5.63,12.94-12.76,12.94s-12.76-4-12.76-12.94Z" fill="#fff"/><path d="M242.45,136.4h11.71c5.98,0,8.27,3.12,8.27,6.91,0,2.02-1.32,4.18-2.86,5.19,2.68,1.14,4.27,3.78,4.27,6.56,0,4.27-2.6,7.75-9.24,7.75h-12.15v-26.4Zm9.99,10.3c2.11,0,3.21-1.01,3.21-2.86s-1.1-2.9-3.21-2.9h-2.86v5.76h2.86Zm.35,11.57c2.77,0,4.14-1.19,4.14-3.52s-1.36-3.52-4.14-3.52h-3.21v7.04h3.21Z" fill="#fff"/><path d="M275.45,136.4h6.03l11.09,26.4h-7.08l-2.24-5.63h-9.77l-2.2,5.63h-6.91l11.09-26.4Zm6.07,16.15l-3.17-8.32-3.17,8.32h6.34Z" fill="#fff"/><path d="M297.5,141.76h-8.49v-5.37h24.12v5.37h-8.49v21.04h-7.13v-21.04Z" fill="#fff"/><path d="M312.89,149.6c0-8.1,6.56-13.95,14.65-13.95s14.57,5.85,14.57,13.95-6.51,13.95-14.57,13.95-14.65-5.85-14.65-13.95Zm21.65,0c0-5.06-2.6-8.36-7-8.36s-7.08,3.3-7.08,8.36,2.64,8.36,7.08,8.36,7-3.3,7-8.36Z" fill="#fff"/><path d="M352.63,152.63v10.17h-7.13v-26.4h12.01c6.42,0,9.2,3.87,9.2,8.14,0,3.56-2.02,6.38-5.15,7.39l7.7,10.87h-7.7l-7.04-10.17h-1.89Zm3.08-4.53c2.73,0,3.96-1.23,3.96-3.48s-1.23-3.52-3.96-3.52h-3.08v7h3.08Z" fill="#fff"/><path d="M368.86,159.9l1.58-5.19c1.98,1.67,4.84,3.52,8.32,3.52,2.16,0,3.83-.84,3.83-2.68,0-1.72-1.14-2.42-4.93-3.3-6.03-1.41-8.1-4.62-8.1-8.54,0-4.8,3.79-7.92,9.68-7.92,3.48,0,6.6,1.23,8.67,2.68l-1.45,4.75c-1.98-1.23-4.75-2.29-7.3-2.29-1.89,0-3.08,.79-3.08,2.11,0,1.23,.79,1.98,3.78,2.68,6.6,1.54,9.29,4.31,9.29,9.07,0,6.2-5.02,8.54-10.38,8.54-4.53,0-7.83-1.72-9.9-3.43Z" fill="#fff"/></g><g><path d="M320.18,29.02c0-6.44,5.21-11.1,11.66-11.1s11.59,4.66,11.59,11.1-5.18,11.1-11.59,11.1-11.66-4.66-11.66-11.1Zm17.22,0c0-4.03-2.06-6.65-5.56-6.65s-5.64,2.62-5.64,6.65,2.1,6.65,5.64,6.65,5.56-2.62,5.56-6.65Z" fill="#fff"/><path d="M346.11,18.52h4.31l9.52,12.08v-12.08h5.01v21h-4.31l-9.52-12.08v12.08h-5V18.52Z" fill="#fff"/><path d="M378.63,22.79h-6.76v-4.27h19.18v4.27h-6.76v16.73h-5.67V22.79Z" fill="#fff"/><path d="M392.8,18.52h5.67v7.53h8.3v-7.53h5.67v21h-5.67v-8.68h-8.3v8.68h-5.67V18.52Z" fill="#fff"/><path d="M416.11,18.52h14.6v4.27h-8.93v3.54h7.18v4.24h-7.18v4.69h8.93v4.27h-14.6V18.52Z" fill="#fff"/><path d="M439.42,31.44v8.09h-5.67V18.52h9.56c5.11,0,7.32,3.08,7.32,6.48,0,2.83-1.61,5.08-4.09,5.88l6.12,8.65h-6.12l-5.6-8.09h-1.5Zm2.45-3.61c2.17,0,3.15-.98,3.15-2.76s-.98-2.8-3.15-2.8h-2.45v5.57h2.45Z" fill="#fff"/><path d="M453.77,18.52h6.34l5.71,13.34,5.71-13.34h6.2v21h-5.01v-11.45c0-.49,.11-2.1,.14-2.24l-.77,2.24-4.72,11.45h-3.36l-4.72-11.45c-.21-.49-.7-2-.77-2.24,0,.14,.14,1.75,.14,2.24v11.45h-4.87V18.52Z" fill="#fff"/><path d="M480.41,29.02c0-6.44,5.21-11.1,11.66-11.1s11.59,4.66,11.59,11.1-5.18,11.1-11.59,11.1-11.66-4.66-11.66-11.1Zm17.22,0c0-4.03-2.07-6.65-5.57-6.65s-5.64,2.62-5.64,6.65,2.1,6.65,5.64,6.65,5.57-2.62,5.57-6.65Z" fill="#fff"/><path d="M319.76,74.21l1.26-4.13c1.57,1.33,3.85,2.8,6.62,2.8,1.71,0,3.04-.67,3.04-2.13,0-1.37-.91-1.93-3.92-2.63-4.79-1.12-6.44-3.67-6.44-6.79,0-3.82,3.01-6.3,7.7-6.3,2.77,0,5.25,.98,6.9,2.13l-1.16,3.78c-1.58-.98-3.78-1.82-5.81-1.82-1.5,0-2.45,.63-2.45,1.68,0,.98,.63,1.58,3.01,2.14,5.25,1.22,7.39,3.43,7.39,7.21,0,4.94-3.99,6.79-8.26,6.79-3.61,0-6.23-1.37-7.88-2.73Z" fill="#fff"/><path d="M337.36,66.02c0-6.79,5.25-10.96,11.31-10.96,2.87,0,5.64,.77,7.39,2.1v4.83c-1.68-1.44-3.92-2.45-6.44-2.45-3.54,0-6.23,2.28-6.23,6.48s2.7,6.48,6.23,6.48c2.52,0,4.76-1.01,6.44-2.45v4.83c-1.75,1.33-4.52,2.1-7.39,2.1-6.06,0-11.31-4.17-11.31-10.96Z" fill="#fff"/><path d="M358.89,55.52h5.67v21h-5.67v-21Z" fill="#fff"/><path d="M368.23,55.52h14.6v4.27h-8.93v3.54h7.18v4.24h-7.18v4.69h8.93v4.27h-14.6v-21Z" fill="#fff"/><path d="M385.87,55.52h4.3l9.52,12.08v-12.08h5.01v21h-4.31l-9.52-12.08v12.08h-5.01v-21Z" fill="#fff"/><path d="M413.21,59.79h-6.76v-4.27h19.18v4.27h-6.76v16.73h-5.67v-16.73Z" fill="#fff"/><path d="M427.38,55.52h5.67v21h-5.67v-21Z" fill="#fff"/><path d="M436.73,55.52h14.14v4.27h-8.47v3.78h6.72v4.24h-6.72v8.72h-5.67v-21Z" fill="#fff"/><path d="M452.62,55.52h5.67v21h-5.67v-21Z" fill="#fff"/><path d="M460.95,66.02c0-6.79,5.25-10.96,11.31-10.96,2.87,0,5.64,.77,7.39,2.1v4.83c-1.68-1.44-3.92-2.45-6.44-2.45-3.54,0-6.23,2.28-6.23,6.48s2.7,6.48,6.23,6.48c2.52,0,4.76-1.01,6.44-2.45v4.83c-1.75,1.33-4.52,2.1-7.39,2.1-6.05,0-11.31-4.17-11.31-10.96Z" fill="#fff"/><path d="M488.39,58.14v9.03h-3.68v-9.03h-3.61v-2.62h10.92v2.62h-3.64Zm15.96,9.03v-5.81c0-.28,.07-1.26,.07-1.37-.04,.1-.31,1.08-.42,1.37l-2.1,5.81h-2.42l-2.1-5.81c-.11-.25-.38-1.19-.42-1.37,0,.1,.07,1.08,.07,1.37v5.81h-3.15v-11.66h4.17l2.73,7.6,2.7-7.6h4.13v11.66h-3.26Z" fill="#fff"/></g></svg>