<?xml version="1.0" encoding="UTF-8"?><svg id="a" xmlns="http://www.w3.org/2000/svg" viewBox="0 0 591.1 182.79"><polygon points="501.38 182.79 6.17 182.79 6.22 12.24 591.1 12.41 501.38 182.79" fill="#4c4d4f"/><polygon points="493.75 173.75 0 173.2 .05 4.32 584.25 4.71 493.75 173.75" fill="#006bb6"/><g><path d="M21.81,46.14l1.84-6.02c2.29,1.94,5.61,4.08,9.64,4.08,2.5,0,4.44-.97,4.44-3.11,0-1.99-1.33-2.8-5.71-3.82-6.99-1.63-9.38-5.35-9.38-9.89,0-5.56,4.39-9.18,11.22-9.18,4.03,0,7.65,1.43,10.05,3.11l-1.68,5.51c-2.29-1.43-5.51-2.65-8.47-2.65-2.19,0-3.57,.92-3.57,2.45,0,1.43,.92,2.29,4.39,3.11,7.65,1.79,10.76,5,10.76,10.5,0,7.19-5.81,9.89-12.04,9.89-5.25,0-9.08-1.99-11.47-3.98Z" fill="#fff"/><path d="M58.38,18.91h6.99l12.85,30.6h-8.21l-2.6-6.53h-11.32l-2.55,6.53h-8.01l12.85-30.6Zm7.04,18.72l-3.67-9.64-3.67,9.64h7.34Z" fill="#fff"/><path d="M73.73,18.91h8.52l7.8,19.58,7.75-19.58h8.31l-12.85,30.6h-6.68l-12.85-30.6Z" fill="#fff"/><path d="M108.92,18.91h21.26v6.22h-13v5.15h10.45v6.17h-10.45v6.83h13v6.22h-21.26V18.91Z" fill="#fff"/></g><g><path d="M145.76,72.82l14.24-14.85c5.76-6.06,10.91-11.51,10.91-18.48,0-6.16-4.54-8.38-8.58-8.38-4.65,0-9.59,1.92-15.05,6.46v-12.93c3.74-3.03,12.32-6.26,18.89-6.26,11.82,0,21.31,7.07,21.31,18.58,0,10.5-6.46,17.57-12.52,22.93l-9.7,8.58h23.53v12.32h-43.02v-7.98Z" fill="#fff"/><path d="M196.87,76.05v-12.42c4.75,4.54,10.81,7.37,16.87,7.37,6.67,0,10.81-3.74,10.81-9.59,0-5.55-3.74-8.48-9.49-8.48-4.44,0-7.37,1.52-9.29,4.85l-6.77-2.83V20.2h38.99v12.32h-26.46v11.21c1.62-1.11,4.54-2.32,9.09-2.32,11.92,0,19.8,7.68,19.8,19.59,0,13.74-10.81,21.51-23.84,21.51-8.18,0-15.55-2.73-19.69-6.46Z" fill="#fff"/><path d="M247.97,33.74c0-8.28,5.96-15.05,14.85-15.05s14.85,6.77,14.85,15.05-5.96,15.15-14.85,15.15-14.85-6.77-14.85-15.15Zm20,0c0-5.76-1.92-7.88-5.15-7.88s-5.15,2.12-5.15,7.88,1.92,7.98,5.15,7.98,5.15-2.12,5.15-7.98Zm-10.1,46.66l38.78-62.01,4.34,2.22-38.78,62.01-4.34-2.22Zm23.23-13.53c0-8.28,5.96-15.05,14.85-15.05s14.85,6.77,14.85,15.05-5.96,15.15-14.85,15.15-14.85-6.77-14.85-15.15Zm20,0c0-5.76-1.92-7.88-5.15-7.88s-5.15,2.12-5.15,7.88,1.92,7.98,5.15,7.98,5.15-2.12,5.15-7.98Z" fill="#fff"/><path d="M145.88,100.2h9.21c5.44,0,7.92,3.28,7.92,7.23s-2.48,7.24-7.92,7.24h-3.38v7.13h-5.83v-21.6Zm7.81,10.62c2.48,0,3.53-1.3,3.53-3.38s-1.04-3.38-3.53-3.38h-1.98v6.77h1.98Z" fill="#fff"/><path d="M169.49,113.16l-8.46-12.96h6.41l5.04,8.17,5.04-8.17h6.26l-8.46,12.96v8.64h-5.83v-8.64Z" fill="#fff"/><path d="M190.45,113.49v8.31h-5.83v-21.6h9.83c5.26,0,7.52,3.17,7.52,6.66,0,2.92-1.66,5.22-4.21,6.05l6.3,8.89h-6.3l-5.76-8.31h-1.55Zm2.52-3.71c2.23,0,3.24-1.01,3.24-2.84s-1.01-2.88-3.24-2.88h-2.52v5.72h2.52Z" fill="#fff"/><path d="M204.56,100.2h15.01v4.39h-9.18v3.64h7.38v4.36h-7.38v4.82h9.18v4.39h-15.01v-21.6Z" fill="#fff"/><path d="M227.31,110.75l-7.34-10.55h6.62l4.46,6.84,4.54-6.84h6.48l-7.34,10.51,7.77,11.09h-6.62l-4.9-7.42-4.97,7.42h-6.48l7.78-11.05Z" fill="#fff"/><path d="M241.46,107.91c0-4.61,3.74-8.32,8.31-8.32s8.35,3.71,8.35,8.32-3.74,8.31-8.35,8.31-8.31-3.71-8.31-8.31Zm15.59,0c0-4-3.28-7.24-7.27-7.24s-7.24,3.24-7.24,7.24,3.24,7.23,7.24,7.23,7.27-3.24,7.27-7.23Zm-2.02,4.71h-3.64l-1.87-3.6h-.65v3.6h-3.02v-9.61h4.75c2.48,0,3.46,1.48,3.46,3.02,0,1.22-.65,2.2-1.66,2.63l2.63,3.96Zm-5.29-5.4c.86,0,1.3-.36,1.3-1.15s-.43-1.19-1.3-1.19h-.86v2.34h.86Z" fill="#fff"/><path d="M264.28,100.2h5.83v17.21h9.18v4.39h-15.01v-21.6Z" fill="#fff"/><path d="M279.11,111c0-6.62,5.36-11.41,11.99-11.41s11.92,4.79,11.92,11.41-5.33,11.41-11.92,11.41-11.99-4.79-11.99-11.41Zm17.71,0c0-4.14-2.12-6.84-5.72-6.84s-5.79,2.7-5.79,6.84,2.16,6.84,5.79,6.84,5.72-2.7,5.72-6.84Z" fill="#fff"/><path d="M302.12,100.2h5.72l3.53,11.19c.18,.61,.58,2.7,.58,2.7,0,0,.5-2.05,.68-2.7l3.28-11.19h4.43l3.31,11.19c.18,.65,.65,2.7,.65,2.7,0,0,.36-2.05,.58-2.7l3.53-11.19h5.58l-7.34,21.6h-4.54l-3.53-11.05c-.22-.65-.5-2.02-.5-2.12-.04,.14-.36,1.51-.54,2.12l-3.49,11.05h-4.57l-7.34-21.6Z" fill="#fff"/><path d="M339.7,100.2h14.54v4.39h-8.71v3.89h6.91v4.36h-6.91v8.96h-5.83v-21.6Z" fill="#fff"/><path d="M354.35,111c0-6.62,5.36-11.41,11.99-11.41s11.92,4.79,11.92,11.41-5.33,11.41-11.92,11.41-11.99-4.79-11.99-11.41Zm17.71,0c0-4.14-2.12-6.84-5.72-6.84s-5.79,2.7-5.79,6.84,2.16,6.84,5.79,6.84,5.72-2.7,5.72-6.84Z" fill="#fff"/><path d="M386.21,113.49v8.31h-5.83v-21.6h9.83c5.26,0,7.52,3.17,7.52,6.66,0,2.92-1.66,5.22-4.21,6.05l6.3,8.89h-6.3l-5.76-8.31h-1.55Zm2.52-3.71c2.23,0,3.24-1.01,3.24-2.84s-1.01-2.88-3.24-2.88h-2.52v5.72h2.52Z" fill="#fff"/><path d="M400.32,100.2h6.51l5.87,13.71,5.87-13.71h6.37v21.6h-5.15v-11.77c0-.5,.11-2.16,.14-2.3l-.79,2.3-4.86,11.77h-3.46l-4.86-11.77c-.22-.5-.72-2.05-.79-2.3,0,.14,.14,1.8,.14,2.3v11.77h-5v-21.6Z" fill="#fff"/><path d="M144.84,152c0-6.98,5.62-11.27,11.99-11.27,2.99,0,6.05,.79,7.85,2.16v4.97c-1.84-1.44-3.92-2.52-6.98-2.52-4,0-6.73,2.45-6.73,7.02s2.59,6.88,6.26,6.88c1.19,0,2.05-.22,2.88-.58v-3.56h-3.2v-4.03h8.67v10.33c-1.26,.54-4.82,2.02-9.25,2.02-6.23,0-11.48-4.43-11.48-11.41Z" fill="#fff"/><path d="M174.53,154.48v8.32h-5.83v-21.6h9.83c5.26,0,7.52,3.17,7.52,6.66,0,2.92-1.66,5.22-4.21,6.05l6.3,8.89h-6.3l-5.76-8.32h-1.55Zm2.52-3.71c2.23,0,3.24-1.01,3.24-2.84s-1.01-2.88-3.24-2.88h-2.52v5.72h2.52Z" fill="#fff"/><path d="M188.65,141.2h5.83v21.6h-5.83v-21.6Z" fill="#fff"/><path d="M197.61,141.2h14.54v4.39h-8.71v3.89h6.91v4.36h-6.91v8.96h-5.83v-21.6Z" fill="#fff"/><path d="M213.31,141.2h14.54v4.39h-8.71v3.89h6.91v4.36h-6.91v8.96h-5.83v-21.6Z" fill="#fff"/><path d="M229,141.2h5.83v21.6h-5.83v-21.6Z" fill="#fff"/><path d="M237.97,141.2h4.43l9.79,12.42v-12.42h5.15v21.6h-4.43l-9.79-12.42v12.42h-5.15v-21.6Z" fill="#fff"/><path d="M265.18,141.2h9.57c4.9,0,6.77,2.56,6.77,5.65,0,1.66-1.08,3.42-2.34,4.25,2.2,.94,3.49,3.1,3.49,5.36,0,3.49-2.12,6.33-7.56,6.33h-9.93v-21.6Zm8.17,8.42c1.73,0,2.63-.83,2.63-2.34s-.9-2.38-2.63-2.38h-2.34v4.71h2.34Zm.29,9.47c2.27,0,3.38-.97,3.38-2.88s-1.12-2.88-3.38-2.88h-2.63v5.76h2.63Z" fill="#fff"/><path d="M284.55,141.2h15.01v4.39h-9.18v3.64h7.38v4.36h-7.38v4.82h9.18v4.39h-15.01v-21.6Z" fill="#fff"/><path d="M309.03,141.2h4.93l9.07,21.6h-5.79l-1.84-4.61h-7.99l-1.8,4.61h-5.65l9.07-21.6Zm4.97,13.21l-2.59-6.8-2.59,6.8h5.18Z" fill="#fff"/><path d="M338.15,162.8l-8.21-9.75v9.75h-5.83v-21.6h5.83v9.54l7.52-9.54h6.26l-8.39,10.29,9.83,11.3h-7.02Z" fill="#fff"/><path d="M345.57,141.2h15.01v4.39h-9.18v3.64h7.38v4.36h-7.38v4.82h9.18v4.39h-15.01v-21.6Z" fill="#fff"/><path d="M368.9,154.48v8.32h-5.83v-21.6h9.83c5.26,0,7.52,3.17,7.52,6.66,0,2.92-1.66,5.22-4.21,6.05l6.3,8.89h-6.3l-5.76-8.32h-1.55Zm2.52-3.71c2.23,0,3.24-1.01,3.24-2.84s-1.01-2.88-3.24-2.88h-2.52v5.72h2.52Z" fill="#fff"/><path d="M381.53,160.42l1.3-4.25c1.62,1.37,3.96,2.88,6.8,2.88,1.76,0,3.13-.68,3.13-2.2,0-1.4-.94-1.98-4.03-2.7-4.93-1.15-6.62-3.78-6.62-6.98,0-3.92,3.1-6.48,7.92-6.48,2.84,0,5.4,1.01,7.09,2.2l-1.19,3.89c-1.62-1.01-3.89-1.87-5.97-1.87-1.55,0-2.52,.65-2.52,1.73,0,1.01,.65,1.62,3.09,2.2,5.4,1.26,7.6,3.53,7.6,7.42,0,5.08-4.1,6.98-8.5,6.98-3.71,0-6.41-1.4-8.1-2.81Z" fill="#fff"/></g><g><path d="M320.36,67.52c0-7.36,5.96-12.68,13.32-12.68s13.24,5.32,13.24,12.68-5.92,12.68-13.24,12.68-13.32-5.32-13.32-12.68Zm19.68,0c0-4.6-2.36-7.6-6.36-7.6s-6.44,3-6.44,7.6,2.4,7.6,6.44,7.6,6.36-3,6.36-7.6Z" fill="#fff"/><path d="M349.28,55.52h4.92l10.88,13.8v-13.8h5.72v24h-4.92l-10.88-13.8v13.8h-5.72v-24Z" fill="#fff"/></g></svg>