<?xml version="1.0" encoding="UTF-8"?><svg id="a" xmlns="http://www.w3.org/2000/svg" viewBox="0 0 592.14 179.11"><polygon points="504.12 178.08 7.89 179.11 8.35 4.72 592.14 8.56 504.12 178.08" fill="#4c4d4f"/><polygon points="494.88 170.21 0 170 .05 0 584.86 .17 494.88 170.21" fill="#006bb6"/><g><path d="M169.21,73.2v-12.79c4.89,4.68,11.13,7.59,17.37,7.59,6.86,0,11.13-3.85,11.13-9.88,0-5.72-3.85-8.74-9.78-8.74-4.58,0-7.59,1.56-9.57,4.99l-6.97-2.91V15.69h40.15v12.69h-27.25v11.54c1.66-1.14,4.68-2.39,9.36-2.39,12.27,0,20.38,7.9,20.38,20.18,0,14.14-11.13,22.15-24.54,22.15-8.42,0-16.02-2.81-20.28-6.66Z" fill="#fff"/><path d="M217.89,46.68c0-20.8,11.65-33.07,27.35-33.07s27.35,12.27,27.35,33.07-11.75,33.18-27.35,33.18-27.35-12.27-27.35-33.18Zm37.75,0c0-14.66-3.64-20.49-10.4-20.49s-10.4,5.82-10.4,20.49,3.64,20.59,10.4,20.59,10.4-5.82,10.4-20.59Z" fill="#fff"/><path d="M276.33,29.63c0-8.53,6.14-15.5,15.29-15.5s15.29,6.97,15.29,15.5-6.14,15.6-15.29,15.6-15.29-6.97-15.29-15.6Zm20.59,0c0-5.93-1.98-8.11-5.3-8.11s-5.3,2.18-5.3,8.11,1.98,8.22,5.3,8.22,5.3-2.18,5.3-8.22Zm-10.4,48.05l39.94-63.86,4.47,2.29-39.94,63.86-4.47-2.29Zm23.92-13.94c0-8.53,6.14-15.5,15.29-15.5s15.29,6.97,15.29,15.5-6.14,15.6-15.29,15.6-15.29-6.97-15.29-15.6Zm20.59,0c0-5.93-1.98-8.11-5.3-8.11s-5.3,2.18-5.3,8.11,1.98,8.22,5.3,8.22,5.3-2.18,5.3-8.22Z" fill="#fff"/><path d="M166.43,102.79c0-7.54,6.11-13,13.65-13s13.57,5.45,13.57,13-6.07,13-13.57,13-13.65-5.45-13.65-13Zm20.17,0c0-4.72-2.42-7.79-6.52-7.79s-6.6,3.07-6.6,7.79,2.46,7.79,6.6,7.79,6.52-3.08,6.52-7.79Z" fill="#fff"/><path d="M197.95,90.49h5.04l11.15,14.15v-14.15h5.86v24.6h-5.04l-11.15-14.15v14.15h-5.86v-24.6Z" fill="#fff"/><path d="M230.34,90.49h6.52l4.02,12.75c.21,.7,.66,3.07,.66,3.07,0,0,.57-2.34,.78-3.07l3.73-12.75h5.04l3.77,12.75c.21,.74,.74,3.07,.74,3.07,0,0,.41-2.34,.66-3.07l4.02-12.75h6.35l-8.36,24.6h-5.17l-4.02-12.59c-.25-.74-.57-2.3-.57-2.42-.04,.16-.41,1.72-.62,2.42l-3.98,12.59h-5.21l-8.36-24.6Z" fill="#fff"/><path d="M269.7,90.49h6.64v24.6h-6.64v-24.6Z" fill="#fff"/><path d="M281.8,90.49h10.5c6.19,0,9.02,3.73,9.02,8.24s-2.83,8.24-9.02,8.24h-3.85v8.12h-6.64v-24.6Zm8.9,12.1c2.83,0,4.02-1.48,4.02-3.85s-1.19-3.85-4.02-3.85h-2.25v7.71h2.25Z" fill="#fff"/><path d="M304.63,90.49h17.1v5h-10.46v4.14h8.4v4.96h-8.4v5.49h10.46v5h-17.1v-24.6Z" fill="#fff"/><path d="M324.77,112.39l1.48-4.84c1.85,1.56,4.51,3.28,7.75,3.28,2.01,0,3.57-.78,3.57-2.5,0-1.6-1.07-2.26-4.59-3.08-5.62-1.31-7.54-4.31-7.54-7.95,0-4.47,3.53-7.38,9.02-7.38,3.24,0,6.15,1.15,8.08,2.5l-1.35,4.43c-1.85-1.15-4.43-2.13-6.81-2.13-1.76,0-2.87,.74-2.87,1.97,0,1.15,.74,1.84,3.53,2.5,6.15,1.44,8.65,4.02,8.65,8.45,0,5.78-4.67,7.95-9.68,7.95-4.22,0-7.3-1.6-9.22-3.2Z" fill="#fff"/></g><g><path d="M57.97,37.21l1.51-4.96c1.89,1.6,4.62,3.36,7.94,3.36,2.06,0,3.65-.8,3.65-2.56,0-1.64-1.09-2.31-4.71-3.15-5.75-1.34-7.73-4.41-7.73-8.15,0-4.58,3.61-7.56,9.24-7.56,3.32,0,6.3,1.18,8.28,2.56l-1.39,4.54c-1.89-1.18-4.54-2.18-6.97-2.18-1.81,0-2.94,.76-2.94,2.02,0,1.18,.76,1.89,3.61,2.56,6.3,1.47,8.86,4.12,8.86,8.65,0,5.92-4.79,8.15-9.91,8.15-4.33,0-7.48-1.64-9.45-3.28Z" fill="#fff"/><path d="M88.08,14.78h5.75l10.59,25.2h-6.76l-2.14-5.38h-9.33l-2.1,5.38h-6.6l10.59-25.2Zm5.8,15.42l-3.02-7.94-3.02,7.94h6.05Z" fill="#fff"/><path d="M100.72,14.78h7.02l6.43,16.13,6.39-16.13h6.85l-10.59,25.2h-5.5l-10.59-25.2Z" fill="#fff"/><path d="M129.7,14.78h17.52v5.12h-10.71v4.24h8.61v5.08h-8.61v5.63h10.71v5.12h-17.52V14.78Z" fill="#fff"/><path d="M40.71,66.34v-13.57h6.89v13.19c0,4.45,1.76,6.85,5.38,6.85s5.42-2.39,5.42-6.85v-13.19h6.68v13.57c0,8.53-5.38,12.35-12.18,12.35s-12.18-3.82-12.18-12.35Z" fill="#fff"/><path d="M69.86,52.78h10.75c6.34,0,9.24,3.82,9.24,8.44s-2.9,8.44-9.24,8.44h-3.95v8.32h-6.81v-25.2Zm9.12,12.39c2.9,0,4.12-1.51,4.12-3.95s-1.22-3.95-4.12-3.95h-2.31v7.9h2.31Z" fill="#fff"/><path d="M104.72,57.9h-8.11v-5.12h23.02v5.12h-8.11v20.08h-6.81v-20.08Z" fill="#fff"/><path d="M119.75,65.38c0-7.73,6.26-13.32,13.99-13.32s13.9,5.59,13.9,13.32-6.22,13.32-13.9,13.32-13.99-5.59-13.99-13.32Zm20.67,0c0-4.83-2.48-7.98-6.68-7.98s-6.76,3.15-6.76,7.98,2.52,7.98,6.76,7.98,6.68-3.15,6.68-7.98Z" fill="#fff"/></g></svg>