<?xml version="1.0" encoding="UTF-8"?><svg id="a" xmlns="http://www.w3.org/2000/svg" viewBox="0 0 591.1 178.47"><polygon points="501.38 178.47 6.17 178.47 6.22 7.92 591.1 8.09 501.38 178.47" fill="#4c4d4f"/><polygon points="493.75 169.43 0 168.88 .05 0 584.25 .39 493.75 169.43" fill="#006bb6"/><g><path d="M21.81,41.82l1.84-6.02c2.29,1.94,5.61,4.08,9.64,4.08,2.5,0,4.44-.97,4.44-3.11,0-1.99-1.33-2.8-5.71-3.82-6.99-1.63-9.38-5.35-9.38-9.89,0-5.56,4.39-9.18,11.22-9.18,4.03,0,7.65,1.43,10.05,3.11l-1.68,5.51c-2.29-1.43-5.51-2.65-8.47-2.65-2.19,0-3.57,.92-3.57,2.45,0,1.43,.92,2.29,4.39,3.11,7.65,1.79,10.76,5,10.76,10.5,0,7.19-5.81,9.89-12.04,9.89-5.25,0-9.08-1.99-11.47-3.98Z" fill="#fff"/><path d="M58.38,14.59h6.99l12.85,30.6h-8.21l-2.6-6.53h-11.32l-2.55,6.53h-8.01l12.85-30.6Zm7.04,18.72l-3.67-9.64-3.67,9.64h7.34Z" fill="#fff"/><path d="M73.73,14.59h8.52l7.8,19.58,7.75-19.58h8.31l-12.85,30.6h-6.68l-12.85-30.6Z" fill="#fff"/><path d="M108.92,14.59h21.26v6.22h-13v5.15h10.45v6.17h-10.45v6.83h13v6.22h-21.26V14.59Z" fill="#fff"/></g><g><path d="M145.76,68.5l14.24-14.85c5.76-6.06,10.91-11.51,10.91-18.48,0-6.16-4.54-8.38-8.58-8.38-4.65,0-9.59,1.92-15.05,6.46v-12.93c3.74-3.03,12.32-6.26,18.89-6.26,11.82,0,21.31,7.07,21.31,18.58,0,10.5-6.46,17.57-12.52,22.93l-9.7,8.58h23.53v12.32h-43.02v-7.98Z" fill="#fff"/><path d="M196.87,71.73v-12.42c4.75,4.54,10.81,7.37,16.87,7.37,6.67,0,10.81-3.74,10.81-9.59,0-5.55-3.74-8.48-9.49-8.48-4.44,0-7.37,1.52-9.29,4.85l-6.77-2.83V15.88h38.99v12.32h-26.46v11.21c1.62-1.11,4.54-2.32,9.09-2.32,11.92,0,19.8,7.68,19.8,19.59,0,13.74-10.81,21.51-23.84,21.51-8.18,0-15.55-2.73-19.69-6.46Z" fill="#fff"/><path d="M247.97,29.41c0-8.28,5.96-15.05,14.85-15.05s14.85,6.77,14.85,15.05-5.96,15.15-14.85,15.15-14.85-6.77-14.85-15.15Zm20,0c0-5.76-1.92-7.88-5.15-7.88s-5.15,2.12-5.15,7.88,1.92,7.98,5.15,7.98,5.15-2.12,5.15-7.98Zm-10.1,46.66l38.78-62.01,4.34,2.22-38.78,62.01-4.34-2.22Zm23.23-13.53c0-8.28,5.96-15.05,14.85-15.05s14.85,6.77,14.85,15.05-5.96,15.15-14.85,15.15-14.85-6.77-14.85-15.15Zm20,0c0-5.76-1.92-7.88-5.15-7.88s-5.15,2.12-5.15,7.88,1.92,7.98,5.15,7.98,5.15-2.12,5.15-7.98Z" fill="#fff"/><path d="M145.12,104.28c0-8.1,6.56-13.95,14.65-13.95s14.57,5.85,14.57,13.95-6.51,13.95-14.57,13.95-14.65-5.85-14.65-13.95Zm21.65,0c0-5.06-2.6-8.36-7-8.36s-7.08,3.3-7.08,8.36,2.64,8.36,7.08,8.36,7-3.3,7-8.36Z" fill="#fff"/><path d="M176.94,91.07h5.41l11.97,15.18v-15.18h6.29v26.4h-5.41l-11.97-15.18v15.18h-6.29v-26.4Z" fill="#fff"/><path d="M210.2,91.07h18.35v5.37h-11.22v4.45h9.02v5.32h-9.02v5.9h11.22v5.37h-18.35v-26.4Z" fill="#fff"/><path d="M231.58,91.07h7.97l7.17,16.77,7.17-16.77h7.79v26.4h-6.29v-14.39c0-.62,.13-2.64,.18-2.82l-.97,2.82-5.94,14.39h-4.22l-5.94-14.39c-.26-.62-.88-2.51-.97-2.82,0,.18,.18,2.2,.18,2.82v14.39h-6.12v-26.4Z" fill="#fff"/><path d="M265.55,91.07h11.27c6.65,0,9.68,4,9.68,8.84s-3.04,8.85-9.68,8.85h-4.14v8.71h-7.13v-26.4Zm9.55,12.98c3.04,0,4.31-1.58,4.31-4.14s-1.28-4.14-4.31-4.14h-2.42v8.27h2.42Z" fill="#fff"/><path d="M294.63,96.44h-8.49v-5.37h24.12v5.37h-8.49v21.04h-7.13v-21.04Z" fill="#fff"/><path d="M319.18,106.92l-10.34-15.84h7.83l6.16,9.99,6.16-9.99h7.66l-10.34,15.84v10.56h-7.13v-10.56Z" fill="#fff"/><path d="M341.58,114.57l1.58-5.19c1.98,1.67,4.84,3.52,8.32,3.52,2.16,0,3.83-.84,3.83-2.68,0-1.72-1.14-2.42-4.93-3.3-6.03-1.41-8.1-4.62-8.1-8.54,0-4.8,3.79-7.92,9.68-7.92,3.48,0,6.6,1.23,8.67,2.68l-1.45,4.75c-1.98-1.23-4.75-2.29-7.3-2.29-1.89,0-3.08,.79-3.08,2.11,0,1.23,.79,1.98,3.78,2.68,6.6,1.54,9.29,4.31,9.29,9.07,0,6.2-5.02,8.54-10.38,8.54-4.53,0-7.83-1.72-9.9-3.43Z" fill="#fff"/><path d="M369.34,96.44h-8.49v-5.37h24.12v5.37h-8.49v21.04h-7.13v-21.04Z" fill="#fff"/><path d="M386.37,91.07h18.35v5.37h-11.22v4.45h9.02v5.32h-9.02v5.9h11.22v5.37h-18.35v-26.4Z" fill="#fff"/><path d="M414.88,107.31v10.17h-7.13v-26.4h12.01c6.42,0,9.2,3.87,9.2,8.14,0,3.56-2.02,6.38-5.15,7.39l7.7,10.87h-7.7l-7.04-10.17h-1.89Zm3.08-4.53c2.73,0,3.96-1.23,3.96-3.48s-1.23-3.52-3.96-3.52h-3.08v7h3.08Z" fill="#fff"/><path d="M432.13,91.07h7.13v26.4h-7.13v-26.4Z" fill="#fff"/><path d="M443.08,91.07h7.13v21.04h11.22v5.37h-18.35v-26.4Z" fill="#fff"/><path d="M462.88,91.07h18.35v5.37h-11.22v4.45h9.02v5.32h-9.02v5.9h11.22v5.37h-18.35v-26.4Z" fill="#fff"/><path d="M143.85,132.07h7.35l6.73,16.9,6.69-16.9h7.17l-11.09,26.4h-5.77l-11.09-26.4Z" fill="#fff"/><path d="M173.06,132.07h7.13v26.4h-7.13v-26.4Z" fill="#fff"/><path d="M192.56,132.07h6.03l11.09,26.4h-7.08l-2.24-5.63h-9.77l-2.2,5.63h-6.91l11.09-26.4Zm6.07,16.15l-3.17-8.32-3.17,8.32h6.34Z" fill="#fff"/><path d="M210.99,132.07h7.13v21.04h11.22v5.37h-18.35v-26.4Z" fill="#fff"/><path d="M229.56,155.57l1.58-5.19c1.98,1.67,4.84,3.52,8.32,3.52,2.16,0,3.83-.84,3.83-2.68,0-1.72-1.14-2.42-4.93-3.3-6.03-1.41-8.1-4.62-8.1-8.54,0-4.8,3.78-7.92,9.68-7.92,3.48,0,6.6,1.23,8.67,2.68l-1.45,4.75c-1.98-1.23-4.75-2.29-7.31-2.29-1.89,0-3.08,.79-3.08,2.11,0,1.23,.79,1.98,3.78,2.68,6.6,1.54,9.29,4.31,9.29,9.07,0,6.2-5.02,8.54-10.39,8.54-4.53,0-7.83-1.72-9.9-3.43Z" fill="#fff"/><path d="M258.2,145.5c0-7.48,3.61-13.29,9.15-17.87l1.72,1.28c-2.46,2.77-5.98,8.23-5.98,16.59s3.52,13.82,5.98,16.59l-1.67,1.28c-5.59-4.58-9.2-10.39-9.2-17.87Z" fill="#fff"/><path d="M269.51,155.57l1.58-5.19c1.98,1.67,4.84,3.52,8.32,3.52,2.16,0,3.83-.84,3.83-2.68,0-1.72-1.14-2.42-4.93-3.3-6.03-1.41-8.1-4.62-8.1-8.54,0-4.8,3.78-7.92,9.68-7.92,3.48,0,6.6,1.23,8.67,2.68l-1.45,4.75c-1.98-1.23-4.75-2.29-7.3-2.29-1.89,0-3.08,.79-3.08,2.11,0,1.23,.79,1.98,3.78,2.68,6.6,1.54,9.29,4.31,9.29,9.07,0,6.2-5.02,8.54-10.38,8.54-4.53,0-7.83-1.72-9.9-3.43Z" fill="#fff"/><path d="M290.85,150.82c0-4.88,3.92-7.92,8.23-7.92,3.96,0,7.3,2.33,7.3,6.25,0,.92-.13,2.02-.26,2.51h-8.93c.18,2.07,1.58,3.17,4.18,3.17,1.67,0,3.61-.66,4.71-1.45v3.87c-1.41,1.06-3.52,1.8-6.73,1.8-5.1,0-8.49-3.48-8.49-8.23Zm9.9-1.8s.04-.35,.04-.88c0-1.06-.7-1.72-1.63-1.72-.84,0-1.72,.53-1.94,2.6h3.52Z" fill="#fff"/><path d="M320.15,145.32l.35-1.85h5.81v15.01h-5.81l-.35-1.85c-1.1,1.8-3.48,2.42-5.19,2.42-4.05,0-6.95-3.26-6.95-8.05s2.9-8.1,6.95-8.1c1.72,0,4.09,.62,5.19,2.42Zm-5.72,5.68c0,2.16,1.28,3.3,2.82,3.3s2.82-1.14,2.82-3.3-1.28-3.34-2.82-3.34-2.82,1.19-2.82,3.34Z" fill="#fff"/><path d="M329.26,132.07h6.6v26.4h-6.6v-26.4Z" fill="#fff"/><path d="M337.97,150.82c0-4.88,3.92-7.92,8.23-7.92,3.96,0,7.3,2.33,7.3,6.25,0,.92-.13,2.02-.26,2.51h-8.93c.18,2.07,1.58,3.17,4.18,3.17,1.67,0,3.61-.66,4.71-1.45v3.87c-1.41,1.06-3.52,1.8-6.73,1.8-5.1,0-8.49-3.48-8.49-8.23Zm9.9-1.8s.04-.35,.04-.88c0-1.06-.7-1.72-1.63-1.72-.84,0-1.72,.53-1.94,2.6h3.52Z" fill="#fff"/><path d="M355.13,150.95c0-4.8,2.9-8.05,6.95-8.05,1.72,0,3.65,.53,4.93,2.02v-12.85h6.42v26.4h-5.81l-.35-1.85c-1.1,1.8-3.48,2.42-5.19,2.42-4.05,0-6.95-3.26-6.95-8.1Zm12.06,0c0-2.16-1.28-3.3-2.82-3.3s-2.82,1.14-2.82,3.3,1.28,3.34,2.82,3.34,2.82-1.19,2.82-3.34Z" fill="#fff"/><path d="M375.24,162.09c2.46-2.77,6.03-8.23,6.03-16.59s-3.56-13.82-6.03-16.59l1.76-1.28c5.54,4.58,9.15,10.39,9.15,17.87s-3.61,13.29-9.2,17.87l-1.72-1.28Z" fill="#fff"/></g></svg>