<?xml version="1.0" encoding="UTF-8"?><svg id="a" xmlns="http://www.w3.org/2000/svg" viewBox="0 0 591.1 178.47"><polygon points="501.38 178.47 6.17 178.47 6.22 7.92 591.1 8.09 501.38 178.47" fill="#4c4d4f"/><polygon points="493.75 169.43 0 168.88 .05 0 584.25 .39 493.75 169.43" fill="#006bb6"/><g><path d="M21.81,41.82l1.84-6.02c2.29,1.94,5.61,4.08,9.64,4.08,2.5,0,4.44-.97,4.44-3.11,0-1.99-1.33-2.8-5.71-3.82-6.99-1.63-9.38-5.35-9.38-9.89,0-5.56,4.39-9.18,11.22-9.18,4.03,0,7.65,1.43,10.05,3.11l-1.68,5.51c-2.29-1.43-5.51-2.65-8.47-2.65-2.19,0-3.57,.92-3.57,2.45,0,1.43,.92,2.29,4.39,3.11,7.65,1.79,10.76,5,10.76,10.5,0,7.19-5.81,9.89-12.04,9.89-5.25,0-9.08-1.99-11.47-3.98Z" fill="#fff"/><path d="M58.38,14.59h6.99l12.85,30.6h-8.21l-2.6-6.53h-11.32l-2.55,6.53h-8.01l12.85-30.6Zm7.04,18.72l-3.67-9.64-3.67,9.64h7.34Z" fill="#fff"/><path d="M73.73,14.59h8.52l7.8,19.58,7.75-19.58h8.31l-12.85,30.6h-6.68l-12.85-30.6Z" fill="#fff"/><path d="M108.92,14.59h21.26v6.22h-13v5.15h10.45v6.17h-10.45v6.83h13v6.22h-21.26V14.59Z" fill="#fff"/></g><g><path d="M145.76,68.5l14.24-14.85c5.76-6.06,10.91-11.51,10.91-18.48,0-6.16-4.54-8.38-8.58-8.38-4.65,0-9.59,1.92-15.05,6.46v-12.93c3.74-3.03,12.32-6.26,18.89-6.26,11.82,0,21.31,7.07,21.31,18.58,0,10.5-6.46,17.57-12.52,22.93l-9.7,8.58h23.53v12.32h-43.02v-7.98Z" fill="#fff"/><path d="M196.87,71.73v-12.42c4.75,4.54,10.81,7.37,16.87,7.37,6.67,0,10.81-3.74,10.81-9.59,0-5.55-3.74-8.48-9.49-8.48-4.44,0-7.37,1.52-9.29,4.85l-6.77-2.83V15.88h38.99v12.32h-26.46v11.21c1.62-1.11,4.54-2.32,9.09-2.32,11.92,0,19.8,7.68,19.8,19.59,0,13.74-10.81,21.51-23.84,21.51-8.18,0-15.55-2.73-19.69-6.46Z" fill="#fff"/><path d="M247.97,29.41c0-8.28,5.96-15.05,14.85-15.05s14.85,6.77,14.85,15.05-5.96,15.15-14.85,15.15-14.85-6.77-14.85-15.15Zm20,0c0-5.76-1.92-7.88-5.15-7.88s-5.15,2.12-5.15,7.88,1.92,7.98,5.15,7.98,5.15-2.12,5.15-7.98Zm-10.1,46.66l38.78-62.01,4.34,2.22-38.78,62.01-4.34-2.22Zm23.23-13.53c0-8.28,5.96-15.05,14.85-15.05s14.85,6.77,14.85,15.05-5.96,15.15-14.85,15.15-14.85-6.77-14.85-15.15Zm20,0c0-5.76-1.92-7.88-5.15-7.88s-5.15,2.12-5.15,7.88,1.92,7.98,5.15,7.98,5.15-2.12,5.15-7.98Z" fill="#fff"/><path d="M146.14,93.48h6.48v8.6h9.48v-8.6h6.48v24h-6.48v-9.92h-9.48v9.92h-6.48v-24Z" fill="#fff"/><path d="M178.9,107.88l-9.4-14.4h7.12l5.6,9.08,5.6-9.08h6.96l-9.4,14.4v9.6h-6.48v-9.6Z" fill="#fff"/><path d="M195.7,93.48h9.36c9.88,0,13.92,5.4,13.92,12s-4.04,12-13.92,12h-9.36v-24Zm8.84,19c5.4,0,7.84-2.2,7.84-7s-2.44-7-7.84-7h-2.36v14h2.36Z" fill="#fff"/><path d="M227.78,108.24v9.24h-6.48v-24h10.92c5.84,0,8.36,3.52,8.36,7.4,0,3.24-1.84,5.8-4.68,6.72l7,9.88h-7l-6.4-9.24h-1.72Zm2.8-4.12c2.48,0,3.6-1.12,3.6-3.16s-1.12-3.2-3.6-3.2h-2.8v6.36h2.8Z" fill="#fff"/><path d="M242.3,105.48c0-7.36,5.96-12.68,13.32-12.68s13.24,5.32,13.24,12.68-5.92,12.68-13.24,12.68-13.32-5.32-13.32-12.68Zm19.68,0c0-4.6-2.36-7.6-6.36-7.6s-6.44,3-6.44,7.6,2.4,7.6,6.44,7.6,6.36-3,6.36-7.6Z" fill="#fff"/><path d="M270.06,105.48c0-7.76,6.24-12.52,13.32-12.52,3.32,0,6.72,.88,8.72,2.4v5.52c-2.04-1.6-4.36-2.8-7.76-2.8-4.44,0-7.48,2.72-7.48,7.8s2.88,7.64,6.96,7.64c1.32,0,2.28-.24,3.2-.64v-3.96h-3.56v-4.48h9.64v11.48c-1.4,.6-5.36,2.24-10.28,2.24-6.92,0-12.76-4.92-12.76-12.68Z" fill="#fff"/><path d="M296.58,93.48h16.68v4.88h-10.2v4.04h8.2v4.84h-8.2v5.36h10.2v4.88h-16.68v-24Z" fill="#fff"/><path d="M316.02,93.48h4.92l10.88,13.8v-13.8h5.72v24h-4.92l-10.88-13.8v13.8h-5.72v-24Z" fill="#fff"/><path d="M346.26,93.48h10.24c6.04,0,8.8,3.64,8.8,8.04s-2.76,8.04-8.8,8.04h-3.76v7.92h-6.48v-24Zm8.68,11.8c2.76,0,3.92-1.44,3.92-3.76s-1.16-3.76-3.92-3.76h-2.2v7.52h2.2Z" fill="#fff"/><path d="M366.7,93.48h16.68v4.88h-10.2v4.04h8.2v4.84h-8.2v5.36h10.2v4.88h-16.68v-24Z" fill="#fff"/><path d="M392.61,108.24v9.24h-6.48v-24h10.92c5.84,0,8.36,3.52,8.36,7.4,0,3.24-1.84,5.8-4.68,6.72l7,9.88h-7l-6.4-9.24h-1.72Zm2.8-4.12c2.48,0,3.6-1.12,3.6-3.16s-1.12-3.2-3.6-3.2h-2.8v6.36h2.8Z" fill="#fff"/><path d="M407.13,105.48c0-7.36,5.96-12.68,13.32-12.68s13.24,5.32,13.24,12.68-5.92,12.68-13.24,12.68-13.32-5.32-13.32-12.68Zm19.68,0c0-4.6-2.36-7.6-6.36-7.6s-6.44,3-6.44,7.6,2.4,7.6,6.44,7.6,6.36-3,6.36-7.6Z" fill="#fff"/><path d="M440.49,105.2l-8.16-11.72h7.36l4.96,7.6,5.04-7.6h7.2l-8.16,11.68,8.64,12.32h-7.36l-5.44-8.24-5.52,8.24h-7.2l8.64-12.28Z" fill="#fff"/><path d="M458.05,93.48h6.48v24h-6.48v-24Z" fill="#fff"/><path d="M468.01,93.48h9.36c9.88,0,13.92,5.4,13.92,12s-4.04,12-13.92,12h-9.36v-24Zm8.84,19c5.4,0,7.84-2.2,7.84-7s-2.44-7-7.84-7h-2.36v14h2.36Z" fill="#fff"/><path d="M493.61,93.48h16.68v4.88h-10.2v4.04h8.2v4.84h-8.2v5.36h10.2v4.88h-16.68v-24Z" fill="#fff"/><path d="M153.9,134.48h5.48l10.08,24h-6.44l-2.04-5.12h-8.88l-2,5.12h-6.28l10.08-24Zm5.52,14.68l-2.88-7.56-2.88,7.56h5.76Z" fill="#fff"/><path d="M170.66,134.48h4.92l10.88,13.8v-13.8h5.72v24h-4.92l-10.88-13.8v13.8h-5.72v-24Z" fill="#fff"/><path d="M195.7,134.48h9.36c9.88,0,13.92,5.4,13.92,12s-4.04,12-13.92,12h-9.36v-24Zm8.84,19c5.4,0,7.84-2.2,7.84-7s-2.44-7-7.84-7h-2.36v14h2.36Z" fill="#fff"/><path d="M226.5,134.48h6.48v24h-6.48v-24Z" fill="#fff"/><path d="M236.46,134.48h10.24c6.04,0,8.8,3.64,8.8,8.04s-2.76,8.04-8.8,8.04h-3.76v7.92h-6.48v-24Zm8.68,11.8c2.76,0,3.92-1.44,3.92-3.76s-1.16-3.76-3.92-3.76h-2.2v7.52h2.2Z" fill="#fff"/><path d="M262.54,134.48h5.48l10.08,24h-6.44l-2.04-5.12h-8.88l-2,5.12h-6.28l10.08-24Zm5.52,14.68l-2.88-7.56-2.88,7.56h5.76Z" fill="#fff"/><path d="M282.18,134.48h6.36l3.92,12.44c.2,.68,.64,3,.64,3,0,0,.56-2.28,.76-3l3.64-12.44h4.92l3.68,12.44c.2,.72,.72,3,.72,3,0,0,.4-2.28,.64-3l3.92-12.44h6.2l-8.16,24h-5.04l-3.92-12.28c-.24-.72-.56-2.24-.56-2.36-.04,.16-.4,1.68-.6,2.36l-3.88,12.28h-5.08l-8.16-24Z" fill="#fff"/><path d="M318.74,134.48h6.48v24h-6.48v-24Z" fill="#fff"/><path d="M328.7,134.48h10.24c6.04,0,8.8,3.64,8.8,8.04s-2.76,8.04-8.8,8.04h-3.76v7.92h-6.48v-24Zm8.68,11.8c2.76,0,3.92-1.44,3.92-3.76s-1.16-3.76-3.92-3.76h-2.2v7.52h2.2Z" fill="#fff"/><path d="M349.13,134.48h16.68v4.88h-10.2v4.04h8.2v4.84h-8.2v5.36h10.2v4.88h-16.68v-24Z" fill="#fff"/><path d="M366.93,155.84l1.44-4.72c1.8,1.52,4.4,3.2,7.56,3.2,1.96,0,3.48-.76,3.48-2.44,0-1.56-1.04-2.2-4.48-3-5.48-1.28-7.36-4.2-7.36-7.76,0-4.36,3.44-7.2,8.8-7.2,3.16,0,6,1.12,7.88,2.44l-1.32,4.32c-1.8-1.12-4.32-2.08-6.64-2.08-1.72,0-2.8,.72-2.8,1.92,0,1.12,.72,1.8,3.44,2.44,6,1.4,8.44,3.92,8.44,8.24,0,5.64-4.56,7.76-9.44,7.76-4.12,0-7.12-1.56-9-3.12Z" fill="#fff"/></g></svg>