<?xml version="1.0" encoding="UTF-8"?><svg id="a" xmlns="http://www.w3.org/2000/svg" viewBox="0 0 856.12 162"><polygon points="18.82 162 782.63 161.85 856.12 15.97 17.75 15.75 18.82 162" fill="#4c4d4f"/><polygon points=".11 145.75 766.6 145.19 840.38 .22 0 0 .11 145.75" fill="#136ab4"/><g><path d="M476.52,41.65c0-9.2,7.45-15.85,16.65-15.85s16.55,6.65,16.55,15.85-7.4,15.85-16.55,15.85-16.65-6.65-16.65-15.85Zm24.6,0c0-5.75-2.95-9.5-7.95-9.5s-8.05,3.75-8.05,9.5,3,9.5,8.05,9.5,7.95-3.75,7.95-9.5Z" fill="#fff"/><path d="M514.42,26.65h6.15l13.6,17.25V26.65h7.15v30h-6.15l-13.6-17.25v17.25h-7.15V26.65Z" fill="#fff"/><path d="M554.27,41.65c0-9.7,7.5-15.65,16.15-15.65,4.1,0,8.05,1.1,10.55,3v6.9c-2.4-2.05-5.6-3.5-9.2-3.5-5.05,0-8.9,3.25-8.9,9.25s3.85,9.25,8.9,9.25c3.6,0,6.8-1.45,9.2-3.5v6.9c-2.5,1.9-6.45,3-10.55,3-8.65,0-16.15-5.95-16.15-15.65Z" fill="#fff"/><path d="M585.87,26.65h8.1v23.9h12.75v6.1h-20.85V26.65Z" fill="#fff"/><path d="M610.12,26.65h20.85v6.1h-12.75v5.05h10.25v6.05h-10.25v6.7h12.75v6.1h-20.85V26.65Z" fill="#fff"/><path d="M645.87,26.65h6.85l12.6,30h-8.05l-2.55-6.4h-11.1l-2.5,6.4h-7.85l12.6-30Zm6.9,18.35l-3.6-9.45-3.6,9.45h7.2Z" fill="#fff"/><path d="M668.57,26.65h6.15l13.6,17.25V26.65h7.15v30h-6.15l-13.6-17.25v17.25h-7.15V26.65Z" fill="#fff"/><path d="M701.62,26.65h8.1v30h-8.1V26.65Z" fill="#fff"/><path d="M715.82,26.65h6.15l13.6,17.25V26.65h7.15v30h-6.15l-13.6-17.25v17.25h-7.15V26.65Z" fill="#fff"/><path d="M747.42,41.65c0-9.7,7.8-15.65,16.65-15.65,4.15,0,8.4,1.1,10.9,3v6.9c-2.55-2-5.45-3.5-9.7-3.5-5.55,0-9.35,3.4-9.35,9.75s3.6,9.55,8.7,9.55c1.65,0,2.85-.3,4-.8v-4.95h-4.45v-5.6h12.05v14.35c-1.75,.75-6.7,2.8-12.85,2.8-8.65,0-15.95-6.15-15.95-15.85Z" fill="#fff"/><path d="M475.95,113.29l1.84-6.02c2.29,1.94,5.61,4.08,9.64,4.08,2.5,0,4.44-.97,4.44-3.11,0-1.99-1.33-2.8-5.71-3.82-6.99-1.63-9.38-5.35-9.38-9.89,0-5.56,4.38-9.18,11.22-9.18,4.03,0,7.65,1.43,10.05,3.11l-1.68,5.51c-2.29-1.43-5.51-2.65-8.46-2.65-2.19,0-3.57,.92-3.57,2.45,0,1.43,.92,2.29,4.39,3.11,7.65,1.79,10.76,5,10.76,10.5,0,7.19-5.81,9.89-12.03,9.89-5.25,0-9.08-1.99-11.47-3.98Z" fill="#fff"/><path d="M502.47,101.35c0-9.38,7.6-16.17,16.98-16.17s16.88,6.78,16.88,16.17-7.55,16.17-16.88,16.17-16.98-6.78-16.98-16.17Zm25.09,0c0-5.87-3.01-9.69-8.11-9.69s-8.21,3.82-8.21,9.69,3.06,9.69,8.21,9.69,8.11-3.82,8.11-9.69Z" fill="#fff"/><path d="M541.12,86.06h8.26v24.38h13v6.22h-21.26v-30.6Z" fill="#fff"/><path d="M564.33,102.53v-16.47h8.36v16.01c0,5.41,2.14,8.31,6.53,8.31s6.58-2.91,6.58-8.31v-16.01h8.11v16.47c0,10.35-6.53,14.99-14.79,14.99s-14.79-4.64-14.79-14.99Z" fill="#fff"/><path d="M607.17,92.28h-9.84v-6.22h27.95v6.22h-9.84v24.38h-8.26v-24.38Z" fill="#fff"/><path d="M628.69,86.06h8.26v30.6h-8.26v-30.6Z" fill="#fff"/><path d="M641.7,101.35c0-9.38,7.6-16.17,16.98-16.17s16.88,6.78,16.88,16.17-7.55,16.17-16.88,16.17-16.98-6.78-16.98-16.17Zm25.09,0c0-5.87-3.01-9.69-8.11-9.69s-8.21,3.82-8.21,9.69,3.06,9.69,8.21,9.69,8.11-3.82,8.11-9.69Z" fill="#fff"/><path d="M680.35,86.06h6.27l13.87,17.59v-17.59h7.29v30.6h-6.27l-13.87-17.59v17.59h-7.29v-30.6Z" fill="#fff"/><path d="M711.97,113.29l1.84-6.02c2.29,1.94,5.61,4.08,9.64,4.08,2.5,0,4.44-.97,4.44-3.11,0-1.99-1.33-2.8-5.71-3.82-6.99-1.63-9.38-5.35-9.38-9.89,0-5.56,4.38-9.18,11.22-9.18,4.03,0,7.65,1.43,10.05,3.11l-1.68,5.51c-2.29-1.43-5.51-2.65-8.46-2.65-2.19,0-3.57,.92-3.57,2.45,0,1.43,.92,2.29,4.39,3.11,7.65,1.79,10.76,5,10.76,10.5,0,7.19-5.81,9.89-12.03,9.89-5.25,0-9.08-1.99-11.47-3.98Z" fill="#fff"/></g><g><path d="M56.29,54.17l1.84-6.02c2.29,1.94,5.61,4.08,9.64,4.08,2.5,0,4.44-.97,4.44-3.11,0-1.99-1.33-2.8-5.71-3.82-6.99-1.63-9.38-5.35-9.38-9.89,0-5.56,4.39-9.18,11.22-9.18,4.03,0,7.65,1.43,10.05,3.11l-1.68,5.51c-2.29-1.43-5.51-2.65-8.47-2.65-2.19,0-3.57,.92-3.57,2.45,0,1.43,.92,2.29,4.39,3.11,7.65,1.79,10.76,5,10.76,10.5,0,7.19-5.81,9.89-12.03,9.89-5.25,0-9.08-1.99-11.47-3.98Z" fill="#fff"/><path d="M92.86,26.94h6.99l12.85,30.6h-8.21l-2.6-6.53h-11.32l-2.55,6.53h-8.01l12.85-30.6Zm7.04,18.71l-3.67-9.64-3.67,9.64h7.34Z" fill="#fff"/><path d="M108.21,26.94h8.52l7.8,19.58,7.75-19.58h8.31l-12.85,30.6h-6.68l-12.85-30.6Z" fill="#fff"/><path d="M143.4,26.94h21.27v6.22h-13v5.15h10.45v6.17h-10.45v6.83h13v6.22h-21.27V26.94Z" fill="#fff"/><path d="M35.33,104.61v-16.47h8.36v16.01c0,5.41,2.14,8.31,6.53,8.31s6.58-2.91,6.58-8.31v-16.01h8.11v16.47c0,10.35-6.53,14.99-14.79,14.99s-14.79-4.64-14.79-14.99Z" fill="#fff"/><path d="M70.72,88.14h13.05c7.7,0,11.22,4.64,11.22,10.25s-3.52,10.25-11.22,10.25h-4.79v10.1h-8.26v-30.6Zm11.07,15.04c3.52,0,5-1.84,5-4.79s-1.48-4.79-5-4.79h-2.8v9.59h2.8Z" fill="#fff"/><path d="M113.05,94.36h-9.84v-6.22h27.95v6.22h-9.84v24.38h-8.26v-24.38Z" fill="#fff"/><path d="M131.31,103.44c0-9.38,7.6-16.17,16.98-16.17s16.88,6.78,16.88,16.17-7.55,16.17-16.88,16.17-16.98-6.78-16.98-16.17Zm25.09,0c0-5.86-3.01-9.69-8.11-9.69s-8.21,3.82-8.21,9.69,3.06,9.69,8.21,9.69,8.11-3.82,8.11-9.69Z" fill="#fff"/></g><g><path d="M187.36,108.83v-18.33c7,6.71,15.94,10.88,24.88,10.88,9.83,0,15.94-5.51,15.94-14.16,0-8.2-5.51-12.52-14.01-12.52-6.56,0-10.88,2.23-13.71,7.15l-9.98-4.17V26.43h57.51v18.18h-39.04v16.54c2.38-1.64,6.71-3.43,13.41-3.43,17.58,0,29.2,11.32,29.2,28.91,0,20.27-15.94,31.74-35.16,31.74-12.07,0-22.95-4.02-29.06-9.54Z" fill="#fff"/><path d="M263.65,70.84c0-29.8,16.69-47.38,39.19-47.38s39.19,17.58,39.19,47.38-16.84,47.53-39.19,47.53-39.19-17.58-39.19-47.53Zm54.09,0c0-21.01-5.21-29.35-14.9-29.35s-14.9,8.34-14.9,29.35,5.22,29.5,14.9,29.5,14.9-8.34,14.9-29.5Z" fill="#fff"/><path d="M353.94,46.4c0-12.22,8.79-22.2,21.9-22.2s21.9,9.98,21.9,22.2-8.79,22.35-21.9,22.35-21.9-9.98-21.9-22.35Zm29.5,0c0-8.49-2.83-11.62-7.6-11.62s-7.6,3.13-7.6,11.62,2.83,11.77,7.6,11.77,7.6-3.13,7.6-11.77Zm-14.9,68.84l57.22-91.49,6.41,3.28-57.22,91.49-6.41-3.28Zm34.27-19.97c0-12.22,8.79-22.2,21.9-22.2s21.9,9.98,21.9,22.2-8.79,22.35-21.9,22.35-21.9-9.98-21.9-22.35Zm29.5,0c0-8.49-2.83-11.62-7.6-11.62s-7.6,3.13-7.6,11.62,2.83,11.77,7.6,11.77,7.6-3.13,7.6-11.77Z" fill="#fff"/></g></svg>