<?xml version="1.0" encoding="UTF-8"?><svg id="a" xmlns="http://www.w3.org/2000/svg" viewBox="0 0 591.1 178.47"><polygon points="501.38 178.47 6.17 178.47 6.22 7.92 591.1 8.09 501.38 178.47" fill="#4c4d4f"/><polygon points="493.75 169.43 0 168.88 .05 0 584.25 .39 493.75 169.43" fill="#006bb6"/><g><path d="M21.81,41.82l1.84-6.02c2.29,1.94,5.61,4.08,9.64,4.08,2.5,0,4.44-.97,4.44-3.11,0-1.99-1.33-2.8-5.71-3.82-6.99-1.63-9.38-5.35-9.38-9.89,0-5.56,4.39-9.18,11.22-9.18,4.03,0,7.65,1.43,10.05,3.11l-1.68,5.51c-2.29-1.43-5.51-2.65-8.47-2.65-2.19,0-3.57,.92-3.57,2.45,0,1.43,.92,2.29,4.39,3.11,7.65,1.79,10.76,5,10.76,10.5,0,7.19-5.81,9.89-12.04,9.89-5.25,0-9.08-1.99-11.47-3.98Z" fill="#fff"/><path d="M58.38,14.59h6.99l12.85,30.6h-8.21l-2.6-6.53h-11.32l-2.55,6.53h-8.01l12.85-30.6Zm7.04,18.72l-3.67-9.64-3.67,9.64h7.34Z" fill="#fff"/><path d="M73.73,14.59h8.52l7.8,19.58,7.75-19.58h8.31l-12.85,30.6h-6.68l-12.85-30.6Z" fill="#fff"/><path d="M108.92,14.59h21.26v6.22h-13v5.15h10.45v6.17h-10.45v6.83h13v6.22h-21.26V14.59Z" fill="#fff"/></g><g><path d="M145.76,68.5l14.24-14.85c5.76-6.06,10.91-11.51,10.91-18.48,0-6.16-4.54-8.38-8.58-8.38-4.65,0-9.59,1.92-15.05,6.46v-12.93c3.74-3.03,12.32-6.26,18.89-6.26,11.82,0,21.31,7.07,21.31,18.58,0,10.5-6.46,17.57-12.52,22.93l-9.7,8.58h23.53v12.32h-43.02v-7.98Z" fill="#fff"/><path d="M191.82,45.98c0-20.2,11.31-32.12,26.56-32.12s26.56,11.92,26.56,32.12-11.41,32.22-26.56,32.22-26.56-11.92-26.56-32.22Zm36.66,0c0-14.24-3.54-19.9-10.1-19.9s-10.1,5.66-10.1,19.9,3.53,20,10.1,20,10.1-5.66,10.1-20Z" fill="#fff"/><path d="M247.77,29.41c0-8.28,5.96-15.05,14.85-15.05s14.85,6.77,14.85,15.05-5.96,15.15-14.85,15.15-14.85-6.77-14.85-15.15Zm20,0c0-5.76-1.92-7.88-5.15-7.88s-5.15,2.12-5.15,7.88,1.92,7.98,5.15,7.98,5.15-2.12,5.15-7.98Zm-10.1,46.66l38.78-62.01,4.34,2.22-38.78,62.01-4.34-2.22Zm23.23-13.53c0-8.28,5.96-15.05,14.85-15.05s14.85,6.77,14.85,15.05-5.96,15.15-14.85,15.15-14.85-6.77-14.85-15.15Zm20,0c0-5.76-1.92-7.88-5.15-7.88s-5.15,2.12-5.15,7.88,1.92,7.98,5.15,7.98,5.15-2.12,5.15-7.98Z" fill="#fff"/><path d="M152.43,96.44h-8.49v-5.37h24.12v5.37h-8.49v21.04h-7.13v-21.04Z" fill="#fff"/><path d="M169.32,91.07h7.13v9.46h10.43v-9.46h7.13v26.4h-7.13v-10.91h-10.43v10.91h-7.13v-26.4Z" fill="#fff"/><path d="M197.7,91.07h18.35v5.37h-11.22v4.45h9.02v5.32h-9.02v5.9h11.22v5.37h-18.35v-26.4Z" fill="#fff"/><path d="M226.08,107.31v10.17h-7.13v-26.4h12.01c6.43,0,9.2,3.87,9.2,8.14,0,3.56-2.02,6.38-5.15,7.39l7.7,10.87h-7.7l-7.04-10.17h-1.89Zm3.08-4.53c2.73,0,3.96-1.23,3.96-3.48s-1.23-3.52-3.96-3.52h-3.08v7h3.08Z" fill="#fff"/><path d="M243.2,91.07h7.97l7.17,16.77,7.17-16.77h7.79v26.4h-6.29v-14.39c0-.62,.13-2.64,.18-2.82l-.97,2.82-5.94,14.39h-4.22l-5.94-14.39c-.26-.62-.88-2.51-.97-2.82,0,.18,.18,2.2,.18,2.82v14.39h-6.12v-26.4Z" fill="#fff"/><path d="M275.76,104.28c0-8.1,6.56-13.95,14.65-13.95s14.57,5.85,14.57,13.95-6.51,13.95-14.57,13.95-14.65-5.85-14.65-13.95Zm21.65,0c0-5.06-2.6-8.36-7-8.36s-7.08,3.3-7.08,8.36,2.64,8.36,7.08,8.36,7-3.3,7-8.36Z" fill="#fff"/><path d="M311.22,114.57l1.58-5.19c1.98,1.67,4.84,3.52,8.32,3.52,2.16,0,3.83-.84,3.83-2.68,0-1.72-1.14-2.42-4.93-3.3-6.03-1.41-8.1-4.62-8.1-8.54,0-4.8,3.78-7.92,9.68-7.92,3.48,0,6.6,1.23,8.67,2.68l-1.45,4.75c-1.98-1.23-4.75-2.29-7.31-2.29-1.89,0-3.08,.79-3.08,2.11,0,1.23,.79,1.98,3.78,2.68,6.6,1.54,9.29,4.31,9.29,9.07,0,6.2-5.02,8.54-10.38,8.54-4.53,0-7.83-1.72-9.9-3.43Z" fill="#fff"/><path d="M332.43,104.28c0-8.54,6.6-13.77,14.21-13.77,3.61,0,7.09,.97,9.29,2.64v6.07c-2.11-1.8-4.93-3.08-8.1-3.08-4.44,0-7.83,2.86-7.83,8.14s3.39,8.14,7.83,8.14c3.17,0,5.99-1.28,8.1-3.08v6.07c-2.2,1.67-5.68,2.64-9.29,2.64-7.61,0-14.21-5.24-14.21-13.77Z" fill="#fff"/><path d="M358.57,91.07h7.13v26.4h-7.13v-26.4Z" fill="#fff"/><path d="M369.39,91.07h18.35v5.37h-11.22v4.45h9.02v5.32h-9.02v5.9h11.22v5.37h-18.35v-26.4Z" fill="#fff"/><path d="M390.64,91.07h5.41l11.97,15.18v-15.18h6.29v26.4h-5.41l-11.97-15.18v15.18h-6.29v-26.4Z" fill="#fff"/><path d="M424.08,96.44h-8.49v-5.37h24.12v5.37h-8.49v21.04h-7.13v-21.04Z" fill="#fff"/><path d="M440.98,91.07h7.13v26.4h-7.13v-26.4Z" fill="#fff"/><path d="M451.8,91.07h17.78v5.37h-10.65v4.75h8.45v5.33h-8.45v10.96h-7.13v-26.4Z" fill="#fff"/><path d="M470.85,91.07h7.13v26.4h-7.13v-26.4Z" fill="#fff"/><path d="M480.4,104.28c0-8.54,6.6-13.77,14.21-13.77,3.61,0,7.09,.97,9.29,2.64v6.07c-2.11-1.8-4.93-3.08-8.1-3.08-4.44,0-7.83,2.86-7.83,8.14s3.39,8.14,7.83,8.14c3.17,0,5.99-1.28,8.1-3.08v6.07c-2.2,1.67-5.68,2.64-9.29,2.64-7.61,0-14.21-5.24-14.21-13.77Z" fill="#fff"/><path d="M146.4,132.07h7.13v26.4h-7.13v-26.4Z" fill="#fff"/><path d="M158.15,132.07h5.41l11.97,15.18v-15.18h6.29v26.4h-5.41l-11.97-15.18v15.18h-6.29v-26.4Z" fill="#fff"/><path d="M185.21,145.28c0-8.54,6.6-13.77,14.21-13.77,3.61,0,7.08,.97,9.29,2.64v6.07c-2.11-1.8-4.93-3.08-8.1-3.08-4.44,0-7.83,2.86-7.83,8.14s3.39,8.14,7.83,8.14c3.17,0,5.98-1.28,8.1-3.08v6.07c-2.2,1.67-5.68,2.64-9.29,2.64-7.61,0-14.21-5.24-14.21-13.77Z" fill="#fff"/><path d="M212.27,146.29v-14.21h7.22v13.82c0,4.67,1.85,7.17,5.63,7.17s5.68-2.51,5.68-7.17v-13.82h7v14.21c0,8.93-5.63,12.94-12.76,12.94s-12.76-4-12.76-12.94Z" fill="#fff"/><path d="M242.45,132.07h11.71c5.98,0,8.27,3.12,8.27,6.91,0,2.02-1.32,4.18-2.86,5.19,2.68,1.14,4.27,3.78,4.27,6.56,0,4.27-2.6,7.75-9.24,7.75h-12.15v-26.4Zm9.99,10.3c2.11,0,3.21-1.01,3.21-2.86s-1.1-2.9-3.21-2.9h-2.86v5.76h2.86Zm.35,11.57c2.77,0,4.14-1.19,4.14-3.52s-1.36-3.52-4.14-3.52h-3.21v7.04h3.21Z" fill="#fff"/><path d="M275.45,132.07h6.03l11.09,26.4h-7.08l-2.24-5.63h-9.77l-2.2,5.63h-6.91l11.09-26.4Zm6.07,16.15l-3.17-8.32-3.17,8.32h6.34Z" fill="#fff"/><path d="M297.5,137.44h-8.49v-5.37h24.12v5.37h-8.49v21.04h-7.13v-21.04Z" fill="#fff"/><path d="M312.89,145.28c0-8.1,6.56-13.95,14.65-13.95s14.57,5.85,14.57,13.95-6.51,13.95-14.57,13.95-14.65-5.85-14.65-13.95Zm21.65,0c0-5.06-2.6-8.36-7-8.36s-7.08,3.3-7.08,8.36,2.64,8.36,7.08,8.36,7-3.3,7-8.36Z" fill="#fff"/><path d="M352.63,148.31v10.17h-7.13v-26.4h12.01c6.42,0,9.2,3.87,9.2,8.14,0,3.56-2.02,6.38-5.15,7.39l7.7,10.87h-7.7l-7.04-10.17h-1.89Zm3.08-4.53c2.73,0,3.96-1.23,3.96-3.48s-1.23-3.52-3.96-3.52h-3.08v7h3.08Z" fill="#fff"/><path d="M368.86,155.57l1.58-5.19c1.98,1.67,4.84,3.52,8.32,3.52,2.16,0,3.83-.84,3.83-2.68,0-1.72-1.14-2.42-4.93-3.3-6.03-1.41-8.1-4.62-8.1-8.54,0-4.8,3.79-7.92,9.68-7.92,3.48,0,6.6,1.23,8.67,2.68l-1.45,4.75c-1.98-1.23-4.75-2.29-7.3-2.29-1.89,0-3.08,.79-3.08,2.11,0,1.23,.79,1.98,3.78,2.68,6.6,1.54,9.29,4.31,9.29,9.07,0,6.2-5.02,8.54-10.38,8.54-4.53,0-7.83-1.72-9.9-3.43Z" fill="#fff"/></g><g><path d="M320.18,61.7c0-6.44,5.21-11.1,11.66-11.1s11.59,4.66,11.59,11.1-5.18,11.1-11.59,11.1-11.66-4.66-11.66-11.1Zm17.22,0c0-4.03-2.06-6.65-5.56-6.65s-5.64,2.62-5.64,6.65,2.1,6.65,5.64,6.65,5.56-2.62,5.56-6.65Z" fill="#fff"/><path d="M346.11,51.2h4.31l9.52,12.08v-12.08h5.01v21h-4.31l-9.52-12.08v12.08h-5v-21Z" fill="#fff"/></g></svg>