<?xml version="1.0" encoding="UTF-8"?><svg id="a" xmlns="http://www.w3.org/2000/svg" viewBox="0 0 591.1 178.47"><polygon points="501.38 178.47 6.17 178.47 6.22 7.92 591.1 8.09 501.38 178.47" fill="#4c4d4f"/><polygon points="493.75 169.43 0 168.88 .05 0 584.25 .39 493.75 169.43" fill="#006bb6"/><g><path d="M21.81,41.82l1.84-6.02c2.29,1.94,5.61,4.08,9.64,4.08,2.5,0,4.44-.97,4.44-3.11,0-1.99-1.33-2.8-5.71-3.82-6.99-1.63-9.38-5.35-9.38-9.89,0-5.56,4.39-9.18,11.22-9.18,4.03,0,7.65,1.43,10.05,3.11l-1.68,5.51c-2.29-1.43-5.51-2.65-8.47-2.65-2.19,0-3.57,.92-3.57,2.45,0,1.43,.92,2.29,4.39,3.11,7.65,1.79,10.76,5,10.76,10.5,0,7.19-5.81,9.89-12.04,9.89-5.25,0-9.08-1.99-11.47-3.98Z" fill="#fff"/><path d="M58.38,14.59h6.99l12.85,30.6h-8.21l-2.6-6.53h-11.32l-2.55,6.53h-8.01l12.85-30.6Zm7.04,18.72l-3.67-9.64-3.67,9.64h7.34Z" fill="#fff"/><path d="M73.73,14.59h8.52l7.8,19.58,7.75-19.58h8.31l-12.85,30.6h-6.68l-12.85-30.6Z" fill="#fff"/><path d="M108.92,14.59h21.26v6.22h-13v5.15h10.45v6.17h-10.45v6.83h13v6.22h-21.26V14.59Z" fill="#fff"/></g><g><path d="M145.76,68.5l14.24-14.85c5.76-6.06,10.91-11.51,10.91-18.48,0-6.16-4.54-8.38-8.58-8.38-4.65,0-9.59,1.92-15.05,6.46v-12.93c3.74-3.03,12.32-6.26,18.89-6.26,11.82,0,21.31,7.07,21.31,18.58,0,10.5-6.46,17.57-12.52,22.93l-9.7,8.58h23.53v12.32h-43.02v-7.98Z" fill="#fff"/><path d="M196.87,71.73v-12.42c4.75,4.54,10.81,7.37,16.87,7.37,6.67,0,10.81-3.74,10.81-9.59,0-5.55-3.74-8.48-9.49-8.48-4.44,0-7.37,1.52-9.29,4.85l-6.77-2.83V15.88h38.99v12.32h-26.46v11.21c1.62-1.11,4.54-2.32,9.09-2.32,11.92,0,19.8,7.68,19.8,19.59,0,13.74-10.81,21.51-23.84,21.51-8.18,0-15.55-2.73-19.69-6.46Z" fill="#fff"/><path d="M247.97,29.41c0-8.28,5.96-15.05,14.85-15.05s14.85,6.77,14.85,15.05-5.96,15.15-14.85,15.15-14.85-6.77-14.85-15.15Zm20,0c0-5.76-1.92-7.88-5.15-7.88s-5.15,2.12-5.15,7.88,1.92,7.98,5.15,7.98,5.15-2.12,5.15-7.98Zm-10.1,46.66l38.78-62.01,4.34,2.22-38.78,62.01-4.34-2.22Zm23.23-13.53c0-8.28,5.96-15.05,14.85-15.05s14.85,6.77,14.85,15.05-5.96,15.15-14.85,15.15-14.85-6.77-14.85-15.15Zm20,0c0-5.76-1.92-7.88-5.15-7.88s-5.15,2.12-5.15,7.88,1.92,7.98,5.15,7.98,5.15-2.12,5.15-7.98Z" fill="#fff"/><path d="M145.12,104.28c0-8.54,6.87-13.77,14.65-13.77,3.65,0,7.39,.97,9.59,2.64v6.07c-2.24-1.76-4.8-3.08-8.54-3.08-4.88,0-8.23,2.99-8.23,8.58s3.17,8.41,7.66,8.41c1.45,0,2.51-.26,3.52-.7v-4.36h-3.92v-4.93h10.61v12.63c-1.54,.66-5.9,2.46-11.31,2.46-7.61,0-14.04-5.41-14.04-13.95Z" fill="#fff"/><path d="M181.42,107.31v10.17h-7.13v-26.4h12.01c6.42,0,9.2,3.87,9.2,8.14,0,3.56-2.02,6.38-5.15,7.39l7.7,10.87h-7.7l-7.04-10.17h-1.89Zm3.08-4.53c2.73,0,3.96-1.23,3.96-3.48s-1.23-3.52-3.96-3.52h-3.08v7h3.08Z" fill="#fff"/><path d="M207.21,91.07h6.03l11.09,26.4h-7.08l-2.24-5.63h-9.77l-2.2,5.63h-6.91l11.09-26.4Zm6.07,16.15l-3.17-8.32-3.17,8.32h6.34Z" fill="#fff"/><path d="M225.64,91.07h10.3c10.87,0,15.31,5.94,15.31,13.2s-4.44,13.2-15.31,13.2h-10.3v-26.4Zm9.73,20.9c5.94,0,8.62-2.42,8.62-7.7s-2.68-7.7-8.62-7.7h-2.6v15.4h2.6Z" fill="#fff"/><path d="M253.8,105.29v-14.21h7.22v13.82c0,4.67,1.85,7.17,5.63,7.17s5.68-2.51,5.68-7.17v-13.82h7v14.21c0,8.93-5.63,12.94-12.76,12.94s-12.76-4-12.76-12.94Z" fill="#fff"/><path d="M289.97,91.07h6.03l11.09,26.4h-7.08l-2.24-5.63h-9.77l-2.2,5.63h-6.91l11.09-26.4Zm6.07,16.15l-3.17-8.32-3.17,8.32h6.34Z" fill="#fff"/><path d="M311.22,96.44h-8.49v-5.37h24.12v5.37h-8.49v21.04h-7.13v-21.04Z" fill="#fff"/><path d="M328.25,91.07h18.35v5.37h-11.22v4.45h9.02v5.32h-9.02v5.9h11.22v5.37h-18.35v-26.4Z" fill="#fff"/><path d="M349.63,91.07h10.3c10.87,0,15.31,5.94,15.31,13.2s-4.44,13.2-15.31,13.2h-10.3v-26.4Zm9.73,20.9c5.94,0,8.62-2.42,8.62-7.7s-2.68-7.7-8.62-7.7h-2.6v15.4h2.6Z" fill="#fff"/><path d="M145.12,145.28c0-8.54,6.6-13.77,14.21-13.77,3.61,0,7.08,.97,9.29,2.64v6.07c-2.11-1.8-4.93-3.08-8.1-3.08-4.44,0-7.83,2.86-7.83,8.14s3.39,8.14,7.83,8.14c3.17,0,5.98-1.28,8.1-3.08v6.07c-2.2,1.67-5.68,2.64-9.29,2.64-7.61,0-14.21-5.24-14.21-13.77Z" fill="#fff"/><path d="M178.92,147.92l-10.34-15.84h7.83l6.16,9.99,6.16-9.99h7.66l-10.34,15.84v10.56h-7.13v-10.56Z" fill="#fff"/><path d="M197.4,132.07h7.13v21.04h11.22v5.37h-18.35v-26.4Z" fill="#fff"/><path d="M217.2,132.07h7.13v26.4h-7.13v-26.4Z" fill="#fff"/><path d="M228.15,132.07h5.41l11.97,15.18v-15.18h6.29v26.4h-5.41l-11.97-15.18v15.18h-6.29v-26.4Z" fill="#fff"/><path d="M255.69,132.07h10.3c10.87,0,15.31,5.94,15.31,13.2s-4.44,13.2-15.31,13.2h-10.3v-26.4Zm9.73,20.9c5.94,0,8.63-2.42,8.63-7.7s-2.68-7.7-8.63-7.7h-2.6v15.4h2.6Z" fill="#fff"/><path d="M283.86,132.07h18.35v5.37h-11.22v4.44h9.02v5.33h-9.02v5.9h11.22v5.37h-18.35v-26.4Z" fill="#fff"/><path d="M312.37,148.31v10.17h-7.13v-26.4h12.01c6.42,0,9.2,3.87,9.2,8.14,0,3.56-2.02,6.38-5.15,7.39l7.7,10.87h-7.7l-7.04-10.17h-1.89Zm3.08-4.53c2.73,0,3.96-1.23,3.96-3.48s-1.23-3.52-3.96-3.52h-3.08v7h3.08Z" fill="#fff"/><path d="M327.81,155.57l1.58-5.19c1.98,1.67,4.84,3.52,8.32,3.52,2.16,0,3.83-.84,3.83-2.68,0-1.72-1.14-2.42-4.93-3.3-6.03-1.41-8.1-4.62-8.1-8.54,0-4.8,3.79-7.92,9.68-7.92,3.48,0,6.6,1.23,8.67,2.68l-1.45,4.75c-1.98-1.23-4.75-2.29-7.3-2.29-1.89,0-3.08,.79-3.08,2.11,0,1.23,.79,1.98,3.78,2.68,6.6,1.54,9.29,4.31,9.29,9.07,0,6.2-5.02,8.54-10.38,8.54-4.53,0-7.83-1.72-9.9-3.43Z" fill="#fff"/></g><g><path d="M320.36,63.2c0-7.36,5.96-12.68,13.32-12.68s13.24,5.32,13.24,12.68-5.92,12.68-13.24,12.68-13.32-5.32-13.32-12.68Zm19.68,0c0-4.6-2.36-7.6-6.36-7.6s-6.44,3-6.44,7.6,2.4,7.6,6.44,7.6,6.36-3,6.36-7.6Z" fill="#fff"/><path d="M349.28,51.2h4.92l10.88,13.8v-13.8h5.72v24h-4.92l-10.88-13.8v13.8h-5.72v-24Z" fill="#fff"/><path d="M379.52,51.2h10.24c6.04,0,8.8,3.64,8.8,8.04s-2.76,8.04-8.8,8.04h-3.76v7.92h-6.48v-24Zm8.68,11.8c2.76,0,3.92-1.44,3.92-3.76s-1.16-3.76-3.92-3.76h-2.2v7.52h2.2Z" fill="#fff"/><path d="M405.76,65.6l-9.4-14.4h7.12l5.6,9.08,5.6-9.08h6.96l-9.4,14.4v9.6h-6.48v-9.6Z" fill="#fff"/><path d="M429.04,65.96v9.24h-6.48v-24h10.92c5.84,0,8.36,3.52,8.36,7.4,0,3.24-1.84,5.8-4.68,6.72l7,9.88h-7l-6.4-9.24h-1.72Zm2.8-4.12c2.48,0,3.6-1.12,3.6-3.16s-1.12-3.2-3.6-3.2h-2.8v6.36h2.8Z" fill="#fff"/><path d="M444.72,51.2h16.68v4.88h-10.2v4.04h8.2v4.84h-8.2v5.36h10.2v4.88h-16.68v-24Z" fill="#fff"/><path d="M469.99,62.92l-8.16-11.72h7.36l4.96,7.6,5.04-7.6h7.2l-8.16,11.68,8.64,12.32h-7.36l-5.44-8.24-5.52,8.24h-7.2l8.64-12.28Z" fill="#fff"/><path d="M485.72,59.76c0-5.12,4.16-9.24,9.24-9.24s9.28,4.12,9.28,9.24-4.16,9.24-9.28,9.24-9.24-4.12-9.24-9.24Zm17.32,0c0-4.44-3.64-8.04-8.08-8.04s-8.04,3.6-8.04,8.04,3.6,8.04,8.04,8.04,8.08-3.6,8.08-8.04Zm-2.24,5.24h-4.04l-2.08-4h-.72v4h-3.36v-10.68h5.28c2.76,0,3.84,1.64,3.84,3.36,0,1.36-.72,2.44-1.84,2.92l2.92,4.4Zm-5.88-6c.96,0,1.44-.4,1.44-1.28s-.48-1.32-1.44-1.32h-.96v2.6h.96Z" fill="#fff"/></g></svg>