<?xml version="1.0" encoding="UTF-8"?><svg id="a" xmlns="http://www.w3.org/2000/svg" viewBox="0 0 591.1 178.47"><polygon points="501.38 178.47 6.17 178.47 6.22 7.92 591.1 8.09 501.38 178.47" fill="#4c4d4f"/><polygon points="493.75 169.43 0 168.88 .05 0 584.25 .39 493.75 169.43" fill="#006bb6"/><g><path d="M21.81,41.82l1.84-6.02c2.29,1.94,5.61,4.08,9.64,4.08,2.5,0,4.44-.97,4.44-3.11,0-1.99-1.33-2.8-5.71-3.82-6.99-1.63-9.38-5.35-9.38-9.89,0-5.56,4.39-9.18,11.22-9.18,4.03,0,7.65,1.43,10.05,3.11l-1.68,5.51c-2.29-1.43-5.51-2.65-8.47-2.65-2.19,0-3.57,.92-3.57,2.45,0,1.43,.92,2.29,4.39,3.11,7.65,1.79,10.76,5,10.76,10.5,0,7.19-5.81,9.89-12.04,9.89-5.25,0-9.08-1.99-11.47-3.98Z" fill="#fff"/><path d="M58.38,14.59h6.99l12.85,30.6h-8.21l-2.6-6.53h-11.32l-2.55,6.53h-8.01l12.85-30.6Zm7.04,18.72l-3.67-9.64-3.67,9.64h7.34Z" fill="#fff"/><path d="M73.73,14.59h8.52l7.8,19.58,7.75-19.58h8.31l-12.85,30.6h-6.68l-12.85-30.6Z" fill="#fff"/><path d="M108.92,14.59h21.26v6.22h-13v5.15h10.45v6.17h-10.45v6.83h13v6.22h-21.26V14.59Z" fill="#fff"/></g><g><path d="M145.76,68.5l14.24-14.85c5.76-6.06,10.91-11.51,10.91-18.48,0-6.16-4.54-8.38-8.58-8.38-4.65,0-9.59,1.92-15.05,6.46v-12.93c3.74-3.03,12.32-6.26,18.89-6.26,11.82,0,21.31,7.07,21.31,18.58,0,10.5-6.46,17.57-12.52,22.93l-9.7,8.58h23.53v12.32h-43.02v-7.98Z" fill="#fff"/><path d="M196.87,71.73v-12.42c4.75,4.54,10.81,7.37,16.87,7.37,6.67,0,10.81-3.74,10.81-9.59,0-5.55-3.74-8.48-9.49-8.48-4.44,0-7.37,1.52-9.29,4.85l-6.77-2.83V15.88h38.99v12.32h-26.46v11.21c1.62-1.11,4.54-2.32,9.09-2.32,11.92,0,19.8,7.68,19.8,19.59,0,13.74-10.81,21.51-23.84,21.51-8.18,0-15.55-2.73-19.69-6.46Z" fill="#fff"/><path d="M247.97,29.41c0-8.28,5.96-15.05,14.85-15.05s14.85,6.77,14.85,15.05-5.96,15.15-14.85,15.15-14.85-6.77-14.85-15.15Zm20,0c0-5.76-1.92-7.88-5.15-7.88s-5.15,2.12-5.15,7.88,1.92,7.98,5.15,7.98,5.15-2.12,5.15-7.98Zm-10.1,46.66l38.78-62.01,4.34,2.22-38.78,62.01-4.34-2.22Zm23.23-13.53c0-8.28,5.96-15.05,14.85-15.05s14.85,6.77,14.85,15.05-5.96,15.15-14.85,15.15-14.85-6.77-14.85-15.15Zm20,0c0-5.76-1.92-7.88-5.15-7.88s-5.15,2.12-5.15,7.88,1.92,7.98,5.15,7.98,5.15-2.12,5.15-7.98Z" fill="#fff"/><path d="M144.6,114.57l1.58-5.19c1.98,1.67,4.84,3.52,8.32,3.52,2.16,0,3.83-.84,3.83-2.68,0-1.72-1.14-2.42-4.93-3.3-6.03-1.41-8.1-4.62-8.1-8.54,0-4.8,3.78-7.92,9.68-7.92,3.48,0,6.6,1.23,8.67,2.68l-1.45,4.75c-1.98-1.23-4.75-2.29-7.31-2.29-1.89,0-3.08,.79-3.08,2.11,0,1.23,.79,1.98,3.78,2.68,6.6,1.54,9.29,4.31,9.29,9.07,0,6.2-5.02,8.54-10.39,8.54-4.53,0-7.83-1.72-9.9-3.43Z" fill="#fff"/><path d="M172.36,96.44h-8.49v-5.37h24.12v5.37h-8.49v21.04h-7.13v-21.04Z" fill="#fff"/><path d="M189.39,91.07h18.35v5.37h-11.22v4.45h9.02v5.32h-9.02v5.9h11.22v5.37h-18.35v-26.4Z" fill="#fff"/><path d="M217.9,107.31v10.17h-7.13v-26.4h12.01c6.43,0,9.2,3.87,9.2,8.14,0,3.56-2.02,6.38-5.15,7.39l7.7,10.87h-7.7l-7.04-10.17h-1.89Zm3.08-4.53c2.73,0,3.96-1.23,3.96-3.48s-1.23-3.52-3.96-3.52h-3.08v7h3.08Z" fill="#fff"/><path d="M235.15,91.07h7.13v26.4h-7.13v-26.4Z" fill="#fff"/><path d="M246.1,91.07h7.13v21.04h11.22v5.37h-18.35v-26.4Z" fill="#fff"/><path d="M265.9,91.07h18.35v5.37h-11.22v4.45h9.02v5.32h-9.02v5.9h11.22v5.37h-18.35v-26.4Z" fill="#fff"/><path d="M291.2,114.57l1.58-5.19c1.98,1.67,4.84,3.52,8.32,3.52,2.16,0,3.83-.84,3.83-2.68,0-1.72-1.14-2.42-4.93-3.3-6.03-1.41-8.1-4.62-8.1-8.54,0-4.8,3.79-7.92,9.68-7.92,3.48,0,6.6,1.23,8.67,2.68l-1.45,4.75c-1.98-1.23-4.75-2.29-7.3-2.29-1.89,0-3.08,.79-3.08,2.11,0,1.23,.79,1.98,3.78,2.68,6.6,1.54,9.29,4.31,9.29,9.07,0,6.2-5.02,8.54-10.38,8.54-4.53,0-7.83-1.72-9.9-3.43Z" fill="#fff"/><path d="M319.8,106.92l-10.34-15.84h7.83l6.16,9.99,6.16-9.99h7.66l-10.34,15.84v10.56h-7.13v-10.56Z" fill="#fff"/><path d="M345.41,107.31v10.17h-7.13v-26.4h12.01c6.42,0,9.2,3.87,9.2,8.14,0,3.56-2.02,6.38-5.15,7.39l7.7,10.87h-7.7l-7.04-10.17h-1.89Zm3.08-4.53c2.73,0,3.96-1.23,3.96-3.48s-1.23-3.52-3.96-3.52h-3.08v7h3.08Z" fill="#fff"/><path d="M362.66,91.07h7.13v26.4h-7.13v-26.4Z" fill="#fff"/><path d="M373.61,91.07h5.41l11.97,15.18v-15.18h6.29v26.4h-5.41l-11.97-15.18v15.18h-6.29v-26.4Z" fill="#fff"/><path d="M399.88,104.28c0-8.54,6.87-13.77,14.65-13.77,3.65,0,7.39,.97,9.59,2.64v6.07c-2.24-1.76-4.8-3.08-8.54-3.08-4.88,0-8.23,2.99-8.23,8.58s3.17,8.41,7.66,8.41c1.45,0,2.51-.26,3.52-.7v-4.36h-3.92v-4.93h10.61v12.63c-1.54,.66-5.9,2.46-11.31,2.46-7.61,0-14.04-5.41-14.04-13.95Z" fill="#fff"/><path d="M429.05,91.07h18.35v5.37h-11.22v4.45h9.02v5.32h-9.02v5.9h11.22v5.37h-18.35v-26.4Z" fill="#fff"/><path d="M448.63,114.57l1.58-5.19c1.98,1.67,4.84,3.52,8.32,3.52,2.16,0,3.83-.84,3.83-2.68,0-1.72-1.14-2.42-4.93-3.3-6.03-1.41-8.1-4.62-8.1-8.54,0-4.8,3.78-7.92,9.68-7.92,3.48,0,6.6,1.23,8.67,2.68l-1.45,4.75c-1.98-1.23-4.75-2.29-7.31-2.29-1.89,0-3.08,.79-3.08,2.11,0,1.23,.79,1.98,3.78,2.68,6.6,1.54,9.29,4.31,9.29,9.07,0,6.2-5.02,8.54-10.38,8.54-4.53,0-7.83-1.72-9.9-3.43Z" fill="#fff"/><path d="M475.54,111.83c0-2.74,1.76-4.46,3.85-5.83-1.04-1.8-1.62-3.49-1.62-5,0-3.28,3.17-5.72,6.98-5.72,3.6,0,6.12,2.2,6.12,4.93,0,2.99-2.92,4.61-5.58,6.23,.97,1.37,2.12,2.63,3.02,3.49,.11-.65,.29-3.1,.29-4.1h7.2v3.28h-3.31c-.07,1.22-.36,2.84-1.01,4.18,1.01,.9,1.69,1.15,2.56,1.15s1.8-.54,2.7-1.51l1.76,2.2c-1.51,2.23-3.6,2.92-5.04,2.92s-2.84-.29-4.61-1.48c-1.26,.9-2.92,1.48-5,1.48-4.5,0-8.32-2.2-8.32-6.19Zm10.37,2.16c-1.37-1.3-2.95-2.88-4.28-4.72-.5,.61-.79,1.33-.79,2.12,0,1.62,1.12,3.06,3.28,3.06,.65,0,1.22-.18,1.8-.47Zm.43-13.79c0-.86-.68-1.55-1.69-1.55-1.51,0-2.05,1.26-2.05,2.3,0,.97,.29,1.87,.76,2.77,1.69-1.01,2.99-2.02,2.99-3.53Z" fill="#fff"/><path d="M152.43,137.44h-8.49v-5.37h24.12v5.37h-8.49v21.04h-7.13v-21.04Z" fill="#fff"/><path d="M175.45,149.47v9.01h-6.32v-23.4h10.65c5.69,0,8.15,3.43,8.15,7.21,0,3.16-1.79,5.66-4.56,6.55l6.83,9.63h-6.83l-6.24-9.01h-1.68Zm2.73-4.02c2.42,0,3.51-1.09,3.51-3.08s-1.09-3.12-3.51-3.12h-2.73v6.2h2.73Z" fill="#fff"/><path d="M190.74,147.67v-12.6h6.4v12.25c0,4.13,1.64,6.36,4.99,6.36s5.03-2.22,5.03-6.36v-12.25h6.2v12.6c0,7.92-4.99,11.47-11.31,11.47s-11.31-3.55-11.31-11.47Z" fill="#fff"/><path d="M216.79,135.08h16.26v4.76h-9.95v3.94h8v4.72h-8v5.23h9.95v4.76h-16.26v-23.4Z" fill="#fff"/><path d="M234.79,145.28c0-8.54,6.6-13.77,14.21-13.77,3.61,0,7.08,.97,9.29,2.64v6.07c-2.11-1.8-4.93-3.08-8.1-3.08-4.44,0-7.83,2.86-7.83,8.14s3.39,8.14,7.83,8.14c3.17,0,5.98-1.28,8.1-3.08v6.07c-2.2,1.67-5.68,2.64-9.29,2.64-7.61,0-14.21-5.24-14.21-13.77Z" fill="#fff"/><path d="M268.3,135.08h5.34l9.83,23.4h-6.28l-1.99-4.99h-8.66l-1.95,4.99h-6.12l9.83-23.4Zm5.38,14.31l-2.81-7.37-2.81,7.37h5.62Z" fill="#fff"/><path d="M290.96,149.47v9.01h-6.32v-23.4h10.65c5.69,0,8.15,3.43,8.15,7.21,0,3.16-1.79,5.66-4.56,6.55l6.83,9.63h-6.83l-6.24-9.01h-1.68Zm2.73-4.02c2.42,0,3.51-1.09,3.51-3.08s-1.09-3.12-3.51-3.12h-2.73v6.2h2.73Z" fill="#fff"/><path d="M306.25,135.08h16.26v4.76h-9.95v3.94h8v4.72h-8v5.23h9.95v4.76h-16.26v-23.4Z" fill="#fff"/><path d="M329.97,145.28c0-8.54,6.6-13.77,14.21-13.77,3.61,0,7.09,.97,9.29,2.64v6.07c-2.11-1.8-4.93-3.08-8.1-3.08-4.44,0-7.83,2.86-7.83,8.14s3.39,8.14,7.83,8.14c3.17,0,5.99-1.28,8.1-3.08v6.07c-2.2,1.67-5.68,2.64-9.29,2.64-7.61,0-14.21-5.24-14.21-13.77Z" fill="#fff"/><path d="M364.77,132.07h6.03l11.09,26.4h-7.08l-2.24-5.63h-9.77l-2.2,5.63h-6.91l11.09-26.4Zm6.07,16.15l-3.17-8.32-3.17,8.32h6.34Z" fill="#fff"/><path d="M383.21,132.07h11.27c6.64,0,9.68,4,9.68,8.85s-3.04,8.85-9.68,8.85h-4.14v8.71h-7.13v-26.4Zm9.55,12.98c3.04,0,4.31-1.58,4.31-4.14s-1.28-4.14-4.31-4.14h-2.42v8.27h2.42Z" fill="#fff"/><path d="M404.37,155.57l1.58-5.19c1.98,1.67,4.84,3.52,8.32,3.52,2.16,0,3.83-.84,3.83-2.68,0-1.72-1.14-2.42-4.93-3.3-6.03-1.41-8.1-4.62-8.1-8.54,0-4.8,3.79-7.92,9.68-7.92,3.48,0,6.6,1.23,8.67,2.68l-1.45,4.75c-1.98-1.23-4.75-2.29-7.3-2.29-1.89,0-3.08,.79-3.08,2.11,0,1.23,.79,1.98,3.78,2.68,6.6,1.54,9.29,4.31,9.29,9.07,0,6.2-5.02,8.54-10.38,8.54-4.53,0-7.83-1.72-9.9-3.43Z" fill="#fff"/></g><g><path d="M320.36,26.2c0-7.36,5.96-12.68,13.32-12.68s13.24,5.32,13.24,12.68-5.92,12.68-13.24,12.68-13.32-5.32-13.32-12.68Zm19.68,0c0-4.6-2.36-7.6-6.36-7.6s-6.44,3-6.44,7.6,2.4,7.6,6.44,7.6,6.36-3,6.36-7.6Z" fill="#fff"/><path d="M349.28,14.2h4.92l10.88,13.8V14.2h5.72v24h-4.92l-10.88-13.8v13.8h-5.72V14.2Z" fill="#fff"/><path d="M378.36,26.2c0-7.76,6-12.52,12.92-12.52,3.28,0,6.44,.88,8.44,2.4v5.52c-1.92-1.64-4.48-2.8-7.36-2.8-4.04,0-7.12,2.6-7.12,7.4s3.08,7.4,7.12,7.4c2.88,0,5.44-1.16,7.36-2.8v5.52c-2,1.52-5.16,2.4-8.44,2.4-6.92,0-12.92-4.76-12.92-12.52Z" fill="#fff"/><path d="M400.68,26.2c0-7.36,5.96-12.68,13.32-12.68s13.24,5.32,13.24,12.68-5.92,12.68-13.24,12.68-13.32-5.32-13.32-12.68Zm19.68,0c0-4.6-2.36-7.6-6.36-7.6s-6.44,3-6.44,7.6,2.4,7.6,6.44,7.6,6.36-3,6.36-7.6Z" fill="#fff"/><path d="M425.88,14.2h6.68l6.12,15.36,6.08-15.36h6.52l-10.08,24h-5.24l-10.08-24Z" fill="#fff"/><path d="M452.44,14.2h6.48v24h-6.48V14.2Z" fill="#fff"/><path d="M462.4,14.2h9.36c9.88,0,13.92,5.4,13.92,12s-4.04,12-13.92,12h-9.36V14.2Zm8.84,19c5.4,0,7.84-2.2,7.84-7s-2.44-7-7.84-7h-2.36v14h2.36Z" fill="#fff"/><path d="M488,14.2h6.48v24h-6.48V14.2Z" fill="#fff"/><path d="M497.96,14.2h16.68v4.88h-10.2v4.04h8.2v4.84h-8.2v5.36h10.2v4.88h-16.68V14.2Z" fill="#fff"/><path d="M517.4,14.2h4.92l10.88,13.8V14.2h5.72v24h-4.92l-10.88-13.8v13.8h-5.72V14.2Z" fill="#fff"/><path d="M321.52,51.2h7.24l6.52,15.24,6.52-15.24h7.08v24h-5.72v-13.08c0-.56,.12-2.4,.16-2.56l-.88,2.56-5.4,13.08h-3.84l-5.4-13.08c-.24-.56-.8-2.28-.88-2.56,0,.16,.16,2,.16,2.56v13.08h-5.56v-24Z" fill="#fff"/><path d="M351.24,63.2c0-7.36,5.96-12.68,13.32-12.68s13.24,5.32,13.24,12.68-5.92,12.68-13.24,12.68-13.32-5.32-13.32-12.68Zm19.68,0c0-4.6-2.36-7.6-6.36-7.6s-6.44,3-6.44,7.6,2.4,7.6,6.44,7.6,6.36-3,6.36-7.6Z" fill="#fff"/><path d="M380.16,51.2h4.92l10.88,13.8v-13.8h5.72v24h-4.92l-10.88-13.8v13.8h-5.72v-24Z" fill="#fff"/><path d="M400.28,81.76v-3.84c.52,.48,1.84,1,2.64,1,1.56,0,2.28-.76,2.28-3.44v-24.28h6.48v24.88c0,4.04-2.32,7.08-6.8,7.08-2.24,0-3.84-.76-4.6-1.4Z" fill="#fff"/><path d="M415.16,51.2h16.68v4.88h-10.2v4.04h8.2v4.84h-8.2v5.36h10.2v4.88h-16.68v-24Z" fill="#fff"/><path d="M432.64,63.2c0-7.76,6-12.52,12.92-12.52,3.28,0,6.44,.88,8.44,2.4v5.52c-1.92-1.64-4.48-2.8-7.36-2.8-4.04,0-7.12,2.6-7.12,7.4s3.08,7.4,7.12,7.4c2.88,0,5.44-1.16,7.36-2.8v5.52c-2,1.52-5.16,2.4-8.44,2.4-6.92,0-12.92-4.76-12.92-12.52Z" fill="#fff"/><path d="M462,56.08h-7.72v-4.88h21.92v4.88h-7.72v19.12h-6.48v-19.12Z" fill="#fff"/><path d="M489.44,54.2v10.32h-4.2v-10.32h-4.12v-3h12.48v3h-4.16Zm18.24,10.32v-6.64c0-.32,.08-1.44,.08-1.56-.04,.12-.36,1.24-.48,1.56l-2.4,6.64h-2.76l-2.4-6.64c-.12-.28-.44-1.36-.48-1.56,0,.12,.08,1.24,.08,1.56v6.64h-3.6v-13.32h4.76l3.12,8.68,3.08-8.68h4.72v13.32h-3.72Z" fill="#fff"/></g></svg>