<?xml version="1.0" encoding="UTF-8"?><svg id="a" xmlns="http://www.w3.org/2000/svg" viewBox="0 0 591.1 178.47"><polygon points="501.38 178.47 6.17 178.47 6.22 7.92 591.1 8.09 501.38 178.47" fill="#4c4d4f"/><polygon points="493.75 169.43 0 168.88 .05 0 584.25 .39 493.75 169.43" fill="#006bb6"/><g><path d="M21.81,41.82l1.84-6.02c2.29,1.94,5.61,4.08,9.64,4.08,2.5,0,4.44-.97,4.44-3.11,0-1.99-1.33-2.8-5.71-3.82-6.99-1.63-9.38-5.35-9.38-9.89,0-5.56,4.39-9.18,11.22-9.18,4.03,0,7.65,1.43,10.05,3.11l-1.68,5.51c-2.29-1.43-5.51-2.65-8.47-2.65-2.19,0-3.57,.92-3.57,2.45,0,1.43,.92,2.29,4.39,3.11,7.65,1.79,10.76,5,10.76,10.5,0,7.19-5.81,9.89-12.04,9.89-5.25,0-9.08-1.99-11.47-3.98Z" fill="#fff"/><path d="M58.38,14.59h6.99l12.85,30.6h-8.21l-2.6-6.53h-11.32l-2.55,6.53h-8.01l12.85-30.6Zm7.04,18.72l-3.67-9.64-3.67,9.64h7.34Z" fill="#fff"/><path d="M73.73,14.59h8.52l7.8,19.58,7.75-19.58h8.31l-12.85,30.6h-6.68l-12.85-30.6Z" fill="#fff"/><path d="M108.92,14.59h21.26v6.22h-13v5.15h10.45v6.17h-10.45v6.83h13v6.22h-21.26V14.59Z" fill="#fff"/></g><g><path d="M145.76,68.5l14.24-14.85c5.76-6.06,10.91-11.51,10.91-18.48,0-6.16-4.54-8.38-8.58-8.38-4.65,0-9.59,1.92-15.05,6.46v-12.93c3.74-3.03,12.32-6.26,18.89-6.26,11.82,0,21.31,7.07,21.31,18.58,0,10.5-6.46,17.57-12.52,22.93l-9.7,8.58h23.53v12.32h-43.02v-7.98Z" fill="#fff"/><path d="M191.82,45.98c0-20.2,11.31-32.12,26.56-32.12s26.56,11.92,26.56,32.12-11.41,32.22-26.56,32.22-26.56-11.92-26.56-32.22Zm36.66,0c0-14.24-3.54-19.9-10.1-19.9s-10.1,5.66-10.1,19.9,3.53,20,10.1,20,10.1-5.66,10.1-20Z" fill="#fff"/><path d="M247.77,29.41c0-8.28,5.96-15.05,14.85-15.05s14.85,6.77,14.85,15.05-5.96,15.15-14.85,15.15-14.85-6.77-14.85-15.15Zm20,0c0-5.76-1.92-7.88-5.15-7.88s-5.15,2.12-5.15,7.88,1.92,7.98,5.15,7.98,5.15-2.12,5.15-7.98Zm-10.1,46.66l38.78-62.01,4.34,2.22-38.78,62.01-4.34-2.22Zm23.23-13.53c0-8.28,5.96-15.05,14.85-15.05s14.85,6.77,14.85,15.05-5.96,15.15-14.85,15.15-14.85-6.77-14.85-15.15Zm20,0c0-5.76-1.92-7.88-5.15-7.88s-5.15,2.12-5.15,7.88,1.92,7.98,5.15,7.98,5.15-2.12,5.15-7.98Z" fill="#fff"/><path d="M150.81,100.27h-6.95v-4.39h19.73v4.39h-6.95v17.21h-5.83v-17.21Z" fill="#fff"/><path d="M164.64,95.88h5.83v7.74h8.53v-7.74h5.83v21.6h-5.83v-8.93h-8.53v8.93h-5.83v-21.6Z" fill="#fff"/><path d="M187.86,95.88h15.01v4.39h-9.18v3.64h7.38v4.36h-7.38v4.82h9.18v4.39h-15.01v-21.6Z" fill="#fff"/><path d="M211.07,109.16v8.31h-5.83v-21.6h9.83c5.26,0,7.52,3.17,7.52,6.66,0,2.92-1.66,5.22-4.21,6.05l6.3,8.89h-6.3l-5.76-8.31h-1.55Zm2.52-3.71c2.23,0,3.24-1.01,3.24-2.84s-1.01-2.88-3.24-2.88h-2.52v5.72h2.52Z" fill="#fff"/><path d="M225.08,95.88h6.52l5.87,13.71,5.87-13.71h6.37v21.6h-5.15v-11.77c0-.5,.11-2.16,.14-2.3l-.79,2.3-4.86,11.77h-3.46l-4.86-11.77c-.22-.5-.72-2.05-.79-2.3,0,.14,.14,1.8,.14,2.3v11.77h-5v-21.6Z" fill="#fff"/><path d="M251.72,106.68c0-6.62,5.36-11.41,11.99-11.41s11.92,4.79,11.92,11.41-5.33,11.41-11.92,11.41-11.99-4.79-11.99-11.41Zm17.71,0c0-4.14-2.12-6.84-5.72-6.84s-5.79,2.7-5.79,6.84,2.16,6.84,5.79,6.84,5.72-2.7,5.72-6.84Z" fill="#fff"/><path d="M280.73,115.1l1.3-4.25c1.62,1.37,3.96,2.88,6.8,2.88,1.76,0,3.13-.68,3.13-2.2,0-1.4-.94-1.98-4.03-2.7-4.93-1.15-6.62-3.78-6.62-6.98,0-3.92,3.1-6.48,7.92-6.48,2.84,0,5.4,1.01,7.09,2.2l-1.19,3.89c-1.62-1.01-3.89-1.87-5.97-1.87-1.55,0-2.52,.65-2.52,1.73,0,1.01,.65,1.62,3.09,2.2,5.4,1.26,7.6,3.53,7.6,7.42,0,5.08-4.1,6.98-8.5,6.98-3.71,0-6.41-1.4-8.1-2.81Z" fill="#fff"/><path d="M298.09,106.68c0-6.98,5.4-11.27,11.63-11.27,2.95,0,5.79,.79,7.59,2.16v4.97c-1.73-1.48-4.03-2.52-6.62-2.52-3.64,0-6.41,2.34-6.41,6.66s2.77,6.66,6.41,6.66c2.59,0,4.9-1.04,6.62-2.52v4.97c-1.8,1.37-4.64,2.16-7.59,2.16-6.23,0-11.63-4.28-11.63-11.27Z" fill="#fff"/><path d="M319.47,95.88h5.83v21.6h-5.83v-21.6Z" fill="#fff"/><path d="M328.33,95.88h15.01v4.39h-9.18v3.64h7.38v4.36h-7.38v4.82h9.18v4.39h-15.01v-21.6Z" fill="#fff"/><path d="M345.71,95.88h4.43l9.79,12.42v-12.42h5.15v21.6h-4.43l-9.79-12.42v12.42h-5.15v-21.6Z" fill="#fff"/><path d="M373.07,100.27h-6.95v-4.39h19.73v4.39h-6.95v17.21h-5.83v-17.21Z" fill="#fff"/><path d="M386.9,95.88h5.83v21.6h-5.83v-21.6Z" fill="#fff"/><path d="M395.75,95.88h14.54v4.39h-8.71v3.89h6.91v4.36h-6.91v8.96h-5.83v-21.6Z" fill="#fff"/><path d="M411.34,95.88h5.83v21.6h-5.83v-21.6Z" fill="#fff"/><path d="M419.15,106.68c0-6.98,5.4-11.27,11.63-11.27,2.95,0,5.79,.79,7.59,2.16v4.97c-1.73-1.48-4.03-2.52-6.62-2.52-3.64,0-6.41,2.34-6.41,6.66s2.77,6.66,6.41,6.66c2.59,0,4.9-1.04,6.62-2.52v4.97c-1.8,1.37-4.64,2.16-7.59,2.16-6.23,0-11.63-4.28-11.63-11.27Z" fill="#fff"/><path d="M145.88,136.88h5.83v21.6h-5.83v-21.6Z" fill="#fff"/><path d="M155.49,136.88h4.43l9.79,12.42v-12.42h5.15v21.6h-4.43l-9.79-12.42v12.42h-5.15v-21.6Z" fill="#fff"/><path d="M177.63,147.68c0-6.98,5.4-11.27,11.63-11.27,2.95,0,5.8,.79,7.6,2.16v4.97c-1.73-1.48-4.03-2.52-6.62-2.52-3.64,0-6.41,2.34-6.41,6.66s2.77,6.66,6.41,6.66c2.59,0,4.9-1.04,6.62-2.52v4.97c-1.8,1.37-4.64,2.16-7.6,2.16-6.23,0-11.63-4.28-11.63-11.27Z" fill="#fff"/><path d="M199.77,148.51v-11.63h5.9v11.3c0,3.82,1.51,5.87,4.61,5.87s4.64-2.05,4.64-5.87v-11.3h5.72v11.63c0,7.31-4.61,10.58-10.44,10.58s-10.44-3.28-10.44-10.58Z" fill="#fff"/><path d="M224.47,136.88h9.57c4.9,0,6.77,2.56,6.77,5.65,0,1.66-1.08,3.42-2.34,4.25,2.2,.94,3.49,3.1,3.49,5.36,0,3.49-2.12,6.33-7.56,6.33h-9.93v-21.6Zm8.17,8.42c1.73,0,2.63-.83,2.63-2.34s-.9-2.38-2.63-2.38h-2.34v4.71h2.34Zm.29,9.47c2.27,0,3.38-.97,3.38-2.88s-1.12-2.88-3.38-2.88h-2.63v5.76h2.63Z" fill="#fff"/><path d="M251.46,136.88h4.93l9.07,21.6h-5.8l-1.84-4.61h-7.99l-1.8,4.61h-5.65l9.07-21.6Zm4.97,13.21l-2.59-6.8-2.59,6.8h5.18Z" fill="#fff"/><path d="M269.5,141.27h-6.95v-4.39h19.73v4.39h-6.95v17.21h-5.83v-17.21Z" fill="#fff"/><path d="M282.1,147.68c0-6.62,5.36-11.41,11.99-11.41s11.92,4.79,11.92,11.41-5.33,11.41-11.92,11.41-11.99-4.79-11.99-11.41Zm17.71,0c0-4.14-2.12-6.84-5.72-6.84s-5.79,2.7-5.79,6.84,2.16,6.84,5.79,6.84,5.72-2.7,5.72-6.84Z" fill="#fff"/><path d="M314.61,150.16v8.32h-5.83v-21.6h9.83c5.26,0,7.52,3.17,7.52,6.66,0,2.92-1.66,5.22-4.21,6.05l6.3,8.89h-6.3l-5.76-8.32h-1.55Zm2.52-3.71c2.23,0,3.24-1.01,3.24-2.84s-1.01-2.88-3.24-2.88h-2.52v5.72h2.52Z" fill="#fff"/><path d="M327.89,156.1l1.3-4.25c1.62,1.37,3.96,2.88,6.8,2.88,1.76,0,3.13-.68,3.13-2.2,0-1.4-.94-1.98-4.03-2.7-4.93-1.15-6.62-3.78-6.62-6.98,0-3.92,3.1-6.48,7.92-6.48,2.84,0,5.4,1.01,7.09,2.2l-1.19,3.89c-1.62-1.01-3.89-1.87-5.97-1.87-1.55,0-2.52,.65-2.52,1.73,0,1.01,.65,1.62,3.09,2.2,5.4,1.26,7.6,3.53,7.6,7.42,0,5.08-4.1,6.98-8.5,6.98-3.71,0-6.41-1.4-8.1-2.81Z" fill="#fff"/></g><g><path d="M320.18,61.7c0-6.44,5.21-11.1,11.66-11.1s11.59,4.66,11.59,11.1-5.18,11.1-11.59,11.1-11.66-4.66-11.66-11.1Zm17.22,0c0-4.03-2.06-6.65-5.56-6.65s-5.64,2.62-5.64,6.65,2.1,6.65,5.64,6.65,5.56-2.62,5.56-6.65Z" fill="#fff"/><path d="M346.11,51.2h4.31l9.52,12.08v-12.08h5.01v21h-4.31l-9.52-12.08v12.08h-5v-21Z" fill="#fff"/></g></svg>