<?xml version="1.0" encoding="UTF-8"?><svg id="a" xmlns="http://www.w3.org/2000/svg" viewBox="0 0 591.1 178.47"><polygon points="501.38 178.47 6.17 178.47 6.22 7.92 591.1 8.09 501.38 178.47" fill="#4c4d4f"/><polygon points="493.75 169.43 0 168.88 .05 0 584.25 .39 493.75 169.43" fill="#006bb6"/><g><path d="M21.81,41.82l1.84-6.02c2.29,1.94,5.61,4.08,9.64,4.08,2.5,0,4.44-.97,4.44-3.11,0-1.99-1.33-2.8-5.71-3.82-6.99-1.63-9.38-5.35-9.38-9.89,0-5.56,4.39-9.18,11.22-9.18,4.03,0,7.65,1.43,10.05,3.11l-1.68,5.51c-2.29-1.43-5.51-2.65-8.47-2.65-2.19,0-3.57,.92-3.57,2.45,0,1.43,.92,2.29,4.39,3.11,7.65,1.79,10.76,5,10.76,10.5,0,7.19-5.81,9.89-12.04,9.89-5.25,0-9.08-1.99-11.47-3.98Z" fill="#fff"/><path d="M58.38,14.59h6.99l12.85,30.6h-8.21l-2.6-6.53h-11.32l-2.55,6.53h-8.01l12.85-30.6Zm7.04,18.72l-3.67-9.64-3.67,9.64h7.34Z" fill="#fff"/><path d="M73.73,14.59h8.52l7.8,19.58,7.75-19.58h8.31l-12.85,30.6h-6.68l-12.85-30.6Z" fill="#fff"/><path d="M108.92,14.59h21.26v6.22h-13v5.15h10.45v6.17h-10.45v6.83h13v6.22h-21.26V14.59Z" fill="#fff"/></g><g><path d="M147.23,65.65v-11.07c4.32,4.14,9.63,6.57,15.03,6.57,5.94,0,9.99-3.24,9.99-8.73,0-4.95-3.06-7.65-7.92-7.65-3.06,0-5.04,1.53-6.48,2.61l-5.67-6.57,14.76-13.95h-19.53V15.88h37.98v6.48l-14.22,13.41c8.46,.99,15.12,6.84,15.12,16.92,0,11.79-9.9,18.72-21.51,18.72-7.29,0-13.86-2.43-17.55-5.76Z" fill="#fff"/><path d="M193.58,42.7c0-18,10.08-28.62,23.67-28.62s23.67,10.62,23.67,28.62-10.17,28.71-23.67,28.71-23.67-10.62-23.67-28.71Zm32.67,0c0-12.69-3.15-17.73-9-17.73s-9,5.04-9,17.73,3.15,17.82,9,17.82,9-5.04,9-17.82Z" fill="#fff"/><path d="M248.12,27.94c0-7.38,5.31-13.41,13.23-13.41s13.23,6.03,13.23,13.41-5.31,13.5-13.23,13.5-13.23-6.03-13.23-13.5Zm17.82,0c0-5.13-1.71-7.02-4.59-7.02s-4.59,1.89-4.59,7.02,1.71,7.11,4.59,7.11,4.59-1.89,4.59-7.11Zm-9,41.58l34.56-55.26,3.87,1.98-34.56,55.26-3.87-1.98Zm20.7-12.06c0-7.38,5.31-13.41,13.23-13.41s13.23,6.03,13.23,13.41-5.31,13.5-13.23,13.5-13.23-6.03-13.23-13.5Zm17.82,0c0-5.13-1.71-7.02-4.59-7.02s-4.59,1.89-4.59,7.02,1.71,7.11,4.59,7.11,4.59-1.89,4.59-7.11Z" fill="#fff"/><path d="M145.76,137.9l14.24-14.85c5.76-6.06,10.91-11.51,10.91-18.48,0-6.16-4.54-8.38-8.58-8.38-4.65,0-9.59,1.92-15.05,6.46v-12.93c3.74-3.03,12.32-6.26,18.89-6.26,11.82,0,21.31,7.07,21.31,18.58,0,10.5-6.46,17.57-12.52,22.93l-9.7,8.58h23.53v12.32h-43.02v-7.98Z" fill="#fff"/><path d="M196.87,141.13v-12.42c4.75,4.54,10.81,7.37,16.87,7.37,6.67,0,10.81-3.74,10.81-9.59,0-5.55-3.74-8.48-9.49-8.48-4.44,0-7.37,1.51-9.29,4.85l-6.77-2.83v-34.74h38.99v12.32h-26.46v11.21c1.62-1.11,4.54-2.32,9.09-2.32,11.92,0,19.8,7.68,19.8,19.59,0,13.74-10.81,21.51-23.84,21.51-8.18,0-15.55-2.73-19.69-6.46Z" fill="#fff"/><path d="M247.97,98.81c0-8.28,5.96-15.05,14.85-15.05s14.85,6.77,14.85,15.05-5.96,15.15-14.85,15.15-14.85-6.77-14.85-15.15Zm20,0c0-5.76-1.92-7.88-5.15-7.88s-5.15,2.12-5.15,7.88,1.92,7.98,5.15,7.98,5.15-2.12,5.15-7.98Zm-10.1,46.66l38.78-62.01,4.34,2.22-38.78,62.01-4.34-2.22Zm23.23-13.53c0-8.28,5.96-15.05,14.85-15.05s14.85,6.77,14.85,15.05-5.96,15.15-14.85,15.15-14.85-6.77-14.85-15.15Zm20,0c0-5.76-1.92-7.88-5.15-7.88s-5.15,2.12-5.15,7.88,1.92,7.98,5.15,7.98,5.15-2.12,5.15-7.98Z" fill="#fff"/></g><g><path d="M318.11,27.76c0-6.07,4.92-10.46,10.99-10.46s10.92,4.39,10.92,10.46-4.88,10.46-10.92,10.46-10.99-4.39-10.99-10.46Zm16.24,0c0-3.8-1.95-6.27-5.25-6.27s-5.31,2.47-5.31,6.27,1.98,6.27,5.31,6.27,5.25-2.47,5.25-6.27Z" fill="#fff"/><path d="M341.57,17.86h4.06l8.98,11.39v-11.39h4.72v19.8h-4.06l-8.98-11.39v11.39h-4.72V17.86Z" fill="#fff"/><path d="M364.37,35.49l1.19-3.89c1.49,1.25,3.63,2.64,6.24,2.64,1.62,0,2.87-.63,2.87-2.01,0-1.29-.86-1.82-3.7-2.48-4.52-1.06-6.07-3.47-6.07-6.4,0-3.6,2.84-5.94,7.26-5.94,2.61,0,4.95,.92,6.5,2.01l-1.09,3.56c-1.49-.92-3.56-1.72-5.48-1.72-1.42,0-2.31,.59-2.31,1.58,0,.92,.59,1.49,2.84,2.01,4.95,1.16,6.96,3.23,6.96,6.8,0,4.65-3.76,6.4-7.79,6.4-3.4,0-5.88-1.29-7.43-2.58Z" fill="#fff"/><path d="M379.98,27.76c0-6.4,4.95-10.33,10.66-10.33,2.71,0,5.31,.73,6.96,1.98v4.55c-1.58-1.35-3.7-2.31-6.07-2.31-3.33,0-5.88,2.14-5.88,6.11s2.54,6.11,5.88,6.11c2.38,0,4.49-.96,6.07-2.31v4.55c-1.65,1.25-4.26,1.98-6.96,1.98-5.71,0-10.66-3.93-10.66-10.33Z" fill="#fff"/><path d="M399.29,17.86h5.35v19.8h-5.35V17.86Z" fill="#fff"/><path d="M407.11,17.86h5.35v15.78h8.42v4.03h-13.76V17.86Z" fill="#fff"/><path d="M420.31,27.76c0-6.07,4.92-10.46,10.99-10.46s10.92,4.39,10.92,10.46-4.88,10.46-10.92,10.46-10.99-4.39-10.99-10.46Zm16.24,0c0-3.8-1.95-6.27-5.25-6.27s-5.31,2.47-5.31,6.27,1.98,6.27,5.31,6.27,5.25-2.47,5.25-6.27Z" fill="#fff"/><path d="M442.81,27.76c0-6.4,5.15-10.33,10.99-10.33,2.74,0,5.54,.73,7.2,1.98v4.55c-1.68-1.32-3.6-2.31-6.4-2.31-3.66,0-6.17,2.24-6.17,6.44s2.38,6.3,5.74,6.3c1.09,0,1.88-.2,2.64-.53v-3.27h-2.94v-3.7h7.95v9.47c-1.15,.5-4.42,1.85-8.48,1.85-5.71,0-10.53-4.06-10.53-10.46Z" fill="#fff"/><path d="M464.3,17.86h13.76v4.03h-8.42v3.33h6.77v3.99h-6.77v4.42h8.42v4.03h-13.76V17.86Z" fill="#fff"/><path d="M484.76,27.53l-6.73-9.67h6.07l4.09,6.27,4.16-6.27h5.94l-6.73,9.64,7.13,10.17h-6.07l-4.49-6.8-4.55,6.8h-5.94l7.13-10.13Z" fill="#fff"/><path d="M504.42,20.34v8.51h-3.47v-8.51h-3.4v-2.48h10.3v2.48h-3.43Zm15.05,8.51v-5.48c0-.26,.07-1.19,.07-1.29-.03,.1-.3,1.02-.4,1.29l-1.98,5.48h-2.28l-1.98-5.48c-.1-.23-.36-1.12-.4-1.29,0,.1,.07,1.02,.07,1.29v5.48h-2.97v-10.99h3.93l2.57,7.16,2.54-7.16h3.89v10.99h-3.07Z" fill="#fff"/><path d="M317.71,67.49l1.19-3.89c1.49,1.25,3.63,2.64,6.24,2.64,1.62,0,2.87-.63,2.87-2.01,0-1.29-.86-1.82-3.7-2.48-4.52-1.06-6.07-3.47-6.07-6.4,0-3.6,2.84-5.94,7.26-5.94,2.61,0,4.95,.92,6.5,2.01l-1.09,3.56c-1.49-.92-3.56-1.72-5.48-1.72-1.42,0-2.31,.59-2.31,1.58,0,.92,.59,1.49,2.84,2.01,4.95,1.16,6.96,3.23,6.96,6.8,0,4.65-3.76,6.4-7.79,6.4-3.4,0-5.88-1.29-7.43-2.58Z" fill="#fff"/><path d="M339.13,53.89h-6.37v-4.03h18.09v4.03h-6.37v15.78h-5.35v-15.78Z" fill="#fff"/><path d="M352.49,49.86h5.35v19.8h-5.35v-19.8Z" fill="#fff"/><path d="M366.65,62.04v7.62h-5.35v-19.8h9.01c4.82,0,6.9,2.9,6.9,6.11,0,2.67-1.52,4.79-3.86,5.54l5.78,8.15h-5.78l-5.28-7.62h-1.42Zm2.31-3.4c2.05,0,2.97-.92,2.97-2.61s-.92-2.64-2.97-2.64h-2.31v5.25h2.31Z" fill="#fff"/><path d="M385.53,62.04v7.62h-5.35v-19.8h9.01c4.82,0,6.9,2.9,6.9,6.11,0,2.67-1.52,4.79-3.86,5.54l5.78,8.15h-5.78l-5.28-7.62h-1.42Zm2.31-3.4c2.05,0,2.97-.92,2.97-2.61s-.92-2.64-2.97-2.64h-2.31v5.25h2.31Z" fill="#fff"/><path d="M399.06,49.86h13.76v4.03h-8.42v3.33h6.77v3.99h-6.77v4.42h8.42v4.03h-13.76v-19.8Z" fill="#fff"/><path d="M421.03,62.04v7.62h-5.35v-19.8h9.01c4.82,0,6.9,2.9,6.9,6.11,0,2.67-1.52,4.79-3.86,5.54l5.78,8.15h-5.78l-5.28-7.62h-1.42Zm2.31-3.4c2.05,0,2.97-.92,2.97-2.61s-.92-2.64-2.97-2.64h-2.31v5.25h2.31Z" fill="#fff"/><path d="M433.21,67.49l1.19-3.89c1.49,1.25,3.63,2.64,6.24,2.64,1.62,0,2.87-.63,2.87-2.01,0-1.29-.86-1.82-3.7-2.48-4.52-1.06-6.07-3.47-6.07-6.4,0-3.6,2.84-5.94,7.26-5.94,2.61,0,4.95,.92,6.5,2.01l-1.09,3.56c-1.49-.92-3.56-1.72-5.48-1.72-1.42,0-2.31,.59-2.31,1.58,0,.92,.59,1.49,2.84,2.01,4.95,1.16,6.96,3.23,6.96,6.8,0,4.65-3.76,6.4-7.79,6.4-3.4,0-5.88-1.29-7.43-2.58Z" fill="#fff"/><path d="M318,99.66c0-5.52,4.47-9.51,9.99-9.51s9.93,3.99,9.93,9.51-4.44,9.51-9.93,9.51-9.99-3.99-9.99-9.51Zm14.76,0c0-3.45-1.77-5.7-4.77-5.7s-4.83,2.25-4.83,5.7,1.8,5.7,4.83,5.7,4.77-2.25,4.77-5.7Z" fill="#fff"/><path d="M339.48,90.67h3.69l8.16,10.35v-10.35h4.29v18h-3.69l-8.16-10.35v10.35h-4.29v-18Z" fill="#fff"/><path d="M361.74,90.67h7.98c4.08,0,5.64,2.13,5.64,4.71,0,1.38-.9,2.85-1.95,3.54,1.83,.78,2.91,2.58,2.91,4.47,0,2.91-1.77,5.28-6.3,5.28h-8.28v-18Zm6.81,7.02c1.44,0,2.19-.69,2.19-1.95s-.75-1.98-2.19-1.98h-1.95v3.93h1.95Zm.24,7.89c1.89,0,2.82-.81,2.82-2.4s-.93-2.4-2.82-2.4h-2.19v4.8h2.19Z" fill="#fff"/><path d="M377.67,90.67h12.51v3.66h-7.65v3.03h6.15v3.63h-6.15v4.02h7.65v3.66h-12.51v-18Z" fill="#fff"/><path d="M392.04,90.67h3.69l8.16,10.35v-10.35h4.29v18h-3.69l-8.16-10.35v10.35h-4.29v-18Z" fill="#fff"/><path d="M409.74,99.66c0-5.82,4.5-9.39,9.69-9.39,2.46,0,4.83,.66,6.33,1.8v4.14c-1.44-1.23-3.36-2.1-5.52-2.1-3.03,0-5.34,1.95-5.34,5.55s2.31,5.55,5.34,5.55c2.16,0,4.08-.87,5.52-2.1v4.14c-1.5,1.14-3.87,1.8-6.33,1.8-5.19,0-9.69-3.57-9.69-9.39Z" fill="#fff"/><path d="M427.44,90.67h4.86v6.45h7.11v-6.45h4.86v18h-4.86v-7.44h-7.11v7.44h-4.86v-18Z" fill="#fff"/><path d="M446.67,90.67h5.43l4.89,11.43,4.89-11.43h5.31v18h-4.29v-9.81c0-.42,.09-1.8,.12-1.92l-.66,1.92-4.05,9.81h-2.88l-4.05-9.81c-.18-.42-.6-1.71-.66-1.92,0,.12,.12,1.5,.12,1.92v9.81h-4.17v-18Z" fill="#fff"/><path d="M475.44,90.67h4.11l7.56,18h-4.83l-1.53-3.84h-6.66l-1.5,3.84h-4.71l7.56-18Zm4.14,11.01l-2.16-5.67-2.16,5.67h4.32Z" fill="#fff"/><path d="M492.66,101.74v6.93h-4.86v-18h8.19c4.38,0,6.27,2.64,6.27,5.55,0,2.43-1.38,4.35-3.51,5.04l5.25,7.41h-5.25l-4.8-6.93h-1.29Zm2.1-3.09c1.86,0,2.7-.84,2.7-2.37s-.84-2.4-2.7-2.4h-2.1v4.77h2.1Z" fill="#fff"/><path d="M515.91,108.66l-6.84-8.13v8.13h-4.86v-18h4.86v7.95l6.27-7.95h5.22l-6.99,8.58,8.19,9.42h-5.85Z" fill="#fff"/><path d="M318.24,135.48c0-2.51,1.62-4.09,3.53-5.35-.96-1.65-1.48-3.2-1.48-4.59,0-3,2.9-5.25,6.4-5.25,3.3,0,5.61,2.01,5.61,4.52,0,2.74-2.67,4.22-5.12,5.71,.89,1.25,1.95,2.41,2.77,3.2,.1-.59,.26-2.84,.26-3.76h6.6v3h-3.04c-.07,1.12-.33,2.61-.92,3.83,.92,.83,1.55,1.06,2.34,1.06s1.65-.5,2.47-1.39l1.62,2.01c-1.39,2.05-3.3,2.67-4.62,2.67s-2.61-.26-4.22-1.35c-1.16,.83-2.67,1.35-4.59,1.35-4.12,0-7.62-2.01-7.62-5.68Zm9.51,1.98c-1.25-1.19-2.71-2.64-3.93-4.32-.46,.56-.73,1.22-.73,1.95,0,1.49,1.02,2.81,3,2.81,.59,0,1.12-.17,1.65-.43Zm.4-12.64c0-.79-.63-1.42-1.55-1.42-1.39,0-1.88,1.16-1.88,2.11,0,.89,.26,1.72,.69,2.54,1.55-.92,2.74-1.85,2.74-3.24Z" fill="#fff"/><path d="M344.41,130.76c0-6.07,4.92-10.46,10.99-10.46s10.92,4.39,10.92,10.46-4.88,10.46-10.92,10.46-10.99-4.39-10.99-10.46Zm16.24,0c0-3.8-1.95-6.27-5.25-6.27s-5.31,2.47-5.31,6.27,1.98,6.27,5.31,6.27,5.25-2.47,5.25-6.27Z" fill="#fff"/><path d="M368.86,120.86h5.35v7.1h7.82v-7.1h5.35v19.8h-5.35v-8.19h-7.82v8.19h-5.35v-19.8Z" fill="#fff"/><path d="M397.24,120.86h4.52l8.32,19.8h-5.31l-1.68-4.22h-7.33l-1.65,4.22h-5.18l8.32-19.8Zm4.55,12.11l-2.38-6.24-2.38,6.24h4.75Z" fill="#fff"/><path d="M410.34,131.52v-10.66h5.41v10.36c0,3.5,1.39,5.38,4.22,5.38s4.26-1.88,4.26-5.38v-10.36h5.25v10.66c0,6.7-4.22,9.7-9.57,9.7s-9.57-3-9.57-9.7Z" fill="#fff"/><path d="M431.63,138.49l1.19-3.89c1.49,1.25,3.63,2.64,6.24,2.64,1.62,0,2.87-.63,2.87-2.01,0-1.29-.86-1.82-3.7-2.48-4.52-1.06-6.07-3.47-6.07-6.4,0-3.6,2.84-5.94,7.26-5.94,2.61,0,4.95,.92,6.5,2.01l-1.09,3.56c-1.49-.92-3.56-1.72-5.48-1.72-1.42,0-2.31,.59-2.31,1.58,0,.92,.59,1.49,2.84,2.01,4.95,1.16,6.96,3.23,6.96,6.8,0,4.65-3.76,6.4-7.79,6.4-3.4,0-5.88-1.29-7.43-2.58Z" fill="#fff"/><path d="M447.66,127.92c0-4.22,3.43-7.62,7.62-7.62s7.66,3.4,7.66,7.62-3.43,7.62-7.66,7.62-7.62-3.4-7.62-7.62Zm14.29,0c0-3.66-3-6.63-6.67-6.63s-6.63,2.97-6.63,6.63,2.97,6.63,6.63,6.63,6.67-2.97,6.67-6.63Zm-1.85,4.32h-3.33l-1.72-3.3h-.59v3.3h-2.77v-8.81h4.36c2.28,0,3.17,1.35,3.17,2.77,0,1.12-.59,2.01-1.52,2.41l2.41,3.63Zm-4.85-4.95c.79,0,1.19-.33,1.19-1.06s-.4-1.09-1.19-1.09h-.79v2.15h.79Z" fill="#fff"/></g></svg>