<?xml version="1.0" encoding="UTF-8"?><svg id="a" xmlns="http://www.w3.org/2000/svg" viewBox="0 0 591.1 178.47"><polygon points="501.38 178.47 6.17 178.47 6.22 7.92 591.1 8.09 501.38 178.47" fill="#4c4d4f"/><polygon points="493.75 169.43 0 168.88 .05 0 584.25 .39 493.75 169.43" fill="#006bb6"/><g><path d="M21.81,41.82l1.84-6.02c2.29,1.94,5.61,4.08,9.64,4.08,2.5,0,4.44-.97,4.44-3.11,0-1.99-1.33-2.8-5.71-3.82-6.99-1.63-9.38-5.35-9.38-9.89,0-5.56,4.39-9.18,11.22-9.18,4.03,0,7.65,1.43,10.05,3.11l-1.68,5.51c-2.29-1.43-5.51-2.65-8.47-2.65-2.19,0-3.57,.92-3.57,2.45,0,1.43,.92,2.29,4.39,3.11,7.65,1.79,10.76,5,10.76,10.5,0,7.19-5.81,9.89-12.04,9.89-5.25,0-9.08-1.99-11.47-3.98Z" fill="#fff"/><path d="M58.38,14.59h6.99l12.85,30.6h-8.21l-2.6-6.53h-11.32l-2.55,6.53h-8.01l12.85-30.6Zm7.04,18.72l-3.67-9.64-3.67,9.64h7.34Z" fill="#fff"/><path d="M73.73,14.59h8.52l7.8,19.58,7.75-19.58h8.31l-12.85,30.6h-6.68l-12.85-30.6Z" fill="#fff"/><path d="M108.92,14.59h21.26v6.22h-13v5.15h10.45v6.17h-10.45v6.83h13v6.22h-21.26V14.59Z" fill="#fff"/></g><g><path d="M145.76,68.5l14.24-14.85c5.76-6.06,10.91-11.51,10.91-18.48,0-6.16-4.54-8.38-8.58-8.38-4.65,0-9.59,1.92-15.05,6.46v-12.93c3.74-3.03,12.32-6.26,18.89-6.26,11.82,0,21.31,7.07,21.31,18.58,0,10.5-6.46,17.57-12.52,22.93l-9.7,8.58h23.53v12.32h-43.02v-7.98Z" fill="#fff"/><path d="M196.87,71.73v-12.42c4.75,4.54,10.81,7.37,16.87,7.37,6.67,0,10.81-3.74,10.81-9.59,0-5.55-3.74-8.48-9.49-8.48-4.44,0-7.37,1.52-9.29,4.85l-6.77-2.83V15.88h38.99v12.32h-26.46v11.21c1.62-1.11,4.54-2.32,9.09-2.32,11.92,0,19.8,7.68,19.8,19.59,0,13.74-10.81,21.51-23.84,21.51-8.18,0-15.55-2.73-19.69-6.46Z" fill="#fff"/><path d="M247.97,29.41c0-8.28,5.96-15.05,14.85-15.05s14.85,6.77,14.85,15.05-5.96,15.15-14.85,15.15-14.85-6.77-14.85-15.15Zm20,0c0-5.76-1.92-7.88-5.15-7.88s-5.15,2.12-5.15,7.88,1.92,7.98,5.15,7.98,5.15-2.12,5.15-7.98Zm-10.1,46.66l38.78-62.01,4.34,2.22-38.78,62.01-4.34-2.22Zm23.23-13.53c0-8.28,5.96-15.05,14.85-15.05s14.85,6.77,14.85,15.05-5.96,15.15-14.85,15.15-14.85-6.77-14.85-15.15Zm20,0c0-5.76-1.92-7.88-5.15-7.88s-5.15,2.12-5.15,7.88,1.92,7.98,5.15,7.98,5.15-2.12,5.15-7.98Z" fill="#fff"/><path d="M153.74,152.48v-49.08h-6.46v-9.59l22.22-3.33v62.01h-15.76Z" fill="#fff"/><path d="M182.73,147.73v-12.42c4.75,4.54,10.81,7.37,16.87,7.37,6.67,0,10.81-3.74,10.81-9.59,0-5.55-3.74-8.48-9.49-8.48-4.44,0-7.37,1.51-9.29,4.85l-6.77-2.83v-34.74h38.99v12.32h-26.46v11.21c1.62-1.11,4.54-2.32,9.09-2.32,11.92,0,19.8,7.68,19.8,19.59,0,13.74-10.81,21.51-23.84,21.51-8.18,0-15.55-2.73-19.69-6.46Z" fill="#fff"/><path d="M233.83,105.41c0-8.28,5.96-15.05,14.85-15.05s14.85,6.77,14.85,15.05-5.96,15.15-14.85,15.15-14.85-6.77-14.85-15.15Zm20,0c0-5.76-1.92-7.88-5.15-7.88s-5.15,2.12-5.15,7.88,1.92,7.98,5.15,7.98,5.15-2.12,5.15-7.98Zm-10.1,46.66l38.78-62.01,4.34,2.22-38.78,62.01-4.34-2.22Zm23.23-13.53c0-8.28,5.96-15.05,14.85-15.05s14.85,6.77,14.85,15.05-5.96,15.15-14.85,15.15-14.85-6.77-14.85-15.15Zm20,0c0-5.76-1.92-7.88-5.15-7.88s-5.15,2.12-5.15,7.88,1.92,7.98,5.15,7.98,5.15-2.12,5.15-7.98Z" fill="#fff"/></g><g><path d="M318.11,29.76c0-6.07,4.92-10.46,10.99-10.46s10.92,4.39,10.92,10.46-4.88,10.46-10.92,10.46-10.99-4.39-10.99-10.46Zm16.24,0c0-3.8-1.95-6.27-5.25-6.27s-5.31,2.47-5.31,6.27,1.98,6.27,5.31,6.27,5.25-2.47,5.25-6.27Z" fill="#fff"/><path d="M341.57,19.86h4.06l8.98,11.39v-11.39h4.72v19.8h-4.06l-8.98-11.39v11.39h-4.72V19.86Z" fill="#fff"/><path d="M365.73,19.86h5.35v15.78h8.42v4.03h-13.76V19.86Z" fill="#fff"/><path d="M386.58,19.86h4.52l8.32,19.8h-5.31l-1.68-4.22h-7.33l-1.65,4.22h-5.18l8.32-19.8Zm4.55,12.11l-2.38-6.24-2.38,6.24h4.75Z" fill="#fff"/><path d="M400.01,19.86h8.78c4.49,0,6.21,2.34,6.21,5.18,0,1.52-.99,3.14-2.15,3.89,2.01,.86,3.2,2.84,3.2,4.92,0,3.2-1.95,5.81-6.93,5.81h-9.11V19.86Zm7.49,7.72c1.58,0,2.41-.76,2.41-2.14s-.83-2.18-2.41-2.18h-2.15v4.32h2.15Zm.26,8.68c2.08,0,3.1-.89,3.1-2.64s-1.02-2.64-3.1-2.64h-2.41v5.28h2.41Z" fill="#fff"/><path d="M416.41,29.76c0-6.4,4.95-10.33,10.66-10.33,2.71,0,5.31,.73,6.96,1.98v4.55c-1.58-1.35-3.7-2.31-6.07-2.31-3.33,0-5.87,2.14-5.87,6.11s2.54,6.11,5.87,6.11c2.38,0,4.49-.96,6.07-2.31v4.55c-1.65,1.25-4.26,1.98-6.96,1.98-5.71,0-10.66-3.93-10.66-10.33Z" fill="#fff"/><path d="M434.43,29.76c0-6.07,4.92-10.46,10.99-10.46s10.92,4.39,10.92,10.46-4.88,10.46-10.92,10.46-10.99-4.39-10.99-10.46Zm16.24,0c0-3.8-1.95-6.27-5.25-6.27s-5.31,2.47-5.31,6.27,1.98,6.27,5.31,6.27,5.25-2.47,5.25-6.27Z" fill="#fff"/><path d="M457.89,19.86h4.06l8.98,11.39v-11.39h4.72v19.8h-4.06l-8.98-11.39v11.39h-4.72V19.86Z" fill="#fff"/><path d="M477.2,29.76c0-6.4,4.95-10.33,10.66-10.33,2.71,0,5.31,.73,6.96,1.98v4.55c-1.58-1.35-3.7-2.31-6.07-2.31-3.33,0-5.88,2.14-5.88,6.11s2.54,6.11,5.88,6.11c2.38,0,4.49-.96,6.07-2.31v4.55c-1.65,1.25-4.26,1.98-6.96,1.98-5.71,0-10.66-3.93-10.66-10.33Z" fill="#fff"/><path d="M495.22,29.76c0-6.07,4.92-10.46,10.99-10.46s10.92,4.39,10.92,10.46-4.88,10.46-10.92,10.46-10.99-4.39-10.99-10.46Zm16.24,0c0-3.8-1.95-6.27-5.25-6.27s-5.31,2.47-5.31,6.27,1.98,6.27,5.31,6.27,5.25-2.47,5.25-6.27Z" fill="#fff"/><path d="M524.26,22.34v8.51h-3.47v-8.51h-3.4v-2.48h10.3v2.48h-3.43Zm15.05,8.51v-5.48c0-.26,.07-1.19,.07-1.29-.03,.1-.3,1.02-.4,1.29l-1.98,5.48h-2.28l-1.98-5.48c-.1-.23-.36-1.12-.4-1.29,0,.1,.07,1.02,.07,1.29v5.48h-2.97v-10.99h3.93l2.57,7.16,2.54-7.16h3.89v10.99h-3.07Z" fill="#fff"/><path d="M319.06,51.86h8.45c4.98,0,7.26,3,7.26,6.63s-2.28,6.63-7.26,6.63h-3.1v6.54h-5.35v-19.8Zm7.16,9.74c2.28,0,3.23-1.19,3.23-3.1s-.96-3.1-3.23-3.1h-1.82v6.21h1.82Z" fill="#fff"/><path d="M334.71,61.76c0-6.07,4.92-10.46,10.99-10.46s10.92,4.39,10.92,10.46-4.88,10.46-10.92,10.46-10.99-4.39-10.99-10.46Zm16.24,0c0-3.8-1.95-6.27-5.25-6.27s-5.31,2.47-5.31,6.27,1.98,6.27,5.31,6.27,5.25-2.47,5.25-6.27Z" fill="#fff"/><path d="M355.03,51.86h5.25l3.23,10.26c.17,.56,.53,2.47,.53,2.47,0,0,.46-1.88,.63-2.47l3-10.26h4.06l3.04,10.26c.17,.59,.59,2.47,.59,2.47,0,0,.33-1.88,.53-2.47l3.24-10.26h5.12l-6.73,19.8h-4.16l-3.23-10.13c-.2-.59-.46-1.85-.46-1.95-.03,.13-.33,1.39-.5,1.95l-3.2,10.13h-4.19l-6.73-19.8Z" fill="#fff"/><path d="M384.44,51.86h7.72c8.15,0,11.49,4.46,11.49,9.9s-3.33,9.9-11.49,9.9h-7.72v-19.8Zm7.29,15.68c4.46,0,6.47-1.81,6.47-5.78s-2.01-5.78-6.47-5.78h-1.95v11.55h1.95Z" fill="#fff"/><path d="M404.8,51.86h13.76v4.03h-8.42v3.33h6.77v3.99h-6.77v4.42h8.42v4.03h-13.76v-19.8Z" fill="#fff"/><path d="M425.42,64.04v7.62h-5.35v-19.8h9.01c4.82,0,6.9,2.9,6.9,6.11,0,2.67-1.52,4.79-3.86,5.54l5.78,8.15h-5.78l-5.28-7.62h-1.42Zm2.31-3.4c2.05,0,2.97-.92,2.97-2.61s-.92-2.64-2.97-2.64h-2.31v5.25h2.31Z" fill="#fff"/><path d="M441.13,51.86h5.35v7.1h7.82v-7.1h5.35v19.8h-5.35v-8.19h-7.82v8.19h-5.35v-19.8Z" fill="#fff"/><path d="M460.8,61.76c0-6.07,4.92-10.46,10.99-10.46s10.92,4.39,10.92,10.46-4.88,10.46-10.92,10.46-10.99-4.39-10.99-10.46Zm16.24,0c0-3.8-1.95-6.27-5.25-6.27s-5.31,2.47-5.31,6.27,1.98,6.27,5.31,6.27,5.25-2.47,5.25-6.27Z" fill="#fff"/><path d="M482.94,61.76c0-6.07,4.92-10.46,10.99-10.46s10.92,4.39,10.92,10.46-4.88,10.46-10.92,10.46-10.99-4.39-10.99-10.46Zm16.24,0c0-3.8-1.95-6.27-5.25-6.27s-5.31,2.47-5.31,6.27,1.98,6.27,5.31,6.27,5.25-2.47,5.25-6.27Z" fill="#fff"/><path d="M506.04,51.86h7.72c8.15,0,11.49,4.46,11.49,9.9s-3.33,9.9-11.49,9.9h-7.72v-19.8Zm7.29,15.68c4.46,0,6.47-1.81,6.47-5.78s-2.01-5.78-6.47-5.78h-1.95v11.55h1.95Z" fill="#fff"/><path d="M525.05,69.49l1.19-3.89c1.48,1.25,3.63,2.64,6.24,2.64,1.62,0,2.87-.63,2.87-2.01,0-1.29-.86-1.82-3.7-2.48-4.52-1.06-6.07-3.47-6.07-6.4,0-3.6,2.84-5.94,7.26-5.94,2.61,0,4.95,.92,6.5,2.01l-1.09,3.56c-1.49-.92-3.56-1.72-5.48-1.72-1.42,0-2.31,.59-2.31,1.58,0,.92,.59,1.49,2.84,2.01,4.95,1.16,6.96,3.23,6.96,6.8,0,4.65-3.76,6.4-7.79,6.4-3.4,0-5.88-1.29-7.43-2.58Z" fill="#fff"/><path d="M318.11,107.76c0-6.07,4.92-10.46,10.99-10.46s10.92,4.39,10.92,10.46-4.88,10.46-10.92,10.46-10.99-4.39-10.99-10.46Zm16.24,0c0-3.8-1.95-6.27-5.25-6.27s-5.31,2.47-5.31,6.27,1.98,6.27,5.31,6.27,5.25-2.47,5.25-6.27Z" fill="#fff"/><path d="M341.74,97.86h4.06l8.98,11.39v-11.39h4.72v19.8h-4.06l-8.98-11.39v11.39h-4.72v-19.8Z" fill="#fff"/><path d="M366.22,97.86h5.35v15.78h8.42v4.03h-13.76v-19.8Z" fill="#fff"/><path d="M387.24,97.86h4.52l8.32,19.8h-5.31l-1.68-4.22h-7.33l-1.65,4.22h-5.18l8.32-19.8Zm4.55,12.11l-2.38-6.24-2.38,6.24h4.75Z" fill="#fff"/><path d="M400.84,97.86h8.78c4.49,0,6.21,2.34,6.21,5.18,0,1.52-.99,3.14-2.15,3.89,2.01,.86,3.2,2.84,3.2,4.92,0,3.2-1.95,5.81-6.93,5.81h-9.11v-19.8Zm7.49,7.72c1.58,0,2.41-.76,2.41-2.14s-.83-2.18-2.41-2.18h-2.15v4.32h2.15Zm.26,8.68c2.08,0,3.1-.89,3.1-2.64s-1.02-2.64-3.1-2.64h-2.41v5.28h2.41Z" fill="#fff"/><path d="M417.4,107.76c0-6.4,4.95-10.33,10.66-10.33,2.71,0,5.31,.73,6.96,1.98v4.55c-1.58-1.35-3.7-2.31-6.07-2.31-3.33,0-5.87,2.14-5.87,6.11s2.54,6.11,5.87,6.11c2.38,0,4.49-.96,6.07-2.31v4.55c-1.65,1.25-4.26,1.98-6.96,1.98-5.71,0-10.66-3.93-10.66-10.33Z" fill="#fff"/><path d="M435.59,107.76c0-6.07,4.92-10.46,10.99-10.46s10.92,4.39,10.92,10.46-4.88,10.46-10.92,10.46-10.99-4.39-10.99-10.46Zm16.24,0c0-3.8-1.95-6.27-5.25-6.27s-5.31,2.47-5.31,6.27,1.98,6.27,5.31,6.27,5.25-2.47,5.25-6.27Z" fill="#fff"/><path d="M459.21,97.86h4.06l8.98,11.39v-11.39h4.72v19.8h-4.06l-8.98-11.39v11.39h-4.72v-19.8Z" fill="#fff"/><path d="M478.68,107.76c0-6.4,4.95-10.33,10.66-10.33,2.71,0,5.31,.73,6.96,1.98v4.55c-1.58-1.35-3.7-2.31-6.07-2.31-3.33,0-5.87,2.14-5.87,6.11s2.54,6.11,5.87,6.11c2.38,0,4.49-.96,6.07-2.31v4.55c-1.65,1.25-4.26,1.98-6.96,1.98-5.71,0-10.66-3.93-10.66-10.33Z" fill="#fff"/><path d="M496.87,107.76c0-6.07,4.92-10.46,10.99-10.46s10.92,4.39,10.92,10.46-4.88,10.46-10.92,10.46-10.99-4.39-10.99-10.46Zm16.24,0c0-3.8-1.95-6.27-5.25-6.27s-5.31,2.47-5.31,6.27,1.98,6.27,5.31,6.27,5.25-2.47,5.25-6.27Z" fill="#fff"/><path d="M317.71,147.49l1.19-3.89c1.49,1.25,3.63,2.64,6.24,2.64,1.62,0,2.87-.63,2.87-2.01,0-1.29-.86-1.82-3.7-2.48-4.52-1.06-6.07-3.47-6.07-6.4,0-3.6,2.84-5.94,7.26-5.94,2.61,0,4.95,.92,6.5,2.01l-1.09,3.56c-1.49-.92-3.56-1.72-5.48-1.72-1.42,0-2.31,.59-2.31,1.58,0,.92,.59,1.49,2.84,2.01,4.95,1.16,6.96,3.23,6.96,6.8,0,4.65-3.76,6.4-7.79,6.4-3.4,0-5.88-1.29-7.43-2.58Z" fill="#fff"/><path d="M339.13,133.89h-6.37v-4.03h18.09v4.03h-6.37v15.78h-5.35v-15.78Z" fill="#fff"/><path d="M356.49,129.86h4.52l8.32,19.8h-5.31l-1.68-4.22h-7.33l-1.65,4.22h-5.18l8.32-19.8Zm4.55,12.11l-2.38-6.24-2.38,6.24h4.75Z" fill="#fff"/><path d="M370.91,129.86h4.06l8.98,11.39v-11.39h4.72v19.8h-4.06l-8.98-11.39v11.39h-4.72v-19.8Z" fill="#fff"/><path d="M392.16,129.86h7.72c8.15,0,11.49,4.46,11.49,9.9s-3.33,9.9-11.49,9.9h-7.72v-19.8Zm7.29,15.68c4.46,0,6.47-1.81,6.47-5.78s-2.01-5.78-6.47-5.78h-1.95v11.55h1.95Z" fill="#fff"/><path d="M412.52,147.49l1.19-3.89c1.48,1.25,3.63,2.64,6.24,2.64,1.62,0,2.87-.63,2.87-2.01,0-1.29-.86-1.82-3.7-2.48-4.52-1.06-6.07-3.47-6.07-6.4,0-3.6,2.84-5.94,7.26-5.94,2.61,0,4.95,.92,6.5,2.01l-1.09,3.56c-1.49-.92-3.56-1.72-5.48-1.72-1.42,0-2.31,.59-2.31,1.58,0,.92,.59,1.49,2.84,2.01,4.95,1.16,6.96,3.23,6.96,6.8,0,4.65-3.76,6.4-7.79,6.4-3.4,0-5.88-1.29-7.43-2.58Z" fill="#fff"/></g></svg>