<?xml version="1.0" encoding="UTF-8"?><svg id="a" xmlns="http://www.w3.org/2000/svg" viewBox="0 0 591.1 178.47"><polygon points="501.38 178.47 6.17 178.47 6.22 7.92 591.1 8.09 501.38 178.47" fill="#4c4d4f"/><polygon points="493.75 169.43 0 168.88 .05 0 584.25 .39 493.75 169.43" fill="#006bb6"/><g><path d="M21.81,41.82l1.84-6.02c2.29,1.94,5.61,4.08,9.64,4.08,2.5,0,4.44-.97,4.44-3.11,0-1.99-1.33-2.8-5.71-3.82-6.99-1.63-9.38-5.35-9.38-9.89,0-5.56,4.39-9.18,11.22-9.18,4.03,0,7.65,1.43,10.05,3.11l-1.68,5.51c-2.29-1.43-5.51-2.65-8.47-2.65-2.19,0-3.57,.92-3.57,2.45,0,1.43,.92,2.29,4.39,3.11,7.65,1.79,10.76,5,10.76,10.5,0,7.19-5.81,9.89-12.04,9.89-5.25,0-9.08-1.99-11.47-3.98Z" fill="#fff"/><path d="M58.38,14.59h6.99l12.85,30.6h-8.21l-2.6-6.53h-11.32l-2.55,6.53h-8.01l12.85-30.6Zm7.04,18.72l-3.67-9.64-3.67,9.64h7.34Z" fill="#fff"/><path d="M73.73,14.59h8.52l7.8,19.58,7.75-19.58h8.31l-12.85,30.6h-6.68l-12.85-30.6Z" fill="#fff"/><path d="M108.92,14.59h21.26v6.22h-13v5.15h10.45v6.17h-10.45v6.83h13v6.22h-21.26V14.59Z" fill="#fff"/></g><g><path d="M147.68,71.73v-12.42c4.85,4.65,10.81,7.37,16.87,7.37,6.67,0,11.21-3.64,11.21-9.8,0-5.55-3.43-8.58-8.89-8.58-3.43,0-5.66,1.72-7.27,2.93l-6.36-7.37,16.56-15.65h-21.92V15.88h42.62v7.27l-15.96,15.05c9.49,1.11,16.97,7.68,16.97,18.99,0,13.23-11.11,21.01-24.14,21.01-8.18,0-15.55-2.73-19.69-6.46Z" fill="#fff"/><path d="M199.69,45.98c0-20.2,11.31-32.12,26.56-32.12s26.56,11.92,26.56,32.12-11.41,32.22-26.56,32.22-26.56-11.92-26.56-32.22Zm36.66,0c0-14.24-3.54-19.9-10.1-19.9s-10.1,5.66-10.1,19.9,3.53,20,10.1,20,10.1-5.66,10.1-20Z" fill="#fff"/><path d="M260.9,29.41c0-8.28,5.96-15.05,14.85-15.05s14.85,6.77,14.85,15.05-5.96,15.15-14.85,15.15-14.85-6.77-14.85-15.15Zm20,0c0-5.76-1.92-7.88-5.15-7.88s-5.15,2.12-5.15,7.88,1.92,7.98,5.15,7.98,5.15-2.12,5.15-7.98Zm-10.1,46.66l38.78-62.01,4.34,2.22-38.78,62.01-4.34-2.22Zm23.23-13.53c0-8.28,5.96-15.05,14.85-15.05s14.85,6.77,14.85,15.05-5.96,15.15-14.85,15.15-14.85-6.77-14.85-15.15Zm20,0c0-5.76-1.92-7.88-5.15-7.88s-5.15,2.12-5.15,7.88,1.92,7.98,5.15,7.98,5.15-2.12,5.15-7.98Z" fill="#fff"/><path d="M144.98,105.48c0-7.36,5.96-12.68,13.32-12.68s13.24,5.32,13.24,12.68-5.92,12.68-13.24,12.68-13.32-5.32-13.32-12.68Zm19.68,0c0-4.6-2.36-7.6-6.36-7.6s-6.44,3-6.44,7.6,2.4,7.6,6.44,7.6,6.36-3,6.36-7.6Z" fill="#fff"/><path d="M173.9,93.48h4.92l10.88,13.8v-13.8h5.72v24h-4.92l-10.88-13.8v13.8h-5.72v-24Z" fill="#fff"/><path d="M204.14,93.48h10.24c6.04,0,8.8,3.64,8.8,8.04s-2.76,8.04-8.8,8.04h-3.76v7.92h-6.48v-24Zm8.68,11.8c2.76,0,3.92-1.44,3.92-3.76s-1.16-3.76-3.92-3.76h-2.2v7.52h2.2Z" fill="#fff"/><path d="M231.06,108.24v9.24h-6.48v-24h10.92c5.84,0,8.36,3.52,8.36,7.4,0,3.24-1.84,5.8-4.68,6.72l7,9.88h-7l-6.4-9.24h-1.72Zm2.8-4.12c2.48,0,3.6-1.12,3.6-3.16s-1.12-3.2-3.6-3.2h-2.8v6.36h2.8Z" fill="#fff"/><path d="M245.58,105.48c0-7.36,5.96-12.68,13.32-12.68s13.24,5.32,13.24,12.68-5.92,12.68-13.24,12.68-13.32-5.32-13.32-12.68Zm19.68,0c0-4.6-2.36-7.6-6.36-7.6s-6.44,3-6.44,7.6,2.4,7.6,6.44,7.6,6.36-3,6.36-7.6Z" fill="#fff"/><path d="M274.5,93.48h16.16v4.88h-9.68v4.32h7.68v4.84h-7.68v9.96h-6.48v-24Z" fill="#fff"/><path d="M291.94,93.48h6.48v24h-6.48v-24Z" fill="#fff"/><path d="M301.9,93.48h6.48v19.12h10.2v4.88h-16.68v-24Z" fill="#fff"/><path d="M319.9,93.48h6.48v19.12h10.2v4.88h-16.68v-24Z" fill="#fff"/><path d="M337.9,93.48h16.68v4.88h-10.2v4.04h8.2v4.84h-8.2v5.36h10.2v4.88h-16.68v-24Z" fill="#fff"/><path d="M363.81,108.24v9.24h-6.48v-24h10.92c5.84,0,8.36,3.52,8.36,7.4,0,3.24-1.84,5.8-4.68,6.72l7,9.88h-7l-6.4-9.24h-1.72Zm2.8-4.12c2.48,0,3.6-1.12,3.6-3.16s-1.12-3.2-3.6-3.2h-2.8v6.36h2.8Z" fill="#fff"/><path d="M377.66,102.04c0-5.12,4.16-9.24,9.24-9.24s9.28,4.12,9.28,9.24-4.16,9.24-9.28,9.24-9.24-4.12-9.24-9.24Zm17.32,0c0-4.44-3.64-8.04-8.08-8.04s-8.04,3.6-8.04,8.04,3.6,8.04,8.04,8.04,8.08-3.6,8.08-8.04Zm-2.24,5.24h-4.04l-2.08-4h-.72v4h-3.36v-10.68h5.28c2.76,0,3.84,1.64,3.84,3.36,0,1.36-.72,2.44-1.84,2.92l2.92,4.4Zm-5.88-6c.96,0,1.44-.4,1.44-1.28s-.48-1.32-1.44-1.32h-.96v2.6h.96Z" fill="#fff"/><path d="M144.98,146.48c0-7.76,6-12.52,12.92-12.52,3.28,0,6.44,.88,8.44,2.4v5.52c-1.92-1.64-4.48-2.8-7.36-2.8-4.04,0-7.12,2.6-7.12,7.4s3.08,7.4,7.12,7.4c2.88,0,5.44-1.16,7.36-2.8v5.52c-2,1.52-5.16,2.4-8.44,2.4-6.92,0-12.92-4.76-12.92-12.52Z" fill="#fff"/><path d="M176.62,134.48h5.48l10.08,24h-6.44l-2.04-5.12h-8.88l-2,5.12h-6.28l10.08-24Zm5.52,14.68l-2.88-7.56-2.88,7.56h5.76Z" fill="#fff"/><path d="M193.38,134.48h10.24c6.04,0,8.8,3.64,8.8,8.04s-2.76,8.04-8.8,8.04h-3.76v7.92h-6.48v-24Zm8.68,11.8c2.76,0,3.92-1.44,3.92-3.76s-1.16-3.76-3.92-3.76h-2.2v7.52h2.2Z" fill="#fff"/><path d="M212.62,155.84l1.44-4.72c1.8,1.52,4.4,3.2,7.56,3.2,1.96,0,3.48-.76,3.48-2.44,0-1.56-1.04-2.2-4.48-3-5.48-1.28-7.36-4.2-7.36-7.76,0-4.36,3.44-7.2,8.8-7.2,3.16,0,6,1.12,7.88,2.44l-1.32,4.32c-1.8-1.12-4.32-2.08-6.64-2.08-1.72,0-2.8,.72-2.8,1.92,0,1.12,.72,1.8,3.44,2.44,6,1.4,8.44,3.92,8.44,8.24,0,5.64-4.56,7.76-9.44,7.76-4.12,0-7.12-1.56-9-3.12Z" fill="#fff"/><path d="M233.18,147.4v-12.92h6.56v12.56c0,4.24,1.68,6.52,5.12,6.52s5.16-2.28,5.16-6.52v-12.56h6.36v12.92c0,8.12-5.12,11.76-11.6,11.76s-11.6-3.64-11.6-11.76Z" fill="#fff"/><path d="M259.9,134.48h6.48v19.12h10.2v4.88h-16.68v-24Z" fill="#fff"/><path d="M277.9,134.48h16.68v4.88h-10.2v4.04h8.2v4.84h-8.2v5.36h10.2v4.88h-16.68v-24Z" fill="#fff"/><path d="M302.54,134.48h7.24l6.52,15.24,6.52-15.24h7.08v24h-5.72v-13.08c0-.56,.12-2.4,.16-2.56l-.88,2.56-5.4,13.08h-3.84l-5.4-13.08c-.24-.56-.8-2.28-.88-2.56,0,.16,.16,2,.16,2.56v13.08h-5.56v-24Z" fill="#fff"/><path d="M341.17,134.48h5.48l10.08,24h-6.44l-2.04-5.12h-8.88l-2,5.12h-6.28l10.08-24Zm5.52,14.68l-2.88-7.56-2.88,7.56h5.76Z" fill="#fff"/><path d="M355.18,146.48c0-7.76,6-12.52,12.92-12.52,3.28,0,6.44,.88,8.44,2.4v5.52c-1.92-1.64-4.48-2.8-7.36-2.8-4.04,0-7.12,2.6-7.12,7.4s3.08,7.4,7.12,7.4c2.88,0,5.44-1.16,7.36-2.8v5.52c-2,1.52-5.16,2.4-8.44,2.4-6.92,0-12.92-4.76-12.92-12.52Z" fill="#fff"/><path d="M379.06,134.48h6.48v8.6h9.48v-8.6h6.48v24h-6.48v-9.92h-9.48v9.92h-6.48v-24Z" fill="#fff"/><path d="M404.98,134.48h6.48v24h-6.48v-24Z" fill="#fff"/><path d="M414.93,134.48h4.92l10.88,13.8v-13.8h5.72v24h-4.92l-10.88-13.8v13.8h-5.72v-24Z" fill="#fff"/><path d="M439.97,134.48h16.68v4.88h-10.2v4.04h8.2v4.84h-8.2v5.36h10.2v4.88h-16.68v-24Z" fill="#fff"/><path d="M457.78,155.84l1.44-4.72c1.8,1.52,4.4,3.2,7.56,3.2,1.96,0,3.48-.76,3.48-2.44,0-1.56-1.04-2.2-4.48-3-5.48-1.28-7.36-4.2-7.36-7.76,0-4.36,3.44-7.2,8.8-7.2,3.16,0,6,1.12,7.88,2.44l-1.32,4.32c-1.8-1.12-4.32-2.08-6.64-2.08-1.72,0-2.8,.72-2.8,1.92,0,1.12,.72,1.8,3.44,2.44,6,1.4,8.44,3.92,8.44,8.24,0,5.64-4.56,7.76-9.44,7.76-4.12,0-7.12-1.56-9-3.12Z" fill="#fff"/></g></svg>