<?xml version="1.0" encoding="UTF-8"?><svg id="a" xmlns="http://www.w3.org/2000/svg" viewBox="0 0 591.1 178.47"><polygon points="501.38 178.47 6.17 178.47 6.22 7.92 591.1 8.09 501.38 178.47" fill="#4c4d4f"/><polygon points="493.75 169.43 0 168.88 .05 0 584.25 .39 493.75 169.43" fill="#006bb6"/><g><path d="M56.36,37.01l1.51-4.96c1.89,1.6,4.62,3.36,7.94,3.36,2.06,0,3.65-.8,3.65-2.56,0-1.64-1.09-2.31-4.7-3.15-5.76-1.34-7.73-4.41-7.73-8.15,0-4.58,3.61-7.56,9.24-7.56,3.32,0,6.3,1.18,8.28,2.56l-1.39,4.54c-1.89-1.18-4.54-2.18-6.97-2.18-1.81,0-2.94,.76-2.94,2.02,0,1.18,.76,1.89,3.61,2.56,6.3,1.47,8.86,4.12,8.86,8.65,0,5.92-4.79,8.15-9.91,8.15-4.33,0-7.48-1.64-9.45-3.28Z" fill="#fff"/><path d="M86.48,14.58h5.75l10.59,25.2h-6.76l-2.14-5.38h-9.33l-2.1,5.38h-6.6l10.59-25.2Zm5.8,15.42l-3.02-7.94-3.02,7.94h6.05Z" fill="#fff"/><path d="M99.11,14.58h7.02l6.43,16.13,6.38-16.13h6.85l-10.59,25.2h-5.5l-10.59-25.2Z" fill="#fff"/><path d="M128.1,14.58h17.52v5.12h-10.71v4.24h8.61v5.08h-8.61v5.63h10.71v5.12h-17.52V14.58Z" fill="#fff"/><path d="M39.1,66.15v-13.57h6.89v13.19c0,4.45,1.76,6.85,5.38,6.85s5.42-2.39,5.42-6.85v-13.19h6.68v13.57c0,8.53-5.38,12.35-12.18,12.35s-12.18-3.82-12.18-12.35Z" fill="#fff"/><path d="M68.25,52.58h10.75c6.34,0,9.24,3.82,9.24,8.44s-2.9,8.44-9.24,8.44h-3.95v8.32h-6.81v-25.2Zm9.12,12.39c2.9,0,4.12-1.51,4.12-3.95s-1.22-3.95-4.12-3.95h-2.31v7.9h2.31Z" fill="#fff"/><path d="M103.11,57.71h-8.11v-5.12h23.02v5.12h-8.11v20.08h-6.81v-20.08Z" fill="#fff"/><path d="M118.14,65.18c0-7.73,6.26-13.32,13.99-13.32s13.9,5.59,13.9,13.32-6.22,13.32-13.9,13.32-13.99-5.59-13.99-13.32Zm20.67,0c0-4.83-2.48-7.98-6.68-7.98s-6.76,3.15-6.76,7.98,2.52,7.98,6.76,7.98,6.68-3.15,6.68-7.98Z" fill="#fff"/></g><g><path d="M188.44,62.54h-27.17v-7.98l28.58-38.68h14.34V51.63h11.01v10.91h-11.01v13.94h-15.76v-13.94Zm0-10.91v-17.67l-12.93,17.67h12.93Z" fill="#fff"/><path d="M222.57,45.98c0-20.2,11.31-32.12,26.56-32.12s26.56,11.92,26.56,32.12-11.41,32.22-26.56,32.22-26.56-11.92-26.56-32.22Zm36.66,0c0-14.24-3.54-19.9-10.1-19.9s-10.1,5.66-10.1,19.9,3.53,20,10.1,20,10.1-5.66,10.1-20Z" fill="#fff"/><path d="M283.78,29.41c0-8.28,5.96-15.05,14.85-15.05s14.85,6.77,14.85,15.05-5.96,15.15-14.85,15.15-14.85-6.77-14.85-15.15Zm20,0c0-5.76-1.92-7.88-5.15-7.88s-5.15,2.12-5.15,7.88,1.92,7.98,5.15,7.98,5.15-2.12,5.15-7.98Zm-10.1,46.66l38.78-62.01,4.34,2.22-38.78,62.01-4.34-2.22Zm23.23-13.53c0-8.28,5.96-15.05,14.85-15.05s14.85,6.77,14.85,15.05-5.96,15.15-14.85,15.15-14.85-6.77-14.85-15.15Zm20,0c0-5.76-1.92-7.88-5.15-7.88s-5.15,2.12-5.15,7.88,1.92,7.98,5.15,7.98,5.15-2.12,5.15-7.98Z" fill="#fff"/><path d="M164.65,104.28c0-8.1,6.56-13.95,14.65-13.95s14.57,5.85,14.57,13.95-6.51,13.95-14.57,13.95-14.65-5.85-14.65-13.95Zm21.65,0c0-5.06-2.6-8.36-7-8.36s-7.08,3.3-7.08,8.36,2.64,8.36,7.08,8.36,7-3.3,7-8.36Z" fill="#fff"/><path d="M197.17,91.07h5.41l11.97,15.18v-15.18h6.29v26.4h-5.41l-11.97-15.18v15.18h-6.29v-26.4Z" fill="#fff"/><path d="M231.84,91.07h17.78v5.37h-10.65v4.75h8.45v5.33h-8.45v10.96h-7.13v-26.4Z" fill="#fff"/><path d="M257.75,91.07h6.03l11.09,26.4h-7.08l-2.24-5.63h-9.77l-2.2,5.63h-6.91l11.09-26.4Zm6.07,16.15l-3.17-8.32-3.17,8.32h6.34Z" fill="#fff"/><path d="M273.86,104.28c0-8.54,6.6-13.77,14.21-13.77,3.61,0,7.08,.97,9.29,2.64v6.07c-2.11-1.8-4.93-3.08-8.1-3.08-4.44,0-7.83,2.86-7.83,8.14s3.39,8.14,7.83,8.14c3.17,0,5.98-1.28,8.1-3.08v6.07c-2.2,1.67-5.68,2.64-9.29,2.64-7.61,0-14.21-5.24-14.21-13.77Z" fill="#fff"/><path d="M300.83,91.07h18.35v5.37h-11.22v4.45h9.02v5.32h-9.02v5.9h11.22v5.37h-18.35v-26.4Z" fill="#fff"/><path d="M165.68,127.07h7.97l7.17,16.77,7.17-16.77h7.79v26.4h-6.29v-14.39c0-.62,.13-2.64,.18-2.82l-.97,2.82-5.94,14.39h-4.22l-5.94-14.39c-.26-.62-.88-2.51-.97-2.82,0,.18,.18,2.2,.18,2.82v14.39h-6.12v-26.4Z" fill="#fff"/><path d="M208.53,127.07h6.03l11.09,26.4h-7.08l-2.24-5.63h-9.77l-2.2,5.63h-6.91l11.09-26.4Zm6.07,16.15l-3.17-8.32-3.17,8.32h6.34Z" fill="#fff"/><path d="M225.52,150.57l1.58-5.19c1.98,1.67,4.84,3.52,8.32,3.52,2.16,0,3.83-.84,3.83-2.68,0-1.72-1.14-2.42-4.93-3.3-6.03-1.41-8.1-4.62-8.1-8.54,0-4.8,3.78-7.92,9.68-7.92,3.48,0,6.6,1.23,8.67,2.68l-1.45,4.75c-1.98-1.23-4.75-2.29-7.31-2.29-1.89,0-3.08,.79-3.08,2.11,0,1.23,.79,1.98,3.78,2.68,6.6,1.54,9.29,4.31,9.29,9.07,0,6.2-5.02,8.54-10.39,8.54-4.53,0-7.83-1.72-9.9-3.43Z" fill="#fff"/><path d="M265.65,153.48l-10.03-11.93v11.93h-7.13v-26.4h7.13v11.66l9.2-11.66h7.66l-10.25,12.59,12.01,13.82h-8.58Z" fill="#fff"/><path d="M272.82,150.57l1.58-5.19c1.98,1.67,4.84,3.52,8.32,3.52,2.16,0,3.83-.84,3.83-2.68,0-1.72-1.14-2.42-4.93-3.3-6.03-1.41-8.1-4.62-8.1-8.54,0-4.8,3.78-7.92,9.68-7.92,3.48,0,6.6,1.23,8.67,2.68l-1.45,4.75c-1.98-1.23-4.75-2.29-7.31-2.29-1.89,0-3.08,.79-3.08,2.11,0,1.23,.79,1.98,3.78,2.68,6.6,1.54,9.29,4.31,9.29,9.07,0,6.2-5.02,8.54-10.39,8.54-4.53,0-7.83-1.72-9.9-3.43Z" fill="#fff"/></g></svg>