<?xml version="1.0" encoding="UTF-8"?><svg xmlns="http://www.w3.org/2000/svg" viewBox="0 0 582.42 285.92"><g id="a"><g><polygon points="455.67 285.92 8.16 285.92 8.2 7.72 582.42 8 455.67 285.92" fill="#4c4d4f"/><polygon points="447.52 278.2 0 278.2 .05 0 574.27 .28 447.52 278.2" fill="#006bb6"/></g></g><g id="b"><g><path d="M38.3,46.82l1.84-6.02c2.29,1.94,5.61,4.08,9.64,4.08,2.5,0,4.44-.97,4.44-3.11,0-1.99-1.33-2.8-5.71-3.82-6.99-1.63-9.38-5.35-9.38-9.89,0-5.56,4.39-9.18,11.22-9.18,4.03,0,7.65,1.43,10.05,3.11l-1.68,5.51c-2.29-1.43-5.51-2.65-8.47-2.65-2.19,0-3.57,.92-3.57,2.45,0,1.43,.92,2.29,4.39,3.11,7.65,1.79,10.76,5,10.76,10.5,0,7.19-5.81,9.89-12.03,9.89-5.25,0-9.08-1.99-11.47-3.98Z" fill="#fff"/><path d="M74.86,19.59h6.99l12.85,30.6h-8.21l-2.6-6.53h-11.32l-2.55,6.53h-8.01l12.85-30.6Zm7.04,18.71l-3.67-9.64-3.67,9.64h7.34Z" fill="#fff"/><path d="M90.21,19.59h8.52l7.8,19.58,7.75-19.58h8.31l-12.85,30.6h-6.68l-12.85-30.6Z" fill="#fff"/><path d="M125.4,19.59h21.27v6.22h-13v5.15h10.45v6.17h-10.45v6.83h13v6.22h-21.27V19.59Z" fill="#fff"/><path d="M159.47,36.06V19.59h8.36v16.01c0,5.41,2.14,8.31,6.53,8.31s6.58-2.91,6.58-8.31V19.59h8.11v16.47c0,10.35-6.53,14.99-14.79,14.99s-14.79-4.64-14.79-14.99Z" fill="#fff"/><path d="M194.86,19.59h13.05c7.7,0,11.22,4.64,11.22,10.25s-3.52,10.25-11.22,10.25h-4.79v10.1h-8.26V19.59Zm11.07,15.04c3.52,0,5-1.84,5-4.79s-1.48-4.79-5-4.79h-2.8v9.59h2.8Z" fill="#fff"/><path d="M237.19,25.81h-9.84v-6.22h27.95v6.22h-9.84v24.38h-8.26V25.81Z" fill="#fff"/><path d="M255.45,34.89c0-9.38,7.6-16.17,16.98-16.17s16.88,6.78,16.88,16.17-7.55,16.17-16.88,16.17-16.98-6.78-16.98-16.17Zm25.09,0c0-5.86-3.01-9.69-8.11-9.69s-8.21,3.82-8.21,9.69,3.06,9.69,8.21,9.69,8.11-3.82,8.11-9.69Z" fill="#fff"/><path d="M43.18,152.18v-18.33c7.15,6.85,15.94,10.88,24.88,10.88,9.83,0,16.54-5.36,16.54-14.45,0-8.2-5.07-12.67-13.11-12.67-5.07,0-8.34,2.53-10.73,4.32l-9.39-10.88,24.44-23.1H43.48v-18.18h62.88v10.73l-23.54,22.2c14.01,1.64,25.03,11.32,25.03,28.01,0,19.52-16.39,30.99-35.61,30.99-12.07,0-22.95-4.02-29.06-9.54Z" fill="#fff"/><path d="M119.92,114.19c0-29.8,16.69-47.38,39.19-47.38s39.19,17.58,39.19,47.38-16.84,47.53-39.19,47.53-39.19-17.58-39.19-47.53Zm54.09,0c0-21.01-5.21-29.35-14.9-29.35s-14.9,8.34-14.9,29.35,5.22,29.5,14.9,29.5,14.9-8.34,14.9-29.5Z" fill="#fff"/><path d="M210.21,89.75c0-12.22,8.79-22.2,21.9-22.2s21.9,9.98,21.9,22.2-8.79,22.35-21.9,22.35-21.9-9.98-21.9-22.35Zm29.5,0c0-8.49-2.83-11.62-7.6-11.62s-7.6,3.13-7.6,11.62,2.83,11.77,7.6,11.77,7.6-3.13,7.6-11.77Zm-14.9,68.84l57.22-91.49,6.41,3.28-57.22,91.49-6.41-3.28Zm34.27-19.97c0-12.22,8.79-22.2,21.9-22.2s21.9,9.98,21.9,22.2-8.79,22.35-21.9,22.35-21.9-9.98-21.9-22.35Zm29.5,0c0-8.49-2.83-11.62-7.6-11.62s-7.6,3.13-7.6,11.62,2.83,11.77,7.6,11.77,7.6-3.13,7.6-11.77Z" fill="#fff"/><path d="M38.87,196.18c0-9.2,7.45-15.85,16.65-15.85s16.55,6.65,16.55,15.85-7.4,15.85-16.55,15.85-16.65-6.65-16.65-15.85Zm24.6,0c0-5.75-2.95-9.5-7.95-9.5s-8.05,3.75-8.05,9.5,3,9.5,8.05,9.5,7.95-3.75,7.95-9.5Z" fill="#fff"/><path d="M77.17,181.18h6.15l13.6,17.25v-17.25h7.15v30h-6.15l-13.6-17.25v17.25h-7.15v-30Z" fill="#fff"/><path d="M117.82,196.18c0-9.7,7.8-15.65,16.65-15.65,4.15,0,8.4,1.1,10.9,3v6.9c-2.55-2-5.45-3.5-9.7-3.5-5.55,0-9.35,3.4-9.35,9.75s3.6,9.55,8.7,9.55c1.65,0,2.85-.3,4-.8v-4.95h-4.45v-5.6h12.05v14.35c-1.75,.75-6.7,2.8-12.85,2.8-8.65,0-15.95-6.15-15.95-15.85Z" fill="#fff"/><path d="M161.82,181.18h6.85l12.6,30h-8.05l-2.55-6.4h-11.1l-2.5,6.4h-7.85l12.6-30Zm6.9,18.35l-3.6-9.45-3.6,9.45h7.2Z" fill="#fff"/><path d="M204.42,211.19l-11.4-13.55v13.55h-8.1v-30h8.1v13.25l10.45-13.25h8.7l-11.65,14.3,13.65,15.7h-9.75Z" fill="#fff"/><path d="M212.92,196.18c0-9.2,7.45-15.85,16.65-15.85s16.55,6.65,16.55,15.85-7.4,15.85-16.55,15.85-16.65-6.65-16.65-15.85Zm24.6,0c0-5.75-2.95-9.5-7.95-9.5s-8.05,3.75-8.05,9.5,3,9.5,8.05,9.5,7.95-3.75,7.95-9.5Z" fill="#fff"/><path d="M40.39,247.06v-16.47h8.36v16.01c0,5.41,2.14,8.31,6.53,8.31s6.58-2.91,6.58-8.31v-16.01h8.11v16.47c0,10.35-6.53,14.99-14.79,14.99s-14.79-4.64-14.79-14.99Z" fill="#fff"/><path d="M75.83,230.59h6.27l13.87,17.59v-17.59h7.29v30.6h-6.27l-13.87-17.59v17.59h-7.29v-30.6Z" fill="#fff"/><path d="M107.66,245.89c0-9.89,7.96-15.96,16.98-15.96,4.23,0,8.57,1.12,11.12,3.06v7.04c-2.6-2.04-5.56-3.57-9.89-3.57-5.66,0-9.54,3.47-9.54,9.94s3.67,9.74,8.87,9.74c1.68,0,2.91-.31,4.08-.82v-5.05h-4.54v-5.71h12.29v14.63c-1.79,.77-6.83,2.86-13.11,2.86-8.82,0-16.27-6.27-16.27-16.17Z" fill="#fff"/><path d="M142.85,247.06v-16.47h8.36v16.01c0,5.41,2.14,8.31,6.53,8.31s6.58-2.91,6.58-8.31v-16.01h8.11v16.47c0,10.35-6.53,14.99-14.79,14.99s-14.79-4.64-14.79-14.99Z" fill="#fff"/><path d="M186.14,230.59h6.99l12.85,30.6h-8.21l-2.6-6.53h-11.32l-2.55,6.53h-8.01l12.85-30.6Zm7.04,18.71l-3.67-9.64-3.67,9.64h7.34Z" fill="#fff"/><path d="M212.15,236.81h-9.84v-6.22h27.95v6.22h-9.84v24.38h-8.26v-24.38Z" fill="#fff"/><path d="M230.46,245.89c0-9.38,7.6-16.17,16.98-16.17s16.88,6.78,16.88,16.17-7.55,16.17-16.88,16.17-16.98-6.78-16.98-16.17Zm25.09,0c0-5.86-3.01-9.69-8.11-9.69s-8.21,3.82-8.21,9.69,3.06,9.69,8.21,9.69,8.11-3.82,8.11-9.69Z" fill="#fff"/><path d="M276.97,249.41v11.78h-8.26v-30.6h13.92c7.45,0,10.66,4.49,10.66,9.43,0,4.13-2.35,7.39-5.97,8.57l8.92,12.6h-8.92l-8.16-11.78h-2.19Zm3.57-5.25c3.16,0,4.59-1.43,4.59-4.03s-1.43-4.08-4.59-4.08h-3.57v8.11h3.57Z" fill="#fff"/><path d="M296.25,257.82l1.84-6.02c2.29,1.94,5.61,4.08,9.64,4.08,2.5,0,4.44-.97,4.44-3.11,0-1.99-1.33-2.8-5.71-3.82-6.99-1.63-9.38-5.35-9.38-9.89,0-5.56,4.39-9.18,11.22-9.18,4.03,0,7.65,1.43,10.05,3.11l-1.68,5.51c-2.29-1.43-5.51-2.65-8.47-2.65-2.19,0-3.57,.92-3.57,2.45,0,1.43,.92,2.29,4.39,3.11,7.65,1.79,10.76,5,10.76,10.5,0,7.19-5.81,9.89-12.04,9.89-5.25,0-9.08-1.99-11.47-3.98Z" fill="#fff"/></g></g></svg>