<?xml version="1.0" encoding="UTF-8"?><svg id="a" xmlns="http://www.w3.org/2000/svg" viewBox="0 0 591.1 178.47"><polygon points="501.38 178.47 6.17 178.47 6.22 7.92 591.1 8.09 501.38 178.47" fill="#4c4d4f"/><polygon points="493.75 169.43 0 168.88 .05 0 584.25 .39 493.75 169.43" fill="#006bb6"/><g><path d="M21.81,41.82l1.84-6.02c2.29,1.94,5.61,4.08,9.64,4.08,2.5,0,4.44-.97,4.44-3.11,0-1.99-1.33-2.8-5.71-3.82-6.99-1.63-9.38-5.35-9.38-9.89,0-5.56,4.39-9.18,11.22-9.18,4.03,0,7.65,1.43,10.05,3.11l-1.68,5.51c-2.29-1.43-5.51-2.65-8.47-2.65-2.19,0-3.57,.92-3.57,2.45,0,1.43,.92,2.29,4.39,3.11,7.65,1.79,10.76,5,10.76,10.5,0,7.19-5.81,9.89-12.04,9.89-5.25,0-9.08-1.99-11.47-3.98Z" fill="#fff"/><path d="M58.38,14.59h6.99l12.85,30.6h-8.21l-2.6-6.53h-11.32l-2.55,6.53h-8.01l12.85-30.6Zm7.04,18.72l-3.67-9.64-3.67,9.64h7.34Z" fill="#fff"/><path d="M73.73,14.59h8.52l7.8,19.58,7.75-19.58h8.31l-12.85,30.6h-6.68l-12.85-30.6Z" fill="#fff"/><path d="M108.92,14.59h21.26v6.22h-13v5.15h10.45v6.17h-10.45v6.83h13v6.22h-21.26V14.59Z" fill="#fff"/></g><g><path d="M145.76,68.5l14.24-14.85c5.76-6.06,10.91-11.51,10.91-18.48,0-6.16-4.54-8.38-8.58-8.38-4.65,0-9.59,1.92-15.05,6.46v-12.93c3.74-3.03,12.32-6.26,18.89-6.26,11.82,0,21.31,7.07,21.31,18.58,0,10.5-6.46,17.57-12.52,22.93l-9.7,8.58h23.53v12.32h-43.02v-7.98Z" fill="#fff"/><path d="M196.87,71.73v-12.42c4.75,4.54,10.81,7.37,16.87,7.37,6.67,0,10.81-3.74,10.81-9.59,0-5.55-3.74-8.48-9.49-8.48-4.44,0-7.37,1.52-9.29,4.85l-6.77-2.83V15.88h38.99v12.32h-26.46v11.21c1.62-1.11,4.54-2.32,9.09-2.32,11.92,0,19.8,7.68,19.8,19.59,0,13.74-10.81,21.51-23.84,21.51-8.18,0-15.55-2.73-19.69-6.46Z" fill="#fff"/><path d="M247.97,29.41c0-8.28,5.96-15.05,14.85-15.05s14.85,6.77,14.85,15.05-5.96,15.15-14.85,15.15-14.85-6.77-14.85-15.15Zm20,0c0-5.76-1.92-7.88-5.15-7.88s-5.15,2.12-5.15,7.88,1.92,7.98,5.15,7.98,5.15-2.12,5.15-7.98Zm-10.1,46.66l38.78-62.01,4.34,2.22-38.78,62.01-4.34-2.22Zm23.23-13.53c0-8.28,5.96-15.05,14.85-15.05s14.85,6.77,14.85,15.05-5.96,15.15-14.85,15.15-14.85-6.77-14.85-15.15Zm20,0c0-5.76-1.92-7.88-5.15-7.88s-5.15,2.12-5.15,7.88,1.92,7.98,5.15,7.98,5.15-2.12,5.15-7.98Z" fill="#fff"/><path d="M144.98,105.48c0-7.36,5.96-12.68,13.32-12.68s13.24,5.32,13.24,12.68-5.92,12.68-13.24,12.68-13.32-5.32-13.32-12.68Zm19.68,0c0-4.6-2.36-7.6-6.36-7.6s-6.44,3-6.44,7.6,2.4,7.6,6.44,7.6,6.36-3,6.36-7.6Z" fill="#fff"/><path d="M173.9,93.48h4.92l10.88,13.8v-13.8h5.72v24h-4.92l-10.88-13.8v13.8h-5.72v-24Z" fill="#fff"/><path d="M204.14,93.48h10.24c6.04,0,8.8,3.64,8.8,8.04s-2.76,8.04-8.8,8.04h-3.76v7.92h-6.48v-24Zm8.68,11.8c2.76,0,3.92-1.44,3.92-3.76s-1.16-3.76-3.92-3.76h-2.2v7.52h2.2Z" fill="#fff"/><path d="M230.38,107.88l-9.4-14.4h7.12l5.6,9.08,5.6-9.08h6.96l-9.4,14.4v9.6h-6.48v-9.6Z" fill="#fff"/><path d="M253.66,108.24v9.24h-6.48v-24h10.92c5.84,0,8.36,3.52,8.36,7.4,0,3.24-1.84,5.8-4.68,6.72l7,9.88h-7l-6.4-9.24h-1.72Zm2.8-4.12c2.48,0,3.6-1.12,3.6-3.16s-1.12-3.2-3.6-3.2h-2.8v6.36h2.8Z" fill="#fff"/><path d="M269.34,93.48h16.68v4.88h-10.2v4.04h8.2v4.84h-8.2v5.36h10.2v4.88h-16.68v-24Z" fill="#fff"/><path d="M294.62,105.2l-8.16-11.72h7.36l4.96,7.6,5.04-7.6h7.2l-8.16,11.68,8.64,12.32h-7.36l-5.44-8.24-5.52,8.24h-7.2l8.64-12.28Z" fill="#fff"/><path d="M310.34,102.04c0-5.12,4.16-9.24,9.24-9.24s9.28,4.12,9.28,9.24-4.16,9.24-9.28,9.24-9.24-4.12-9.24-9.24Zm17.32,0c0-4.44-3.64-8.04-8.08-8.04s-8.04,3.6-8.04,8.04,3.6,8.04,8.04,8.04,8.08-3.6,8.08-8.04Zm-2.24,5.24h-4.04l-2.08-4h-.72v4h-3.36v-10.68h5.28c2.76,0,3.84,1.64,3.84,3.36,0,1.36-.72,2.44-1.84,2.92l2.92,4.4Zm-5.88-6c.96,0,1.44-.4,1.44-1.28s-.48-1.32-1.44-1.32h-.96v2.6h.96Z" fill="#fff"/><path d="M144.84,147.68c0-6.98,5.62-11.27,11.99-11.27,2.99,0,6.05,.79,7.85,2.16v4.97c-1.84-1.44-3.92-2.52-6.98-2.52-4,0-6.73,2.45-6.73,7.02s2.59,6.88,6.26,6.88c1.19,0,2.05-.22,2.88-.58v-3.56h-3.2v-4.03h8.67v10.33c-1.26,.54-4.82,2.02-9.25,2.02-6.23,0-11.48-4.43-11.48-11.41Z" fill="#fff"/><path d="M173.81,150.16v8.32h-5.83v-21.6h9.83c5.26,0,7.52,3.17,7.52,6.66,0,2.92-1.66,5.22-4.21,6.05l6.3,8.89h-6.3l-5.76-8.32h-1.55Zm2.52-3.71c2.23,0,3.24-1.01,3.24-2.84s-1.01-2.88-3.24-2.88h-2.52v5.72h2.52Z" fill="#fff"/><path d="M194.19,136.88h4.93l9.07,21.6h-5.8l-1.84-4.61h-7.99l-1.8,4.61h-5.65l9.07-21.6Zm4.97,13.21l-2.59-6.8-2.59,6.8h5.18Z" fill="#fff"/><path d="M208.55,136.88h8.42c8.89,0,12.53,4.86,12.53,10.8s-3.64,10.8-12.53,10.8h-8.42v-21.6Zm7.96,17.1c4.86,0,7.05-1.98,7.05-6.3s-2.2-6.3-7.05-6.3h-2.12v12.6h2.12Z" fill="#fff"/><path d="M230.87,148.51v-11.63h5.9v11.3c0,3.82,1.51,5.87,4.61,5.87s4.64-2.05,4.64-5.87v-11.3h5.72v11.63c0,7.31-4.61,10.58-10.44,10.58s-10.44-3.28-10.44-10.58Z" fill="#fff"/><path d="M259.75,136.88h4.93l9.07,21.6h-5.8l-1.84-4.61h-7.99l-1.8,4.61h-5.65l9.07-21.6Zm4.97,13.21l-2.59-6.8-2.59,6.8h5.18Z" fill="#fff"/><path d="M276.41,141.27h-6.95v-4.39h19.73v4.39h-6.95v17.21h-5.83v-17.21Z" fill="#fff"/><path d="M289.63,136.88h15.01v4.39h-9.18v3.64h7.38v4.36h-7.38v4.82h9.18v4.39h-15.01v-21.6Z" fill="#fff"/><path d="M306.4,136.88h8.42c8.89,0,12.53,4.86,12.53,10.8s-3.64,10.8-12.53,10.8h-8.42v-21.6Zm7.96,17.1c4.86,0,7.05-1.98,7.05-6.3s-2.2-6.3-7.05-6.3h-2.12v12.6h2.12Z" fill="#fff"/><path d="M331.64,147.68c0-6.98,5.4-11.27,11.63-11.27,2.95,0,5.79,.79,7.59,2.16v4.97c-1.73-1.48-4.03-2.52-6.62-2.52-3.64,0-6.41,2.34-6.41,6.66s2.77,6.66,6.41,6.66c2.59,0,4.9-1.04,6.62-2.52v4.97c-1.8,1.37-4.64,2.16-7.59,2.16-6.23,0-11.63-4.28-11.63-11.27Z" fill="#fff"/><path d="M358.56,149.84l-8.46-12.96h6.41l5.04,8.17,5.04-8.17h6.26l-8.46,12.96v8.64h-5.83v-8.64Z" fill="#fff"/><path d="M372.96,136.88h5.83v17.21h9.18v4.39h-15.01v-21.6Z" fill="#fff"/><path d="M388.44,136.88h5.83v21.6h-5.83v-21.6Z" fill="#fff"/><path d="M396.69,136.88h4.43l9.79,12.42v-12.42h5.15v21.6h-4.43l-9.79-12.42v12.42h-5.15v-21.6Z" fill="#fff"/><path d="M418.5,136.88h8.42c8.89,0,12.53,4.86,12.53,10.8s-3.64,10.8-12.53,10.8h-8.42v-21.6Zm7.96,17.1c4.86,0,7.05-1.98,7.05-6.3s-2.2-6.3-7.05-6.3h-2.12v12.6h2.12Z" fill="#fff"/><path d="M440.82,136.88h15.01v4.39h-9.18v3.64h7.38v4.36h-7.38v4.82h9.18v4.39h-15.01v-21.6Z" fill="#fff"/><path d="M463.43,150.16v8.32h-5.83v-21.6h9.83c5.26,0,7.52,3.17,7.52,6.66,0,2.92-1.66,5.22-4.21,6.05l6.3,8.89h-6.3l-5.76-8.32h-1.55Zm2.52-3.71c2.23,0,3.24-1.01,3.24-2.84s-1.01-2.88-3.24-2.88h-2.52v5.72h2.52Z" fill="#fff"/><path d="M475.35,156.1l1.3-4.25c1.62,1.37,3.96,2.88,6.8,2.88,1.76,0,3.13-.68,3.13-2.2,0-1.4-.94-1.98-4.03-2.7-4.93-1.15-6.62-3.78-6.62-6.98,0-3.92,3.1-6.48,7.92-6.48,2.84,0,5.4,1.01,7.09,2.2l-1.19,3.89c-1.62-1.01-3.89-1.87-5.97-1.87-1.55,0-2.52,.65-2.52,1.73,0,1.01,.65,1.62,3.09,2.2,5.4,1.26,7.6,3.53,7.6,7.42,0,5.08-4.1,6.98-8.5,6.98-3.71,0-6.41-1.4-8.1-2.81Z" fill="#fff"/></g></svg>