<?xml version="1.0" encoding="UTF-8"?><svg id="a" xmlns="http://www.w3.org/2000/svg" viewBox="0 0 592.14 179.11"><polygon points="504.12 178.08 7.89 179.11 8.35 4.72 592.14 8.56 504.12 178.08" fill="#4c4d4f"/><polygon points="494.88 170.21 0 170 .05 0 584.86 .17 494.88 170.21" fill="#006bb6"/><g><path d="M195.73,63.74h-27.98v-8.22l29.43-39.83h14.77V52.51h11.34v11.23h-11.34v14.35h-16.22v-14.35Zm0-11.23v-18.2l-13.31,18.2h13.31Z" fill="#fff"/><path d="M226.31,46.68c0-20.8,11.65-33.07,27.35-33.07s27.35,12.27,27.35,33.07-11.75,33.18-27.35,33.18-27.35-12.27-27.35-33.18Zm37.75,0c0-14.66-3.64-20.49-10.4-20.49s-10.4,5.82-10.4,20.49,3.64,20.59,10.4,20.59,10.4-5.82,10.4-20.59Z" fill="#fff"/><path d="M284.76,29.63c0-8.53,6.14-15.5,15.29-15.5s15.29,6.97,15.29,15.5-6.14,15.6-15.29,15.6-15.29-6.97-15.29-15.6Zm20.59,0c0-5.93-1.98-8.11-5.3-8.11s-5.3,2.18-5.3,8.11,1.98,8.22,5.3,8.22,5.3-2.18,5.3-8.22Zm-10.4,48.05l39.94-63.86,4.47,2.29-39.94,63.86-4.47-2.29Zm23.92-13.94c0-8.53,6.14-15.5,15.29-15.5s15.29,6.97,15.29,15.5-6.14,15.6-15.29,15.6-15.29-6.97-15.29-15.6Zm20.59,0c0-5.93-1.98-8.11-5.3-8.11s-5.3,2.18-5.3,8.11,1.98,8.22,5.3,8.22,5.3-2.18,5.3-8.22Z" fill="#fff"/><path d="M166.43,102.79c0-7.54,6.11-13,13.65-13s13.57,5.45,13.57,13-6.07,13-13.57,13-13.65-5.45-13.65-13Zm20.17,0c0-4.72-2.42-7.79-6.52-7.79s-6.6,3.07-6.6,7.79,2.46,7.79,6.6,7.79,6.52-3.08,6.52-7.79Z" fill="#fff"/><path d="M197.95,90.49h5.04l11.15,14.15v-14.15h5.86v24.6h-5.04l-11.15-14.15v14.15h-5.86v-24.6Z" fill="#fff"/><path d="M231.53,102.79c0-7.95,6.15-12.83,13.24-12.83,3.36,0,6.6,.9,8.65,2.46v5.66c-1.97-1.68-4.59-2.87-7.54-2.87-4.14,0-7.3,2.67-7.3,7.58s3.16,7.58,7.3,7.58c2.95,0,5.58-1.19,7.54-2.87v5.66c-2.05,1.56-5.29,2.46-8.65,2.46-7.09,0-13.24-4.88-13.24-12.83Z" fill="#fff"/><path d="M257.9,90.49h17.1v5h-10.46v4.14h8.4v4.96h-8.4v5.49h10.46v5h-17.1v-24.6Z" fill="#fff"/><path d="M279.71,90.49h5.04l11.15,14.15v-14.15h5.86v24.6h-5.04l-11.15-14.15v14.15h-5.86v-24.6Z" fill="#fff"/><path d="M312.88,95.5h-7.91v-5h22.47v5h-7.91v19.6h-6.64v-19.6Z" fill="#fff"/><path d="M337.27,105.62v9.47h-6.64v-24.6h11.19c5.99,0,8.57,3.61,8.57,7.58,0,3.32-1.89,5.95-4.8,6.89l7.17,10.13h-7.17l-6.56-9.47h-1.76Zm2.87-4.22c2.54,0,3.69-1.15,3.69-3.24s-1.15-3.28-3.69-3.28h-2.87v6.52h2.87Z" fill="#fff"/><path d="M355.23,90.49h6.64v24.6h-6.64v-24.6Z" fill="#fff"/><path d="M367.32,90.49h16.56v5h-9.92v4.43h7.87v4.96h-7.87v10.21h-6.64v-24.6Z" fill="#fff"/><path d="M387.08,103.74v-13.24h6.72v12.87c0,4.35,1.72,6.68,5.25,6.68s5.29-2.34,5.29-6.68v-12.87h6.52v13.24c0,8.32-5.25,12.05-11.89,12.05s-11.89-3.73-11.89-12.05Z" fill="#fff"/><path d="M415.17,102.79c0-7.95,6.4-12.83,13.65-12.83,3.4,0,6.89,.9,8.94,2.46v5.66c-2.09-1.64-4.47-2.87-7.95-2.87-4.55,0-7.67,2.79-7.67,8s2.95,7.83,7.13,7.83c1.35,0,2.34-.25,3.28-.66v-4.06h-3.65v-4.59h9.88v11.77c-1.44,.61-5.49,2.3-10.54,2.3-7.09,0-13.08-5.04-13.08-13Z" fill="#fff"/><path d="M444.24,90.49h17.1v5h-10.46v4.14h8.41v4.96h-8.41v5.49h10.46v5h-17.1v-24.6Z" fill="#fff"/><path d="M166.43,139.79c0-7.95,6.15-12.83,13.24-12.83,3.36,0,6.6,.9,8.65,2.46v5.66c-1.97-1.68-4.59-2.87-7.54-2.87-4.14,0-7.3,2.67-7.3,7.58s3.16,7.58,7.3,7.58c2.95,0,5.58-1.19,7.54-2.87v5.66c-2.05,1.56-5.29,2.46-8.65,2.46-7.09,0-13.24-4.88-13.24-12.83Z" fill="#fff"/><path d="M191.19,139.79c0-7.54,6.11-13,13.65-13s13.57,5.45,13.57,13-6.07,13-13.57,13-13.65-5.45-13.65-13Zm20.17,0c0-4.72-2.42-7.79-6.52-7.79s-6.6,3.07-6.6,7.79,2.46,7.79,6.6,7.79,6.52-3.08,6.52-7.79Z" fill="#fff"/><path d="M222.72,127.49h5.04l11.15,14.15v-14.15h5.86v24.6h-5.04l-11.15-14.15v14.15h-5.86v-24.6Z" fill="#fff"/><path d="M248.59,149.39l1.48-4.84c1.85,1.56,4.51,3.28,7.75,3.28,2.01,0,3.57-.78,3.57-2.5,0-1.6-1.07-2.26-4.59-3.08-5.62-1.31-7.54-4.31-7.54-7.95,0-4.47,3.53-7.38,9.02-7.38,3.24,0,6.15,1.15,8.08,2.5l-1.35,4.43c-1.85-1.15-4.43-2.13-6.81-2.13-1.76,0-2.87,.74-2.87,1.97,0,1.15,.74,1.84,3.53,2.5,6.15,1.44,8.65,4.02,8.65,8.45,0,5.78-4.67,7.95-9.68,7.95-4.22,0-7.3-1.6-9.23-3.2Z" fill="#fff"/><path d="M271.55,140.74v-13.24h6.72v12.87c0,4.35,1.72,6.68,5.25,6.68s5.29-2.34,5.29-6.68v-12.87h6.52v13.24c0,8.32-5.25,12.05-11.89,12.05s-11.89-3.73-11.89-12.05Z" fill="#fff"/><path d="M300.82,127.49h7.42l6.68,15.62,6.68-15.62h7.26v24.6h-5.86v-13.41c0-.57,.12-2.46,.16-2.62l-.9,2.62-5.54,13.41h-3.94l-5.54-13.41c-.25-.57-.82-2.34-.9-2.62,0,.16,.16,2.05,.16,2.62v13.41h-5.7v-24.6Z" fill="#fff"/><path d="M342.31,127.49h5.62l10.33,24.6h-6.6l-2.09-5.25h-9.1l-2.05,5.25h-6.44l10.33-24.6Zm5.66,15.05l-2.95-7.75-2.95,7.75h5.9Z" fill="#fff"/><path d="M361.38,127.49h10.91c5.58,0,7.71,2.91,7.71,6.44,0,1.89-1.23,3.89-2.67,4.84,2.5,1.07,3.98,3.53,3.98,6.11,0,3.98-2.42,7.22-8.61,7.22h-11.32v-24.6Zm9.31,9.59c1.97,0,2.99-.94,2.99-2.67s-1.03-2.71-2.99-2.71h-2.67v5.37h2.67Zm.33,10.78c2.58,0,3.85-1.11,3.85-3.28s-1.27-3.28-3.85-3.28h-2.99v6.56h2.99Z" fill="#fff"/><path d="M385.32,127.49h6.64v19.6h10.46v5h-17.1v-24.6Z" fill="#fff"/><path d="M405.66,127.49h17.1v5h-10.45v4.14h8.4v4.96h-8.4v5.49h10.45v5h-17.1v-24.6Z" fill="#fff"/><path d="M425.79,149.39l1.48-4.84c1.84,1.56,4.51,3.28,7.75,3.28,2.01,0,3.57-.78,3.57-2.5,0-1.6-1.07-2.26-4.59-3.08-5.62-1.31-7.54-4.31-7.54-7.95,0-4.47,3.53-7.38,9.02-7.38,3.24,0,6.15,1.15,8.08,2.5l-1.35,4.43c-1.84-1.15-4.43-2.13-6.81-2.13-1.76,0-2.87,.74-2.87,1.97,0,1.15,.74,1.84,3.53,2.5,6.15,1.44,8.65,4.02,8.65,8.45,0,5.78-4.67,7.95-9.68,7.95-4.22,0-7.3-1.6-9.22-3.2Z" fill="#fff"/></g><g><path d="M57.97,37.21l1.51-4.96c1.89,1.6,4.62,3.36,7.94,3.36,2.06,0,3.65-.8,3.65-2.56,0-1.64-1.09-2.31-4.71-3.15-5.75-1.34-7.73-4.41-7.73-8.15,0-4.58,3.61-7.56,9.24-7.56,3.32,0,6.3,1.18,8.28,2.56l-1.39,4.54c-1.89-1.18-4.54-2.18-6.97-2.18-1.81,0-2.94,.76-2.94,2.02,0,1.18,.76,1.89,3.61,2.56,6.3,1.47,8.86,4.12,8.86,8.65,0,5.92-4.79,8.15-9.91,8.15-4.33,0-7.48-1.64-9.45-3.28Z" fill="#fff"/><path d="M88.08,14.78h5.75l10.59,25.2h-6.76l-2.14-5.38h-9.33l-2.1,5.38h-6.6l10.59-25.2Zm5.8,15.42l-3.02-7.94-3.02,7.94h6.05Z" fill="#fff"/><path d="M100.72,14.78h7.02l6.43,16.13,6.39-16.13h6.85l-10.59,25.2h-5.5l-10.59-25.2Z" fill="#fff"/><path d="M129.7,14.78h17.52v5.12h-10.71v4.24h8.61v5.08h-8.61v5.63h10.71v5.12h-17.52V14.78Z" fill="#fff"/><path d="M40.71,66.34v-13.57h6.89v13.19c0,4.45,1.76,6.85,5.38,6.85s5.42-2.39,5.42-6.85v-13.19h6.68v13.57c0,8.53-5.38,12.35-12.18,12.35s-12.18-3.82-12.18-12.35Z" fill="#fff"/><path d="M69.86,52.78h10.75c6.34,0,9.24,3.82,9.24,8.44s-2.9,8.44-9.24,8.44h-3.95v8.32h-6.81v-25.2Zm9.12,12.39c2.9,0,4.12-1.51,4.12-3.95s-1.22-3.95-4.12-3.95h-2.31v7.9h2.31Z" fill="#fff"/><path d="M104.72,57.9h-8.11v-5.12h23.02v5.12h-8.11v20.08h-6.81v-20.08Z" fill="#fff"/><path d="M119.75,65.38c0-7.73,6.26-13.32,13.99-13.32s13.9,5.59,13.9,13.32-6.22,13.32-13.9,13.32-13.99-5.59-13.99-13.32Zm20.67,0c0-4.83-2.48-7.98-6.68-7.98s-6.76,3.15-6.76,7.98,2.52,7.98,6.76,7.98,6.68-3.15,6.68-7.98Z" fill="#fff"/></g></svg>