<?xml version="1.0" encoding="UTF-8"?><svg xmlns="http://www.w3.org/2000/svg" viewBox="0 0 582.42 285.92"><g id="a"><g><polygon points="455.67 285.92 8.16 285.92 8.2 7.72 582.42 8 455.67 285.92" fill="#4c4d4f"/><polygon points="447.52 278.2 0 278.2 .05 0 574.27 .28 447.52 278.2" fill="#006bb6"/></g></g><g id="b"><g><path d="M38.3,46.82l1.84-6.02c2.29,1.94,5.61,4.08,9.64,4.08,2.5,0,4.44-.97,4.44-3.11,0-1.99-1.33-2.8-5.71-3.82-6.99-1.63-9.38-5.35-9.38-9.89,0-5.56,4.39-9.18,11.22-9.18,4.03,0,7.65,1.43,10.05,3.11l-1.68,5.51c-2.29-1.43-5.51-2.65-8.47-2.65-2.19,0-3.57,.92-3.57,2.45,0,1.43,.92,2.29,4.39,3.11,7.65,1.79,10.76,5,10.76,10.5,0,7.19-5.81,9.89-12.03,9.89-5.25,0-9.08-1.99-11.47-3.98Z" fill="#fff"/><path d="M74.86,19.59h6.99l12.85,30.6h-8.21l-2.6-6.53h-11.32l-2.55,6.53h-8.01l12.85-30.6Zm7.04,18.71l-3.67-9.64-3.67,9.64h7.34Z" fill="#fff"/><path d="M90.21,19.59h8.52l7.8,19.58,7.75-19.58h8.31l-12.85,30.6h-6.68l-12.85-30.6Z" fill="#fff"/><path d="M125.4,19.59h21.27v6.22h-13v5.15h10.45v6.17h-10.45v6.83h13v6.22h-21.27V19.59Z" fill="#fff"/><path d="M159.47,36.06V19.59h8.36v16.01c0,5.41,2.14,8.31,6.53,8.31s6.58-2.91,6.58-8.31V19.59h8.11v16.47c0,10.35-6.53,14.99-14.79,14.99s-14.79-4.64-14.79-14.99Z" fill="#fff"/><path d="M194.86,19.59h13.05c7.7,0,11.22,4.64,11.22,10.25s-3.52,10.25-11.22,10.25h-4.79v10.1h-8.26V19.59Zm11.07,15.04c3.52,0,5-1.84,5-4.79s-1.48-4.79-5-4.79h-2.8v9.59h2.8Z" fill="#fff"/><path d="M237.19,25.81h-9.84v-6.22h27.95v6.22h-9.84v24.38h-8.26V25.81Z" fill="#fff"/><path d="M255.45,34.89c0-9.38,7.6-16.17,16.98-16.17s16.88,6.78,16.88,16.17-7.55,16.17-16.88,16.17-16.98-6.78-16.98-16.17Zm25.09,0c0-5.86-3.01-9.69-8.11-9.69s-8.21,3.82-8.21,9.69,3.06,9.69,8.21,9.69,8.11-3.82,8.11-9.69Z" fill="#fff"/><path d="M43.18,152.18v-18.33c7.15,6.85,15.94,10.88,24.88,10.88,9.83,0,16.54-5.36,16.54-14.45,0-8.2-5.07-12.67-13.11-12.67-5.07,0-8.34,2.53-10.73,4.32l-9.39-10.88,24.44-23.1H43.48v-18.18h62.88v10.73l-23.54,22.2c14.01,1.64,25.03,11.32,25.03,28.01,0,19.52-16.39,30.99-35.61,30.99-12.07,0-22.95-4.02-29.06-9.54Z" fill="#fff"/><path d="M119.62,152.18v-18.33c7,6.71,15.94,10.88,24.88,10.88,9.83,0,15.94-5.51,15.94-14.16,0-8.2-5.51-12.52-14.01-12.52-6.56,0-10.88,2.23-13.71,7.15l-9.98-4.17v-51.26h57.51v18.18h-39.04v16.54c2.38-1.64,6.71-3.43,13.41-3.43,17.58,0,29.2,11.32,29.2,28.91,0,20.26-15.94,31.74-35.16,31.74-12.07,0-22.95-4.02-29.06-9.54Z" fill="#fff"/><path d="M195.01,89.75c0-12.22,8.79-22.2,21.9-22.2s21.9,9.98,21.9,22.2-8.79,22.35-21.9,22.35-21.9-9.98-21.9-22.35Zm29.5,0c0-8.49-2.83-11.62-7.6-11.62s-7.6,3.13-7.6,11.62,2.83,11.77,7.6,11.77,7.6-3.13,7.6-11.77Zm-14.9,68.84l57.22-91.49,6.41,3.28-57.22,91.49-6.41-3.28Zm34.27-19.97c0-12.22,8.79-22.2,21.9-22.2s21.9,9.98,21.9,22.2-8.79,22.35-21.9,22.35-21.9-9.98-21.9-22.35Zm29.5,0c0-8.49-2.83-11.62-7.6-11.62s-7.6,3.13-7.6,11.62,2.83,11.77,7.6,11.77,7.6-3.13,7.6-11.77Z" fill="#fff"/><path d="M38.87,196.18c0-9.2,7.45-15.85,16.65-15.85s16.55,6.65,16.55,15.85-7.4,15.85-16.55,15.85-16.65-6.65-16.65-15.85Zm24.6,0c0-5.75-2.95-9.5-7.95-9.5s-8.05,3.75-8.05,9.5,3,9.5,8.05,9.5,7.95-3.75,7.95-9.5Z" fill="#fff"/><path d="M77.17,181.18h6.15l13.6,17.25v-17.25h7.15v30h-6.15l-13.6-17.25v17.25h-7.15v-30Z" fill="#fff"/><path d="M119.27,181.18h8.1v10.75h11.85v-10.75h8.1v30h-8.1v-12.4h-11.85v12.4h-8.1v-30Z" fill="#fff"/><path d="M152.37,196.18c0-9.2,7.45-15.85,16.65-15.85s16.55,6.65,16.55,15.85-7.4,15.85-16.55,15.85-16.65-6.65-16.65-15.85Zm24.6,0c0-5.75-2.95-9.5-7.95-9.5s-8.05,3.75-8.05,9.5,3,9.5,8.05,9.5,7.95-3.75,7.95-9.5Z" fill="#fff"/><path d="M196.22,187.28h-9.65v-6.1h27.4v6.1h-9.65v23.9h-8.1v-23.9Z" fill="#fff"/><path d="M217.72,181.18h12.8c7.55,0,11,4.55,11,10.05s-3.45,10.05-11,10.05h-4.7v9.9h-8.1v-30Zm10.85,14.75c3.45,0,4.9-1.8,4.9-4.7s-1.45-4.7-4.9-4.7h-2.75v9.4h2.75Z" fill="#fff"/><path d="M245.42,181.18h8.1v23.9h12.75v6.1h-20.85v-30Z" fill="#fff"/><path d="M279.77,181.18h6.85l12.6,30h-8.05l-2.55-6.4h-11.1l-2.5,6.4h-7.85l12.6-30Zm6.9,18.35l-3.6-9.45-3.6,9.45h7.2Z" fill="#fff"/><path d="M306.07,187.28h-9.65v-6.1h27.4v6.1h-9.65v23.9h-8.1v-23.9Z" fill="#fff"/><path d="M327.57,181.18h20.85v6.1h-12.75v5.05h10.25v6.05h-10.25v6.7h12.75v6.1h-20.85v-30Z" fill="#fff"/><path d="M351.72,211.24l13.55-31.05,2.45,.95-13.55,30.95-2.45-.85Z" fill="#fff"/><path d="M38.27,259.89l1.8-5.9c2.25,1.9,5.5,4,9.45,4,2.45,0,4.35-.95,4.35-3.05,0-1.95-1.3-2.75-5.6-3.75-6.85-1.6-9.2-5.25-9.2-9.7,0-5.45,4.3-9,11-9,3.95,0,7.5,1.4,9.85,3.05l-1.65,5.4c-2.25-1.4-5.4-2.6-8.3-2.6-2.15,0-3.5,.9-3.5,2.4,0,1.4,.9,2.25,4.3,3.05,7.5,1.75,10.55,4.9,10.55,10.3,0,7.05-5.7,9.7-11.8,9.7-5.15,0-8.9-1.95-11.25-3.9Z" fill="#fff"/><path d="M71.97,239.28h-9.65v-6.1h27.4v6.1h-9.65v23.9h-8.1v-23.9Z" fill="#fff"/><path d="M93.47,233.18h8.1v30h-8.1v-30Z" fill="#fff"/><path d="M116.17,251.63v11.55h-8.1v-30h13.65c7.3,0,10.45,4.4,10.45,9.25,0,4.05-2.3,7.25-5.85,8.4l8.75,12.35h-8.75l-8-11.55h-2.15Zm3.5-5.15c3.1,0,4.5-1.4,4.5-3.95s-1.4-4-4.5-4h-3.5v7.95h3.5Z" fill="#fff"/><path d="M146.02,251.63v11.55h-8.1v-30h13.65c7.3,0,10.45,4.4,10.45,9.25,0,4.05-2.3,7.25-5.85,8.4l8.75,12.35h-8.75l-8-11.55h-2.15Zm3.5-5.15c3.1,0,4.5-1.4,4.5-3.95s-1.4-4-4.5-4h-3.5v7.95h3.5Z" fill="#fff"/><path d="M167.77,233.18h20.85v6.1h-12.75v5.05h10.25v6.05h-10.25v6.7h12.75v6.1h-20.85v-30Z" fill="#fff"/><path d="M202.32,251.63v11.55h-8.1v-30h13.65c7.3,0,10.45,4.4,10.45,9.25,0,4.05-2.3,7.25-5.85,8.4l8.75,12.35h-8.75l-8-11.55h-2.15Zm3.5-5.15c3.1,0,4.5-1.4,4.5-3.95s-1.4-4-4.5-4h-3.5v7.95h3.5Z" fill="#fff"/><path d="M222.02,259.89l1.8-5.9c2.25,1.9,5.5,4,9.45,4,2.45,0,4.35-.95,4.35-3.05,0-1.95-1.3-2.75-5.6-3.75-6.85-1.6-9.2-5.25-9.2-9.7,0-5.45,4.3-9,11-9,3.95,0,7.5,1.4,9.85,3.05l-1.65,5.4c-2.25-1.4-5.4-2.6-8.3-2.6-2.15,0-3.5,.9-3.5,2.4,0,1.4,.9,2.25,4.3,3.05,7.5,1.75,10.55,4.9,10.55,10.3,0,7.05-5.7,9.7-11.8,9.7-5.15,0-8.9-1.95-11.25-3.9Z" fill="#fff"/></g></g></svg>