<?xml version="1.0" encoding="utf-8"?>
<!-- Generator: Adobe Illustrator 26.5.0, SVG Export Plug-In . SVG Version: 6.00 Build 0)  -->
<svg version="1.1" id="a" xmlns="http://www.w3.org/2000/svg" xmlns:xlink="http://www.w3.org/1999/xlink" x="0px" y="0px"
	 viewBox="0 0 591.1 178.5" style="enable-background:new 0 0 591.1 178.5;" xml:space="preserve">
<style type="text/css">
	.st0{fill:#4C4D4F;}
	.st1{fill:#006BB6;}
	.st2{fill:#FFFFFF;}
</style>
<polygon class="st0" points="501.4,178.5 6.2,178.5 6.2,7.9 591.1,8.1 "/>
<polygon class="st1" points="493.8,169.4 0,168.9 0.1,0 584.2,0.4 "/>
<g>
	<path class="st2" d="M21.8,41.8l1.8-6c2.3,1.9,5.6,4.1,9.6,4.1c2.5,0,4.4-1,4.4-3.1c0-2-1.3-2.8-5.7-3.8c-7-1.6-9.4-5.4-9.4-9.9
		c0-5.6,4.4-9.2,11.2-9.2c4,0,7.7,1.4,10,3.1l-1.7,5.5c-2.3-1.4-5.5-2.6-8.5-2.6c-2.2,0-3.6,0.9-3.6,2.5c0,1.4,0.9,2.3,4.4,3.1
		c7.7,1.8,10.8,5,10.8,10.5c0,7.2-5.8,9.9-12,9.9C28,45.8,24.2,43.8,21.8,41.8L21.8,41.8z"/>
	<path class="st2" d="M58.4,14.6h7l12.8,30.6H70l-2.6-6.5H56.1l-2.5,6.5h-8C45.5,45.2,58.4,14.6,58.4,14.6z M65.4,33.3l-3.7-9.6
		l-3.7,9.6H65.4z"/>
	<path class="st2" d="M73.7,14.6h8.5l7.8,19.6l7.8-19.6h8.3L93.3,45.2h-6.7C86.6,45.2,73.7,14.6,73.7,14.6z"/>
	<path class="st2" d="M108.9,14.6h21.3v6.2h-13V26h10.4v6.2h-10.4V39h13v6.2h-21.3C108.9,45.2,108.9,14.6,108.9,14.6z"/>
</g>
<g>
	<path class="st2" d="M145.8,68.5L160,53.7c5.8-6.1,10.9-11.5,10.9-18.5c0-6.2-4.5-8.4-8.6-8.4c-4.6,0-9.6,1.9-15.1,6.5V20.3
		c3.7-3,12.3-6.3,18.9-6.3c11.8,0,21.3,7.1,21.3,18.6c0,10.5-6.5,17.6-12.5,22.9l-9.7,8.6h23.5v12.3h-43L145.8,68.5L145.8,68.5z"/>
	<path class="st2" d="M196.9,71.7V59.3c4.8,4.5,10.8,7.4,16.9,7.4c6.7,0,10.8-3.7,10.8-9.6c0-5.5-3.7-8.5-9.5-8.5
		c-4.4,0-7.4,1.5-9.3,4.8l-6.8-2.8V15.9h39v12.3h-26.5v11.2c1.6-1.1,4.5-2.3,9.1-2.3c11.9,0,19.8,7.7,19.8,19.6
		c0,13.7-10.8,21.5-23.8,21.5C208.4,78.2,201,75.5,196.9,71.7L196.9,71.7z"/>
	<path class="st2" d="M248,29.4c0-8.3,6-15.1,14.9-15.1c8.9,0,14.9,6.8,14.9,15.1s-6,15.1-14.9,15.1S248,37.8,248,29.4z M268,29.4
		c0-5.8-1.9-7.9-5.1-7.9s-5.1,2.1-5.1,7.9s1.9,8,5.1,8S268,35.3,268,29.4z M257.9,76.1l38.8-62l4.3,2.2l-38.8,62L257.9,76.1z
		 M281.1,62.5c0-8.3,6-15,14.9-15s14.9,6.8,14.9,15s-6,15.2-14.9,15.2S281.1,70.9,281.1,62.5z M301.1,62.5c0-5.8-1.9-7.9-5.1-7.9
		s-5.1,2.1-5.1,7.9s1.9,8,5.1,8S301.1,68.4,301.1,62.5z"/>
	<path class="st2" d="M144.8,103c0-6.4,5.2-11.1,11.7-11.1s11.6,4.7,11.6,11.1s-5.2,11.1-11.6,11.1S144.8,109.4,144.8,103z M162,103
		c0-4-2.1-6.7-5.6-6.7s-5.6,2.6-5.6,6.7s2.1,6.7,5.6,6.7S162,107,162,103z"/>
	<path class="st2" d="M169.9,92.5h4.3l9.5,12.1V92.5h5v21h-4.3l-9.5-12.1v12.1h-5V92.5z"/>
	<path class="st2" d="M209.5,113.5l-8-9.5v9.5h-5.7v-21h5.7v9.3l7.3-9.3h6.1l-8.2,10l9.6,11H209.5z"/>
	<path class="st2" d="M216.4,92.5h5.7v21h-5.7V92.5z"/>
	<path class="st2" d="M224.9,92.5h6.3l5.7,13.3l5.7-13.3h6.2v21h-5V102c0-0.5,0.1-2.1,0.1-2.2l-0.8,2.2l-4.7,11.4h-3.4l-4.7-11.4
		c-0.2-0.5-0.7-2-0.8-2.2c0,0.1,0.1,1.8,0.1,2.2v11.4h-4.9L224.9,92.5L224.9,92.5z"/>
	<path class="st2" d="M256.5,96.8h-6.8v-4.3h19.2v4.3h-6.8v16.7h-5.7L256.5,96.8L256.5,96.8z"/>
	<path class="st2" d="M269.8,92.5h14.6v4.3h-8.9v3.5h7.2v4.2h-7.2v4.7h8.9v4.3h-14.6V92.5L269.8,92.5z"/>
	<path class="st2" d="M284.8,103c0-6.8,5.2-11,11.3-11c2.9,0,5.6,0.8,7.4,2.1V99c-1.7-1.4-3.9-2.4-6.4-2.4c-3.5,0-6.2,2.3-6.2,6.5
		s2.7,6.5,6.2,6.5c2.5,0,4.8-1,6.4-2.4v4.8c-1.8,1.3-4.5,2.1-7.4,2.1C290.1,113.9,284.8,109.8,284.8,103L284.8,103z"/>
	<path class="st2" d="M305.5,92.5h5.7v7.5h8.3v-7.5h5.7v21h-5.7v-8.7h-8.3v8.7h-5.7V92.5z"/>
	<path class="st2" d="M145.9,132.9h4.4l9.8,12.4v-12.4h5.1v21.6h-4.4l-9.8-12.4v12.4h-5.1V132.9z"/>
	<path class="st2" d="M168.2,132.9h5.8v21.6h-5.8V132.9z"/>
	<path class="st2" d="M181.8,137.3h-6.9v-4.4h19.7v4.4h-6.9v17.2h-5.8V137.3L181.8,137.3z"/>
	<path class="st2" d="M201.3,146.2v8.3h-5.8v-21.6h9.8c5.3,0,7.5,3.2,7.5,6.7c0,2.9-1.7,5.2-4.2,6.1l6.3,8.9h-6.3l-5.8-8.3H201.3z
		 M203.8,142.4c2.2,0,3.2-1,3.2-2.8s-1-2.9-3.2-2.9h-2.5v5.7H203.8z"/>
	<path class="st2" d="M215.2,132.9h5.8v21.6h-5.8V132.9z"/>
	<path class="st2" d="M223.9,132.9h5.8v17.2h9.2v4.4h-15V132.9L223.9,132.9z"/>
	<path class="st2" d="M239.8,132.9h15v4.4h-9.2v3.6h7.4v4.4h-7.4v4.8h9.2v4.4h-15L239.8,132.9L239.8,132.9z"/>
	<path class="st2" d="M265,148.8c0-2.7,1.8-4.5,3.9-5.8c-1-1.8-1.6-3.5-1.6-5c0-3.3,3.2-5.7,7-5.7c3.6,0,6.1,2.2,6.1,4.9
		c0,3-2.9,4.6-5.6,6.2c1,1.4,2.1,2.6,3,3.5c0.1-0.6,0.3-3.1,0.3-4.1h7.2v3.3H282c-0.1,1.2-0.4,2.8-1,4.2c1,0.9,1.7,1.1,2.6,1.1
		s1.8-0.5,2.7-1.5l1.8,2.2c-1.5,2.2-3.6,2.9-5,2.9s-2.8-0.3-4.6-1.5c-1.3,0.9-2.9,1.5-5,1.5C268.9,155,265,152.8,265,148.8
		L265,148.8z M275.4,151c-1.4-1.3-3-2.9-4.3-4.7c-0.5,0.6-0.8,1.3-0.8,2.1c0,1.6,1.1,3.1,3.3,3.1C274.3,151.4,274.8,151.3,275.4,151
		L275.4,151z M275.8,137.2c0-0.9-0.7-1.6-1.7-1.6c-1.5,0-2,1.3-2,2.3c0,1,0.3,1.9,0.8,2.8C274.6,139.7,275.9,138.7,275.8,137.2
		L275.8,137.2z"/>
	<path class="st2" d="M292.8,132.9h15v4.4h-9.2v3.6h7.4v4.4h-7.4v4.8h9.2v4.4h-15V132.9z"/>
	<path class="st2" d="M315.3,143.4l-7.3-10.6h6.6l4.5,6.8l4.5-6.8h6.5l-7.3,10.5l7.8,11.1h-6.6l-4.9-7.4l-5,7.4h-6.5L315.3,143.4
		L315.3,143.4z"/>
	<path class="st2" d="M337.9,132.9h4.9l9.1,21.6h-5.8l-1.8-4.6h-8l-1.8,4.6h-5.6L337.9,132.9L337.9,132.9z M342.8,146.1l-2.6-6.8
		l-2.6,6.8H342.8z"/>
	<path class="st2" d="M352.7,132.9h6.5l5.9,13.7l5.9-13.7h6.4v21.6h-5.1v-11.8c0-0.5,0.1-2.2,0.1-2.3l-0.8,2.3l-4.9,11.8h-3.5
		l-4.9-11.8c-0.2-0.5-0.7-2.1-0.8-2.3c0,0.1,0.1,1.8,0.1,2.3v11.8h-5L352.7,132.9L352.7,132.9z"/>
	<path class="st2" d="M383.6,143.7c0-7,5.6-11.3,12-11.3c3,0,6,0.8,7.9,2.2v5c-1.8-1.4-3.9-2.5-7-2.5c-4,0-6.7,2.4-6.7,7
		s2.6,6.9,6.3,6.9c1.2,0,2-0.2,2.9-0.6v-3.6h-3.2v-4h8.7v10.3c-1.3,0.5-4.8,2-9.2,2C388.9,155.1,383.6,150.7,383.6,143.7
		L383.6,143.7z"/>
	<path class="st2" d="M407.2,132.9h5.8v17.2h9.2v4.4h-15L407.2,132.9L407.2,132.9z"/>
	<path class="st2" d="M421.8,143.7c0-6.6,5.4-11.4,12-11.4s11.9,4.8,11.9,11.4s-5.3,11.4-11.9,11.4S421.8,150.3,421.8,143.7z
		 M439.5,143.7c0-4.1-2.1-6.8-5.7-6.8s-5.8,2.7-5.8,6.8s2.2,6.8,5.8,6.8S439.5,147.8,439.5,143.7z"/>
	<path class="st2" d="M444.2,132.9h6l5.5,13.8l5.5-13.8h5.9l-9.1,21.6h-4.7L444.2,132.9L444.2,132.9z"/>
	<path class="st2" d="M467.9,132.9h15v4.4h-9.2v3.6h7.4v4.4h-7.4v4.8h9.2v4.4h-15V132.9z"/>
	<path class="st2" d="M483.7,152.1l1.3-4.2c1.6,1.4,4,2.9,6.8,2.9c1.8,0,3.1-0.7,3.1-2.2c0-1.4-0.9-2-4-2.7c-4.9-1.1-6.6-3.8-6.6-7
		c0-3.9,3.1-6.5,7.9-6.5c2.8,0,5.4,1,7.1,2.2l-1.2,3.9c-1.6-1-3.9-1.9-6-1.9c-1.5,0-2.5,0.6-2.5,1.7c0,1,0.6,1.6,3.1,2.2
		c5.4,1.3,7.6,3.5,7.6,7.4c0,5.1-4.1,7-8.5,7C488.1,154.9,485.4,153.5,483.7,152.1L483.7,152.1z"/>
</g>
</svg>
