<?xml version="1.0" encoding="utf-8"?>
<!-- Generator: Adobe Illustrator 21.1.0, SVG Export Plug-In . SVG Version: 6.00 Build 0)  -->
<svg version="1.1" id="Layer_1" xmlns="http://www.w3.org/2000/svg" xmlns:xlink="http://www.w3.org/1999/xlink" x="0px" y="0px"
	 viewBox="0 0 128.2 34.6" style="enable-background:new 0 0 128.2 34.6;" xml:space="preserve">
<style type="text/css">
	.st0{fill:#EA1181;}
	.st1{fill:#FFFFFF;}
</style>
<g>
	<path class="st0" d="M116.9,21.4H11c-5.5,0-10-4.5-10-10v-0.6c0-5.5,4.5-10,10-10h105.9c5.5,0,10,4.5,10,10v0.6
		C126.9,16.9,122.4,21.4,116.9,21.4z"/>
	<g>
		<path class="st1" d="M6.5,12.6l1.7-0.2c0.1,0.6,0.3,1,0.6,1.3s0.7,0.4,1.3,0.4s1-0.1,1.3-0.4c0.3-0.2,0.4-0.5,0.4-0.8
			c0-0.2-0.1-0.4-0.2-0.5c-0.1-0.1-0.3-0.3-0.6-0.4c-0.2-0.1-0.7-0.2-1.4-0.4c-0.9-0.2-1.6-0.5-2-0.9C7,10.3,6.8,9.7,6.8,9
			c0-0.4,0.1-0.9,0.4-1.2c0.3-0.4,0.6-0.7,1.1-0.9c0.5-0.2,1-0.3,1.7-0.3c1.1,0,1.9,0.2,2.5,0.7s0.8,1.1,0.9,1.9l-1.9,0.1
			c-0.1-0.4-0.2-0.8-0.5-1C10.8,8.1,10.4,8,9.9,8S9,8.1,8.7,8.3C8.6,8.5,8.5,8.6,8.5,8.9c0,0.2,0.1,0.4,0.2,0.5
			c0.2,0.2,0.8,0.4,1.6,0.6c0.9,0.2,1.5,0.4,1.9,0.6c0.4,0.2,0.7,0.5,1,0.9c0.2,0.4,0.3,0.8,0.3,1.4c0,0.5-0.1,1-0.4,1.4
			c-0.3,0.4-0.7,0.8-1.2,1s-1.1,0.3-1.9,0.3c-1.1,0-1.9-0.3-2.5-0.8S6.6,13.6,6.5,12.6z"/>
		<path class="st1" d="M20.6,12.2l1.7,0.5c-0.3,1-0.7,1.7-1.3,2.1c-0.6,0.5-1.4,0.7-2.3,0.7c-1.2,0-2.1-0.4-2.9-1.2
			s-1.1-1.8-1.1-3.2c0-1.5,0.4-2.6,1.1-3.4s1.7-1.2,3-1.2c1.1,0,1.9,0.3,2.6,0.9c0.4,0.4,0.7,0.9,0.9,1.6l-1.7,0.4
			c-0.1-0.5-0.3-0.8-0.6-1.1c-0.3-0.3-0.7-0.4-1.2-0.4c-0.6,0-1.2,0.2-1.6,0.7s-0.6,1.2-0.6,2.3s0.2,1.9,0.6,2.4
			c0.4,0.5,0.9,0.7,1.5,0.7c0.5,0,0.9-0.1,1.2-0.4C20.2,13.3,20.5,12.9,20.6,12.2z"/>
		<path class="st1" d="M23.8,15.4V6.7h1.8v3.4H29V6.7h1.8v8.7H29v-3.8h-3.4v3.8H23.8z"/>
		<path class="st1" d="M32.6,15.4V6.7h6.5v1.5h-4.7v1.9h4.4v1.5h-4.4V14h4.9v1.5h-6.7V15.4z"/>
		<path class="st1" d="M40.7,6.7h3.2c0.7,0,1.3,0.1,1.7,0.2c0.5,0.2,0.9,0.4,1.3,0.8c0.4,0.4,0.6,0.9,0.8,1.4
			c0.2,0.6,0.3,1.2,0.3,2.1c0,0.7-0.1,1.3-0.3,1.9c-0.2,0.6-0.5,1.1-0.9,1.5c-0.3,0.3-0.7,0.5-1.2,0.7c-0.4,0.1-0.9,0.2-1.6,0.2
			h-3.3V6.7z M42.5,8.2V14h1.3c0.5,0,0.8,0,1.1-0.1s0.5-0.2,0.7-0.4s0.3-0.5,0.5-0.8c0.1-0.4,0.2-0.9,0.2-1.6c0-0.7-0.1-1.2-0.2-1.6
			s-0.3-0.6-0.5-0.8s-0.5-0.4-0.9-0.4c-0.2-0.1-0.7-0.1-1.4-0.1H42.5z"/>
		<path class="st1" d="M49.5,6.7h1.8v4.7c0,0.7,0,1.2,0.1,1.5c0.1,0.4,0.3,0.6,0.5,0.9c0.3,0.2,0.7,0.3,1.2,0.3s0.9-0.1,1.1-0.3
			c0.3-0.2,0.4-0.5,0.5-0.8s0.1-0.8,0.1-1.5V6.7h1.8v4.6c0,1,0,1.8-0.1,2.2s-0.3,0.8-0.5,1.1c-0.3,0.3-0.6,0.5-1,0.7s-1,0.3-1.7,0.3
			c-0.8,0-1.5-0.1-1.9-0.3s-0.8-0.4-1-0.7s-0.4-0.6-0.5-1c-0.1-0.5-0.2-1.2-0.2-2.2V6.7H49.5z"/>
		<path class="st1" d="M58.4,15.4V6.8h1.8V14h4.4v1.5L58.4,15.4L58.4,15.4z"/>
		<path class="st1" d="M65.8,15.4V6.7h6.5v1.5h-4.7v1.9H72v1.5h-4.4V14h4.9v1.5h-6.7V15.4z"/>
		<path class="st1" d="M84.7,15.4h-1.9l-0.8-2h-3.5l-0.7,2h-1.9l3.4-8.7h1.9L84.7,15.4z M81.4,12l-1.2-3.2L79,12H81.4z"/>
		<path class="st1" d="M90.5,15.4V8.2h-2.6V6.7h6.9v1.5h-2.6v7.2H90.5z"/>
		<path class="st1" d="M95.4,11.1c0-0.9,0.1-1.6,0.4-2.2c0.2-0.4,0.5-0.8,0.8-1.2s0.7-0.6,1.1-0.8c0.5-0.2,1.2-0.3,1.9-0.3
			c1.3,0,2.3,0.4,3.1,1.2c0.8,0.8,1.2,1.9,1.2,3.3s-0.4,2.5-1.1,3.3c-0.8,0.8-1.8,1.2-3.1,1.2c-1.3,0-2.3-0.4-3.1-1.2
			S95.4,12.5,95.4,11.1z M97.2,11.1c0,1,0.2,1.7,0.7,2.2s1,0.8,1.7,0.8s1.3-0.3,1.7-0.8c0.4-0.5,0.7-1.3,0.7-2.3s-0.2-1.7-0.7-2.2
			c-0.4-0.5-1-0.7-1.7-0.7s-1.3,0.2-1.8,0.7C97.4,9.3,97.2,10.1,97.2,11.1z"/>
		<path class="st1" d="M105.2,6.7h1.8v4.7c0,0.7,0,1.2,0.1,1.5c0.1,0.4,0.3,0.6,0.5,0.9s0.7,0.3,1.2,0.3s0.9-0.1,1.1-0.3
			s0.4-0.5,0.5-0.8s0.1-0.8,0.1-1.5V6.7h1.8v4.6c0,1,0,1.8-0.1,2.2s-0.3,0.8-0.5,1.1s-0.6,0.5-1,0.7s-1,0.3-1.7,0.3
			c-0.8,0-1.5-0.1-1.9-0.3s-0.8-0.4-1-0.7s-0.4-0.6-0.5-1c-0.1-0.5-0.2-1.2-0.2-2.2V6.7H105.2z"/>
		<path class="st1" d="M114,15.4V6.7h3.7c0.9,0,1.6,0.1,2,0.2c0.4,0.2,0.8,0.4,1,0.8c0.3,0.4,0.4,0.9,0.4,1.4c0,0.7-0.2,1.2-0.6,1.6
			c-0.4,0.4-1,0.7-1.7,0.8c0.4,0.2,0.7,0.5,0.9,0.7c0.2,0.3,0.6,0.7,1,1.4l1.1,1.7h-2.1l-1.3-1.9c-0.5-0.7-0.8-1.1-0.9-1.3
			c-0.2-0.2-0.3-0.3-0.5-0.4s-0.5-0.1-0.9-0.1h-0.4v3.6H114V15.4z M115.8,10.4h1.3c0.8,0,1.4,0,1.6-0.1s0.4-0.2,0.5-0.4
			s0.2-0.4,0.2-0.7s-0.1-0.5-0.2-0.7c-0.2-0.2-0.4-0.3-0.7-0.3c-0.1,0-0.6,0-1.3,0h-1.4V10.4z"/>
	</g>
</g>
<g>
	<path d="M2.5,28.7c0-2.2,1.6-3.5,3.5-3.5c0.8,0,1.8,0.3,2.3,0.7v0.9C7.8,26.4,7,26,6,26c-1.5,0-2.6,1.1-2.6,2.7
		c0,1.7,1.1,2.7,2.6,2.7c1,0,1.8-0.4,2.3-0.9v0.9c-0.6,0.4-1.5,0.7-2.3,0.7C4.1,32.2,2.5,30.9,2.5,28.7z"/>
	<path d="M11.2,32.2c-1.2,0-2.2-0.9-2.2-2.1s1-2.1,2.2-2.1s2.2,0.9,2.2,2.1S12.5,32.2,11.2,32.2z M11.2,28.7c-0.8,0-1.4,0.6-1.4,1.4
		s0.6,1.4,1.4,1.4c0.8,0,1.4-0.6,1.4-1.4S12,28.7,11.2,28.7z"/>
	<path d="M19.9,32v-2.2c0-0.7-0.2-1-0.8-1c-0.5,0-1.1,0.5-1.1,1.1V32h-0.8v-2.2c0-0.7-0.2-1-0.8-1c-0.5,0-1.1,0.5-1.1,1.1V32h-0.8
		v-3.8h0.7l0.1,0.7c0.3-0.4,0.8-0.8,1.4-0.8c0.7,0,1.1,0.4,1.3,0.9c0.3-0.5,0.8-0.9,1.5-0.9c1,0,1.3,0.7,1.3,1.7V32H19.9z"/>
	<path d="M25.2,30h-2.7c-0.1,0.6,0.2,1.5,1.4,1.5c0.4,0,1-0.2,1.3-0.5v0.6c-0.3,0.3-1,0.5-1.5,0.5c-1.2,0-2-0.9-2-2
		c0-1.2,0.9-2,1.9-2c1,0,1.7,0.7,1.7,1.5C25.2,29.8,25.2,29.9,25.2,30z M23.6,28.7c-0.5,0-0.9,0.3-1,0.8h1.9c0,0,0,0,0-0.1
		C24.5,29.1,24.2,28.7,23.6,28.7z"/>
	<path d="M29.2,32.2c-0.8,0-1.4-0.4-1.4-0.4l0.2-0.6c0.3,0.2,0.7,0.4,1.3,0.4c0.4,0,0.7-0.2,0.7-0.5c0-0.3-0.2-0.5-0.8-0.6
		c-0.8-0.2-1.2-0.6-1.2-1.2c0-0.6,0.4-1.2,1.4-1.2c0.6,0,1.2,0.3,1.2,0.4L30.3,29c-0.3-0.2-0.7-0.3-1.1-0.3c-0.5,0-0.6,0.2-0.6,0.5
		c0,0.3,0.2,0.4,0.7,0.5c0.9,0.2,1.3,0.6,1.3,1.2C30.6,31.7,30.1,32.2,29.2,32.2z"/>
	<path d="M34.9,30h-2.7c-0.1,0.6,0.2,1.5,1.4,1.5c0.4,0,1-0.2,1.3-0.5v0.6c-0.3,0.3-1,0.5-1.5,0.5c-1.2,0-2-0.9-2-2
		c0-1.2,0.9-2,1.9-2c1,0,1.7,0.7,1.7,1.5C35,29.8,35,29.9,34.9,30z M33.3,28.7c-0.5,0-0.9,0.3-1,0.8h1.9c0,0,0,0,0-0.1
		C34.2,29.1,33.9,28.7,33.3,28.7z"/>
	<path d="M39.4,30h-2.7c-0.1,0.6,0.2,1.5,1.4,1.5c0.4,0,1-0.2,1.3-0.5v0.6c-0.3,0.3-1,0.5-1.5,0.5c-1.2,0-2-0.9-2-2
		c0-1.2,0.9-2,1.9-2c1,0,1.7,0.7,1.7,1.5C39.4,29.8,39.4,29.9,39.4,30z M37.7,28.7c-0.5,0-0.9,0.3-1,0.8h1.9c0,0,0,0,0-0.1
		C38.6,29.1,38.3,28.7,37.7,28.7z"/>
	<path d="M44.2,32.2c-1.2,0-2.2-0.9-2.2-2.1s1-2.1,2.2-2.1c1.2,0,2.2,0.9,2.2,2.1S45.4,32.2,44.2,32.2z M44.2,28.7
		c-0.8,0-1.4,0.6-1.4,1.4s0.6,1.4,1.4,1.4c0.8,0,1.4-0.6,1.4-1.4S45,28.7,44.2,28.7z"/>
	<path d="M50.3,32l-0.1-0.7c-0.3,0.4-0.9,0.8-1.5,0.8c-1,0-1.4-0.7-1.4-1.7v-2.3h0.8v2.2c0,0.7,0.3,1,0.9,1c0.5,0,1.2-0.5,1.2-1.1
		v-2.2H51V32H50.3z"/>
	<path d="M53.1,29.8V32h-0.8v-3.8H53l0.1,0.7c0.3-0.4,0.8-0.8,1.5-0.8v0.8C53.8,28.8,53.1,29.2,53.1,29.8z"/>
	<path d="M59.3,32.2c-0.5,0-1.1-0.2-1.5-0.7l0,0.6h-0.7v-6.7h0.8v3.4c0.3-0.5,0.9-0.7,1.4-0.7c1,0,1.8,0.8,1.8,2
		C61.1,31.4,60.3,32.2,59.3,32.2z M59.1,28.7c-0.6,0-1.3,0.4-1.3,1.4c0,1,0.7,1.4,1.3,1.4c0.6,0,1.2-0.5,1.2-1.4
		C60.3,29.2,59.7,28.7,59.1,28.7z"/>
	<path d="M63,29.8V32h-0.8v-3.8h0.7l0.1,0.7c0.3-0.4,0.8-0.8,1.5-0.8v0.8C63.7,28.8,63,29.2,63,29.8z"/>
	<path d="M68.2,32l0-0.6c-0.3,0.5-1,0.7-1.5,0.7c-1,0-1.8-0.8-1.8-2c0-1.2,0.8-2,1.8-2c0.5,0,1.1,0.2,1.5,0.7l0-0.6H69V32H68.2z
		 M65.7,30.2c0,0.9,0.6,1.4,1.2,1.4c0.6,0,1.3-0.4,1.3-1.4c0-1-0.7-1.4-1.3-1.4C66.3,28.7,65.7,29.2,65.7,30.2z"/>
	<path d="M73.1,32v-2.2c0-0.7-0.3-1-0.9-1c-0.5,0-1.2,0.5-1.2,1.1V32h-0.8v-3.8h0.7l0.1,0.7c0.3-0.4,0.9-0.8,1.5-0.8
		c1,0,1.4,0.7,1.4,1.7V32H73.1z"/>
	<path d="M78.3,32l0-0.6c-0.3,0.5-1,0.7-1.5,0.7c-1,0-1.8-0.8-1.8-2c0-1.2,0.8-2,1.8-2c0.5,0,1.1,0.2,1.4,0.7v-3.4H79V32H78.3z
		 M75.8,30.2c0,0.9,0.6,1.4,1.2,1.4c0.6,0,1.3-0.4,1.3-1.4c0-1-0.7-1.4-1.3-1.4C76.4,28.7,75.8,29.2,75.8,30.2z"/>
	<path d="M84.9,32v-2.2c0-0.7-0.3-1-0.9-1c-0.5,0-1.2,0.5-1.2,1.1V32H82v-3.8h0.7l0.1,0.7c0.3-0.4,0.9-0.8,1.5-0.8
		c1,0,1.4,0.7,1.4,1.7V32H84.9z"/>
	<path d="M90.2,30h-2.7c-0.1,0.6,0.2,1.5,1.4,1.5c0.4,0,1-0.2,1.3-0.5v0.6c-0.3,0.3-1,0.5-1.5,0.5c-1.2,0-2-0.9-2-2
		c0-1.2,0.9-2,1.9-2c1,0,1.7,0.7,1.7,1.5C90.3,29.8,90.3,29.9,90.2,30z M88.6,28.7c-0.5,0-0.9,0.3-1,0.8h1.9c0,0,0,0,0-0.1
		C89.5,29.1,89.2,28.7,88.6,28.7z"/>
	<path d="M95.6,32.1H95L94,29.4l-1.1,2.7h-0.6l-1.6-3.8h0.8l1.1,2.8l1.1-2.8h0.6l1.1,2.8l1.1-2.8h0.8L95.6,32.1z"/>
	<path d="M100.6,28.8V32h-0.8v-3.3H99v-0.5h0.8v-1.5c0-1.1,0.5-1.6,1.3-1.6c0.2,0,0.3,0,0.4,0.1v0.5c-0.1,0-0.2-0.1-0.3-0.1
		c-0.4,0-0.6,0.2-0.6,0.9v1.5h1v0.5H100.6z"/>
	<path d="M105.4,32l0-0.6c-0.3,0.5-1,0.7-1.5,0.7c-1,0-1.8-0.8-1.8-2c0-1.2,0.8-2,1.8-2c0.5,0,1.1,0.2,1.5,0.7l0-0.6h0.7V32H105.4z
		 M102.9,30.2c0,0.9,0.6,1.4,1.2,1.4c0.6,0,1.3-0.4,1.3-1.4c0-1-0.7-1.4-1.3-1.4C103.5,28.7,102.9,29.2,102.9,30.2z"/>
	<path d="M109.2,32.2c-1.2,0-2-0.8-2-2c0-1.2,0.9-2,2-2c0.5,0,0.9,0.1,1.3,0.4v0.7c-0.4-0.3-0.8-0.5-1.3-0.5c-0.7,0-1.3,0.5-1.3,1.4
		c0,0.9,0.6,1.4,1.3,1.4c0.5,0,0.9-0.1,1.3-0.5v0.7C110.1,32,109.7,32.2,109.2,32.2z"/>
	<path d="M111.5,27v-0.9h0.8V27H111.5z M111.5,32v-3.8h0.8V32H111.5z"/>
	<path d="M113.5,32v-6.7h0.8V32H113.5z"/>
	<path d="M115.6,27v-0.9h0.8V27H115.6z M115.6,32v-3.8h0.8V32H115.6z"/>
	<path d="M118.9,28.8V32H118v-3.3h-0.8v-0.5h0.8V27h0.8v1.3h0.8v0.5H118.9z"/>
	<path d="M121.3,34.2h-0.8l1-2.3l-1.6-3.6h0.8l1.2,2.9l1.2-2.9h0.8L121.3,34.2z"/>
	<path d="M124.7,25.4h1.1l-0.3,4.9H125L124.7,25.4z M124.7,31.1h1v1h-1V31.1z"/>
</g>
</svg>
