<?xml version="1.0" encoding="UTF-8"?><svg id="a" xmlns="http://www.w3.org/2000/svg" viewBox="0 0 357.85 338.51"><rect x="1.68" y="300.8" width="355.08" height="37.7" rx="3" ry="3" fill="#fff"/><polygon points="312.13 0 187.93 0 45.72 0 0 63.53 187.93 63.53 357.85 63.53 312.13 0" fill="#fff"/><path d="M306.39,69.82H0v54.03c0,14.1,11.43,25.53,25.53,25.53s25.53-11.43,25.53-25.53c0,14.1,11.43,25.53,25.53,25.53s25.53-11.43,25.53-25.53c0,14.1,11.43,25.53,25.53,25.53s25.53-11.43,25.53-25.53c0,14.1,11.43,25.53,25.53,25.53s25.53-11.43,25.53-25.53c0,14.1,11.43,25.53,25.53,25.53s25.53-11.43,25.53-25.53c0,14.1,11.43,25.53,25.53,25.53s25.53-11.43,25.53-25.53c0,14.1,11.43,25.53,25.53,25.53s25.53-11.43,25.53-25.53v-54.03h-51.06Z" fill="#fff"/><path d="M228.61,300.8v-97.97c0-14.73,11.99-26.72,26.72-26.72s26.72,11.99,26.72,26.72v97.97h-53.44Z" fill="#fff"/><path d="M216.73,294.51v-91.69c0-21.32,17.28-38.6,38.6-38.6s38.6,17.28,38.6,38.6v91.69h43.05V155.27c-1.64,.26-3.33,.41-5.05,.41-10.46,0-19.73-5.1-25.53-12.91-5.8,7.82-15.07,12.91-25.53,12.91s-19.73-5.1-25.53-12.91c-5.8,7.82-15.07,12.91-25.53,12.91s-19.73-5.1-25.53-12.91c-5.8,7.82-15.07,12.91-25.53,12.91s-19.73-5.1-25.53-12.91c-5.8,7.82-15.07,12.91-25.53,12.91s-19.73-5.1-25.53-12.91c-5.8,7.82-15.07,12.91-25.53,12.91s-19.73-5.1-25.53-12.91c-5.8,7.82-15.07,12.91-25.53,12.91-1.72,0-3.4-.14-5.05-.41v139.24H216.73ZM64.62,186.73c0-5.21,4.22-9.43,9.43-9.43h95.73c5.21,0,9.43,4.22,9.43,9.43v58.33c0,5.21-4.22,9.43-9.43,9.43H74.06c-5.21,0-9.43-4.22-9.43-9.43v-58.33Z" fill="#fff"/><rect x="95.2" y="170.47" width="53.44" height="90.85" rx="1" ry="1" transform="translate(337.82 93.97) rotate(90)" fill="#fff"/><path d="M164.97,189.17H78.87c-1.31,0-2.38,1.06-2.38,2.37v48.69c0,.95,.57,1.76,1.38,2.14l88.61-52.62c-.41-.35-.93-.59-1.52-.59Z" fill="#fff"/></svg>