<?xml version="1.0" encoding="UTF-8"?><svg id="a" xmlns="http://www.w3.org/2000/svg" xmlns:xlink="http://www.w3.org/1999/xlink" viewBox="0 0 800 472"><defs><clipPath id="b"><rect x="199.37" y="72" width="279.68" height="329" fill="none"/></clipPath></defs><polygon points="673 472 0 472 0 0 800 0 673 472" fill="#006bb6"/><g clip-path="url(#b)" fill="none"><path d="m199.37,165.53c0,.1,0,.19.01.28l5.13,69.9c.84,9.66,11.92,17.85,22.43,20.12l6.66,90.05c.41,5.65,5.27,10.25,10.83,10.25h37.12c5.56,0,10.42-4.6,10.83-10.26l6.67-90.04c10.49-2.27,21.57-10.43,22.42-20.02l5.12-68.78c.05-.85.03-1.37.02-1.67,0-15.58-12.48-28.72-27.83-29.1h-71.4c-15.49.38-28,13.51-28,29.27" fill="#006bb6"/><path d="m289.61,98.62c0-14.68-11.94-26.62-26.62-26.62s-26.62,11.94-26.62,26.62,11.94,26.62,26.62,26.62,26.62-11.94,26.62-26.62" fill="#0071b8"/><path d="m230.59,252.47l-5.75-77.65m70.56,77.65l5.74-77.65m-38.13,71.12v103.38m-.02-227.95c12.53,0,22.73-10.2,22.73-22.73s-10.2-22.73-22.73-22.73-22.73,10.2-22.73,22.73,10.2,22.73,22.73,22.73Zm-59.73,44.17l5.13,69.9c.73,8.32,11.98,15.56,21.02,16.9.41.06.8.11,1.18.14l6.89,93.12c.27,3.67,3.39,6.65,6.96,6.65h37.11c3.57,0,6.69-2.99,6.96-6.65l6.89-93.13c.38-.04.78-.08,1.19-.14,9.03-1.33,20.28-8.58,21.02-16.86l5.12-68.72c.03-.57.02-.97,0-1.19,0-13.7-10.79-25.08-24.05-25.41h-71.3c-13.33.33-24.12,11.71-24.12,25.38Z" fill="none" stroke="#fff" stroke-linecap="round" stroke-linejoin="round" stroke-width="4.41"/><path d="m451.05,136.26h-71.4c-15.35.38-27.84,13.52-27.83,29.1-.01.29-.03.82.02,1.67l5.12,68.78c.85,9.59,11.93,17.75,22.42,20.02l6.66,90.04c.41,5.66,5.27,10.26,10.83,10.26h37.12c5.56,0,10.43-4.61,10.83-10.25l6.66-90.05c10.51-2.27,21.59-10.46,22.43-20.12l5.13-69.9c0-.09.01-.18.01-.28,0-15.76-12.52-28.89-28-29.27" fill="#006bb6"/><path d="m415.43,125.24c14.68,0,26.62-11.94,26.62-26.62s-11.94-26.62-26.62-26.62-26.62,11.94-26.62,26.62,11.94,26.62,26.62,26.62" fill="#0071b8"/><path d="m447.83,252.47l5.75-77.65m-70.56,77.65l-5.75-77.65m38.13,71.12v103.38m.02-227.95c-12.54,0-22.73-10.2-22.73-22.73s10.2-22.73,22.73-22.73,22.73,10.2,22.73,22.73-10.2,22.73-22.73,22.73Zm59.73,44.17l-5.13,69.9c-.72,8.32-11.98,15.56-21.02,16.9-.41.06-.8.11-1.18.14l-6.89,93.12c-.27,3.67-3.39,6.65-6.96,6.65h-37.11c-3.56,0-6.69-2.99-6.96-6.65l-6.89-93.13c-.38-.04-.78-.08-1.19-.14-9.03-1.33-20.28-8.58-21.01-16.86l-5.12-68.72c-.03-.57-.02-.97,0-1.19,0-13.7,10.79-25.08,24.05-25.41h71.31c13.33.33,24.11,11.71,24.11,25.38Z" fill="none" stroke="#fff" stroke-linecap="round" stroke-linejoin="round" stroke-width="4.41"/><path d="m320.66,397.49c-7.36,0-13.79-6.06-14.33-13.52l-6.48-87.53c-10.68-3.16-21.64-11.63-22.61-22.48l-5.12-68.83c-.06-1.1-.04-1.73-.02-2.09,0-17.4,14.01-32.03,31.25-32.45h71.49c17.41.42,31.51,15.13,31.51,32.78l-.03.63-5.12,69.8c-.95,10.96-11.91,19.47-22.62,22.64l-6.47,87.54c-.54,7.44-6.96,13.51-14.33,13.51h-37.12Z" fill="#006bb6"/><path d="m374.93,167.08h-71.49c-19.24.48-34.77,16.59-34.85,35.96-.02.44-.03,1.15.03,2.21l5.13,68.93c1.04,11.67,11.73,20.83,22.78,24.86l6.31,85.2c.69,9.4,8.52,16.76,17.83,16.76h37.12c9.17,0,17.17-7.52,17.83-16.77l6.3-85.19c11.07-4.03,21.77-13.22,22.78-24.88l5.14-69.99c.02-.17.03-.47.03-.8,0-19.54-15.63-35.81-34.85-36.29h-.09Zm-.09,7.02c15.49.38,28,13.51,28,29.27,0,.1,0,.19-.01.28l-5.13,69.9c-.84,9.66-11.92,17.85-22.43,20.12l-6.66,90.05c-.41,5.65-5.27,10.25-10.83,10.25h-37.12c-5.56,0-10.42-4.6-10.83-10.26l-6.67-90.04c-10.49-2.27-21.57-10.43-22.42-20.02l-5.12-68.78c-.04-.85-.03-1.38-.02-1.67,0-15.58,12.48-28.72,27.83-29.11h71.4Z" fill="#006bb6"/><path d="m339.22,168.23c-17.52,0-31.77-14.25-31.77-31.76s14.25-31.76,31.77-31.76,31.76,14.25,31.76,31.76-14.25,31.76-31.76,31.76" fill="#006bb6"/><path d="m339.22,99.55c-20.35,0-36.91,16.56-36.91,36.92s16.56,36.91,36.91,36.91,36.91-16.56,36.91-36.91-16.56-36.92-36.91-36.92m0,10.29c14.68,0,26.62,11.94,26.62,26.62s-11.94,26.62-26.62,26.62-26.62-11.94-26.62-26.62,11.94-26.62,26.62-26.62" fill="#006bb6"/><path d="m371.63,290.32l5.75-77.65m-70.56,77.65l-5.74-77.65m38.13,71.12v103.38m.02-227.95c-12.53,0-22.73-10.2-22.73-22.73s10.2-22.74,22.73-22.74,22.73,10.2,22.73,22.74-10.2,22.73-22.73,22.73Zm59.73,44.17l-5.13,69.9c-.72,8.32-11.98,15.56-21.02,16.9-.41.06-.8.11-1.18.14l-6.89,93.12c-.27,3.67-3.39,6.65-6.96,6.65h-37.11c-3.57,0-6.69-2.98-6.96-6.65l-6.89-93.13c-.38-.04-.78-.08-1.19-.14-9.03-1.33-20.28-8.58-21.02-16.86l-5.12-68.73c-.03-.57-.02-.96,0-1.19,0-13.7,10.79-25.08,24.05-25.41h71.3c13.33.33,24.12,11.71,24.12,25.38Zm-27.33,86.95l5.75-77.65m-70.56,77.65l-5.74-77.65m38.13,71.12v103.38m.02-227.95c-12.53,0-22.73-10.2-22.73-22.73s10.2-22.74,22.73-22.74,22.73,10.2,22.73,22.74-10.2,22.73-22.73,22.73Zm59.73,44.17l-5.13,69.9c-.72,8.32-11.98,15.56-21.02,16.9-.41.06-.8.11-1.18.14l-6.89,93.12c-.27,3.67-3.39,6.65-6.96,6.65h-37.11c-3.57,0-6.69-2.98-6.96-6.65l-6.89-93.13c-.38-.04-.78-.08-1.19-.14-9.03-1.33-20.28-8.58-21.02-16.86l-5.12-68.73c-.03-.57-.02-.96,0-1.19,0-13.7,10.79-25.08,24.05-25.41h71.3c13.33.33,24.12,11.71,24.12,25.38Z" fill="none" stroke="#fff" stroke-linecap="round" stroke-linejoin="round" stroke-width="4.41"/></g></svg>