<?xml version="1.0" encoding="UTF-8"?><svg id="a" xmlns="http://www.w3.org/2000/svg" xmlns:xlink="http://www.w3.org/1999/xlink" viewBox="0 0 800 472"><defs><clipPath id="b"><rect x="111.49" y="74.42" width="455.51" height="318.58" fill="none"/></clipPath><clipPath id="c"><rect x="111.49" y="74.42" width="455.51" height="318.58" fill="none"/></clipPath><clipPath id="d"><rect x="111.49" y="74.42" width="455.51" height="318.58" fill="none"/></clipPath><clipPath id="e"><rect x="111.49" y="74.42" width="455.51" height="318.58" fill="none"/></clipPath></defs><polygon points="673 472 0 472 0 0 800 0 673 472" fill="#006bb6"/><g clip-path="url(#b)" fill="none"><path d="m351.86,143.8h-54.13c-8.61,0-16.87-3.47-22.99-9.65l-32.28-32.63m18.85,19.24l-81.43,83.09" fill="none" stroke="#fff" stroke-linecap="round" stroke-linejoin="round" stroke-width="4.41"/></g><polyline points="115.72 202.82 148.53 236.31 270.14 112.22 237.32 78.74" fill="#006bb6"/><g clip-path="url(#c)" fill="none"><polyline points="115.72 202.82 148.53 236.31 270.14 112.22 237.32 78.74" fill="none" stroke="#fff" stroke-linecap="round" stroke-linejoin="round" stroke-width="4.41"/><path d="m140.92,179.14c0,4.29,3.41,7.77,7.61,7.77s7.61-3.48,7.61-7.77-3.41-7.77-7.61-7.77-7.61,3.48-7.61,7.77" fill="#fff"/><path d="m140.92,179.14c0,4.29,3.41,7.77,7.61,7.77s7.61-3.48,7.61-7.77-3.41-7.77-7.61-7.77-7.61,3.48-7.61,7.77Z" fill="none" stroke="#fff" stroke-miterlimit="10"/><path d="m377.45,294.56l43.35,44.24c7.5,7.65,19.65,7.65,27.14,0,7.5-7.65,7.5-20.05,0-27.7l-43.35-44.23m-54.29,55.4l37.75,38.52c7.5,7.65,19.65,7.65,27.15,0,7.49-7.65,7.49-20.05,0-27.7l-22.02-22.47m-162.53-55.06l124.67,127.21c7.49,7.65,19.65,7.65,27.14,0,7.49-7.65,7.49-20.05,0-27.7l-10.83-11.05" fill="none" stroke="#fff" stroke-linecap="round" stroke-linejoin="round" stroke-width="4.41"/><path d="m322.96,382.94c-7.49,7.65-19.65,7.65-27.14,0-7.5-7.65-7.5-20.05,0-27.7l10.82-11.05c7.49-7.65,19.65-7.65,27.14,0,7.49,7.65,7.49,20.05,0,27.7l-10.83,11.05Z" fill="#006bb6"/><path d="m322.96,382.94c-7.49,7.65-19.65,7.65-27.14,0-7.5-7.65-7.5-20.05,0-27.7l10.82-11.05c7.49-7.65,19.65-7.65,27.14,0,7.49,7.65,7.49,20.05,0,27.7l-10.83,11.05Z" fill="none" stroke="#fff" stroke-linecap="round" stroke-linejoin="round" stroke-width="4.41"/><path d="m242.27,299.1c-7.5,7.65-19.65,7.65-27.14,0-7.5-7.65-7.5-20.05,0-27.7l22.02-22.47c7.49-7.65,19.65-7.65,27.14,0,7.5,7.65,7.5,20.05,0,27.7l-22.02,22.47Z" fill="#006bb6"/><path d="m242.27,299.1c-7.5,7.65-19.65,7.65-27.14,0-7.5-7.65-7.5-20.05,0-27.7l22.02-22.47c7.49-7.65,19.65-7.65,27.14,0,7.5,7.65,7.5,20.05,0,27.7l-22.02,22.47Z" fill="none" stroke="#fff" stroke-linecap="round" stroke-linejoin="round" stroke-width="4.41"/><path d="m290.22,360.96c-7.49,7.65-19.65,7.65-27.14,0-7.5-7.65-7.5-20.05,0-27.7l22.02-22.47c7.5-7.65,19.65-7.65,27.14,0s7.5,20.05,0,27.7l-22.02,22.47Z" fill="#006bb6"/><path d="m290.22,360.96c-7.49,7.65-19.65,7.65-27.14,0-7.5-7.65-7.5-20.05,0-27.7l22.02-22.47c7.5-7.65,19.65-7.65,27.14,0s7.5,20.05,0,27.7l-22.02,22.47Z" fill="none" stroke="#fff" stroke-linecap="round" stroke-linejoin="round" stroke-width="4.41"/><path d="m257.48,338.97c-7.49,7.65-19.65,7.65-27.14,0-7.49-7.65-7.49-20.05,0-27.7l33.21-33.89c7.5-7.65,19.65-7.65,27.14,0,7.49,7.65,7.49,20.05,0,27.7l-33.21,33.89Z" fill="#006bb6"/><path d="m257.48,338.97c-7.49,7.65-19.65,7.65-27.14,0-7.49-7.65-7.49-20.05,0-27.7l33.21-33.89c7.5-7.65,19.65-7.65,27.14,0,7.49,7.65,7.49,20.05,0,27.7l-33.21,33.89Z" fill="none" stroke="#fff" stroke-linecap="round" stroke-linejoin="round" stroke-width="4.41"/><path d="m420.33,282.92l15.33,15.64c7.38,7.53,19.41,8.1,27.03.83,7.97-7.6,8.12-20.36.47-28.16l-72.13-73.6c-5.66-5.77-13.34-9-21.34-8.96l-35.3.19-15.96,16.28c-11.78,12.02-29.31,14.6-43.56,7.72-6.05-2.92-7.42-11.1-2.68-15.93l43.21-44.09c5.68-5.79,13.37-9.04,21.4-9.04h43.84c8.61,0,16.87-3.47,22.99-9.65l32.28-32.63m-19.19,19.24l87.76,89.56m-51.49,50.53l50.5-51.54" fill="none" stroke="#fff" stroke-linecap="round" stroke-linejoin="round" stroke-width="4.41"/><path d="m422.16,173.66c6.99,7.13,11.31,16.98,11.31,27.86s-4.32,20.73-11.31,27.86" fill="#006bb6"/><path d="m422.16,173.66c6.99,7.13,11.31,16.98,11.31,27.86s-4.32,20.73-11.31,27.86" fill="none" stroke="#fff" stroke-linecap="round" stroke-linejoin="round" stroke-width="4.41"/></g><polyline points="562.76 202.82 529.95 236.31 408.35 112.22 441.16 78.74" fill="#006bb6"/><g clip-path="url(#d)" fill="none"><polyline points="562.76 202.82 529.95 236.31 408.35 112.22 441.16 78.74" fill="none" stroke="#fff" stroke-linecap="round" stroke-linejoin="round" stroke-width="4.41"/></g><line x1="225.5" y1="260.84" x2="175" y2="209.31" fill="none" stroke="#fff" stroke-linecap="round" stroke-linejoin="round" stroke-width="4.41"/><g clip-path="url(#e)" fill="none"><path d="m537.57,179.14c0,4.29-3.41,7.77-7.61,7.77s-7.61-3.48-7.61-7.77,3.41-7.77,7.61-7.77,7.61,3.48,7.61,7.77" fill="#fff"/><path d="m537.57,179.14c0,4.29-3.41,7.77-7.61,7.77s-7.61-3.48-7.61-7.77,3.41-7.77,7.61-7.77,7.61,3.48,7.61,7.77Z" fill="none" stroke="#fff" stroke-miterlimit="10"/><path d="m225.48,205.14c-6.99,7.13-11.31,16.98-11.31,27.86s4.32,20.73,11.31,27.87" fill="#006bb6"/><path d="m225.48,205.14c-6.99,7.13-11.31,16.98-11.31,27.86s4.32,20.73,11.31,27.87" fill="none" stroke="#fff" stroke-linecap="round" stroke-linejoin="round" stroke-width="4.41"/></g></svg>