<?xml version="1.0" encoding="UTF-8"?><svg id="a" xmlns="http://www.w3.org/2000/svg" viewBox="0 0 315.19 315.19"><rect x="94.69" y="234.77" width="125.81" height="20.75" fill="#414042"/><g><path d="M176.52,179.66v-6.87s5.41,.17,12.1-.98c6.69-1.14,14.67-3.6,19.81-8.84,0,0-3.73-1.05-7.13-5.51-3.4-4.46-6.46-12.32-5.12-25.94,1.34-13.6,.5-26.37-3.4-35.48-3.91-9.12-10.88-14.59-21.82-13.58,0,0-2.37-2.86-7.1-4.81-4.73-1.96-11.81-3.01-21.24,.59-3.23,1.24-9.19,3.41-14.24,9.98-5.04,6.57-9.17,17.55-8.74,36.41,.43,18.84-2.91,28.32-6.37,33.09-3.46,4.77-7.02,4.83-7.02,4.83,0,0,1.84,2.68,6.81,5.33,4.96,2.65,13.05,5.27,25.55,5.15v7.03l9.5,27.73,9.5,27.73,9.48-27.68,9.48-27.68-.02-.25-.02-.25Z" fill="#414042"/><path d="M227.53,236.33l-1.91-10.55-1.91-10.55c-.62-3.42-2.03-6.59-4.07-9.29-2.04-2.7-4.7-4.94-7.82-6.48l-11.96-5.89-11.96-5.89c-.69-.34-1.37-.7-2.04-1.06s-1.34-.74-2.01-1.11l3.77,11.12,3.77,11.12-5.28-.4-5.28-.4-11.62,14.3-11.62,14.3-11.62-14.3-11.62-14.3-5.28,.4-5.28,.4,3.85-11.12,3.85-11.12-2.39,1.22-2.39,1.22-11.67,5.76-11.67,5.76c-3.12,1.54-5.78,3.78-7.82,6.48-2.04,2.7-3.45,5.88-4.07,9.29l-1.91,10.55-1.91,10.55c-.13,.77,.09,1.52,.55,2.07,.46,.55,1.14,.91,1.93,.91H224.98c.82,0,1.52-.36,1.99-.91s.69-1.3,.56-2.07Z" fill="#414042"/></g><path d="M300.64,159.82l14.55-4.86-1.33-10.8-14.17-1.85-.93-8.1,13.45-7.37-3.24-10.39-14.27,.71-2.37-7.81,11.92-9.66-5.04-9.64-13.91,3.24-3.72-7.26,10-11.63-6.68-8.58-13.11,5.67-4.96-6.48,7.76-13.23-8.11-7.25-11.89,7.92-6.04-5.49,5.27-14.4-9.28-5.69-10.28,9.92-6.92-4.32,2.62-15.11-10.14-3.94-8.34,11.59-7.58-3.02-.12-15.33-10.68-2.07-6.14,12.9-8-1.62-2.86-15.07-10.88-.13-3.74,13.78-8.16-.16-5.51-14.31-10.73,1.82-1.22,14.23-8.06,1.3-7.97-13.1-10.23,3.7,1.35,14.22-7.69,2.71-10.19-11.47-9.41,5.47,3.86,13.75-7.09,4.04-12.07-9.46-8.28,7.06,6.26,12.84-6.25,5.24-13.57-7.16-6.88,8.42,8.45,11.52-5.21,6.27-14.63-4.62-5.27,9.52,10.37,9.82-4.01,7.1-15.22-1.94-3.48,10.31,11.96,7.81-2.68,7.71-15.32,.81-1.59,10.76,13.16,5.55-1.26,8.06-14.93,3.53,.36,10.87,13.94,3.11,.2,8.15L.45,174.13l2.3,10.63,14.28,.58,1.66,7.99-12.73,8.55,4.16,10.05,14.15-1.98,3.06,7.56-11,10.69,5.89,9.15,13.57-4.48,4.36,6.9-8.92,12.48,7.43,7.95,12.55-6.83,5.52,6.01-6.54,13.87,8.73,6.5,11.13-8.95,6.5,4.92-3.96,14.81,9.75,4.83,9.35-10.8,7.28,3.69-1.25,15.28,10.45,3.02,7.27-12.29,7.82,2.33,1.5,15.26,10.83,1.1,4.96-13.39,8.11,.89,4.2,14.75,10.85-.85,2.49-14.06,8.14-.57,6.77,13.76,10.52-2.77-.06-14.28,7.91-2.01,9.12,12.33,9.86-4.61-2.62-14.04,7.42-3.39,11.17,10.51,8.88-6.29-5.08-13.35,6.69-4.66,12.87,8.34,7.61-7.77-7.38-12.23,5.75-5.78,14.15,5.91,6.1-9.01-9.45-10.71,4.63-6.72,14.98,3.29,4.39-9.95-11.21-8.85,3.35-7.44,15.33,.56,2.54-10.58-12.61-6.71,1.97-7.91,15.18-2.18,.62-10.86-13.61-4.35,.53-8.14Zm-143.05,86.26c-48.87,0-88.49-39.62-88.49-88.49s39.62-88.49,88.49-88.49,88.49,39.62,88.49,88.49-39.62,88.49-88.49,88.49Z" fill="#006bb6" fill-rule="evenodd"/><g><path d="M88.09,240.42c1.61-1.65,3.21-2.8,4.81-3.45,1.6-.65,3.23-.81,4.9-.48,1.67,.33,3.45,1.13,5.35,2.4s3.31,2.62,4.25,4.04c.94,1.42,1.41,3,1.42,4.72,0,1.72-.45,3.64-1.37,5.75s-2.27,4.5-4.06,7.17c-1.79,2.66-3.49,4.82-5.1,6.47-1.61,1.65-3.21,2.79-4.81,3.44s-3.22,.79-4.86,.42-3.41-1.19-5.31-2.46c-1.89-1.27-3.32-2.59-4.29-3.98-.97-1.38-1.45-2.93-1.45-4.66,0-1.72,.45-3.64,1.37-5.75,.91-2.11,2.27-4.5,4.05-7.16,1.79-2.67,3.49-4.82,5.1-6.47Zm-.55,16.45c-.8,1.3-1.36,2.39-1.68,3.25-.33,.86-.42,1.55-.29,2.07s.48,.96,1.04,1.34,1.1,.53,1.63,.46c.53-.07,1.13-.42,1.81-1.05s1.46-1.56,2.36-2.79c.91-1.23,2-2.8,3.29-4.72,1.29-1.92,2.33-3.53,3.13-4.83,.8-1.3,1.36-2.39,1.68-3.24,.33-.86,.42-1.55,.29-2.07s-.48-.97-1.04-1.34c-.56-.37-1.1-.53-1.63-.46s-1.13,.42-1.81,1.05c-.67,.63-1.46,1.56-2.36,2.79-.91,1.23-2,2.8-3.29,4.72s-2.33,3.53-3.13,4.83Z" fill="#fff"/><path d="M134.85,253.55l-3.03,23.85,.09,.03,8.73-22.26,8.34,2.33-14.92,31.53-9.46-2.65,3.35-23.06-.09-.03-9.11,21.45-9.46-2.65,3.61-34.69,8.35,2.33-3.81,23.64,.09,.03,9.52-22.04,7.79,2.18Z" fill="#fff"/><path d="M160.55,256.07l6.84,20.87h.09s-1.07-21.17-1.07-21.17l8.37-.42,1.74,34.34-9.81,.5-7.04-20.9h-.09s1.07,21.21,1.07,21.21l-8.37,.42-1.74-34.34,10-.51Z" fill="#fff"/><path d="M198.24,247.96l2.28,6.95-10.85,3.56,1.83,5.58,10.16-3.33,2.19,6.68-10.16,3.33,2.13,6.5,11.26-3.69,2.28,6.96-19.76,6.49-10.72-32.67,19.35-6.35Z" fill="#fff"/><path d="M212.47,239.4c2.18-1.42,4.13-2.13,5.86-2.13,1.73,0,3.33,.47,4.8,1.41s2.85,2.22,4.11,3.87c1.27,1.65,2.52,3.41,3.75,5.29,1.23,1.88,2.34,3.73,3.34,5.55,1,1.82,1.63,3.6,1.89,5.32,.27,1.73,.06,3.38-.64,4.96-.69,1.58-2.12,3.09-4.3,4.51l-10.88,7.11-18.82-28.77,10.88-7.12Zm13.39,24.61c.73-.47,1.24-.95,1.53-1.43s.35-1.12,.16-1.92c-.2-.8-.65-1.8-1.35-3.03s-1.69-2.81-2.95-4.74c-1.27-1.94-2.32-3.47-3.16-4.61-.84-1.14-1.59-1.96-2.24-2.45-.65-.49-1.26-.7-1.82-.62-.56,.08-1.21,.35-1.93,.83l-1.49,.97,11.76,17.98,1.49-.98Z" fill="#fff"/></g><g><path d="M83.91,49.42l16.85,17.16,.08-.06-12.06-20.65,7-5.1,15.49,31.25-7.94,5.78-16.02-16.93-.08,.06,11.19,20.44-7.94,5.78-24.99-24.33,7.01-5.1,16.19,17.64,.08-.06-11.39-21.13,6.54-4.76Z" fill="#fff"/><path d="M111.97,43.99c-.24-2.29-.09-4.26,.43-5.9,.52-1.64,1.44-3,2.77-4.08,1.32-1.08,3.08-1.93,5.26-2.58,2.19-.64,4.13-.87,5.82-.68,1.69,.19,3.21,.83,4.53,1.93,1.33,1.1,2.51,2.67,3.55,4.73,1.04,2.05,2.01,4.62,2.92,7.7s1.48,5.76,1.71,8.05c.24,2.29,.1,4.25-.42,5.9-.52,1.64-1.45,2.98-2.79,4.01-1.33,1.03-3.1,1.87-5.28,2.51-2.19,.64-4.12,.9-5.8,.75s-3.18-.76-4.51-1.86c-1.33-1.1-2.51-2.68-3.55-4.73-1.04-2.05-2.01-4.62-2.92-7.7-.91-3.08-1.48-5.76-1.72-8.05Zm12.3,10.94c.49,1.44,.97,2.57,1.42,3.37,.45,.8,.92,1.32,1.41,1.54,.49,.23,1.05,.24,1.7,.05s1.11-.51,1.4-.96c.29-.45,.4-1.14,.35-2.06-.06-.92-.27-2.12-.64-3.6-.37-1.48-.88-3.33-1.53-5.55-.65-2.22-1.22-4.05-1.71-5.49s-.97-2.57-1.42-3.37-.92-1.32-1.41-1.54c-.49-.23-1.05-.24-1.7-.05-.65,.19-1.12,.51-1.4,.96-.29,.45-.4,1.14-.35,2.06,.06,.92,.27,2.12,.63,3.6,.37,1.48,.88,3.33,1.53,5.55,.65,2.22,1.22,4.05,1.71,5.49Z" fill="#fff"/><path d="M160.62,26.77l2.57,20.53h.1s4.64-20.16,4.64-20.16l12.79,.65-1.74,34.34-8.37-.42,1.3-25.59h-.1s-6.06,25.34-6.06,25.34l-6.44-.32-3.47-25.83h-.09s-1.3,25.58-1.3,25.58l-8.37-.43,1.74-34.34,12.8,.65Z" fill="#fff"/><path d="M212.43,38.68l-5.31,34.99-8.82-3.62,1.44-5.92-6.6-2.7-3.13,5.22-8.69-3.57,20.67-28.68,10.43,4.28Zm-7.93,4.35l-7.81,12.57,4.63,1.9,3.27-14.43-.09-.04Z" fill="#fff"/><path d="M239.16,55.32l-9.03,20.02,.08,.06,13.48-16.34,6.46,5.33-21.88,26.52-7.58-6.25,8.91-20.18-.07-.06-13.52,16.38-6.46-5.33,21.88-26.52,7.72,6.37Z" fill="#fff"/></g><path d="M254.97,88.85c14.09,19.54,22.39,43.54,22.39,69.48,0,30.22-11.27,57.8-29.84,78.78" fill="none" stroke="#fff" stroke-miterlimit="10" stroke-width="5"/><path d="M59.8,88.85c-14.09,19.54-22.39,43.54-22.39,69.48,0,30.22,11.27,57.8,29.84,78.78" fill="none" stroke="#fff" stroke-miterlimit="10" stroke-width="5"/></svg>